<svg width="423" height="610" viewBox="0 0 423 610" fill="none" xmlns="http://www.w3.org/2000/svg">
<g clip-path="url(#clip0_48_593)">
<path d="M269.028 596.99L260.57 596.021L275.964 451.001L284.421 451.982L269.028 596.99Z" fill="#D07F69"/>
<path d="M372.026 596.99L380.471 596.021L365.078 451.001L356.633 451.982L372.026 596.99Z" fill="#D07F69"/>
<path d="M367.373 494.601H273.669V498.88H367.373V494.601Z" fill="#D07F69"/>
<path d="M375.602 459.733H265.44C261.103 459.733 257.578 456.538 257.578 452.581C257.578 448.625 261.09 445.43 265.44 445.43H375.602C379.939 445.43 383.464 448.625 383.464 452.581C383.464 456.538 379.951 459.733 375.602 459.733Z" fill="#4D5DB5"/>
<path d="M352.74 82.9101V189.186C352.74 189.717 353.653 189.717 353.653 189.186V82.9101C353.653 82.3796 352.74 82.3796 352.74 82.9101Z" fill="#5C4CA0"/>
<path d="M353.197 191.032C355.543 191.032 357.445 189.302 357.445 187.168C357.445 185.034 355.543 183.304 353.197 183.304C350.851 183.304 348.949 185.034 348.949 187.168C348.949 189.302 350.851 191.032 353.197 191.032Z" fill="#5C4CA0"/>
<path d="M47.9424 69V378.244H375.057V69H47.9424ZM370.163 230.029H200.418V73.9597H370.163V230.029ZM195.511 73.9597V230.029H52.8368V73.9597H195.511ZM52.8368 234.989H195.511V373.272H52.8368V234.989ZM200.405 373.272V234.989H370.15V373.272H200.405Z" fill="#FF916C"/>
<path d="M423 373.203H0V386.721H423V373.203Z" fill="white"/>
<path d="M80.7951 328.751C77.4477 318.427 69.0663 310.18 60.9512 302.349C73.3394 303.664 84.7005 311.242 89.8105 321.588C89.8613 311.634 94.6796 301.772 102.769 295.059C99.7135 303.087 98.2426 311.622 98.4835 320.111C104.988 311.138 115.449 304.609 127.001 302.337C115.449 311.784 106.396 323.733 100.779 336.905C93.8934 338.22 86.8181 338.67 79.8061 338.22L80.7951 328.751V328.751Z" fill="#4D5DB5"/>
<path d="M100.411 318.52C99.6375 318.324 99.2318 317.366 99.6756 316.755C100.132 316.132 101.248 316.167 101.755 316.732C101.996 316.997 102.529 316.709 102.389 316.397C102.174 315.89 102.034 315.348 102.059 314.806C102.085 314.379 102.288 313.883 102.655 313.675C102.833 313.571 102.96 313.537 103.188 313.502C103.137 313.502 103.277 313.502 103.289 313.502C103.34 313.502 103.391 313.502 103.454 313.502C103.568 313.502 103.556 313.502 103.682 313.537C103.72 313.537 103.771 313.56 103.809 313.572C103.936 313.618 103.974 313.641 104.025 313.675C104.177 313.802 104.164 313.779 104.228 313.883C104.266 313.998 104.278 314.044 104.291 314.091C104.532 314.033 104.786 313.964 105.026 313.906C104.811 313.433 104.697 312.914 104.76 312.395C104.786 312.164 104.862 311.934 104.988 311.726C105.103 311.541 105.255 311.38 105.42 311.288C105.737 311.103 106.142 311.069 106.497 311.161C106.865 311.253 107.093 311.426 107.144 311.772C107.385 311.714 107.639 311.645 107.879 311.588C107.689 310.723 107.613 309.661 108.222 308.9C108.349 308.75 108.463 308.635 108.628 308.554C108.78 308.473 108.907 308.439 109.109 308.404C109.236 308.393 109.287 308.393 109.338 308.381C109.426 308.381 109.566 308.381 109.617 308.381C109.655 308.381 109.794 308.416 109.858 308.427C109.896 308.427 109.934 308.45 109.972 308.462C110.048 308.485 109.997 308.462 110.06 308.496C110.136 308.531 110.263 308.6 110.289 308.623C110.289 308.623 110.352 308.681 110.377 308.693C110.555 308.912 110.58 308.981 110.58 309.165C110.821 309.108 111.049 309.05 111.29 308.992C110.897 308.15 110.91 307.032 111.544 306.282C111.696 306.109 111.874 305.959 112.089 305.844C112.191 305.786 112.216 305.786 112.33 305.751C112.419 305.728 112.584 305.694 112.622 305.682C113.066 305.636 113.471 305.705 113.839 305.89C113.94 305.947 114.042 306.005 114.105 306.051C114.156 306.086 114.194 306.132 114.232 306.167C114.27 306.201 114.308 306.247 114.308 306.247C114.372 306.34 114.435 306.432 114.448 306.489C114.486 306.605 114.511 306.697 114.511 306.789L115.259 306.697C114.904 305.936 114.891 304.955 115.475 304.263C115.614 304.102 115.792 303.963 115.995 303.86C116.134 303.79 116.362 303.733 116.514 303.733C116.92 303.71 117.288 303.814 117.63 304.033C117.782 304.125 117.922 304.275 118.011 304.425C118.099 304.575 118.137 304.736 118.112 304.944H118.873C118.835 304.113 119.139 302.96 120.128 302.672C120.331 302.614 120.509 302.614 120.711 302.672C120.914 302.718 121.117 302.822 121.269 302.948C121.434 303.075 121.548 303.225 121.599 303.387C121.65 303.548 121.637 303.664 121.548 303.825L122.246 304.09C122.474 303.306 122.728 302.429 123.4 301.864C123.691 301.622 123.983 301.495 124.338 301.495C124.668 301.495 124.985 301.587 125.264 301.772C125.365 301.841 125.466 301.945 125.542 302.083C125.517 302.037 125.568 302.141 125.568 302.164C125.593 302.337 125.581 302.372 125.568 302.453L126.316 302.545C126.291 302.36 126.316 302.28 126.417 302.141C126.417 302.141 126.532 302.037 126.557 302.014C126.608 301.98 126.722 301.91 126.81 301.887C127.102 301.772 127.47 301.784 127.711 302.014C127.99 302.268 128.028 302.672 127.926 303.006C127.812 303.41 127.495 303.71 127.064 303.848C126.519 304.021 125.898 303.975 125.378 303.744C125.187 303.664 124.959 303.698 124.858 303.871C124.756 304.033 124.807 304.252 124.997 304.344C125.581 304.632 125.771 305.417 125.365 305.878C124.947 306.351 123.996 306.328 123.602 305.832C123.311 305.463 122.753 305.774 122.943 306.178C123.209 306.743 122.943 307.435 122.499 307.885C122.017 308.37 121.32 308.646 120.635 308.473C120.356 308.393 120.09 308.646 120.166 308.9C120.369 309.615 120.001 310.342 119.393 310.838C118.771 311.334 117.947 311.553 117.174 311.276C116.844 311.161 116.591 311.541 116.743 311.784C117.136 312.407 117.098 313.225 116.616 313.802C116.172 314.333 115.386 314.621 114.663 314.494C114.397 314.448 114.08 314.656 114.194 314.921C114.701 316.201 113.433 317.735 111.924 317.643C111.493 317.608 111.404 318.243 111.823 318.324C112.038 318.37 112.178 318.485 112.241 318.693C112.317 318.912 112.305 319.143 112.216 319.35C111.95 319.915 111.151 320.181 110.555 320.388C110.314 320.469 110.2 320.688 110.327 320.896C110.986 322.026 109.718 323.733 108.298 323.549C108.108 323.526 107.917 323.572 107.841 323.745C107.778 323.883 107.816 324.114 107.994 324.183C108.247 324.275 108.349 324.414 108.399 324.656C108.45 324.863 108.399 325.129 108.285 325.336C107.93 325.925 107.068 326.132 106.421 326.305C106.117 326.386 106.079 326.686 106.256 326.882C106.371 327.02 106.421 327.205 106.421 327.389C106.421 327.574 106.345 327.782 106.244 327.966C106.13 328.139 105.99 328.289 105.813 328.393C105.597 328.52 105.432 328.543 105.179 328.52C104.9 328.485 104.697 328.843 104.849 329.039C105.052 329.304 105.065 329.673 104.798 329.904C104.532 330.135 104.126 330.123 103.847 329.939C103.682 329.835 103.416 329.915 103.327 330.065C103.213 330.238 103.289 330.435 103.467 330.538C104.025 330.896 104.862 330.827 105.343 330.388C105.825 329.95 105.901 329.189 105.508 328.681C105.394 328.854 105.293 329.027 105.179 329.2C105.914 329.281 106.586 328.831 106.928 328.266C107.296 327.655 107.284 326.94 106.814 326.374L106.65 326.951C107.537 326.709 108.615 326.386 109.033 325.544C109.363 324.875 109.249 323.883 108.412 323.56L108.12 324.194C109.173 324.333 110.124 323.86 110.732 323.099C111.316 322.349 111.481 321.346 111.011 320.527L110.783 321.034C111.658 320.734 112.685 320.342 113.002 319.454C113.256 318.75 112.926 317.793 112.051 317.62C112.013 317.851 111.988 318.07 111.95 318.3C113.928 318.439 115.627 316.397 114.955 314.702C114.803 314.84 114.638 314.99 114.486 315.129C115.538 315.302 116.629 314.933 117.275 314.148C117.922 313.364 117.973 312.234 117.44 311.38C117.301 311.553 117.148 311.726 117.009 311.887C119.088 312.626 121.498 310.584 120.94 308.658C120.788 308.796 120.623 308.946 120.471 309.085C121.434 309.338 122.461 308.958 123.108 308.289C123.78 307.585 124.059 306.639 123.641 305.763C123.425 305.878 123.197 305.994 122.981 306.109C123.514 306.789 124.515 307.009 125.352 306.674C126.189 306.34 126.532 305.463 126.291 304.69C126.151 304.263 125.847 303.883 125.416 303.664C125.289 303.86 125.162 304.067 125.035 304.263C125.707 304.552 126.481 304.656 127.204 304.459C127.901 304.275 128.446 303.825 128.674 303.202C128.89 302.637 128.789 301.98 128.37 301.507C127.977 301.057 127.305 300.93 126.709 301.103C126.075 301.288 125.504 301.818 125.593 302.453C125.619 302.626 125.72 302.775 125.923 302.799C126.113 302.822 126.291 302.718 126.341 302.545C126.595 301.622 125.72 300.895 124.782 300.745C124.287 300.665 123.767 300.722 123.336 300.976C122.842 301.253 122.461 301.68 122.195 302.153C121.891 302.683 121.713 303.248 121.548 303.825C121.434 304.206 122.03 304.448 122.246 304.09C122.804 303.191 121.979 302.222 121.028 301.945C119.938 301.622 118.911 302.337 118.492 303.214C118.239 303.733 118.125 304.31 118.15 304.875C118.163 305.325 118.86 305.313 118.911 304.875C119.038 303.79 117.858 303.029 116.781 302.96C115.513 302.879 114.549 303.848 114.346 304.921C114.219 305.555 114.283 306.213 114.562 306.801C114.638 306.962 114.777 307.078 114.98 307.055C115.158 307.032 115.323 306.893 115.31 306.709C115.246 305.578 114.042 304.875 112.888 304.886C111.506 304.886 110.542 305.936 110.352 307.124C110.238 307.851 110.352 308.577 110.669 309.246C110.732 309.385 110.948 309.442 111.1 309.408C111.265 309.361 111.379 309.223 111.379 309.073C111.392 308.093 110.314 307.539 109.338 307.574C108.818 307.597 108.311 307.758 107.943 308.081C107.486 308.485 107.207 309.05 107.106 309.615C106.979 310.296 107.043 310.976 107.195 311.657C107.233 311.841 107.474 311.945 107.664 311.899C107.879 311.841 107.968 311.657 107.93 311.472C107.778 310.63 106.764 310.227 105.914 310.319C105.445 310.365 105.001 310.538 104.684 310.861C104.291 311.253 104.101 311.749 104.05 312.268C103.987 312.833 104.114 313.433 104.354 313.964C104.545 314.379 105.166 314.217 105.09 313.779C104.963 312.926 103.923 312.591 103.086 312.706C102.668 312.764 102.25 312.937 101.971 313.237C101.578 313.641 101.4 314.171 101.362 314.69C101.324 315.29 101.489 315.901 101.717 316.467C101.933 316.351 102.148 316.236 102.351 316.132C101.73 315.429 100.525 315.313 99.6883 315.763C98.7627 316.247 98.5724 317.297 99.0289 318.127C99.2698 318.589 99.7263 318.946 100.272 319.073C100.753 319.189 100.956 318.52 100.474 318.404L100.411 318.52Z" fill="#144162"/>
<path d="M90.1787 320.169C89.2911 320.111 88.2134 319.673 88.2387 318.727C88.2387 318.381 88.4543 318.104 88.7713 318.024C88.9361 317.978 89.0756 317.978 89.2277 318.012C89.3799 318.047 89.4686 318.104 89.5574 318.231L90.1534 317.805C89.6715 317.355 89.0249 316.801 88.9868 316.121C88.9868 315.867 89.0756 315.613 89.2531 315.429C89.3292 315.336 89.456 315.256 89.5447 315.209C89.6842 315.152 89.773 315.152 89.8998 315.186C90.3055 315.279 90.5845 314.736 90.1914 314.552C89.4179 314.183 88.543 313.329 88.8981 312.464C89.0122 312.187 89.3165 311.934 89.6081 311.83C89.7983 311.761 89.9378 311.738 90.1407 311.749C90.2421 311.749 90.4196 311.818 90.5211 311.911C90.8381 312.176 91.3326 311.841 91.117 311.484C90.8634 311.057 90.6225 310.619 90.483 310.157C90.3689 309.777 90.3182 309.315 90.5211 308.969C90.6732 308.704 90.9268 308.485 91.2185 308.381C91.4847 308.289 91.7637 308.277 91.9666 308.427C92.2836 308.669 92.7908 308.37 92.5625 308C92.106 307.239 91.4974 306.097 92.068 305.278C92.2455 305.013 92.5625 304.806 92.8669 304.725C93.1839 304.633 93.4755 304.656 93.7037 304.863C93.8432 304.979 94.0588 305.002 94.2109 304.886C94.3504 304.794 94.4265 304.575 94.3123 304.436C93.8432 303.883 93.3614 303.018 93.7544 302.337C93.8939 302.095 94.1348 301.899 94.4011 301.807C94.6927 301.703 94.9464 301.703 95.2126 301.864L95.593 301.265C94.9971 300.93 94.8449 300.065 95.3014 299.592C95.8086 299.073 96.7723 299.154 97.2287 299.684C97.4062 299.523 97.5838 299.361 97.774 299.188C97.4062 298.819 97.1273 298.358 97.0639 297.862C97.0258 297.631 97.0512 297.389 97.14 297.17C97.178 297.066 97.2414 296.962 97.3048 296.87C97.2794 296.905 97.3682 296.812 97.3682 296.801C97.5837 296.628 97.7359 296.57 97.9261 296.535C98.0402 296.512 98.0149 296.512 98.1417 296.512C98.1924 296.512 98.2431 296.512 98.3065 296.512C98.3192 296.512 98.4713 296.524 98.3953 296.512C98.6108 296.547 98.6996 296.57 98.8644 296.685C99.0419 296.882 99.0419 296.882 99.0673 297.008C99.1687 297.377 99.8534 297.308 99.8154 296.916C99.7647 296.351 99.79 295.751 100.107 295.244C100.361 294.84 100.817 294.552 101.324 294.552C101.438 294.552 101.54 294.563 101.641 294.598C101.743 294.632 101.844 294.69 101.882 294.725C101.946 294.782 101.984 294.817 102.034 294.921C102.009 294.875 102.06 294.99 102.06 295.013C102.06 295.025 102.085 295.151 102.085 295.105C102.11 295.29 102.085 295.44 102.009 295.555C102.009 295.567 101.92 295.67 101.958 295.624C101.933 295.659 101.895 295.694 101.857 295.717C101.908 295.682 101.793 295.751 101.781 295.751C101.832 295.728 101.705 295.763 101.692 295.774L101.984 296.409C102.313 296.201 102.846 295.855 103.226 296.051C103.455 296.166 103.543 296.455 103.543 296.72C103.543 297.031 103.328 297.308 103.049 297.539C102.694 297.816 102.25 298 101.832 298.185C101.553 298.3 101.616 298.646 101.832 298.785C102.301 299.085 102.288 299.765 102.034 300.192C101.667 300.826 100.893 301.184 100.221 301.518L100.69 302.06C100.779 301.991 100.893 301.968 100.982 301.98C101.147 302.003 101.286 302.072 101.4 302.176C101.692 302.429 101.679 302.822 101.489 303.168C101.248 303.606 100.842 303.929 100.437 304.24C99.9929 304.575 99.5618 304.898 99.2321 305.336C99.0293 305.601 99.3589 305.913 99.6632 305.844C99.7647 305.821 99.8915 305.832 99.9929 305.878C100.12 305.936 100.221 306.028 100.297 306.144C100.475 306.386 100.551 306.697 100.475 306.962C100.259 307.712 99.3463 308.139 98.6616 308.473C98.3192 308.646 98.484 309.119 98.8518 309.119C99.118 309.119 99.3589 309.269 99.5111 309.5C99.6886 309.754 99.7647 310.065 99.714 310.365C99.5872 311.138 98.763 311.726 98.1417 312.21C97.9261 312.372 98.0402 312.741 98.3065 312.787C98.763 312.868 99.2322 312.949 99.6886 313.029C99.6125 312.856 99.5364 312.683 99.4604 312.522C98.9912 313.352 98.3953 314.091 97.6598 314.725C97.4189 314.933 97.5964 315.325 97.9261 315.313C98.3572 315.302 98.7757 315.29 99.2068 315.267C99.08 315.117 98.9659 314.979 98.8391 314.829C98.7503 315.371 98.5348 315.878 98.1417 316.294C97.9642 316.49 98.0149 316.801 98.3065 316.87C98.408 316.893 98.4713 316.963 98.5094 317.055C98.5601 317.193 98.5601 317.32 98.5094 317.459C98.3699 317.793 97.9134 318.024 97.5838 318.208C97.1653 318.439 97.5457 319.039 97.9641 318.808C98.5094 318.508 99.1561 318.128 99.2829 317.516C99.397 316.974 99.1434 316.351 98.5094 316.19L98.6742 316.766C99.1434 316.259 99.4731 315.648 99.5745 314.99C99.6126 314.783 99.4857 314.54 99.2068 314.552C98.7757 314.563 98.3572 314.575 97.9261 314.598L98.1924 315.186C98.9785 314.506 99.6252 313.71 100.12 312.833C100.221 312.649 100.145 312.372 99.8915 312.326C99.435 312.245 98.9658 312.164 98.5094 312.084L98.6742 312.66C99.4984 312.037 100.437 311.276 100.487 310.227C100.525 309.362 99.8788 308.416 98.8518 308.404L99.0419 309.05C99.9929 308.589 101.147 307.943 101.261 306.87C101.362 305.959 100.538 304.932 99.4604 305.152C99.5998 305.325 99.752 305.498 99.8915 305.659C100.272 305.163 100.842 304.829 101.337 304.425C101.832 304.021 102.275 303.491 102.364 302.879C102.453 302.314 102.199 301.795 101.679 301.484C101.197 301.195 100.564 301.184 100.145 301.553C99.8154 301.83 100.234 302.28 100.614 302.095C101.464 301.68 102.402 301.184 102.795 300.33C103.138 299.581 102.998 298.635 102.225 298.162V298.762C103.226 298.335 104.418 297.689 104.317 296.535C104.279 296.086 104.038 295.613 103.569 295.394C102.884 295.082 102.187 295.417 101.616 295.774C101.261 296.005 101.476 296.489 101.908 296.409C102.96 296.213 103.15 294.863 102.478 294.229C102.072 293.836 101.413 293.756 100.868 293.883C100.272 294.021 99.752 294.39 99.4604 294.886C99.0926 295.497 99.0293 296.213 99.08 296.882L99.8281 296.789C99.5998 295.947 98.5474 295.647 97.7106 295.843C96.6201 296.097 96.1763 297.101 96.3411 298.058C96.4552 298.658 96.7976 299.211 97.2414 299.661C97.3809 299.8 97.6472 299.788 97.7866 299.661C97.9515 299.511 97.9134 299.315 97.7866 299.165C97.2161 298.508 96.1509 298.369 95.3394 298.704C94.4899 299.061 94.1475 299.95 94.3631 300.745C94.4899 301.195 94.7942 301.599 95.2253 301.841C95.6437 302.083 96.0115 301.484 95.6057 301.241C94.7688 300.734 93.6403 301.172 93.1585 301.899C92.5372 302.822 93.0063 303.998 93.6657 304.782C93.8686 304.644 94.0715 304.506 94.2617 304.356C93.4248 303.617 92.1187 304.044 91.4974 304.817C90.6352 305.878 91.2946 307.332 91.9159 308.347L92.5118 307.92C91.6623 307.274 90.4704 307.712 89.9251 308.485C89.1897 309.535 89.8871 310.849 90.4577 311.818C90.6606 311.68 90.8635 311.541 91.0537 311.392C90.3436 310.803 89.2911 310.999 88.6444 311.565C87.8837 312.222 87.9217 313.249 88.4543 314.021C88.7839 314.494 89.2531 314.875 89.7983 315.129C89.8998 314.921 89.9885 314.702 90.09 314.494C89.1009 314.264 88.3021 315.094 88.2133 315.913C88.0992 316.859 88.9234 317.655 89.5954 318.277C89.8998 318.554 90.4196 318.197 90.1914 317.851C89.6969 317.101 88.4289 317.089 87.833 317.747C87.4779 318.128 87.4018 318.635 87.5033 319.119C87.6047 319.604 87.9344 320.019 88.3655 320.308C88.8854 320.654 89.5321 320.803 90.166 320.85C90.3689 320.861 90.5464 320.677 90.5464 320.504C90.5464 320.307 90.3689 320.169 90.166 320.158L90.1787 320.169Z" fill="#144162"/>
<path d="M81.2521 329.096C80.6815 329.431 79.8192 329.35 79.3881 328.831C78.9697 328.312 79.0965 327.551 79.6037 327.136C79.8193 326.963 79.7051 326.605 79.4389 326.559C78.6654 326.409 77.8919 325.844 77.8285 325.083C77.7651 324.414 78.4498 323.618 79.2486 323.756C79.2233 323.548 79.1853 323.329 79.1599 323.122C78.4625 323.468 77.5242 323.318 76.9916 322.787C76.4464 322.257 76.4084 321.311 76.9029 320.746C77.0677 320.55 77.0424 320.227 76.738 320.169C75.8758 319.984 74.76 319.777 74.2274 319.073C74.0119 318.796 73.9231 318.473 73.9358 318.139C73.9485 317.851 74.0879 317.574 74.3796 317.424C74.7726 317.216 74.4937 316.72 74.088 316.789C73.4286 316.893 72.7185 316.547 72.4395 316.017C72.1479 315.463 72.3381 314.771 72.82 314.367C72.9594 314.252 72.9594 314.044 72.8453 313.906C72.7185 313.756 72.5283 313.744 72.3508 313.814C71.6027 314.125 70.6517 313.894 70.1318 313.341C69.5993 312.764 69.5866 311.818 70.0938 311.218C70.1952 311.092 70.2459 310.942 70.1572 310.792C70.0684 310.665 69.8909 310.584 69.7261 310.63C68.9653 310.838 68.1031 310.63 67.5578 310.1C67.0253 309.581 66.8604 308.727 67.1647 308.07C67.2281 307.943 67.2408 307.804 67.1394 307.689C67.0506 307.585 66.8858 307.516 66.7336 307.562C66.3786 307.666 66.0109 307.735 65.6432 307.712C65.3642 307.689 65.0092 307.562 64.8824 307.378C64.819 307.285 64.7809 307.205 64.7683 307.101C64.7556 307.02 64.7683 306.87 64.7683 306.812C64.819 306.662 64.8443 306.639 64.857 306.616C64.895 306.57 64.9204 306.547 64.9458 306.536C65.0472 306.489 65.0852 306.489 65.1233 306.478L64.8317 305.843C63.7792 306.293 62.6761 305.417 62.0167 304.759C61.8138 304.563 61.6363 304.356 61.4588 304.148C61.2686 303.917 61.0657 303.675 60.9389 303.41C60.8502 303.214 60.7995 302.995 60.9009 302.787C60.977 302.625 61.1545 302.475 61.3193 302.522C61.4968 302.556 61.7631 302.476 61.7885 302.279C61.8519 301.876 62.3718 301.68 62.8029 301.772C63.4242 301.899 63.8553 302.452 64.2103 302.891C64.3371 303.052 64.6415 303.156 64.8063 302.96C65.4656 302.21 66.9365 302.314 67.431 303.179C67.5705 303.41 67.9509 303.398 68.0904 303.179C68.4708 302.591 69.295 302.291 70.005 302.487C70.7531 302.695 71.2096 303.41 71.1589 304.09C71.1335 304.367 71.5012 304.517 71.7295 304.39C72.1226 304.183 72.6044 304.229 72.9975 304.425C73.4032 304.621 73.7202 304.978 73.7456 305.371C73.7456 305.509 73.8597 305.682 74.0245 305.705C74.7726 305.82 75.2925 306.455 75.2164 307.135C75.1784 307.481 75.7617 307.597 75.9265 307.308C76.1674 306.905 76.7888 306.732 77.2199 306.951C77.6764 307.193 77.7778 307.77 77.5242 308.15C77.3593 308.393 77.6383 308.773 77.9553 308.658C78.5132 308.45 79.2867 308.3 79.8192 308.658C80.0094 308.796 80.1362 308.992 80.187 309.2C80.2377 309.384 80.2123 309.581 80.0728 309.731C79.9334 309.869 79.9207 310.088 80.0728 310.226C80.2123 310.353 80.4786 310.365 80.6181 310.226C80.7195 310.123 80.7956 310.111 80.9097 310.134C81.0746 310.157 81.2267 310.25 81.3281 310.365C81.6198 310.734 81.4296 311.322 81.3154 311.714C81.5564 311.772 81.81 311.841 82.0509 311.899C82.2157 311.172 83.2808 310.676 83.9275 311.149C84.4854 311.553 84.3713 312.51 83.6993 312.776C83.3569 312.914 83.5217 313.456 83.8895 313.421C84.1684 313.398 84.3206 313.421 84.5488 313.583C84.7137 313.687 84.8658 313.883 84.9673 314.09C85.1574 314.483 85.1321 314.932 84.7771 315.221C84.9799 315.359 85.1828 315.498 85.373 315.648C85.6773 315.221 86.5015 315.175 86.8565 315.578C87.2116 315.971 86.9833 316.709 86.4635 316.882C86.5649 317.089 86.6537 317.308 86.7551 317.516C86.9073 317.458 87.1355 317.666 87.1989 317.828C87.3384 318.162 87.1102 318.589 86.9707 318.889C86.8819 319.062 86.92 319.258 87.1101 319.362C87.275 319.454 87.5539 319.408 87.63 319.235C87.909 318.67 88.188 318.024 87.8456 317.424C87.554 316.928 86.9453 316.697 86.3747 316.916C85.9817 317.066 86.2606 317.689 86.6663 317.551C87.6934 317.205 88.1499 315.959 87.4525 315.152C86.7678 314.356 85.2969 314.471 84.701 315.29C84.4474 315.636 84.9926 315.959 85.2969 315.717C86.5015 314.748 85.4871 312.568 83.8641 312.718L84.0543 313.364C84.9546 313.006 85.2082 311.934 84.8404 311.172C84.4093 310.261 83.2047 310.053 82.3045 310.492C81.7973 310.734 81.3915 311.172 81.2774 311.691C81.176 312.13 81.8987 312.314 82.0129 311.876C82.2031 311.195 82.3679 310.365 81.7846 309.8C81.3408 309.373 80.504 309.223 80.0348 309.707C80.2123 309.869 80.3898 310.03 80.58 310.203C81.1379 309.615 80.9858 308.727 80.3898 308.208C79.6798 307.585 78.5639 307.654 77.7144 307.966C77.8539 308.139 78.006 308.312 78.1455 308.473C78.6273 307.77 78.3611 306.743 77.5622 306.328C76.7634 305.913 75.6602 306.201 75.2291 306.928L75.9392 307.101C76.0533 306.132 75.2418 305.151 74.1894 305.001C74.2781 305.117 74.3796 305.221 74.4683 305.336C74.3796 303.998 72.6044 303.087 71.2984 303.756C71.4886 303.86 71.6788 303.952 71.869 304.056C71.9577 303.064 71.2096 302.072 70.1572 301.783C69.1174 301.495 67.9255 301.945 67.3803 302.787H68.0396C67.3296 301.553 65.174 301.334 64.2103 302.429C64.4132 302.452 64.6161 302.476 64.8063 302.499C64.3118 301.876 63.7031 301.149 62.8029 301.034C62.0548 300.93 61.1165 301.287 60.9897 302.049C61.1418 301.968 61.3067 301.887 61.4588 301.807C60.8248 301.668 60.2923 302.072 60.0894 302.591C59.8611 303.168 60.2035 303.767 60.5585 304.229C61.2559 305.128 62.1308 306.04 63.2847 306.455C63.906 306.685 64.5654 306.662 65.174 306.409C65.3388 306.339 65.4022 306.12 65.3262 305.97C65.2501 305.809 65.0726 305.74 64.8697 305.774C63.9567 305.924 63.7539 306.974 64.1343 307.631C64.6541 308.519 65.9982 308.485 66.8858 308.208C66.7463 308.035 66.5942 307.862 66.4547 307.701C66.0109 308.646 66.163 309.754 66.9238 310.538C67.6466 311.276 68.8512 311.564 69.8782 311.288C69.7514 311.092 69.6246 310.895 69.5105 310.711C68.7497 311.599 68.7244 312.891 69.5105 313.779C70.2713 314.621 71.6281 314.84 72.6932 314.402L72.224 313.86C71.4759 314.483 71.273 315.532 71.7168 316.363C72.1733 317.193 73.2511 317.62 74.2274 317.458L73.9358 316.824C72.9848 317.332 72.9214 318.52 73.4286 319.315C74.0372 320.284 75.3686 320.596 76.4718 320.838L76.3069 320.261C75.5588 321.138 75.5461 322.407 76.3576 323.26C77.1184 324.056 78.4878 324.229 79.4895 323.733C79.7685 323.595 79.7305 323.156 79.4008 323.099C78.1709 322.891 77.0043 323.871 77.0043 325.002C77.0043 326.109 78.0441 327.02 79.1852 327.251L79.0204 326.674C78.2216 327.32 78.0948 328.52 78.7414 329.281C79.3881 330.054 80.6942 330.25 81.5818 329.719C81.9875 329.477 81.6071 328.877 81.2013 329.12L81.2521 329.096Z" fill="#144162"/>
<path d="M66.0745 305.532C68.2047 306.455 70.2208 307.608 72.0467 308.969C73.8979 310.33 75.5717 311.887 77.0806 313.56C78.6275 315.29 79.9843 317.17 81.1508 319.131C82.4061 321.242 83.4585 323.445 84.3208 325.705C85.1957 327.989 85.8931 330.331 86.4637 332.695C86.5398 332.995 86.6032 333.283 86.6666 333.583C86.7046 333.768 86.9455 333.872 87.1357 333.825C87.3513 333.768 87.4401 333.583 87.402 333.399C86.8695 331.011 86.1974 328.635 85.3605 326.317C84.511 323.998 83.4966 321.726 82.2666 319.558C81.1001 317.505 79.7434 315.544 78.1837 313.721C76.7129 311.991 75.0518 310.399 73.2259 308.969C71.4 307.551 69.3966 306.305 67.2664 305.301C67.0001 305.174 66.7338 305.059 66.4676 304.944C66.2774 304.863 66.0491 304.898 65.9477 305.071C65.8462 305.221 65.897 305.463 66.0872 305.544L66.0745 305.532Z" fill="white"/>
<path d="M98.1539 301.934C96.7591 305.982 95.377 310.042 94.2739 314.16C93.1834 318.231 92.3719 322.384 92.1564 326.582C92.0296 328.935 92.093 331.288 92.3973 333.618C92.4226 333.803 92.5621 333.964 92.7777 333.964C92.9679 333.964 93.1834 333.803 93.158 333.618C92.6255 329.477 92.841 325.29 93.5131 321.173C94.1978 317.02 95.3263 312.937 96.6197 308.9C97.3424 306.628 98.1159 304.367 98.902 302.107C99.0542 301.68 98.3061 301.495 98.1666 301.922L98.1539 301.934Z" fill="white"/>
<path d="M117.999 307.02C116.122 308.612 114.258 310.215 112.457 311.876C110.657 313.537 108.907 315.244 107.284 317.043C105.699 318.808 104.216 320.653 102.922 322.603C101.667 324.506 100.576 326.513 99.7269 328.601C98.8773 330.688 98.2814 332.857 98.0024 335.071C97.9644 335.337 97.939 335.613 97.9137 335.879C97.901 336.063 98.1039 336.225 98.2941 336.225C98.5096 336.225 98.6618 336.063 98.6745 335.879C98.8773 333.71 99.3972 331.576 100.171 329.523C100.944 327.459 101.971 325.475 103.176 323.583C104.393 321.657 105.801 319.835 107.322 318.104C108.907 316.305 110.606 314.586 112.381 312.937C114.157 311.276 115.995 309.684 117.846 308.104C118.075 307.908 118.303 307.712 118.531 307.516C118.886 307.205 118.354 306.72 117.986 307.02H117.999Z" fill="white"/>
<path d="M116.172 329.616H70.7402V339.639C75.6854 339.639 79.6922 343.284 79.6922 347.782V359.685C79.6922 366.606 85.8546 372.212 93.4625 372.212C101.07 372.212 107.233 366.606 107.233 359.685V347.782C107.233 343.284 111.24 339.639 116.185 339.639V329.616H116.172Z" fill="#FF916C"/>
<path d="M117.542 362.188H69.3584C69.3584 368.416 74.9122 373.457 81.7466 373.457H105.154C112.001 373.457 117.542 368.405 117.542 362.188V362.188Z" fill="#4D5DB5"/>
<path d="M72.6551 338.935H112.964C113.459 338.935 113.459 338.243 112.964 338.243H72.6551C72.1606 338.243 72.1606 338.935 72.6551 338.935Z" fill="#D07F69"/>
<path d="M81.049 354.737C82.0254 353.434 82.989 352.13 83.9654 350.827C83.7625 350.85 83.5596 350.873 83.3694 350.896C84.4599 352.038 85.4109 353.284 86.2351 354.599C86.3873 354.841 86.7296 354.795 86.8945 354.599C88.1244 353.111 89.5065 351.727 91.0154 350.469C90.8126 350.446 90.6097 350.423 90.4195 350.4C91.3831 351.703 92.1693 353.122 92.7526 354.61C92.8667 354.898 93.2597 354.956 93.4499 354.691C94.3375 353.468 95.3646 352.349 96.5311 351.334C96.8228 351.081 97.1271 350.838 97.4314 350.596C97.5456 350.504 97.6723 350.389 97.8118 350.331C97.9386 350.285 98.002 350.331 98.0781 350.412C98.3317 350.665 98.5092 351.023 98.6994 351.311C98.915 351.657 99.1305 351.992 99.3334 352.349C99.7899 353.134 100.221 353.93 100.614 354.737C100.728 354.979 101.147 354.945 101.273 354.737C102.262 353.214 103.416 351.784 104.735 350.481C104.532 350.458 104.329 350.435 104.139 350.412C104.811 351.3 105.47 352.188 106.142 353.064C106.257 353.214 106.472 353.284 106.662 353.191C106.827 353.099 106.916 352.868 106.802 352.718L104.798 350.066C104.672 349.893 104.38 349.823 104.202 349.996C102.846 351.334 101.641 352.811 100.627 354.391H101.286C100.906 353.607 100.5 352.834 100.056 352.084C99.8279 351.692 99.5997 351.311 99.3461 350.931C99.1305 350.596 98.9276 350.227 98.6487 349.939C98.3444 349.616 97.8879 349.523 97.4568 349.72C97.0764 349.893 96.7467 350.216 96.4297 350.469C95.783 351 95.1617 351.577 94.5911 352.176C93.9318 352.857 93.3358 353.584 92.7906 354.345C93.0188 354.368 93.2597 354.402 93.488 354.426C92.892 352.88 92.0805 351.415 91.0788 350.054C90.9393 349.858 90.6731 349.823 90.4829 349.985C88.9232 351.288 87.5031 352.718 86.2478 354.253H86.9071C86.0576 352.891 85.0432 351.6 83.9147 350.412C83.7372 350.227 83.4455 350.308 83.3187 350.481C82.3424 351.784 81.3787 353.088 80.4024 354.391C80.1234 354.76 80.7828 355.106 81.0617 354.737H81.049Z" fill="#D07F69"/>
<path d="M76.7127 331.542H100.931C101.426 331.542 101.426 330.85 100.931 330.85H76.7127C76.2182 330.85 76.2182 331.542 76.7127 331.542Z" fill="#D07F69"/>
<path d="M70.5 82.9101V133.995C70.5 134.526 71.4129 134.526 71.4129 133.995V82.9101C71.4129 82.3796 70.5 82.3796 70.5 82.9101Z" fill="#443923"/>
<path d="M383.413 78.2964H35.0469V95.1363H383.413V78.2964Z" fill="#D07F69"/>
<path d="M383.413 97.3394H35.0469V114.179H383.413V97.3394Z" fill="#D07F69"/>
<path d="M383.413 116.382H35.0469V133.222H383.413V116.382Z" fill="#D07F69"/>
<path d="M82.7737 610.046C94.8576 608.639 106.941 607.232 119.038 605.813C122.943 605.363 127.217 604.729 129.803 602.03C130.64 601.165 131.261 599.977 130.919 598.869C130.463 597.382 128.586 596.712 126.925 596.366C117.225 594.359 107.106 595.963 97.3175 597.566C90.6732 598.65 84.029 599.746 77.3848 600.83L82.7737 610.035V610.046Z" fill="#5C4CA0"/>
<path d="M249.933 567.923C256.919 558.835 263.893 549.757 270.88 540.668C273.137 537.738 275.495 534.44 275.039 530.887C274.887 529.745 274.354 528.534 273.226 528.015C271.704 527.312 269.904 528.13 268.509 529.019C260.343 534.197 254.853 542.087 249.565 549.757C245.989 554.959 242.401 560.172 238.825 565.374L249.933 567.935V567.923Z" fill="#4D5DB5"/>
<path d="M128.523 522.871C121.004 539.468 114.474 556.435 108.971 573.667C107.297 578.892 105.56 584.406 101.262 588.189C92.7787 595.675 75.0396 597.243 65.8721 604.037C73.7082 604.833 106.993 601.153 109.732 600.773C113.028 600.311 116.401 600.957 119.736 600.796C123.071 600.634 126.748 599.331 127.927 596.482C128.739 594.51 128.143 592.318 128.016 590.207C127.61 583.264 132.365 577.058 136.727 571.338C150.447 553.356 162.493 533.598 165.853 511.925L128.523 522.859V522.871Z" fill="#FFAF80"/>
<path d="M213.11 481.14C221.061 497.565 229.987 513.597 239.839 529.157C242.819 533.874 245.989 538.834 246.015 544.267C246.065 555.017 234.083 563.194 233.119 573.91C241.095 579.388 262.676 547.335 268.813 540.887C270.994 538.592 272.515 535.27 271.07 532.536C270.068 530.633 267.913 529.514 266.163 528.13C260.368 523.586 258.745 516.169 257.224 509.353C252.456 487.899 245.14 466.307 230.279 449.086L213.098 481.152L213.11 481.14Z" fill="#FFAF80"/>
<path d="M319.228 236.257C314.169 236.257 310.061 232.52 310.061 227.918C310.061 223.316 314.169 219.579 319.228 219.579C324.287 219.579 328.396 223.316 328.396 227.918C328.396 232.52 324.287 236.257 319.228 236.257ZM319.228 220.225C314.562 220.225 310.771 223.673 310.771 227.918C310.771 232.162 314.562 235.611 319.228 235.611C323.894 235.611 327.686 232.162 327.686 227.918C327.686 223.673 323.894 220.225 319.228 220.225V220.225Z" fill="white"/>
<path d="M318.848 185.449C321.042 182.335 325.885 182.243 329.613 183.385C333.341 184.526 336.904 186.556 340.835 186.51C343.383 186.487 345.843 185.576 348.367 185.172C355.176 184.111 362.454 187.191 366.131 192.681C367.361 194.527 368.249 196.649 369.998 198.079C372.294 199.971 375.565 200.259 378.431 201.228C385.062 203.477 389.728 210.063 389.449 216.765C389.234 221.724 386.723 227.18 389.563 231.332C391.301 233.87 394.496 235.058 397.222 236.615C413.478 245.9 406.25 264.47 406.25 264.47C406.25 264.47 387.674 264.516 387.674 264.47C386.863 261.563 385.519 257.457 383.731 254.977C382.552 257.596 382.082 261.644 382.374 264.47C378.912 265.37 375.299 265.116 371.786 264.47C368.274 263.824 364.939 261.102 364.977 257.699C364.572 259.533 364.153 261.367 363.747 263.201C347.124 264.089 330.45 264.124 313.839 263.294C313.041 260.387 312.229 257.48 311.43 254.574C310.251 257.33 309.072 260.075 307.893 262.832C303.962 262.175 300.031 261.506 296.113 260.848C295.821 258.403 295.53 255.958 295.225 253.513C294.224 256.015 293.235 258.518 292.233 261.021C288.099 260.595 283.978 260.179 279.845 259.753C285.069 255.889 282 248.207 281.823 241.955C281.671 236.477 284.359 230.975 288.885 227.526C294.655 223.131 303.898 220.813 304.685 213.869C305.014 210.928 303.543 208.102 303.176 205.173C302.313 198.171 318.861 185.461 318.861 185.461L318.848 185.449Z" fill="#3F3622"/>
<path d="M286.869 353.618C309.249 362.153 332.516 368.774 356.253 373.365C354.922 386.444 352.348 399.409 348.582 412.085C345.716 421.727 341.912 431.555 334.177 438.648C321.789 449.998 302.567 451.693 285.018 452.731C257.769 454.335 230.507 455.938 203.258 457.541C185.772 486.504 170.48 516.562 157.56 547.439C133.088 545.305 108.755 541.741 84.7773 536.793C95.999 506.239 109.757 476.515 123.502 446.814C127.699 437.748 131.896 428.671 137.044 420.02C139.909 415.199 143.143 410.435 147.771 406.918C153.375 402.65 160.552 400.562 167.615 398.844C183.414 394.991 199.606 392.477 215.912 391.335C225.334 390.677 235.16 390.401 243.504 386.375C247.853 384.287 251.555 381.277 255.233 378.29C265.516 369.939 275.799 361.588 286.07 353.237L286.869 353.618V353.618Z" fill="#103150"/>
<path d="M323.932 275.762C332.453 276.293 325.999 276.235 333.81 276.143C344.727 276.016 355.733 275.866 366.372 273.697C372.141 272.521 378.151 271.356 383.743 273.121C400.595 278.438 402.42 296.443 404.411 303.559C410.041 323.675 409.42 351.992 399.923 367.886C391.985 368.901 379.952 364.137 372.014 365.152C368.35 353.468 372.927 345.486 370.911 333.491C368.413 347.436 360.678 359.777 356.228 373.307C355.987 374.057 333.696 371.208 315.107 365.821C298.889 361.127 286.019 353.895 286.019 353.26C286.032 345.682 286.894 335.475 286.907 327.897C279.299 338.958 270.715 349.466 261.256 359.27C253.914 355.106 242.756 343.733 235.414 339.569C245.799 326.005 270.157 287.262 291.624 278.057C306.573 271.644 323.907 275.774 323.907 275.774L323.932 275.762Z" fill="#4D5DB5"/>
<path d="M394.813 356.559C377.809 347.528 359.816 340.019 341.19 334.206C342.546 329.984 343.637 325.682 344.448 321.333C344.943 318.68 345.336 315.912 344.537 313.317C342.737 307.469 335.966 304.666 329.309 302.959C328.396 302.729 327.762 303.778 328.459 304.355C330.577 306.131 332.872 307.746 335.294 309.176C331.743 306.939 327.952 305.012 323.983 303.455C322.918 303.04 321.828 304.044 322.322 304.989C323.882 308 326.76 310.445 330.209 311.575L320.598 307.031C319.951 306.719 319.19 307.215 319.292 307.873C319.837 311.379 323.07 314.517 326.976 315.001C324.858 313.455 322.436 312.256 319.862 311.46C319.634 311.391 319.406 311.333 319.165 311.31C316.553 311.045 316.477 312.233 317.757 313.663C318.848 314.886 320.407 317.193 321.688 318.254C324.744 320.78 324.731 325.163 323.73 328.819C322.741 332.464 321.003 336.086 321.435 339.823C321.675 341.864 322.588 343.848 324.021 345.44C325.771 347.378 328.193 348.692 330.564 349.961L378.963 375.809C382.07 377.47 385.874 377.643 389.158 376.271L393.862 374.298C396.842 373.053 399.048 370.665 399.897 367.782C401.178 363.422 399.099 358.808 394.813 356.536V356.559Z" fill="#FFAF80"/>
<path d="M312.672 202.704C312.406 213.869 313.028 225.888 313.028 225.888L299.549 227.122L311.962 238.172C311.962 238.172 311.417 247.63 312.533 251.009C313.776 254.781 317.884 257.307 322.119 258.126C326.354 258.945 330.741 258.368 335.027 257.803C335.078 263.189 335.129 268.564 335.179 273.951C335.09 273.882 328.928 276.823 318.353 274.689C324.769 287.826 321.967 297.665 337.741 296.869C353.514 296.073 364.47 288.588 367.995 272.82L360.653 273.086C360.653 273.086 357.521 247.422 357.559 240.398C362.01 243.57 368.223 244.077 372.8 241.067C377.39 238.056 378.861 231.528 375.425 227.445C371.976 223.362 360.945 227.629 360.945 227.629L359.423 201.205L312.672 202.704V202.704Z" fill="#FFAF80"/>
<path d="M318.087 185.806C313.763 188.136 309.313 190.57 306.029 194.088C304.393 195.841 303.15 197.814 302.339 199.994C301.54 202.15 301.122 204.411 300.64 206.637C300.171 208.817 299.663 211.043 298.624 213.062C297.52 215.219 295.796 216.88 293.704 218.287C291.574 219.717 289.291 220.94 287.351 222.589C285.576 224.112 284.067 225.899 282.875 227.837C280.504 231.724 279.388 236.269 279.883 240.698C279.946 241.263 280.035 241.817 280.136 242.37C280.251 242.982 281.265 242.716 281.151 242.116C280.301 237.803 281.087 233.258 283.205 229.337C284.257 227.376 285.627 225.565 287.288 223.985C289.063 222.301 291.193 221.055 293.285 219.729C295.39 218.391 297.368 216.914 298.712 214.907C299.98 213.027 300.69 210.893 301.21 208.76C301.743 206.58 302.111 204.353 302.719 202.185C303.328 200.017 304.215 197.964 305.623 196.118C308.476 192.381 312.812 189.809 317.022 187.502C317.555 187.214 318.075 186.925 318.607 186.637C319.19 186.326 318.658 185.495 318.075 185.806H318.087Z" fill="#3F3622"/>
<path d="M381.575 207.618C383.325 207.837 384.529 209.06 385.391 210.386C386.444 212.001 387.179 213.835 387.788 215.623C388.409 217.48 388.853 219.371 389.119 221.297C389.36 223.039 389.525 224.792 389.956 226.499C390.375 228.149 391.072 229.729 392.251 231.044C393.494 232.416 395.193 233.351 396.803 234.308C399.999 236.2 402.547 238.656 404.627 241.563C406.947 244.816 408.672 248.38 410.345 251.932C410.612 252.497 411.525 252.013 411.258 251.448C408.279 245.173 405.02 238.518 398.769 234.377C397.158 233.305 395.358 232.463 393.887 231.228C392.454 230.017 391.592 228.46 391.097 226.753C390.603 225.058 390.438 223.304 390.21 221.563C389.943 219.613 389.55 217.687 388.942 215.807C388.295 213.8 387.484 211.724 386.304 209.913C385.315 208.402 383.87 206.96 381.854 206.707C381.575 206.672 381.296 206.764 381.207 207.041C381.131 207.26 381.296 207.595 381.575 207.629V207.618Z" fill="#3F3622"/>
<path opacity="0.46" d="M335.027 257.803L349.191 251.713L335.509 266.327L335.027 257.803Z" fill="#BF6F41"/>
<path d="M363.505 236.661C365.382 234.596 367.525 232.751 369.909 231.182C370.137 231.032 370.251 230.767 370.099 230.525C369.972 230.317 369.605 230.202 369.376 230.352C366.916 231.967 364.697 233.858 362.757 235.981C362.326 236.453 363.074 237.134 363.505 236.661V236.661Z" fill="#944F2C"/>
<path d="M367.044 233.985C367.208 234.112 367.272 234.17 367.323 234.216C367.386 234.273 367.437 234.331 367.487 234.389C367.526 234.435 367.551 234.458 367.576 234.493C367.665 234.608 367.741 234.723 367.804 234.85C367.817 234.885 367.843 234.919 367.855 234.954C367.893 235.035 367.919 235.115 367.944 235.185C367.995 235.323 368.02 235.45 368.045 235.588C368.045 235.634 368.045 235.681 368.058 235.715C368.058 235.784 368.058 235.854 368.058 235.923C368.058 236.003 368.058 236.073 368.058 236.153C368.02 236.419 367.982 236.569 367.931 236.707C367.843 236.949 368.033 237.226 368.299 237.295C368.591 237.365 368.857 237.203 368.946 236.961C369.453 235.577 368.844 234.02 367.576 233.155C367.348 233.005 366.993 233.12 366.853 233.328C366.701 233.57 366.815 233.824 367.044 233.985V233.985Z" fill="#944F2C"/>
<path d="M313.902 244.446C316.743 244.573 319.545 243.155 320.94 240.905C321.269 240.363 320.369 239.89 320.027 240.421C318.797 242.393 316.375 243.593 313.902 243.477C313.23 243.443 313.23 244.4 313.902 244.435V244.446Z" fill="#944F2C"/>
<path d="M325.098 230.398C325.098 231.909 324.147 233.132 322.968 233.132C321.789 233.132 320.838 231.909 320.838 230.398C320.838 228.887 321.789 227.665 322.968 227.665C324.147 227.665 325.098 228.887 325.098 230.398Z" fill="#010101"/>
<path d="M320.838 218.23C321.32 218.991 321.104 220.167 321.954 220.606C322.423 220.848 323.006 220.721 323.526 220.583C326.316 219.856 329.435 219.06 332.021 220.283C329.612 217.261 324.68 216.188 321.041 217.895L320.838 218.23V218.23Z" fill="#3F3622"/>
<path d="M325.695 238.564C320.547 238.564 316.35 234.758 316.35 230.063C316.35 225.369 320.534 221.562 325.695 221.562C330.855 221.562 335.04 225.369 335.04 230.063C335.04 234.758 330.855 238.564 325.695 238.564ZM325.695 222.531C321.13 222.531 317.415 225.911 317.415 230.063C317.415 234.216 321.13 237.595 325.695 237.595C330.259 237.595 333.975 234.216 333.975 230.063C333.975 225.911 330.259 222.531 325.695 222.531V222.531Z" fill="white"/>
<path d="M311.773 225.611C313.294 224.527 315.944 225.461 316.375 227.157C316.527 227.757 317.542 227.503 317.39 226.903C317.085 225.703 316.02 224.827 314.778 224.423C313.51 224.019 312.102 224.169 311.037 224.931C310.809 225.092 310.847 225.438 311.037 225.611C311.253 225.807 311.557 225.773 311.785 225.611H311.773Z" fill="white"/>
<path d="M334.305 229.44C341.367 229.463 348.43 229.141 355.455 228.46C357.458 228.264 359.462 228.045 361.452 227.791C361.731 227.756 361.883 227.433 361.82 227.203C361.744 226.926 361.452 226.834 361.173 226.868C354.225 227.733 347.225 228.252 340.214 228.425C338.248 228.472 336.283 228.495 334.305 228.483C333.633 228.483 333.62 229.44 334.305 229.44V229.44Z" fill="white"/>
<path d="M368.87 225.519C367.31 216.026 364.216 207.214 362.67 197.733C362.53 196.903 362.365 196.015 361.693 195.426C360.844 194.688 359.512 194.665 358.32 194.677C341.735 194.953 325.163 195.83 308.666 197.318C309.021 198.125 309.389 198.933 309.744 199.74L310.796 199.613C312.99 203.546 315.374 207.687 319.609 210.04C324.25 212.624 330.146 212.543 335.459 213.835C341.317 215.254 346.287 218.668 350.142 222.751C354.783 227.664 355.366 229.348 355.391 230.986C355.417 233.132 352.728 234.908 350.497 234.239C353.54 236.257 358.168 234.227 359.779 231.125C360.425 229.879 360.717 228.553 360.818 227.192C364.888 226.73 368.895 225.531 368.895 225.531L368.87 225.519Z" fill="#3F3622"/>
<path d="M319.406 311.991C324.084 313.398 328.243 316.051 331.337 319.534C331.768 320.019 332.504 319.338 332.085 318.854C328.877 315.243 324.541 312.521 319.697 311.056C319.051 310.86 318.772 311.783 319.418 311.979L319.406 311.991Z" fill="#944F2C"/>
<path d="M323.323 308.588C328.091 310.491 332.186 313.64 335.001 317.631C335.369 318.15 336.282 317.666 335.914 317.146C333.011 313.029 328.788 309.73 323.856 307.758C323.247 307.515 322.702 308.334 323.323 308.588Z" fill="#944F2C"/>
<path d="M329.676 306.87C334.494 308.3 338.628 311.368 341.151 315.359C341.494 315.889 342.394 315.416 342.064 314.874C339.401 310.664 335.027 307.446 329.955 305.947C329.308 305.751 329.029 306.685 329.676 306.87Z" fill="#944F2C"/>
<path d="M330.031 321.241C334.241 319.269 338.463 317.285 342.673 315.312C343.281 315.036 342.749 314.205 342.14 314.482C337.93 316.454 333.708 318.438 329.498 320.411C328.89 320.687 329.422 321.518 330.031 321.241Z" fill="#944F2C"/>
<path d="M340.835 334.76L335.218 340.019C334.749 340.458 335.484 341.138 335.966 340.7C337.842 338.947 339.706 337.193 341.583 335.44C342.052 335.002 341.317 334.321 340.835 334.76Z" fill="#944F2C"/>
<path d="M179.001 378.831C178.418 373.814 169.808 337.931 165.358 319.603C164.013 314.067 168.616 308.819 174.842 308.761L261.648 307.988C266.34 307.942 270.397 310.93 271.348 315.105L285.854 378.843H179.014L179.001 378.831Z" fill="#28100C"/>
<path d="M283.002 371.242H329.385V378.832H281.201L283.002 371.242Z" fill="#28100C"/>
<path d="M260.444 311.91C261.763 311.483 263.208 311.921 264.248 312.717C265.402 313.605 266.163 314.828 266.898 316.016C267.228 316.558 268.141 316.074 267.811 315.532C266.974 314.182 266.099 312.787 264.717 311.829C263.449 310.941 261.725 310.468 260.165 310.976C259.531 311.183 259.81 312.106 260.444 311.898V311.91Z" fill="#F9F9FA"/>
<path d="M284.219 372.222C282.875 372.222 281.924 373.364 281.86 374.506C281.81 375.51 282.406 376.582 283.382 377.078C284.447 377.609 285.74 377.367 286.615 376.64C287.49 375.913 287.757 374.714 287.097 373.78C286.387 372.788 284.954 372.292 283.762 372.822C283.509 372.938 283.433 373.272 283.572 373.48C283.724 373.722 284.041 373.768 284.295 373.653C284.574 373.526 284.891 373.526 285.233 373.618C285.55 373.699 285.829 373.872 286.07 374.126C286.527 374.587 286.539 375.268 286.095 375.752C285.842 376.04 285.512 376.236 285.17 376.34C284.802 376.444 284.485 376.456 284.13 376.34C283.851 376.248 283.521 376.017 283.344 375.787C283.103 375.487 282.989 375.221 282.926 374.841C282.926 374.921 282.926 374.76 282.926 374.76C282.926 374.714 282.926 374.656 282.926 374.599C282.926 374.541 282.926 374.495 282.926 374.449C282.926 374.449 282.951 374.299 282.926 374.368C282.938 374.264 282.976 374.16 283.002 374.068C283.04 373.976 283.052 373.941 283.128 373.826C283.369 373.445 283.762 373.168 284.206 373.168C284.878 373.168 284.891 372.211 284.206 372.211L284.219 372.222Z" fill="#F9F9FA"/>
<path d="M289.607 373.238H322.613C323.285 373.238 323.298 372.28 322.613 372.28H289.607C288.935 372.28 288.923 373.238 289.607 373.238Z" fill="#F9F9FA"/>
<path d="M172.877 311.23C169.289 311.656 166.372 314.586 166.385 317.908C166.385 318.519 167.437 318.531 167.437 317.908C167.437 315.163 169.859 312.545 172.877 312.187C173.156 312.152 173.409 311.991 173.409 311.703C173.409 311.472 173.169 311.195 172.877 311.218V311.23Z" fill="#F9F9FA"/>
<path d="M283.141 386.248C265.453 381.657 250.744 370.677 234.324 363.145C216.103 354.783 195.879 350.723 175.756 347.608C168.059 346.42 160.109 345.359 152.501 346.974C137.069 350.25 126.494 364.241 124.187 378.509C121.879 392.776 126.304 407.217 131.845 420.724C145.856 454.819 167.425 486.33 194.877 512.813C195.27 513.193 195.688 513.586 196.234 513.77C197.172 514.082 198.199 513.689 199.112 513.309C219.07 504.843 240.093 498.464 261.636 494.358C250.047 472.005 240.347 448.856 232.625 425.164C251.188 413.965 268.534 401.104 284.333 386.825L283.116 386.271L283.141 386.248Z" fill="#103150"/>
<path d="M186.432 368.981C190.959 374.449 195.346 380.008 199.594 385.66C203.854 391.335 207.975 397.09 211.957 402.927C215.926 408.74 219.742 414.634 223.407 420.609C227.084 426.583 230.609 432.627 233.982 438.74C237.355 444.853 240.575 451.036 243.644 457.287C244.024 458.072 244.404 458.856 244.785 459.629C245.013 460.102 245.774 460.217 246.23 459.975C246.763 459.686 246.839 459.144 246.611 458.66C243.58 452.397 240.398 446.191 237.063 440.067C233.715 433.908 230.216 427.817 226.564 421.808C222.925 415.822 219.146 409.905 215.215 404.069C211.285 398.232 207.214 392.477 203.005 386.813C198.795 381.15 194.446 375.556 189.957 370.066C189.399 369.385 188.829 368.693 188.271 368.013C187.928 367.597 187.358 367.39 186.825 367.667C186.381 367.909 186.102 368.566 186.445 368.981H186.432Z" fill="#D8D8D8"/>
<path d="M197.527 370.873C199.479 377.021 201.432 383.157 203.398 389.305C203.778 390.481 205.807 389.985 205.426 388.797C203.474 382.65 201.521 376.513 199.556 370.366C199.175 369.189 197.146 369.685 197.527 370.873Z" fill="#D8D8D8"/>
<path d="M204.526 390.054C213.313 388.255 222.139 386.652 231.014 385.245C239.789 383.861 248.614 382.661 257.452 381.669C262.461 381.104 267.482 380.608 272.503 380.181C273.074 380.135 273.555 379.778 273.555 379.224C273.555 378.739 273.074 378.22 272.503 378.267C263.475 379.051 254.46 380.031 245.495 381.208C236.581 382.384 227.705 383.757 218.867 385.337C213.884 386.225 208.914 387.182 203.968 388.197C203.41 388.313 203.093 388.89 203.233 389.374C203.385 389.893 203.968 390.158 204.526 390.043V390.054Z" fill="#D8D8D8"/>
<path d="M134.445 431.266C139.986 440.205 145.692 449.063 151.55 457.829C157.383 466.549 163.368 475.188 169.517 483.735C172.979 488.545 176.479 493.32 180.042 498.072C180.359 498.499 180.967 498.695 181.487 498.418C181.956 498.176 182.184 497.541 181.867 497.103C175.515 488.626 169.327 480.044 163.291 471.382C157.281 462.754 151.436 454.046 145.743 445.245C142.535 440.297 139.39 435.314 136.283 430.309C135.611 429.236 133.798 430.205 134.47 431.277L134.445 431.266Z" fill="#D8D8D8"/>
<path d="M237.975 554.832C242.794 558.88 247.802 562.756 252.988 566.424C249.21 572.998 241.64 577.635 233.512 578.327C232.764 578.396 231.94 578.408 231.331 578.004C230.469 577.427 230.418 576.297 230.469 575.328C230.925 567.865 237.963 554.82 237.963 554.82L237.975 554.832Z" fill="#4D5DB5"/>
<path d="M87.1485 591.049C87.0978 597.024 87.3133 602.999 87.8078 608.95C79.921 610.831 71.0578 608.847 65.0222 603.852C64.4642 603.391 63.8937 602.849 63.8176 602.168C63.7035 601.199 64.591 600.404 65.4152 599.792C71.7932 595.086 87.1358 591.049 87.1358 591.049H87.1485Z" fill="#4D5DB5"/>
<path d="M253.166 531.394C252.861 532.317 253.077 533.355 253.673 534.151C254.294 534.982 255.22 535.547 256.336 535.662C256.615 535.685 256.868 535.42 256.868 535.178C256.868 534.901 256.627 534.728 256.336 534.693C256.221 534.67 256.158 534.67 256.107 534.659C256.006 534.636 255.905 534.613 255.803 534.578C255.689 534.532 255.638 534.509 255.6 534.497C255.511 534.451 255.423 534.405 255.334 534.359C255.055 534.186 254.738 533.897 254.548 533.632C254.307 533.298 254.193 533.055 254.104 532.652C254.104 532.64 254.079 532.513 254.091 532.548C254.091 532.594 254.091 532.467 254.091 532.444C254.091 532.352 254.091 532.26 254.091 532.156C254.091 532.11 254.091 532.063 254.091 532.017C254.117 531.856 254.142 531.752 254.18 531.66C254.383 531.071 253.356 530.818 253.166 531.406V531.394Z" fill="#944F2C"/>
<path d="M116.705 582.226C114.448 583.287 113.561 586.067 114.765 588.085C115.082 588.627 115.995 588.143 115.678 587.601C114.74 586.02 115.513 583.875 117.251 583.056C117.847 582.768 117.314 581.949 116.718 582.226H116.705Z" fill="#944F2C"/>
<path d="M191.681 506.976C199.036 503.216 206.415 499.468 214.023 496.123C221.53 492.824 229.277 489.929 237.316 487.922C241.805 486.803 246.382 485.961 250.998 485.488C251.568 485.431 252.05 485.085 252.05 484.531C252.05 484.058 251.568 483.516 250.998 483.574C242.54 484.427 234.298 486.434 226.348 489.179C218.385 491.924 210.714 495.35 203.207 498.995C198.972 501.048 194.788 503.182 190.604 505.327C189.424 505.927 190.477 507.588 191.669 506.976H191.681Z" fill="#D8D8D8"/>
<path d="M281.67 382.177C288.2 385.799 294.464 389.812 300.386 394.207C302.06 395.453 303.708 396.721 305.331 398.025C305.762 398.371 306.396 398.405 306.814 398.025C307.195 397.679 307.246 397.01 306.814 396.675C300.969 391.981 294.769 387.656 288.277 383.734C286.451 382.627 284.599 381.565 282.735 380.527C281.569 379.881 280.516 381.542 281.67 382.177Z" fill="#D8D8D8"/>
<path d="M287.959 383.641C294.096 385.314 299.992 387.632 305.546 390.55C306.725 391.173 307.778 389.512 306.611 388.901C300.918 385.902 294.832 383.515 288.53 381.796C287.224 381.438 286.679 383.295 287.972 383.641H287.959Z" fill="#D8D8D8"/>
<path d="M91.0539 531.337C99.2578 533.747 107.588 535.835 115.995 537.588C124.402 539.342 132.897 540.749 141.444 541.821C146.313 542.433 151.194 542.929 156.076 543.321C156.647 543.367 157.129 542.848 157.129 542.364C157.129 541.81 156.647 541.452 156.076 541.406C147.555 540.726 139.06 539.699 130.628 538.338C122.17 536.965 113.764 535.27 105.471 533.228C100.817 532.087 96.2019 530.841 91.6245 529.491C91.0793 529.33 90.4707 529.676 90.3312 530.16C90.179 530.679 90.5214 531.175 91.0666 531.337H91.0539Z" fill="#F9F9FA"/>
<path d="M288.784 287.054C285.981 292.683 284.434 298.703 283.141 304.736C281.822 310.86 280.085 317.273 282.19 323.421C283.255 326.535 285.068 329.407 287.186 332.026C287.528 332.441 288.099 332.649 288.631 332.372C289.088 332.13 289.342 331.484 289.012 331.057C287.211 328.831 285.601 326.432 284.574 323.813C283.471 321.034 283.141 318.162 283.382 315.22C283.623 312.175 284.346 309.176 284.98 306.178C285.601 303.248 286.26 300.33 287.072 297.446C287.985 294.228 289.101 291.045 290.609 288.011C290.838 287.538 290.762 286.985 290.229 286.696C289.773 286.454 289.025 286.569 288.784 287.042V287.054Z" fill="#144162"/>
<path d="M372.978 333.237C374.005 328.023 375.096 322.81 376.25 317.619C377.404 312.429 378.634 307.239 379.914 302.071C380.637 299.153 381.385 296.235 382.159 293.328C382.476 292.129 380.447 291.621 380.13 292.821C378.773 297.977 377.48 303.144 376.25 308.323C375.02 313.502 373.853 318.704 372.75 323.905C372.129 326.847 371.533 329.788 370.95 332.729C370.848 333.237 371.102 333.767 371.685 333.906C372.192 334.033 372.877 333.744 372.978 333.237V333.237Z" fill="#144162"/>
<path d="M382.12 298.911C379.965 301.345 378.113 303.974 376.643 306.8C376.402 307.262 376.503 307.838 377.023 308.115C377.479 308.357 378.215 308.242 378.468 307.769C379.863 305.105 381.588 302.567 383.616 300.272C383.972 299.868 384.048 299.315 383.616 298.922C383.249 298.588 382.488 298.519 382.133 298.922L382.12 298.911Z" fill="#144162"/>
<path d="M374.627 345.013C382.881 346.363 391.77 347.816 398.224 353.099C399.809 354.402 401.178 355.878 402.231 357.562C402.903 358.635 404.729 357.666 404.044 356.594C399.695 349.685 391.225 346.328 383.059 344.586C380.447 344.033 377.809 343.595 375.185 343.168C374.627 343.076 374.043 343.306 373.891 343.837C373.752 344.298 374.069 344.921 374.627 345.013V345.013Z" fill="#144162"/>
<path d="M304.912 332.268C308.31 332.372 311.632 333.295 314.523 334.921C315.677 335.567 316.742 333.917 315.589 333.271C312.381 331.472 308.678 330.469 304.912 330.353C303.555 330.307 303.555 332.233 304.912 332.268V332.268Z" fill="#144162"/>
<path d="M307.918 335.463H308.057C308.196 335.486 308.032 335.474 307.981 335.463C308.07 335.486 308.158 335.486 308.247 335.509C308.425 335.544 308.602 335.578 308.78 335.624C308.957 335.67 309.135 335.717 309.3 335.774C309.388 335.797 309.477 335.832 309.553 335.867C309.591 335.878 309.642 335.901 309.68 335.913C309.579 335.878 309.502 335.843 309.642 335.913C309.972 336.051 310.301 336.213 310.606 336.386C310.682 336.432 310.758 336.478 310.834 336.524C310.872 336.547 310.91 336.57 310.948 336.593C310.973 336.605 311.1 336.697 310.973 336.616C310.847 336.524 310.973 336.616 310.999 336.639C311.037 336.662 311.075 336.697 311.1 336.72C311.176 336.778 311.252 336.847 311.328 336.905C311.734 337.239 312.419 337.297 312.812 336.905C313.18 336.536 313.243 335.913 312.812 335.555C311.443 334.413 309.731 333.744 307.892 333.571C307.347 333.525 306.814 334.044 306.84 334.529C306.865 335.094 307.309 335.428 307.892 335.486L307.918 335.463Z" fill="#144162"/>
<path d="M365.243 286.304C360.983 291.149 355.163 294.793 348.658 296.65C346.807 297.181 344.905 297.573 342.977 297.815C342.419 297.885 342.102 298.542 342.242 298.992C342.407 299.546 342.977 299.73 343.535 299.661C350.598 298.773 357.305 295.889 362.631 291.587C364.115 290.387 365.497 289.073 366.739 287.654C367.094 287.25 367.17 286.696 366.739 286.304C366.372 285.97 365.611 285.901 365.256 286.304H365.243Z" fill="#144162"/>
<path d="M314.232 282.924C315.36 286.8 316.958 290.549 318.987 294.113C319.253 294.574 319.95 294.712 320.432 294.459C320.939 294.182 321.066 293.605 320.813 293.144C318.873 289.73 317.364 286.131 316.273 282.417C315.931 281.229 313.889 281.736 314.244 282.924H314.232Z" fill="#144162"/>
<path d="M332.148 274.516C331.869 278.265 332.3 282.048 333.378 285.67C333.923 287.481 334.633 289.245 335.496 290.964C335.927 291.829 336.396 292.671 336.916 293.501C337.36 294.217 337.829 295.012 338.64 295.439C339.49 295.877 340.504 295.808 341.417 295.624C342.279 295.451 343.116 295.197 343.928 294.886C345.525 294.274 346.984 293.421 348.315 292.406C350.965 290.387 353.019 287.803 354.883 285.185C357.597 281.379 360.209 277.515 362.859 273.674C363.226 273.155 362.313 272.671 361.946 273.19C359.587 276.592 357.242 279.983 354.883 283.386C353.133 285.912 351.295 288.426 348.974 290.537C347.833 291.575 346.578 292.509 345.17 293.248C343.763 293.986 342.102 294.655 340.479 294.793C339.477 294.874 338.818 294.528 338.298 293.767C337.778 293.028 337.334 292.233 336.903 291.437C336.028 289.822 335.293 288.15 334.722 286.431C333.429 282.579 332.909 278.542 333.201 274.528C333.251 273.916 332.199 273.916 332.148 274.528V274.516Z" fill="white"/>
<path d="M339.629 294.759C337.702 295.658 337.588 298.623 339.49 299.569C341.392 300.503 344.118 298.646 343.56 296.743C343.015 294.84 339.49 294.528 338.628 296.339L339.617 294.759H339.629Z" fill="white"/>
</g>
<defs>
<clipPath id="clip0_48_593">
<rect width="423" height="610" fill="white"/>
</clipPath>
</defs>
</svg>
