<svg width="342" height="182" viewBox="0 0 342 182" fill="none" xmlns="http://www.w3.org/2000/svg">
<path d="M333.18 17H333.81V164.676H333.586L332.955 164.594C332.932 164.591 332.91 164.579 332.895 164.561C332.88 164.543 332.871 164.519 332.871 164.495V94.8311C332.871 94.8216 332.868 94.8084 332.861 94.7924C332.855 94.7764 332.845 94.7581 332.833 94.7389C332.822 94.7219 332.818 94.7019 332.821 94.6792C332.824 94.6667 332.83 94.6558 332.84 94.6467C332.85 94.6372 332.857 94.6272 332.863 94.6174C332.868 94.6077 332.871 94.5984 332.871 94.5904L332.852 62.6566C332.813 62.3937 332.871 62.0983 332.871 61.8764C332.871 46.9642 332.871 32.0515 332.871 17.1383C332.871 17.1167 332.88 17.0959 332.896 17.0803C332.912 17.0647 332.933 17.0555 332.956 17.0546C333.039 17.0512 333.114 17.033 333.18 17Z" fill="#4D5DB5"/>
<path d="M332.852 62.6564L332.871 94.5902C332.871 94.5982 332.868 94.6075 332.863 94.6172C332.857 94.627 332.85 94.637 332.84 94.6465C332.83 94.6556 332.824 94.6664 332.821 94.679C330.369 93.2346 328.621 92.1961 327.579 91.5633C311.409 81.7558 295.367 71.7639 279.453 61.5876C279.418 61.565 279.376 61.5535 279.334 61.5547C279.292 61.5559 279.252 61.5698 279.218 61.5945C274.941 64.7016 268.817 67.7115 264.233 63.0524L266.156 60.2253C266.264 60.0659 266.231 60.0284 266.057 60.1126C263.946 61.1301 261.783 62.0446 259.567 62.8561L257.174 63.7046C254.15 64.7085 245.392 67.1788 245.98 60.7904C246.963 60.6179 247.974 60.5053 248.918 60.2765C252.301 59.457 255.677 58.6079 259.045 57.7293C261.507 57.0874 263.899 56.133 266.301 55.2692C266.729 55.1138 266.451 54.8406 266.15 54.8492C265.036 54.8765 263.923 55.0228 262.811 55.2879C263.411 54.9647 264.04 54.7388 264.699 54.6102C265.937 54.3712 267.13 54.0792 268.358 53.7753C268.383 53.7693 268.405 53.7562 268.422 53.7377C268.44 53.7192 268.451 53.6961 268.455 53.6712C269.469 47.8478 268.226 41.7069 263.694 37.6573C262.135 36.2625 260.527 34.5928 258.902 33.5224C251.528 28.667 241.728 30.4084 235.425 36.242C235.272 36.3308 235.159 36.4594 235.087 36.6279C235.083 36.6384 235.081 36.6498 235.081 36.6612C235.081 36.6726 235.084 36.6837 235.089 36.6938C235.094 36.7039 235.101 36.7127 235.109 36.7196C235.118 36.7265 235.128 36.7313 235.139 36.7337L236.149 36.9557C239.705 37.7603 243.26 38.569 246.814 39.3816C247.432 39.5216 248.448 39.8989 248.766 39.6906C248.789 39.6755 248.815 39.6651 248.841 39.6601C248.867 39.6551 248.894 39.6557 248.919 39.6616C249.928 39.9029 250.929 40.1698 251.924 40.4623C253.531 40.9335 255.096 41.263 256.684 41.6762C257.637 41.9254 258.422 42.6322 257.916 43.6753C248.771 43.6207 241.79 43.94 233.723 44.3224C230.611 42.6373 231.161 39.5916 232.986 37.2476C233.023 37.2 233.042 37.1407 233.04 37.0803C233.037 37.02 233.013 36.9624 232.972 36.9181L229.327 32.9266C236.999 30.3435 244.878 27.8254 252.81 26.1813C254.004 25.9343 255.17 25.8165 256.308 25.8279C256.509 25.829 256.694 25.8831 256.863 25.9901C265.457 31.377 274.251 36.4145 283.243 41.1025C285.961 42.5195 289.463 44.2285 292.662 45.5806C306.069 51.2486 319.473 56.8927 332.852 62.6564Z" fill="#FFAF80"/>
<path d="M81.266 49.6157C80.994 49.7682 80.825 49.9901 80.7589 50.2815C80.7545 50.3015 80.7422 50.3195 80.7239 50.3325C80.7056 50.3455 80.6824 50.3528 80.6582 50.3532L80.0624 50.3634C76.5216 50.3304 74.1235 50.2485 72.8681 50.1176C68.6444 49.6783 64.7457 48.5543 61.1718 46.7458C59.8283 46.0646 59.0002 44.4001 59.6251 42.9643C60.0485 41.9895 61.2726 41.3049 62.1381 40.7244C62.8005 40.2805 63.5295 38.4435 63.8659 37.9262C64.6409 36.7312 66.3926 36.7978 67.5432 37.2946C67.7106 37.368 67.6576 37.1392 67.6235 37.0931C66.8842 36.0688 65.8787 34.4093 65.9692 33.1135C66.1279 30.8276 67.8284 30.4656 69.7524 30.7781C71.7055 31.0939 73.061 28.6543 74.9834 29.8442C77.6842 31.5139 78.012 35.8383 78.3637 38.6228C78.4081 38.9745 78.8537 41.6463 79.0244 41.6839C79.0733 41.6941 79.0904 41.6036 79.0756 41.4124C78.8161 37.9854 78.9015 34.5675 79.3317 31.1588C79.4853 29.9432 79.6976 28.8614 79.9685 27.9133C80.4448 26.2488 82.4542 25.1595 83.8525 26.6261C84.5797 27.3875 85.1875 28.4989 86.2255 28.9445C87.8371 29.6359 89.1824 29.8835 89.418 31.8963C89.5 32.6014 89.5632 33.1409 89.4129 33.8272C88.6617 37.2707 86.0667 39.8844 84.6105 43.0445C84.4898 43.3074 84.2195 43.9716 83.7995 45.0369C83.1565 46.6679 82.312 48.1941 81.266 49.6157ZM81.9147 47.2529C82.2767 47.3963 82.3006 47.1402 82.345 46.8892C82.9163 43.5761 83.6504 40.2993 84.5473 37.059C84.9138 35.733 85.4368 34.4742 86.1162 33.2826C86.2323 33.0794 86.1794 32.8319 85.8807 32.9718C84.8495 33.4516 83.9737 35.4968 83.6083 36.5263C82.4269 39.8588 81.793 43.3308 81.7065 46.9421C81.7049 47.0087 81.724 47.0742 81.7613 47.1298C81.7985 47.1854 81.8521 47.2284 81.9147 47.2529ZM83.033 33.8306C83.1593 33.5256 83.0848 33.3924 82.8093 33.4311C82.7843 33.4348 82.7598 33.4447 82.7377 33.46C82.7156 33.4754 82.6963 33.4958 82.6813 33.5199C81.2165 35.8468 81.0577 38.8567 80.9741 41.4568C80.9638 41.7522 81.0048 42.138 81.435 41.8512C81.4563 41.8374 81.4743 41.8182 81.4876 41.7951C81.5009 41.7721 81.5092 41.7457 81.5118 41.718C81.7577 39.1759 81.9916 36.3351 83.033 33.8306ZM74.9578 39.7001C74.3244 38.2643 73.2557 36.8882 71.8796 36.19C71.8717 36.1859 71.8632 36.1832 71.8547 36.182C71.8461 36.1807 71.8378 36.181 71.8301 36.1828C71.8225 36.1846 71.8158 36.1878 71.8105 36.1923C71.8052 36.1968 71.8014 36.2024 71.7994 36.2088L71.7806 36.2634C71.7738 36.2832 71.774 36.3079 71.7812 36.335C71.7884 36.3622 71.8023 36.391 71.8216 36.4188L74.5002 40.342C74.5159 40.3649 74.5362 40.3836 74.5592 40.3962C74.5822 40.4087 74.6072 40.4147 74.6317 40.4137C75.0505 40.3955 75.1592 40.1576 74.9578 39.7001ZM77.1208 46.2541C78.0974 45.7539 71.7618 41.508 71.2462 41.1905C70.9031 40.9788 70.0563 40.4376 69.9282 40.9378C69.9218 40.9624 69.9214 40.9891 69.927 41.0159C69.9326 41.0427 69.9441 41.0691 69.9607 41.0932C70.1269 41.331 70.3773 41.5843 70.7119 41.8529C72.682 43.4321 74.8348 45.2264 76.9655 46.2507C76.9914 46.263 77.019 46.2696 77.0459 46.2702C77.0728 46.2708 77.0984 46.2653 77.1208 46.2541ZM77.5203 47.9801C75.2941 46.3753 72.9546 44.9561 70.5019 43.7223C69.119 43.0275 67.3623 42.7816 65.8565 42.406C65.8301 42.3997 65.803 42.4009 65.7791 42.4095C65.7551 42.4181 65.7356 42.4336 65.7233 42.4538C65.4536 42.8977 67.1147 43.473 67.4528 43.5669C70.6368 44.4496 73.6466 46.9968 77.4691 48.6921C77.4945 48.7037 77.5216 48.7096 77.5483 48.7093C77.575 48.709 77.6005 48.7025 77.6228 48.6904C78.0854 48.436 77.7969 48.1799 77.5203 47.9801Z" fill="white"/>
<path d="M262.812 55.2885L261.984 55.5941C261.779 55.3978 261.984 55.1963 262.175 55.1093C264.131 54.2317 267.047 52.5535 268.034 50.6278C268.966 48.8096 267.843 47.8382 266.043 48.1267C264.058 48.4454 262.076 48.7726 260.095 49.1083C259.921 49.1374 260.068 49.0093 260.094 48.9957C261.156 48.4272 262.241 47.6674 262.895 46.6311C263.491 45.6887 263.525 44.4408 262.282 44.0703C262.021 43.9918 261.552 43.9673 260.876 43.9969C259.925 44.039 258.968 44.0657 258.004 44.0771C257.983 44.0773 257.963 44.07 257.948 44.0567C257.933 44.0434 257.924 44.0251 257.922 44.0054L257.917 43.932V43.6759C258.422 42.6328 257.637 41.926 256.684 41.6767C255.097 41.2636 253.531 40.9341 251.924 40.4629C250.93 40.1704 249.928 39.9035 248.92 39.6622C248.894 39.6562 248.868 39.6557 248.841 39.6607C248.815 39.6657 248.789 39.6761 248.766 39.6912C248.449 39.8995 247.433 39.5222 246.815 39.3822C243.26 38.5696 239.705 37.7609 236.15 36.9562L235.426 36.2426C241.729 30.409 251.528 28.6676 258.902 33.523C260.527 34.5934 262.135 36.2631 263.694 37.6579C268.227 41.7075 269.47 47.8484 268.456 53.6718C268.452 53.6966 268.44 53.7198 268.423 53.7383C268.406 53.7568 268.383 53.7699 268.358 53.7759C267.131 54.0798 265.937 54.3717 264.7 54.6108C264.041 54.7394 263.411 54.9653 262.812 55.2885Z" fill="#144162"/>
<path d="M229.327 32.9267L232.972 36.9182C233.013 36.9625 233.037 37.02 233.039 37.0804C233.042 37.1408 233.023 37.2001 232.985 37.2477C231.16 39.5917 230.611 42.6374 233.723 44.3224C234.623 44.8403 235.574 45.2461 236.576 45.5397C236.586 45.5426 236.595 45.5477 236.603 45.5546C236.611 45.5615 236.618 45.5701 236.622 45.5799C236.626 45.5896 236.629 45.6002 236.629 45.6109C236.629 45.6217 236.626 45.6323 236.622 45.6421C236.427 46.0803 236.288 46.5345 236.205 47.0045C235.239 49.9205 236.743 52.1843 239.779 52.4557C240.279 52.6116 240.792 52.6902 241.317 52.6913C241.345 52.6915 241.372 52.6981 241.397 52.7107C241.422 52.7233 241.443 52.7415 241.46 52.7639C241.476 52.7862 241.487 52.8121 241.492 52.8396C241.497 52.867 241.495 52.8951 241.487 52.9218C241.351 53.3645 241.269 53.8249 241.242 54.3029C240.683 56.6897 241.837 58.8442 244.386 59.1259C244.928 59.2864 245.482 59.3615 246.049 59.3512C246.06 59.3511 246.07 59.3533 246.079 59.3576C246.089 59.3619 246.097 59.3682 246.104 59.3761C246.111 59.384 246.117 59.3933 246.12 59.4035C246.123 59.4136 246.124 59.4243 246.123 59.4349L245.979 60.7904C245.392 67.1789 254.15 64.7085 257.174 63.7047C258.361 64.9441 259.59 66.1398 260.863 67.2916L264.883 71.6484C264.899 71.6657 264.908 71.6883 264.908 71.7116C264.908 71.735 264.899 71.7575 264.883 71.7748C264.527 72.1618 264.042 72.6398 263.429 73.2089C250.804 84.9273 238.154 96.6702 225.479 108.438C225.461 108.455 225.439 108.467 225.415 108.474C225.391 108.481 225.366 108.483 225.341 108.479C225.317 108.474 225.294 108.464 225.274 108.449C225.254 108.435 225.237 108.415 225.226 108.393L213.687 85.5487C213.665 85.5032 213.625 85.4632 213.574 85.4344L213.4 85.3319C213.413 85.291 213.41 85.2523 213.392 85.2158C210.644 79.7015 207.915 74.1774 205.205 68.6437C205.258 68.5925 205.26 68.5197 205.212 68.4252C203.406 64.8832 201.45 60.7944 199.344 56.1587C203.946 55.1742 208.211 53.4209 212.138 50.8987C217.001 47.7762 221.626 43.52 225.61 39.6173C225.883 39.3493 225.619 39.3715 225.508 39.4756C220.729 43.9212 215.485 47.7261 209.776 50.8902C206.452 52.7306 202.643 54.3746 198.895 55.078C198.549 54.4566 198.3 53.7999 198.146 53.1079C198.139 53.0777 198.137 53.0478 198.14 53.0202C198.143 52.9926 198.152 52.9678 198.165 52.9474C198.23 52.8427 198.331 52.7801 198.469 52.7596C203.375 51.7455 208.345 49.1266 212.473 46.3916C218.295 42.5367 224.328 37.5533 227.676 31.397C228.06 31.4431 229.001 32.6091 229.327 32.9267Z" fill="#144162"/>
<path d="M227.675 31.397C224.327 37.5533 218.294 42.5367 212.472 46.3916C208.344 49.1266 203.374 51.7455 198.468 52.7596C208.382 45.917 218.028 38.6066 227.675 31.397Z" fill="#150C28"/>
<path d="M81.9154 47.2522C81.8528 47.2277 81.7992 47.1847 81.7619 47.1291C81.7247 47.0735 81.7055 47.008 81.7071 46.9414C81.7936 43.3301 82.4276 39.8581 83.609 36.5256C83.9743 35.4961 84.8501 33.4509 85.8813 32.9711C86.1801 32.8311 86.233 33.0787 86.1169 33.2819C85.4374 34.4735 84.9144 35.7323 84.548 37.0583C83.6511 40.2986 82.917 43.5753 82.3456 46.8885C82.3012 47.1395 82.2773 47.3956 81.9154 47.2522Z" fill="#535353"/>
<path d="M83.0329 33.8294C81.9915 36.3339 81.7576 39.1747 81.5117 41.7168C81.5091 41.7445 81.5008 41.7709 81.4875 41.7939C81.4742 41.817 81.4562 41.8361 81.4349 41.85C81.0047 42.1368 80.9637 41.7509 80.974 41.4556C81.0576 38.8555 81.2164 35.8456 82.6812 33.5187C82.6962 33.4946 82.7155 33.4741 82.7376 33.4588C82.7597 33.4435 82.7842 33.4336 82.8092 33.4299C83.0847 33.3912 83.1592 33.5243 83.0329 33.8294Z" fill="#535353"/>
<path d="M71.8793 36.1894C73.2554 36.8877 74.3241 38.2637 74.9575 39.6995C75.1589 40.157 75.0502 40.3949 74.6314 40.4131C74.6069 40.4142 74.5819 40.4082 74.5589 40.3956C74.5359 40.383 74.5156 40.3644 74.4999 40.3414L71.8213 36.4182C71.802 36.3905 71.7881 36.3617 71.7809 36.3345C71.7738 36.3073 71.7735 36.2827 71.7803 36.2628L71.7991 36.2082C71.8011 36.2019 71.8049 36.1962 71.8102 36.1918C71.8156 36.1873 71.8222 36.184 71.8299 36.1822C71.8375 36.1805 71.8459 36.1802 71.8544 36.1814C71.8629 36.1827 71.8715 36.1854 71.8793 36.1894Z" fill="#535353"/>
<path d="M235.424 36.2427L236.148 36.9563L235.138 36.7344C235.127 36.7319 235.117 36.7271 235.108 36.7202C235.1 36.7133 235.093 36.7045 235.088 36.6944C235.083 36.6844 235.08 36.6732 235.08 36.6618C235.08 36.6505 235.082 36.6391 235.086 36.6285C235.158 36.4601 235.271 36.3315 235.424 36.2427Z" fill="#030101"/>
<path d="M131.545 67.0713C130.761 68.0774 129.893 68.9925 128.942 69.8165C127.979 70.5734 126.922 70.9552 125.773 70.962C124.905 70.9677 124.208 70.7805 123.683 70.4004C121.18 68.5856 124.253 63.7695 125.28 61.9717C125.307 61.9228 125.295 61.912 125.245 61.9393C122.423 63.4656 117.961 66.3576 114.911 64.9235C111.692 63.4109 115.46 59.317 116.994 58.1885C118.443 57.1221 119.95 56.1393 121.515 55.2401C121.653 55.1616 121.642 55.1206 121.483 55.1172C118.597 55.0609 112.465 54.3984 112.001 50.3779C111.553 46.5076 117.722 47.0215 119.878 47.549C121.213 47.8768 122.514 48.3093 123.782 48.8465C123.934 48.9103 123.96 48.8801 123.863 48.756C122.282 46.7654 119.243 41.7239 121.372 39.3116C122.077 38.5126 123.137 38.4512 124.148 38.7533C127.226 39.6753 128.725 43.3287 129.476 46.1593C129.49 46.2151 129.498 46.2145 129.502 46.1576C129.536 45.5294 129.561 44.9057 129.577 44.2865C129.636 41.7717 130.68 37.2493 133.742 36.6688C134.546 36.5163 135.303 36.6779 136.015 37.1537C137.739 38.3095 138.132 40.2523 137.765 42.1968C137.446 43.887 137.009 45.5464 136.453 47.1751C136.436 47.2252 136.439 47.2594 136.46 47.2776C136.466 47.2829 136.474 47.286 136.482 47.2866C136.491 47.2873 136.5 47.2854 136.51 47.2811C136.519 47.2769 136.529 47.2704 136.537 47.2621C136.546 47.2538 136.553 47.2439 136.559 47.2332C137.85 44.896 142.113 39.5711 145.365 41.4781C147.844 42.931 146.009 46.0535 144.761 47.59C143.814 48.7566 142.521 50.2504 140.884 52.0715C140.877 52.0791 140.872 52.0878 140.869 52.097C140.865 52.1063 140.864 52.1157 140.864 52.1248C140.865 52.1338 140.867 52.1421 140.872 52.1491C140.876 52.1562 140.882 52.1617 140.889 52.1654C140.915 52.179 140.942 52.1773 140.969 52.1603C143.361 50.6664 148.778 47.8939 151.359 50.1662C152.892 51.5166 152.32 53.1214 151.001 54.296C149.124 55.9691 146.76 57.0447 144.426 57.9188C144.31 57.962 144.31 58.0047 144.426 58.0468C146.999 58.9704 152.399 62.011 150.024 65.5569C147.272 69.6645 142.483 65.7755 140.051 63.6346C139.957 63.5526 139.928 63.5714 139.962 63.6909C140.559 65.755 140.629 68.3022 139.922 70.3423C139.209 72.4012 136.795 74.4926 135.064 71.8088C133.674 69.656 133.537 67.0456 133.645 64.5719C133.654 64.3704 133.598 64.3505 133.476 64.5121L131.545 67.0713ZM138.728 57.7297C138.918 57.1382 138.94 56.499 138.792 55.8487C138.644 55.1984 138.329 54.5496 137.866 53.9395C137.403 53.3294 136.8 52.7698 136.092 52.2928C135.384 51.8157 134.584 51.4306 133.739 51.1592C132.032 50.6112 130.243 50.5603 128.765 51.0175C127.287 51.4747 126.241 52.4027 125.857 53.5973C125.668 54.1888 125.646 54.828 125.794 55.4783C125.942 56.1286 126.256 56.7774 126.72 57.3875C127.183 57.9976 127.786 58.5572 128.494 59.0342C129.202 59.5113 130.002 59.8965 130.847 60.1678C132.553 60.7158 134.343 60.7668 135.821 60.3095C137.299 59.8523 138.345 58.9243 138.728 57.7297Z" fill="white"/>
<path d="M199.344 56.1588C199.139 55.8208 198.989 55.4606 198.895 55.0782C202.642 54.3748 206.451 52.7307 209.775 50.8903C215.484 47.7262 220.728 43.9214 225.507 39.4757C225.618 39.3716 225.882 39.3494 225.609 39.6175C221.625 43.5202 217 47.7763 212.138 50.8989C208.21 53.421 203.945 55.1743 199.344 56.1588Z" fill="#030101"/>
<path d="M71.246 41.1897C71.7616 41.5072 78.0972 45.7531 77.1206 46.2533C77.0982 46.2645 77.0726 46.27 77.0457 46.2694C77.0187 46.2688 76.9912 46.2621 76.9653 46.2499C74.8346 45.2256 72.6818 43.4313 70.7117 41.8521C70.377 41.5835 70.1266 41.3302 69.9605 41.0923C69.9439 41.0683 69.9324 41.0419 69.9268 41.0151C69.9211 40.9883 69.9216 40.9616 69.928 40.937C70.0561 40.4368 70.9029 40.978 71.246 41.1897Z" fill="#535353"/>
<path d="M77.5218 47.979C77.7984 48.1788 78.0869 48.4349 77.6242 48.6892C77.6019 48.7014 77.5765 48.7079 77.5498 48.7082C77.5231 48.7085 77.496 48.7026 77.4706 48.6909C73.6481 46.9957 70.6382 44.4485 67.4542 43.5658C67.1162 43.4719 65.4551 42.8966 65.7248 42.4527C65.7371 42.4325 65.7566 42.4169 65.7805 42.4083C65.8045 42.3997 65.8316 42.3985 65.858 42.4049C67.3637 42.7805 69.1205 43.0263 70.5033 43.7212C72.9561 44.9549 75.2956 46.3742 77.5218 47.979Z" fill="#535353"/>
<path d="M257.915 43.6755V43.9316L257.871 44.0682C257.863 44.0923 257.849 44.1138 257.83 44.1304C257.811 44.1469 257.788 44.1579 257.763 44.1621C250.627 45.3008 243.624 46.8442 236.204 47.0047C236.287 46.5346 236.426 46.0805 236.621 45.6423C236.625 45.6324 236.627 45.6218 236.627 45.6111C236.627 45.6003 236.625 45.5897 236.621 45.58C236.616 45.5703 236.61 45.5617 236.602 45.5547C236.594 45.5478 236.585 45.5427 236.574 45.5398C235.573 45.2462 234.622 44.8404 233.722 44.3226C241.788 43.9402 248.769 43.6209 257.915 43.6755Z" fill="#150C28"/>
<path d="M257.916 43.9321L257.921 44.0055C257.923 44.0252 257.932 44.0435 257.947 44.0568C257.962 44.0701 257.982 44.0774 258.003 44.0772C258.967 44.0659 259.924 44.0391 260.875 43.997C261.551 43.9674 262.02 43.9919 262.281 44.0704C263.524 44.4409 263.49 45.6889 262.894 46.6313C262.24 47.6676 261.154 48.4273 260.093 48.9958C260.067 49.0094 259.92 49.1375 260.094 49.1085C262.075 48.7727 264.057 48.4455 266.042 48.1268C267.842 47.8383 268.965 48.8097 268.033 50.6279C267.046 52.5537 264.13 54.2319 262.174 55.1094C261.983 55.1965 261.778 55.3979 261.983 55.5942C260.767 55.8537 258.546 56.235 255.319 56.7381C252.724 57.1427 249.598 58.01 246.462 58.6451C245.765 58.7862 245.073 58.9467 244.386 59.1265C241.837 58.8448 240.683 56.6903 241.241 54.3036C247.941 53.5114 254.442 52.05 260.945 50.2916C260.972 50.2844 260.997 50.2711 261.017 50.2531C261.037 50.2351 261.05 50.2131 261.057 50.1891C261.112 50.0013 261.006 49.9257 260.74 49.9621C254.259 50.8413 246.722 51.2408 239.778 52.4564C236.743 52.1849 235.239 49.9211 236.205 47.0052C243.625 46.8447 250.628 45.3013 257.764 44.1626C257.789 44.1584 257.812 44.1474 257.831 44.1309C257.85 44.1143 257.864 44.0928 257.871 44.0687L257.916 43.9321Z" fill="#FFAF80"/>
<path d="M81.2671 49.6157C83.0119 60.2535 87.5037 70.2869 90.703 80.6379C91.8787 84.4427 92.7762 88.3125 93.3953 92.2471L92.0654 92.2829C91.5703 89.005 90.8555 85.7721 89.9211 82.5841C89.805 82.1869 89.6343 81.8301 89.409 81.5137C86.6859 77.6758 82.9402 75.5572 78.8599 73.1465C78.0883 72.6913 77.2421 72.1313 76.3213 71.4666C76.6206 71.0466 76.6923 70.5754 76.5364 70.053C80.5501 72.73 85.0026 74.8982 88.47 78.2802C88.6031 78.4099 88.639 78.3872 88.5775 78.2119C86.9978 73.6809 85.4277 69.1476 83.8673 64.6121C82.2676 59.9582 80.8881 55.2308 80.0635 50.3635L80.6594 50.3532C80.6836 50.3529 80.7067 50.3456 80.725 50.3325C80.7433 50.3195 80.7557 50.3015 80.7601 50.2815C80.8261 49.9902 80.9951 49.7682 81.2671 49.6157Z" fill="black"/>
<path d="M241.241 54.303C241.269 53.825 241.351 53.3646 241.487 52.9219C241.495 52.8952 241.497 52.867 241.492 52.8396C241.487 52.8122 241.476 52.7863 241.46 52.7639C241.443 52.7416 241.421 52.7234 241.397 52.7108C241.372 52.6982 241.344 52.6915 241.317 52.6914C240.792 52.6902 240.279 52.6117 239.778 52.4558C246.722 51.2402 254.259 50.8407 260.74 49.9615C261.006 49.9251 261.112 50.0008 261.057 50.1886C261.051 50.2125 261.037 50.2346 261.017 50.2525C260.997 50.2705 260.972 50.2838 260.945 50.291C254.442 52.0495 247.941 53.5109 241.241 54.303Z" fill="#150C28"/>
<path d="M138.729 57.7293C138.345 58.9239 137.299 59.8519 135.821 60.3091C134.343 60.7663 132.554 60.7154 130.847 60.1674C130.002 59.896 129.202 59.5109 128.494 59.0338C127.786 58.5568 127.183 57.9972 126.72 57.3871C126.257 56.777 125.942 56.1282 125.794 55.4779C125.646 54.8276 125.668 54.1884 125.858 53.5969C126.241 52.4023 127.287 51.4743 128.765 51.0171C130.243 50.5598 132.033 50.6108 133.739 51.1588C134.584 51.4301 135.384 51.8153 136.092 52.2924C136.8 52.7694 137.403 53.329 137.866 53.9391C138.33 54.5492 138.644 55.198 138.792 55.8483C138.94 56.4986 138.918 57.1378 138.729 57.7293ZM133.465 52.3449C133.473 52.3043 133.468 52.2619 133.451 52.2202C133.434 52.1784 133.406 52.1381 133.367 52.1016C133.329 52.0651 133.281 52.033 133.227 52.0072C133.173 51.9814 133.114 51.9625 133.052 51.9514C132.928 51.929 132.803 51.9402 132.704 51.9823C132.606 52.0245 132.542 52.0942 132.528 52.1762C132.52 52.2168 132.525 52.2592 132.542 52.3009C132.559 52.3427 132.587 52.383 132.626 52.4195C132.664 52.4561 132.712 52.4881 132.766 52.5139C132.82 52.5397 132.879 52.5587 132.941 52.5697C133.065 52.5921 133.19 52.581 133.289 52.5388C133.387 52.4967 133.451 52.4269 133.465 52.3449ZM130.453 52.4091C130.295 52.68 130.347 52.8575 130.61 52.9418C130.914 53.0385 131.15 53.0197 131.32 52.8854C131.668 52.6106 130.941 52.2998 130.767 52.2674C130.706 52.2559 130.643 52.2633 130.587 52.2887C130.531 52.314 130.484 52.3561 130.453 52.4091ZM128.657 52.8171C128.801 52.7249 128.794 52.6458 128.635 52.5798C128.407 52.4842 127.556 52.2042 127.87 52.8615C127.881 52.8858 127.898 52.9069 127.92 52.9229C127.941 52.939 127.966 52.9496 127.993 52.9537C128.234 52.9924 128.455 52.9469 128.657 52.8171ZM135.812 53.6605C135.592 53.3617 134.724 52.6071 134.741 53.5854C134.742 53.611 134.749 53.636 134.764 53.6574C134.778 53.6789 134.798 53.6959 134.822 53.7066C135.096 53.8318 135.389 53.8915 135.702 53.8859C135.883 53.8813 135.92 53.8062 135.812 53.6605ZM133.165 54.0598C133.17 54.0057 133.159 53.9509 133.134 53.8986C133.109 53.8462 133.07 53.7973 133.02 53.7547C132.969 53.712 132.908 53.6764 132.839 53.65C132.771 53.6235 132.697 53.6067 132.621 53.6004C132.545 53.5942 132.469 53.5986 132.397 53.6136C132.325 53.6285 132.259 53.6536 132.202 53.6874C132.145 53.7212 132.098 53.7631 132.065 53.8107C132.032 53.8582 132.013 53.9106 132.008 53.9646C132.004 54.0187 132.014 54.0735 132.039 54.1258C132.064 54.1782 132.103 54.2271 132.154 54.2697C132.204 54.3124 132.266 54.348 132.334 54.3744C132.403 54.4009 132.477 54.4177 132.553 54.424C132.629 54.4302 132.705 54.4257 132.777 54.4108C132.849 54.3959 132.915 54.3708 132.972 54.337C133.029 54.3032 133.075 54.2613 133.108 54.2137C133.141 54.1661 133.161 54.1138 133.165 54.0598ZM129.206 54.3332C129.358 54.8675 130.081 54.6456 130.454 54.5448C130.744 54.4675 130.752 54.3684 130.478 54.2478C130.144 54.0976 129.546 53.8227 129.239 54.1812C129.221 54.2016 129.209 54.2262 129.203 54.2528C129.198 54.2794 129.199 54.307 129.206 54.3332ZM128.025 55.5748C128.026 55.529 128.011 55.4832 127.98 55.4398C127.949 55.3965 127.902 55.3564 127.843 55.322C127.784 55.2876 127.714 55.2594 127.636 55.2392C127.558 55.219 127.474 55.207 127.388 55.204C127.303 55.2011 127.219 55.2071 127.139 55.2219C127.06 55.2366 126.988 55.2598 126.926 55.29C126.865 55.3202 126.816 55.3569 126.782 55.398C126.748 55.4391 126.73 55.4838 126.728 55.5295C126.726 55.5752 126.742 55.621 126.773 55.6644C126.804 55.7078 126.85 55.7478 126.909 55.7822C126.968 55.8167 127.039 55.8448 127.117 55.865C127.195 55.8853 127.279 55.8972 127.364 55.9002C127.449 55.9032 127.534 55.8971 127.613 55.8824C127.692 55.8676 127.765 55.8445 127.826 55.8142C127.888 55.784 127.937 55.7473 127.971 55.7062C128.005 55.6651 128.023 55.6205 128.025 55.5748ZM138.444 56.3135C138.354 55.9465 137.768 54.7156 137.35 55.6938C137.339 55.7173 137.335 55.7434 137.338 55.7696C137.34 55.7959 137.349 55.8215 137.364 55.8441C137.584 56.1855 137.906 56.3847 138.328 56.4416C138.345 56.444 138.362 56.4423 138.378 56.4365C138.394 56.4308 138.409 56.4211 138.42 56.4085C138.432 56.3958 138.44 56.3806 138.444 56.364C138.448 56.3474 138.448 56.3301 138.444 56.3135ZM132.932 55.6802C132.522 56.5065 134.06 56.4365 134.205 56.2162C134.417 55.897 133.628 55.5965 133.437 55.506C133.21 55.3979 133.042 55.4559 132.932 55.6802ZM130.613 56.8468C130.632 56.8097 130.637 56.7653 130.626 56.716C130.616 56.6666 130.59 56.6135 130.552 56.5594C130.513 56.5054 130.461 56.4516 130.4 56.4011C130.338 56.3506 130.268 56.3043 130.194 56.265C130.043 56.1856 129.883 56.1392 129.748 56.136C129.614 56.1329 129.516 56.1732 129.477 56.2481C129.457 56.2851 129.453 56.3296 129.463 56.3789C129.474 56.4282 129.499 56.4814 129.538 56.5354C129.577 56.5895 129.628 56.6433 129.69 56.6938C129.751 56.7443 129.821 56.7905 129.896 56.8298C130.046 56.9092 130.207 56.9556 130.341 56.9588C130.475 56.962 130.573 56.9217 130.613 56.8468ZM136.3 56.206C136.242 56.1737 136.178 56.1557 136.112 56.1533C136.046 56.1509 135.981 56.1643 135.921 56.1923C135.745 56.2766 135.69 56.4 135.757 56.5628C135.889 56.8769 136.425 56.9452 136.717 56.9418C136.744 56.9416 136.771 56.9346 136.794 56.9215C136.818 56.9084 136.838 56.8896 136.853 56.8667C136.868 56.8438 136.877 56.8177 136.879 56.7905C136.881 56.7634 136.876 56.7362 136.865 56.7113C136.793 56.5452 136.605 56.3767 136.3 56.206ZM127.803 57.5803C127.793 57.6039 127.789 57.6298 127.791 57.6557C127.794 57.6816 127.803 57.7067 127.817 57.7288C128.036 58.0612 128.34 58.2723 128.727 58.3622C129.136 58.4578 129.234 58.3252 129.019 57.9644C128.867 57.7095 128.62 57.487 128.278 57.2969C128.251 57.2818 128.223 57.2715 128.196 57.2668C128.168 57.2622 128.142 57.2631 128.117 57.2696C127.98 57.3072 127.875 57.4107 127.803 57.5803ZM133.794 58.2447C133.795 58.2025 133.775 58.1603 133.736 58.1203C133.698 58.0803 133.64 58.0434 133.568 58.0117C133.495 57.98 133.408 57.9541 133.312 57.9354C133.217 57.9168 133.114 57.9058 133.01 57.9031C132.8 57.8976 132.598 57.9261 132.448 57.9824C132.298 58.0387 132.212 58.1181 132.21 58.2032C132.209 58.2453 132.228 58.2876 132.267 58.3276C132.306 58.3675 132.363 58.4044 132.436 58.4362C132.508 58.4679 132.595 58.4938 132.691 58.5124C132.786 58.5311 132.889 58.5421 132.993 58.5448C133.203 58.5503 133.406 58.5218 133.556 58.4655C133.706 58.4092 133.791 58.3298 133.794 58.2447ZM136.6 58.1488C136.14 58.632 137.024 58.9171 137.403 58.3008C137.417 58.2781 137.425 58.2523 137.425 58.2265C137.425 58.2007 137.417 58.1761 137.403 58.1557L137.352 58.0857C137.337 58.0654 137.317 58.0496 137.292 58.0397C137.268 58.0297 137.241 58.0262 137.213 58.0293L136.746 58.0805C136.688 58.0872 136.637 58.1113 136.6 58.1488ZM131.604 59.2357C131.615 59.1709 131.55 59.0966 131.424 59.0291C131.297 58.9616 131.12 58.9065 130.931 58.8759C130.742 58.8453 130.557 58.8416 130.415 58.8658C130.274 58.89 130.189 58.94 130.179 59.0048C130.168 59.0696 130.233 59.1439 130.359 59.2114C130.486 59.2789 130.663 59.334 130.852 59.3646C131.041 59.3952 131.226 59.3988 131.368 59.3747C131.509 59.3505 131.594 59.3005 131.604 59.2357ZM135.168 59.5535C135.159 59.4629 135.07 59.3838 134.92 59.3336C134.77 59.2834 134.572 59.2661 134.369 59.2857C134.165 59.3053 133.974 59.3601 133.836 59.4379C133.699 59.5158 133.626 59.6105 133.635 59.7011C133.644 59.7917 133.733 59.8708 133.883 59.921C134.033 59.9712 134.231 59.9884 134.434 59.9689C134.638 59.9493 134.829 59.8945 134.967 59.8166C135.104 59.7387 135.177 59.6441 135.168 59.5535Z" fill="white"/>
<path d="M132.94 52.5704C133.198 52.6169 133.433 52.5163 133.464 52.3455C133.495 52.1748 133.31 51.9986 133.051 51.952C132.792 51.9054 132.557 52.0061 132.526 52.1768C132.496 52.3476 132.681 52.5238 132.94 52.5704Z" fill="black"/>
<path d="M130.452 52.4097C130.483 52.3567 130.53 52.3146 130.586 52.2892C130.643 52.2639 130.706 52.2564 130.767 52.268C130.941 52.3004 131.668 52.6111 131.32 52.886C131.15 53.0203 130.913 53.0391 130.61 52.9423C130.347 52.8581 130.294 52.6806 130.452 52.4097Z" fill="black"/>
<path d="M128.656 52.8173C128.454 52.947 128.233 52.9925 127.991 52.9538C127.965 52.9497 127.94 52.9391 127.919 52.9231C127.897 52.907 127.88 52.8859 127.869 52.8617C127.554 52.2044 128.406 52.4844 128.633 52.58C128.793 52.646 128.8 52.7251 128.656 52.8173Z" fill="black"/>
<path d="M134.741 53.5856C134.724 52.6074 135.592 53.362 135.812 53.6608C135.92 53.8064 135.884 53.8816 135.703 53.8861C135.39 53.8918 135.096 53.832 134.822 53.7069C134.798 53.6962 134.778 53.6791 134.764 53.6577C134.75 53.6362 134.742 53.6112 134.741 53.5856Z" fill="black"/>
<path d="M132.553 54.4243C132.872 54.4506 133.146 54.2875 133.165 54.0601C133.184 53.8327 132.94 53.6271 132.621 53.6008C132.301 53.5745 132.027 53.7376 132.008 53.965C131.989 54.1924 132.233 54.398 132.553 54.4243Z" fill="black"/>
<path d="M76.5353 70.0517C76.6912 70.5741 76.6195 71.0453 76.3202 71.4652C74.9965 72.5715 73.5579 73.3523 72.0043 73.8076C71.3886 73.9885 70.6078 74.1479 69.662 74.2856C67.4483 74.3493 65.4872 73.8736 63.7789 72.8583C63.1711 72.4964 62.4216 71.6974 61.6312 71.4055C60.4668 70.9736 59.2052 71.3799 58.145 70.8489C57.791 70.6714 57.2589 70.3163 56.5487 69.7836C56.2107 68.3 56.926 66.6304 58.5581 66.3811C59.1693 66.2866 59.9706 66.2622 60.9619 66.3077C63.7254 66.4317 66.4251 66.9098 69.061 67.7418C69.3388 67.8294 69.3524 67.7987 69.102 67.6496C66.3192 65.9924 63.8085 63.9113 61.5697 61.4062C60.5215 60.2333 59.9615 58.8539 60.8271 57.384C61.6687 55.9533 63.8864 56.4365 65.1737 55.4377C66.1183 54.7048 66.6908 54.2723 66.8912 54.1402C68.2296 53.261 69.9095 54.3195 70.6983 55.4411C72.2399 57.6315 72.4772 60.3648 73.5186 62.7686C74.5788 65.2151 75.9583 67.2723 76.5353 70.0517ZM68.484 56.7591C68.146 56.6612 68.006 56.7961 68.064 57.1637C68.7862 61.7733 70.939 67.2757 74.7376 70.2326C74.7606 70.2502 74.7861 70.2629 74.8124 70.2697C74.8386 70.2764 74.865 70.2772 74.8895 70.2719C75.1661 70.2087 75.1695 70.0192 75.0125 69.8126C72.0806 65.9554 69.9756 61.676 68.6974 56.9742C68.6833 56.9231 68.6563 56.8764 68.6189 56.8387C68.5815 56.8011 68.5351 56.7736 68.484 56.7591ZM66.7938 59.7553C65.8958 59.7178 67.528 62.5501 67.6936 62.7976C68.6371 64.2249 69.7456 65.5952 71.0192 66.9086C71.0382 66.9282 71.062 66.9417 71.087 66.9469C71.1119 66.9522 71.1367 66.9489 71.1575 66.9377C71.5639 66.7208 70.4746 65.2168 70.2868 64.9624C69.0474 63.2961 67.8114 61.7306 66.9543 59.8629C66.94 59.8316 66.9174 59.8049 66.889 59.7859C66.8607 59.7669 66.8277 59.7563 66.7938 59.7553ZM65.0388 69.5019C66.9663 70.0602 68.9654 70.9514 70.9612 71.1238C71.3675 71.1596 71.3265 70.8319 71.0005 70.7294C69.9613 70.3994 68.9307 70.0448 67.9087 69.6658C67.1285 69.3773 65.7729 68.8959 64.962 69.1315C64.934 69.1397 64.9089 69.1541 64.8894 69.173C64.8699 69.1919 64.8566 69.2147 64.851 69.239C64.8214 69.3688 64.884 69.4564 65.0388 69.5019Z" fill="white"/>
<path d="M129.238 54.1827C129.546 53.8241 130.143 54.099 130.478 54.2492C130.751 54.3699 130.743 54.4689 130.454 54.5463C130.08 54.647 129.358 54.869 129.206 54.3346C129.198 54.3085 129.197 54.2808 129.203 54.2543C129.208 54.2277 129.221 54.2031 129.238 54.1827Z" fill="black"/>
<path d="M245.98 60.791L246.123 59.4354C246.124 59.4249 246.123 59.4141 246.12 59.404C246.117 59.3939 246.112 59.3845 246.105 59.3766C246.098 59.3687 246.089 59.3624 246.08 59.3581C246.07 59.3538 246.06 59.3517 246.05 59.3518C245.483 59.362 244.928 59.2869 244.387 59.1264C245.074 58.9466 245.766 58.7861 246.463 58.645C249.599 58.0099 252.725 57.1426 255.32 56.738C258.547 56.2349 260.768 55.8537 261.983 55.5942L262.811 55.2886C263.923 55.0234 265.036 54.8771 266.151 54.8498C266.451 54.8413 266.729 55.1144 266.301 55.2698C263.899 56.1336 261.507 57.088 259.045 57.7299C255.677 58.6086 252.301 59.4576 248.918 60.2771C247.974 60.5059 246.963 60.6186 245.98 60.791Z" fill="#150C28"/>
<path d="M127.363 55.9004C127.721 55.9129 128.017 55.7672 128.024 55.575C128.031 55.3828 127.746 55.2168 127.388 55.2043C127.03 55.1918 126.734 55.3375 126.727 55.5297C126.72 55.7219 127.005 55.8879 127.363 55.9004Z" fill="black"/>
<path d="M137.35 55.6945C137.768 54.7162 138.354 55.9471 138.444 56.3142C138.448 56.3308 138.448 56.3481 138.444 56.3647C138.44 56.3812 138.432 56.3965 138.42 56.4091C138.409 56.4218 138.394 56.4314 138.378 56.4372C138.362 56.443 138.345 56.4447 138.328 56.4422C137.906 56.3853 137.584 56.1862 137.364 55.8447C137.349 55.8221 137.34 55.7965 137.338 55.7703C137.335 55.7441 137.339 55.718 137.35 55.6945Z" fill="black"/>
<path d="M132.931 55.6805C133.042 55.4563 133.21 55.3983 133.437 55.5064C133.628 55.5969 134.417 55.8973 134.205 56.2166C134.06 56.4368 132.522 56.5068 132.931 55.6805Z" fill="black"/>
<path d="M129.894 56.831C130.208 56.9963 130.529 57.0039 130.611 56.848C130.693 56.692 130.505 56.4315 130.192 56.2662C129.878 56.1008 129.557 56.0932 129.475 56.2492C129.393 56.4052 129.58 56.6656 129.894 56.831Z" fill="black"/>
<path d="M136.299 56.2067C136.604 56.3775 136.793 56.5459 136.864 56.7121C136.875 56.7369 136.88 56.7642 136.878 56.7913C136.876 56.8184 136.867 56.8446 136.852 56.8675C136.838 56.8903 136.817 56.9092 136.794 56.9223C136.77 56.9354 136.743 56.9424 136.716 56.9426C136.424 56.946 135.888 56.8777 135.756 56.5636C135.689 56.4008 135.744 56.2773 135.92 56.1931C135.98 56.1651 136.045 56.1517 136.111 56.1541C136.177 56.1565 136.242 56.1745 136.299 56.2067Z" fill="black"/>
<path d="M68.4855 56.7594C68.5365 56.7739 68.583 56.8013 68.6204 56.839C68.6577 56.8767 68.6848 56.9233 68.6989 56.9745C69.977 61.6762 72.082 65.9557 75.0139 69.8129C75.171 70.0195 75.1676 70.209 74.891 70.2722C74.8665 70.2775 74.8401 70.2767 74.8139 70.2699C74.7876 70.2631 74.7621 70.2505 74.7391 70.2329C70.9405 67.276 68.7877 61.7735 68.0655 57.164C68.0074 56.7964 68.1474 56.6615 68.4855 56.7594Z" fill="#535353"/>
<path d="M127.803 57.5811C127.875 57.4115 127.98 57.3079 128.117 57.2703C128.142 57.2638 128.168 57.2629 128.196 57.2676C128.224 57.2723 128.251 57.2825 128.278 57.2976C128.621 57.4877 128.867 57.7102 129.019 57.9652C129.234 58.326 129.137 58.4586 128.727 58.363C128.34 58.273 128.037 58.0619 127.817 57.7296C127.803 57.7074 127.794 57.6823 127.792 57.6564C127.789 57.6305 127.793 57.6047 127.803 57.5811Z" fill="black"/>
<path d="M132.993 58.5452C133.43 58.5567 133.789 58.4223 133.793 58.2451C133.798 58.0679 133.447 57.915 133.01 57.9035C132.572 57.8921 132.214 58.0265 132.209 58.2037C132.205 58.3809 132.556 58.5338 132.993 58.5452Z" fill="black"/>
<path d="M137.401 58.3014C137.022 58.9177 136.138 58.6326 136.599 58.1494C136.635 58.1119 136.686 58.0878 136.744 58.0811L137.212 58.0299C137.239 58.0268 137.266 58.0303 137.291 58.0403C137.315 58.0502 137.335 58.066 137.35 58.0863L137.401 58.1562C137.415 58.1767 137.423 58.2013 137.423 58.2271C137.423 58.2529 137.415 58.2787 137.401 58.3014Z" fill="black"/>
<path d="M130.851 59.3654C131.245 59.4292 131.582 59.3715 131.604 59.2365C131.626 59.1016 131.324 58.9405 130.931 58.8767C130.537 58.8129 130.2 58.8706 130.178 59.0056C130.156 59.1406 130.458 59.3017 130.851 59.3654Z" fill="black"/>
<path d="M134.435 59.9692C134.858 59.9285 135.186 59.7425 135.168 59.5538C135.15 59.3652 134.792 59.2453 134.369 59.2861C133.946 59.3268 133.617 59.5128 133.635 59.7014C133.654 59.8901 134.011 60.01 134.435 59.9692Z" fill="black"/>
<path d="M66.7954 59.7562C66.8293 59.7572 66.8622 59.7678 66.8906 59.7868C66.919 59.8058 66.9416 59.8325 66.9559 59.8638C67.8129 61.7315 69.049 63.297 70.2884 64.9633C70.4762 65.2177 71.5654 66.7217 71.1591 66.9386C71.1383 66.9498 71.1135 66.9531 71.0885 66.9478C71.0636 66.9426 71.0398 66.9291 71.0208 66.9095C69.7472 65.5961 68.6387 64.2258 67.6951 62.7985C67.5295 62.551 65.8974 59.7187 66.7954 59.7562Z" fill="#535353"/>
<path d="M264.232 63.0529L261.883 65.1408L259.566 62.8565C261.782 62.045 263.945 61.1305 266.056 60.113C266.23 60.0288 266.263 60.0664 266.155 60.2257L264.232 63.0529Z" fill="#144162"/>
<path d="M259.566 62.8569L261.883 65.1412L260.13 66.2953C260.121 66.3014 260.113 66.3092 260.107 66.3183C260.101 66.3274 260.097 66.3374 260.095 66.3479C260.093 66.3584 260.093 66.369 260.096 66.379C260.098 66.3891 260.103 66.3984 260.109 66.4063L260.862 67.2923C259.59 66.1405 258.36 64.9449 257.173 63.7054L259.566 62.8569Z" fill="#150C28"/>
<path d="M201.591 68.1547C205.068 74.084 208.884 79.3696 212.638 84.8993C212.527 84.9044 212.406 84.9283 212.3 84.8788C206.764 82.2667 201.137 79.8686 195.419 77.6845C193.428 76.9248 191.033 76.0131 188.909 75.8322C185.684 75.5573 181.478 79.9859 179.304 82.096C177.852 81.2777 176.441 80.3933 175.072 79.443C177.141 76.2243 179.403 73.1473 181.857 70.212C183.06 68.771 185.514 65.8209 187.622 66.1453C192.275 66.8589 196.931 67.5288 201.591 68.1547Z" fill="#144162"/>
<path d="M131.544 67.0718C128.618 75.6131 124.401 84.5692 121.613 92.192C121.605 92.2143 121.589 92.2336 121.569 92.2475C121.548 92.2615 121.523 92.2695 121.497 92.2706L120.155 92.332L120.014 92.2467C122.52 84.5948 126.175 77.3749 128.941 69.817C129.892 68.993 130.76 68.0779 131.544 67.0718Z" fill="black"/>
<path d="M201.592 68.1538L205.206 68.6438C207.916 74.1775 210.645 79.7015 213.392 85.2159C213.41 85.2523 213.413 85.291 213.401 85.332C213.105 85.2603 212.851 85.1158 212.639 84.8984C208.885 79.3686 205.069 74.083 201.592 68.1538Z" fill="#150C28"/>
<path d="M65.0396 69.5027C64.8849 69.4572 64.8223 69.3695 64.8519 69.2398C64.8575 69.2155 64.8707 69.1927 64.8902 69.1738C64.9098 69.1549 64.9348 69.1405 64.9628 69.1322C65.7738 68.8966 67.1293 69.3781 67.9095 69.6666C68.9316 70.0456 69.9622 70.4001 71.0013 70.7302C71.3274 70.8326 71.3684 71.1604 70.962 71.1246C68.9663 70.9521 66.9671 70.061 65.0396 69.5027Z" fill="#535353"/>
<path d="M69.6611 74.2866C67.7911 74.8273 65.8972 75.0953 63.9794 75.0908C60.0835 75.0805 57.311 73.9828 56.5479 69.7847C57.2581 70.3173 57.7901 70.6724 58.1441 70.85C59.2043 71.3809 60.466 70.9746 61.6303 71.4065C62.4207 71.6985 63.1702 72.4975 63.778 72.8594C65.4864 73.8746 67.4474 74.3504 69.6611 74.2866Z" fill="#535353"/>
<path d="M96.204 92.2392C95.7624 92.3223 95.3213 92.3223 94.8809 92.2392C95.0328 91.6571 95.3555 91.022 95.2752 90.4176C95.0379 88.6421 94.8621 87.1022 95.0926 85.3045C95.5501 81.7227 96.5659 74.0299 100.563 72.4899C103.016 71.5458 103.062 74.7759 104.146 75.913C104.931 76.7375 105.749 77.3641 105.776 78.2945C105.843 80.5959 103.028 80.9954 101.735 82.2297C100.714 83.204 99.7795 84.2562 98.9304 85.3864C98.8667 85.4706 98.8775 85.4945 98.9629 85.4581C98.9879 85.4467 99.0141 85.4245 99.0414 85.3915C100.691 83.3872 102.673 81.4751 105.082 80.4201C106.61 79.7508 109.459 79.5101 109.872 81.6715C110.005 82.3697 109.717 83.348 109.666 84.1487C109.566 85.6681 110.895 87.867 109.211 88.8606C108.262 89.4189 106.592 88.9579 105.587 88.7838C105.268 88.728 104.948 88.7223 104.627 88.7667C102.205 89.0945 99.8148 89.8696 97.7627 91.2064C97.2403 91.5467 96.7207 91.891 96.204 92.2392Z" fill="white"/>
<path d="M175.074 79.4424C176.443 80.3927 177.854 81.2771 179.306 82.0954L176.744 84.9841C175.588 84.0952 174.353 83.3417 173.037 82.7237C173.059 82.5359 173.096 82.4346 173.15 82.4198C173.751 81.4012 174.392 80.4087 175.074 79.4424Z" fill="#150C28"/>
<path d="M173.035 82.7231C174.351 83.3411 175.586 84.0945 176.741 84.9834C177.558 85.6424 178.431 86.2121 179.358 86.6924C179.372 86.6996 179.384 86.7095 179.393 86.7215C179.402 86.7335 179.409 86.7473 179.413 86.762C179.417 86.7767 179.418 86.7921 179.415 86.8071C179.413 86.8222 179.408 86.8366 179.399 86.8494L177.51 89.7791C177.499 89.7954 177.482 89.8071 177.464 89.8116C177.445 89.816 177.425 89.8129 177.409 89.803L166.786 83.4657C166.771 83.4565 166.757 83.4443 166.747 83.4299C166.736 83.4154 166.728 83.399 166.724 83.3816C166.72 83.3642 166.72 83.3462 166.723 83.3287C166.726 83.3112 166.732 83.2945 166.742 83.2796L168.598 80.4029C168.61 80.3838 168.63 80.3705 168.652 80.3657C168.675 80.3609 168.699 80.3651 168.719 80.3773C170.105 81.256 171.544 82.0379 173.035 82.7231Z" fill="#144162"/>
<path d="M93.3944 92.2466C93.8906 92.3194 94.3863 92.3171 94.8814 92.2397C95.3218 92.3228 95.7629 92.3228 96.2045 92.2397C98.3214 92.3012 100.441 92.3154 102.562 92.2824C103.566 92.2654 104.02 92.8117 104.034 93.7575C104.068 96.0418 104.072 98.326 104.046 100.61C104.046 100.619 104.043 100.628 104.039 100.636C104.034 100.644 104.028 100.65 104.02 100.655C104.012 100.659 104.004 100.662 103.995 100.662C103.986 100.662 103.977 100.659 103.969 100.655C101.878 99.516 98.6561 97.819 96.3376 98.8604C95.9996 99.0123 95.8545 99.4289 96.4213 99.4511C99.0897 99.5518 101.671 100.986 103.761 102.618C103.958 102.772 104.056 102.974 104.056 103.224C104.062 117.541 104.06 131.918 104.051 146.354C104.049 148.441 103.59 150.473 102.675 152.449C99.9143 158.4 93.4012 160.372 87.4105 158.624C81.8671 157.009 77.8619 152.555 77.0851 146.786C77.0612 146.607 77.0783 146.432 77.1364 146.262C78.719 141.647 82.8727 137.476 88.1036 138.14C88.6619 138.21 89.0938 138.146 89.6026 138.018C89.6276 138.011 89.6509 137.999 89.6705 137.982C89.6902 137.965 89.7057 137.944 89.7159 137.921C89.7262 137.897 89.7308 137.871 89.7295 137.845C89.7282 137.819 89.721 137.794 89.7084 137.772C89.4569 137.319 89.0608 136.999 88.5202 136.814C85.7118 135.844 82.7224 136.792 80.4757 138.586C78.2096 140.393 76.6737 142.745 75.8679 145.642C75.8613 145.666 75.8478 145.688 75.8291 145.705C75.8103 145.722 75.787 145.734 75.762 145.738C71.3352 146.468 66.5447 145.331 63.5638 141.835C60.426 138.154 60.4652 133.261 63.3487 129.471C63.3909 129.415 63.3977 129.377 63.3692 129.355C63.3565 129.346 63.3373 129.342 63.3143 129.345C63.2912 129.347 63.2652 129.356 63.2395 129.369C59.5365 131.23 55.1762 129.331 54.3926 125.181C54.0056 123.136 54.577 121.247 56.1066 119.515C56.2569 119.344 56.4453 119.248 56.6717 119.226C57.4622 119.153 58.3534 119.103 59.125 118.936C64.8357 117.693 70.3006 113.886 72.8171 108.47C74.3342 105.206 74.3001 101.966 72.7146 98.7511C71.6766 96.6495 70.1248 95.4835 68.088 94.4848C68.0384 94.4606 67.9986 94.4195 67.9753 94.3687C67.6885 93.7267 67.4939 93.0672 67.3915 92.39C67.3895 92.3776 67.3903 92.365 67.3937 92.3529C67.3972 92.3409 67.4033 92.3297 67.4115 92.3201C67.4198 92.3106 67.4301 92.3029 67.4416 92.2975C67.4532 92.2922 67.4658 92.2894 67.4785 92.2893H88.3546C88.4593 92.2893 88.4741 92.3257 88.399 92.3985C85.4096 95.3333 84.0592 99.7943 85.0972 103.837C86.1676 108.011 89.8621 110.012 93.9868 109.59C94.0171 109.587 94.0455 109.579 94.0704 109.568C94.0953 109.556 94.1162 109.54 94.1319 109.522C94.2355 109.404 94.2355 109.28 94.1319 109.152C94.1158 109.132 94.0945 109.116 94.0694 109.104C94.0444 109.093 94.0162 109.086 93.9868 109.085C88.2146 108.779 85.104 104.516 86.364 98.9423C86.966 96.2745 88.4035 94.0887 90.6764 92.3849C90.7264 92.3482 90.7806 92.3274 90.8318 92.3251L92.0644 92.2824L93.3944 92.2466ZM73.1705 115.735C68.7777 121.661 68.0061 131.866 77.5034 133.512C78.9785 133.768 80.0438 133.91 81.2969 133.335C81.351 133.309 81.3932 133.27 81.4164 133.224C81.5075 133.043 81.4431 132.957 81.2235 132.966C79.378 133.046 78.1812 132.797 76.4466 132.11C75.5441 131.754 74.8578 131.419 74.3877 131.105C69.1209 127.593 71.5196 119.62 74.7479 115.757C76.7659 113.338 79.1629 112.064 82.3742 112.547C82.5915 112.58 82.6035 112.545 82.41 112.441C78.9631 110.603 75.1935 113.007 73.1705 115.735ZM89.5787 125.761C94.8353 126.238 98.5348 130.612 98.5178 135.824C98.5132 137.18 98.2122 138.661 97.6146 140.264C96.0764 144.389 92.1139 145.109 88.3205 145.953C87.9437 146.037 87.6011 146.035 87.2927 145.946C86.8386 145.818 87.6222 146.381 87.7229 146.422C87.8789 146.485 88.0814 146.53 88.3307 146.559C92.4861 147.037 96.9113 145.314 98.7721 141.34C100.36 137.949 100.584 134.11 98.9395 130.743C97.4576 127.709 94.6748 125.476 91.3679 124.756C87.6222 123.941 84.4843 125.172 81.6144 127.585C81.5171 127.667 81.4498 127.778 81.4232 127.902C81.3703 128.141 81.6452 128.131 81.7817 128.039C84.0933 126.487 86.9137 125.521 89.5787 125.761Z" fill="#FF916C"/>
<path d="M120.013 92.2466L120.155 92.3319C123.616 94.5531 125.529 99.8062 124.386 103.717C123.334 107.316 120.418 108.954 116.823 109.14C116.628 109.15 116.415 109.225 116.555 109.462C116.567 109.483 116.586 109.501 116.609 109.514C116.632 109.527 116.658 109.535 116.686 109.537C122.246 109.891 125.891 106.362 125.702 100.779C125.591 97.5618 124.371 94.7864 122.042 92.4532C121.932 92.3439 121.955 92.2893 122.11 92.2893H143.307C143.318 92.2891 143.328 92.2913 143.338 92.2957C143.348 92.3002 143.357 92.3067 143.364 92.3148C143.371 92.3229 143.376 92.3325 143.379 92.3428C143.381 92.3532 143.382 92.364 143.38 92.3746C143.263 93.1338 143.051 93.8207 142.745 94.4353C142.692 94.5428 142.605 94.6303 142.498 94.6845C140.307 95.772 138.597 97.2061 137.69 99.6321C137.088 101.244 136.83 102.747 136.915 104.143C137.419 112.291 146.46 118.683 153.989 119.088C154.045 119.09 154.099 119.112 154.139 119.149C155.323 120.218 156.043 121.465 156.301 122.89C157.023 126.914 153.687 130.577 149.566 130.052C148.888 129.965 148.151 129.735 147.353 129.362C147.343 129.357 147.332 129.354 147.321 129.352C147.31 129.351 147.299 129.351 147.289 129.353C147.279 129.355 147.271 129.358 147.264 129.363C147.257 129.368 147.252 129.375 147.249 129.382C147.247 129.387 147.259 129.471 147.266 129.481C150.981 134.246 149.791 140.59 144.787 143.86C141.822 145.796 138.226 146.272 134.743 145.736C134.718 145.732 134.694 145.722 134.674 145.706C134.654 145.689 134.639 145.668 134.631 145.644C133.337 141.806 130.646 138.091 126.586 136.954C125.099 136.539 122.342 136.358 121.115 137.615C120.893 137.842 120.94 137.966 121.258 137.985C121.655 138.009 122.007 137.999 122.315 137.956C127.53 137.215 131.679 140.988 133.463 145.581C133.568 145.85 133.606 146.129 133.577 146.415C133.357 148.676 132.647 150.737 131.448 152.599C125.818 161.352 110.776 162.132 107.298 150.719C106.818 149.142 106.577 147.463 106.577 145.683C106.576 131.36 106.576 117.078 106.576 102.837C106.576 102.757 106.594 102.679 106.629 102.608C106.664 102.537 106.714 102.475 106.777 102.427C108.79 100.858 111.73 99.2001 114.342 99.4204C114.638 99.4454 114.707 99.3629 114.549 99.1728C114.149 98.6948 113.082 98.6282 112.502 98.6572C110.658 98.7546 108.244 99.936 106.712 100.911C106.624 100.968 106.579 100.943 106.579 100.837C106.571 98.3721 106.573 95.9109 106.584 93.4536C106.588 92.5556 107.108 92.2739 107.96 92.2807C111.979 92.3126 115.997 92.3012 120.013 92.2466ZM128.382 112.546C135.534 111.074 140.236 120.628 139.356 126.393C138.924 129.22 137.161 131.195 134.496 132.148C132.722 132.783 131.266 133.236 129.41 133.02C129.383 133.017 129.356 133.023 129.335 133.036C129.313 133.049 129.299 133.068 129.296 133.09C129.234 133.478 130.603 133.596 130.829 133.596C138.45 133.599 141.883 128.025 139.867 120.973C138.559 116.402 134.03 110.022 128.346 112.368C128.321 112.377 128.252 112.467 128.254 112.493C128.255 112.502 128.259 112.512 128.266 112.52C128.272 112.528 128.282 112.535 128.294 112.54C128.307 112.545 128.321 112.548 128.336 112.549C128.351 112.55 128.367 112.549 128.382 112.546ZM112.642 142.315C114.598 145.565 119.006 146.847 122.586 146.455C122.887 146.422 123.155 146.298 123.39 146.083C123.409 146.065 123.424 146.045 123.433 146.024C123.442 146.004 123.444 145.984 123.44 145.966C123.431 145.924 123.399 145.913 123.346 145.932C122.967 146.071 122.611 146.111 122.277 146.052C119.271 145.517 115.383 144.736 113.632 141.872C111.424 138.265 111.209 133.335 113.748 129.811C117.488 124.617 123.848 124.517 128.824 127.962C129.166 128.198 129.277 127.94 129.022 127.704C122.383 121.546 111.919 125.422 110.868 134.301C110.533 137.122 111.124 139.794 112.642 142.315Z" fill="#FF916C"/>
<path d="M49.2457 97.293C45.6742 97.2987 43.2607 95.6683 42.0053 92.4017C42.0006 92.389 41.999 92.3754 42.0006 92.3619C42.0022 92.3485 42.007 92.3357 42.0146 92.3246C42.0221 92.3135 42.0322 92.3045 42.044 92.2983C42.0558 92.2921 42.0689 92.2889 42.0822 92.2891L66.1456 92.2908C66.1698 92.2908 66.1934 92.2985 66.213 92.3129C66.2327 92.3273 66.2473 92.3477 66.2549 92.371L66.7261 93.9075C66.742 93.961 66.7232 93.9798 66.6698 93.9639C62.1507 92.5742 57.5173 93.7761 55.9227 98.5956C55.1715 100.863 55.2398 104.342 57.5121 105.838C59.286 107.004 61.7768 106.095 63.2911 104.812C63.6718 104.489 63.3304 104.277 63.0146 104.462C61.6061 105.281 59.496 105.973 58.0858 104.996C56.3751 103.813 56.2949 100.991 56.8975 99.2034C58.1455 95.5021 61.2151 94.1004 64.8601 94.7782C67.2758 95.2272 69.8435 96.523 71.1768 98.6724C73.7531 102.83 72.4761 107.594 69.4662 111.098C66.1542 114.953 61.1759 117.811 56.0849 118.239C55.3257 118.303 54.5507 118.186 53.7596 117.887C47.7553 115.624 44.865 108.865 46.0327 102.845C46.4641 100.622 47.5413 98.7902 49.2645 97.3493C49.3077 97.3118 49.3015 97.293 49.2457 97.293Z" fill="#FF916C"/>
<path d="M147.252 104.614C147.235 104.88 148.977 105.735 149.258 105.858C151.089 106.652 153.189 106.278 154.24 104.484C155.457 102.406 155.135 99.4512 154.068 97.4315C152.012 93.539 147.7 92.8117 143.78 94.2048C143.631 94.2572 143.592 94.2128 143.662 94.0717C143.927 93.5367 144.118 92.9722 144.234 92.3781C144.239 92.3544 144.252 92.3332 144.27 92.3179C144.289 92.3027 144.312 92.2944 144.337 92.2944L168.55 92.2996C168.56 92.2995 168.569 92.3018 168.578 92.3062C168.586 92.3107 168.594 92.3171 168.599 92.325C168.605 92.3329 168.608 92.342 168.61 92.3515C168.611 92.361 168.61 92.3708 168.607 92.3798C167.422 95.5962 165.012 97.2357 161.376 97.2983C161.323 97.2983 161.317 97.3154 161.358 97.3496C163.691 99.2685 164.688 101.823 164.842 104.827C165.156 110.968 161.506 117.087 155.138 118.325C154.835 118.383 154.322 118.366 153.598 118.275C147.184 117.469 139.312 111.999 138.054 105.286C137.424 101.928 138.691 98.0359 141.747 96.1699C145.491 93.8822 150.788 93.4144 153.298 97.7644C154.38 99.639 154.645 102.582 153.346 104.399C151.906 106.41 149.221 105.481 147.538 104.464C147.51 104.447 147.478 104.437 147.446 104.436C147.413 104.435 147.381 104.443 147.352 104.458C147.324 104.473 147.299 104.495 147.282 104.523C147.264 104.55 147.254 104.581 147.252 104.614Z" fill="#FF916C"/>
<path d="M77.5047 133.512C68.0073 131.866 68.779 121.661 73.1717 115.735C75.1948 113.007 78.9644 110.603 82.4113 112.441C82.6048 112.545 82.5928 112.58 82.3754 112.547C79.1641 112.064 76.7672 113.338 74.7492 115.757C71.5208 119.62 69.1222 127.593 74.389 131.105C74.859 131.419 75.5453 131.754 76.4479 132.111C78.1825 132.797 79.3792 133.046 81.2247 132.966C81.4444 132.957 81.5087 133.043 81.4177 133.224C81.3945 133.27 81.3523 133.309 81.2982 133.335C80.045 133.91 78.9797 133.768 77.5047 133.512Z" fill="#FEE9E4"/>
<path d="M139.356 126.393C140.235 120.628 135.534 111.074 128.382 112.546C128.367 112.549 128.351 112.55 128.336 112.549C128.32 112.548 128.306 112.545 128.294 112.54C128.282 112.535 128.272 112.528 128.265 112.52C128.258 112.512 128.254 112.503 128.254 112.493C128.252 112.468 128.321 112.377 128.346 112.368C134.03 110.023 138.559 116.403 139.867 120.973C141.883 128.026 138.45 133.6 130.828 133.596C130.603 133.596 129.234 133.478 129.295 133.091C129.299 133.069 129.313 133.049 129.334 133.036C129.356 133.023 129.383 133.018 129.41 133.021C131.266 133.236 132.722 132.784 134.496 132.149C137.161 131.196 138.924 129.221 139.356 126.393Z" fill="#FEE9E4"/>
<path d="M89.5791 125.761C86.9141 125.52 84.0938 126.486 81.7822 128.038C81.6456 128.131 81.3707 128.141 81.4237 127.902C81.4503 127.778 81.5175 127.666 81.6149 127.584C84.4847 125.172 87.6226 123.941 91.3683 124.755C94.6752 125.476 97.458 127.709 98.9399 130.743C100.584 134.109 100.36 137.949 98.7726 141.339C96.9117 145.314 92.4866 147.036 88.3311 146.558C88.0819 146.53 87.8793 146.484 87.7234 146.422C87.6226 146.381 86.839 145.818 87.2931 145.946C87.6016 146.034 87.9442 146.037 88.3209 145.952C92.1144 145.109 96.0769 144.389 97.6151 140.264C98.2126 138.66 98.5137 137.18 98.5182 135.823C98.5353 130.611 94.8357 126.237 89.5791 125.761Z" fill="#FEE9E4"/>
<path d="M122.586 146.455C119.006 146.848 114.598 145.566 112.642 142.315C111.125 139.794 110.533 137.123 110.868 134.301C111.92 125.422 122.383 121.546 129.023 127.704C129.277 127.94 129.166 128.198 128.825 127.962C123.848 124.517 117.489 124.618 113.748 129.811C111.209 133.335 111.425 138.265 113.632 141.873C115.384 144.736 119.271 145.518 122.277 146.052C122.611 146.111 122.967 146.071 123.346 145.933C123.4 145.913 123.431 145.925 123.44 145.967C123.444 145.984 123.442 146.004 123.433 146.025C123.424 146.045 123.41 146.065 123.391 146.083C123.155 146.298 122.887 146.422 122.586 146.455Z" fill="#FEE9E4"/>
</svg>
