<svg width="676" height="1024" viewBox="0 0 676 1024" fill="none" xmlns="http://www.w3.org/2000/svg">
<g clip-path="url(#clip0_48_931)">
<circle cx="610" cy="610" r="610" transform="matrix(-1 0 0 1 1220 -114)" fill="#103150"/>
<path d="M443.303 868.847L433.076 867.559L451.689 674.787L461.916 676.09L443.303 868.847Z" fill="#D07F69"/>
<path d="M567.846 868.847L578.057 867.559L559.444 674.787L549.233 676.09L567.846 868.847Z" fill="#D07F69"/>
<path d="M562.219 732.742H448.915V738.43H562.219V732.742Z" fill="#D07F69"/>
<path d="M572.17 686.393H438.964C433.72 686.393 429.458 682.146 429.458 676.887C429.458 671.628 433.705 667.381 438.964 667.381H572.17C577.414 667.381 581.676 671.628 581.676 676.887C581.676 682.146 577.429 686.393 572.17 686.393Z" fill="#4D5DB5"/>
<path d="M544.526 185.49V326.761C544.526 327.466 545.63 327.466 545.63 326.761V185.49C545.63 184.785 544.526 184.785 544.526 185.49Z" fill="#5C4CA0"/>
<path d="M545.078 329.214C547.915 329.214 550.214 326.914 550.214 324.078C550.214 321.241 547.915 318.941 545.078 318.941C542.241 318.941 539.942 321.241 539.942 324.078C539.942 326.914 542.241 329.214 545.078 329.214Z" fill="#5C4CA0"/>
<path d="M175.971 167V578.071H571.51V167H175.971ZM565.592 381.053H360.34V173.593H565.592V381.053ZM354.407 173.593V381.053H181.889V173.593H354.407ZM181.889 387.645H354.407V571.463H181.889V387.645ZM360.325 571.463V387.645H565.577V571.463H360.325Z" fill="#FF916C"/>
<path d="M629.482 571.371H118V589.34H629.482V571.371Z" fill="#144162"/>
<path d="M215.697 512.281C211.649 498.559 201.514 487.596 191.702 477.186C206.681 478.933 220.419 489.007 226.598 502.76C226.659 489.528 232.485 476.419 242.267 467.496C238.572 478.167 236.794 489.513 237.085 500.797C244.95 488.869 257.599 480.191 271.567 477.17C257.599 489.727 246.652 505.611 239.86 523.121C231.535 524.869 222.979 525.467 214.501 524.869L215.697 512.281V512.281Z" fill="#4D5DB5"/>
<path d="M239.415 498.681C238.48 498.421 237.99 497.148 238.526 496.336C239.078 495.508 240.427 495.554 241.041 496.305C241.332 496.658 241.976 496.274 241.807 495.86C241.547 495.186 241.378 494.465 241.409 493.744C241.439 493.177 241.685 492.518 242.129 492.242C242.344 492.104 242.497 492.058 242.773 492.012C242.712 492.012 242.88 492.012 242.896 492.012C242.957 492.012 243.018 492.012 243.095 492.012C243.233 492.012 243.218 492.012 243.371 492.058C243.417 492.058 243.478 492.089 243.524 492.104C243.678 492.165 243.724 492.196 243.785 492.242C243.969 492.411 243.954 492.38 244.03 492.518C244.076 492.671 244.092 492.733 244.107 492.794C244.398 492.717 244.705 492.625 244.996 492.549C244.736 491.92 244.598 491.23 244.674 490.54C244.705 490.233 244.797 489.927 244.95 489.651C245.088 489.405 245.272 489.191 245.472 489.068C245.855 488.823 246.346 488.777 246.775 488.899C247.22 489.022 247.495 489.252 247.557 489.712C247.848 489.635 248.155 489.543 248.446 489.467C248.216 488.317 248.124 486.906 248.86 485.894C249.013 485.695 249.151 485.542 249.351 485.434C249.535 485.327 249.688 485.281 249.933 485.235C250.087 485.22 250.148 485.22 250.209 485.204C250.317 485.204 250.485 485.204 250.547 485.204C250.593 485.204 250.761 485.25 250.838 485.266C250.884 485.266 250.93 485.296 250.976 485.312C251.068 485.342 251.007 485.312 251.083 485.358C251.175 485.404 251.329 485.496 251.359 485.526C251.359 485.526 251.436 485.603 251.467 485.618C251.681 485.91 251.712 486.002 251.712 486.247C252.003 486.17 252.279 486.094 252.57 486.017C252.095 484.898 252.11 483.411 252.877 482.414C253.061 482.184 253.276 481.985 253.536 481.831C253.659 481.755 253.69 481.755 253.828 481.709C253.935 481.678 254.134 481.632 254.18 481.617C254.717 481.555 255.208 481.647 255.652 481.893C255.775 481.969 255.898 482.046 255.974 482.107C256.036 482.153 256.082 482.215 256.128 482.261C256.174 482.307 256.22 482.368 256.22 482.368C256.296 482.491 256.373 482.613 256.388 482.69C256.434 482.843 256.465 482.966 256.465 483.089L257.369 482.966C256.94 481.954 256.925 480.651 257.63 479.731C257.799 479.516 258.013 479.332 258.259 479.194C258.427 479.102 258.703 479.026 258.887 479.026C259.378 478.995 259.823 479.133 260.237 479.424C260.421 479.547 260.589 479.746 260.696 479.945C260.804 480.145 260.85 480.359 260.819 480.635H261.739C261.693 479.532 262.061 477.998 263.257 477.615C263.502 477.538 263.717 477.538 263.962 477.615C264.208 477.676 264.453 477.814 264.637 477.983C264.836 478.152 264.974 478.351 265.036 478.566C265.097 478.78 265.081 478.934 264.974 479.148L265.817 479.501C266.093 478.458 266.4 477.293 267.213 476.542C267.565 476.22 267.918 476.051 268.347 476.051C268.746 476.051 269.129 476.174 269.466 476.419C269.589 476.511 269.712 476.649 269.804 476.833C269.773 476.772 269.834 476.91 269.834 476.94C269.865 477.17 269.85 477.216 269.834 477.324L270.739 477.446C270.708 477.201 270.739 477.094 270.862 476.91C270.862 476.91 271 476.772 271.03 476.741C271.092 476.695 271.23 476.603 271.337 476.572C271.69 476.419 272.134 476.434 272.426 476.741C272.763 477.078 272.809 477.615 272.686 478.06C272.548 478.596 272.165 478.995 271.644 479.179C270.984 479.409 270.233 479.348 269.604 479.041C269.374 478.934 269.099 478.98 268.976 479.21C268.853 479.424 268.915 479.716 269.145 479.838C269.85 480.221 270.08 481.264 269.589 481.877C269.083 482.506 267.933 482.475 267.458 481.816C267.105 481.325 266.431 481.739 266.661 482.276C266.983 483.027 266.661 483.947 266.124 484.545C265.541 485.189 264.698 485.557 263.87 485.327C263.533 485.22 263.211 485.557 263.303 485.894C263.548 486.845 263.104 487.811 262.368 488.47C261.616 489.129 260.62 489.421 259.685 489.053C259.286 488.899 258.979 489.405 259.163 489.727C259.639 490.555 259.593 491.644 259.01 492.411C258.473 493.116 257.523 493.499 256.649 493.33C256.327 493.269 255.944 493.545 256.082 493.898C256.695 495.6 255.162 497.639 253.337 497.516C252.816 497.47 252.708 498.313 253.214 498.421C253.475 498.482 253.644 498.635 253.72 498.911C253.812 499.203 253.797 499.509 253.69 499.785C253.368 500.537 252.402 500.889 251.681 501.165C251.39 501.273 251.252 501.564 251.405 501.84C252.202 503.342 250.669 505.612 248.952 505.366C248.722 505.336 248.492 505.397 248.4 505.627C248.323 505.811 248.369 506.118 248.584 506.209C248.891 506.332 249.013 506.516 249.075 506.838C249.136 507.114 249.075 507.467 248.937 507.743C248.507 508.525 247.465 508.801 246.683 509.031C246.315 509.138 246.269 509.537 246.484 509.797C246.622 509.981 246.683 510.227 246.683 510.472C246.683 510.717 246.591 510.993 246.468 511.238C246.33 511.468 246.162 511.668 245.947 511.806C245.686 511.974 245.487 512.005 245.18 511.974C244.843 511.928 244.598 512.404 244.782 512.664C245.027 513.017 245.042 513.508 244.72 513.814C244.398 514.121 243.908 514.106 243.57 513.86C243.371 513.722 243.049 513.83 242.942 514.029C242.804 514.259 242.896 514.52 243.11 514.658C243.785 515.133 244.797 515.041 245.38 514.458C245.962 513.876 246.054 512.864 245.579 512.189C245.441 512.419 245.318 512.649 245.18 512.879C246.07 512.986 246.882 512.388 247.296 511.637C247.741 510.824 247.725 509.874 247.158 509.123L246.959 509.889C248.032 509.567 249.335 509.138 249.841 508.019C250.24 507.129 250.102 505.811 249.09 505.382L248.737 506.225C250.01 506.409 251.16 505.78 251.896 504.768C252.601 503.772 252.8 502.438 252.233 501.349L251.957 502.024C253.015 501.625 254.257 501.104 254.64 499.923C254.947 498.988 254.548 497.715 253.49 497.485C253.444 497.792 253.414 498.083 253.368 498.39C255.76 498.574 257.814 495.86 257.001 493.606C256.817 493.79 256.618 493.99 256.434 494.174C257.707 494.404 259.025 493.913 259.807 492.871C260.589 491.828 260.651 490.325 260.007 489.191C259.838 489.421 259.654 489.651 259.485 489.865C262 490.847 264.913 488.133 264.238 485.572C264.054 485.756 263.855 485.956 263.671 486.14C264.836 486.477 266.078 485.971 266.86 485.082C267.673 484.146 268.01 482.889 267.504 481.724C267.243 481.877 266.967 482.031 266.707 482.184C267.351 483.089 268.562 483.38 269.574 482.935C270.586 482.491 271 481.325 270.708 480.298C270.54 479.731 270.172 479.225 269.65 478.934C269.497 479.194 269.344 479.47 269.191 479.731C270.003 480.114 270.938 480.252 271.812 479.991C272.656 479.746 273.315 479.148 273.591 478.32C273.852 477.569 273.729 476.695 273.223 476.066C272.748 475.468 271.935 475.3 271.214 475.53C270.448 475.775 269.758 476.48 269.865 477.324C269.896 477.554 270.018 477.753 270.264 477.784C270.494 477.814 270.708 477.676 270.77 477.446C271.076 476.22 270.018 475.254 268.884 475.054C268.286 474.947 267.657 475.024 267.136 475.361C266.538 475.729 266.078 476.296 265.756 476.925C265.388 477.63 265.173 478.382 264.974 479.148C264.836 479.654 265.557 479.976 265.817 479.501C266.492 478.305 265.495 477.017 264.346 476.649C263.027 476.22 261.785 477.17 261.279 478.336C260.972 479.026 260.834 479.792 260.865 480.543C260.88 481.141 261.724 481.126 261.785 480.543C261.938 479.102 260.512 478.09 259.209 477.998C257.676 477.891 256.511 479.179 256.265 480.605C256.112 481.448 256.189 482.322 256.526 483.104C256.618 483.319 256.787 483.472 257.032 483.441C257.247 483.411 257.446 483.227 257.431 482.981C257.354 481.479 255.898 480.543 254.502 480.559C252.831 480.559 251.666 481.954 251.436 483.533C251.298 484.499 251.436 485.465 251.819 486.354C251.896 486.538 252.156 486.615 252.34 486.569C252.54 486.508 252.678 486.324 252.678 486.124C252.693 484.821 251.39 484.085 250.209 484.131C249.581 484.162 248.967 484.376 248.523 484.806C247.971 485.342 247.633 486.094 247.511 486.845C247.357 487.75 247.434 488.654 247.618 489.559C247.664 489.804 247.955 489.942 248.185 489.881C248.446 489.804 248.553 489.559 248.507 489.313C248.323 488.194 247.097 487.658 246.07 487.78C245.502 487.842 244.966 488.072 244.582 488.501C244.107 489.022 243.877 489.681 243.816 490.371C243.739 491.123 243.892 491.92 244.184 492.625C244.414 493.177 245.165 492.963 245.073 492.38C244.92 491.245 243.662 490.801 242.651 490.954C242.145 491.031 241.639 491.261 241.301 491.659C240.826 492.196 240.611 492.901 240.565 493.591C240.519 494.388 240.719 495.201 240.995 495.952C241.255 495.799 241.516 495.646 241.761 495.508C241.01 494.572 239.553 494.419 238.541 495.017C237.422 495.661 237.192 497.056 237.744 498.16C238.036 498.773 238.587 499.249 239.247 499.417C239.829 499.571 240.075 498.681 239.492 498.528L239.415 498.681Z" fill="#144162"/>
<path d="M227.042 500.874C225.969 500.797 224.666 500.214 224.697 498.957C224.697 498.497 224.957 498.129 225.341 498.022C225.54 497.961 225.709 497.961 225.893 498.007C226.077 498.053 226.184 498.129 226.291 498.298L227.012 497.731C226.429 497.133 225.647 496.397 225.601 495.492C225.601 495.155 225.709 494.817 225.923 494.572C226.015 494.45 226.169 494.342 226.276 494.281C226.444 494.204 226.552 494.204 226.705 494.25C227.196 494.373 227.533 493.652 227.058 493.407C226.122 492.916 225.065 491.782 225.494 490.632C225.632 490.264 226 489.927 226.352 489.789C226.582 489.697 226.751 489.666 226.996 489.681C227.119 489.681 227.334 489.773 227.456 489.896C227.84 490.249 228.438 489.804 228.177 489.329C227.87 488.761 227.579 488.179 227.41 487.565C227.272 487.059 227.211 486.446 227.456 485.986C227.64 485.634 227.947 485.342 228.3 485.204C228.622 485.082 228.959 485.066 229.204 485.266C229.588 485.588 230.201 485.189 229.925 484.698C229.373 483.686 228.637 482.168 229.327 481.08C229.542 480.727 229.925 480.451 230.293 480.344C230.676 480.221 231.029 480.252 231.305 480.528C231.473 480.681 231.734 480.712 231.918 480.559C232.087 480.436 232.179 480.145 232.041 479.961C231.473 479.225 230.891 478.075 231.366 477.17C231.535 476.848 231.826 476.588 232.148 476.465C232.501 476.327 232.807 476.327 233.129 476.542L233.589 475.744C232.869 475.3 232.685 474.15 233.237 473.521C233.85 472.831 235.015 472.938 235.567 473.644C235.782 473.429 235.996 473.214 236.226 472.984C235.782 472.494 235.444 471.881 235.368 471.221C235.322 470.915 235.352 470.593 235.46 470.301C235.506 470.163 235.582 470.025 235.659 469.903C235.628 469.949 235.736 469.826 235.736 469.811C235.996 469.581 236.18 469.504 236.41 469.458C236.548 469.427 236.518 469.427 236.671 469.427C236.732 469.427 236.794 469.427 236.87 469.427C236.886 469.427 237.07 469.443 236.978 469.427C237.238 469.473 237.346 469.504 237.545 469.657C237.76 469.918 237.76 469.918 237.79 470.087C237.913 470.577 238.741 470.485 238.695 469.964C238.634 469.213 238.664 468.415 239.048 467.741C239.354 467.204 239.906 466.821 240.519 466.821C240.657 466.821 240.78 466.836 240.903 466.882C241.025 466.928 241.148 467.005 241.194 467.051C241.271 467.128 241.317 467.174 241.378 467.312C241.347 467.25 241.409 467.404 241.409 467.434C241.409 467.45 241.439 467.618 241.439 467.557C241.47 467.802 241.439 468.001 241.347 468.155C241.347 468.17 241.24 468.308 241.286 468.247C241.255 468.293 241.209 468.339 241.163 468.369C241.225 468.323 241.087 468.415 241.071 468.415C241.133 468.385 240.979 468.431 240.964 468.446L241.317 469.289C241.715 469.013 242.359 468.553 242.819 468.814C243.095 468.967 243.203 469.351 243.203 469.703C243.203 470.117 242.942 470.485 242.605 470.792C242.175 471.16 241.639 471.405 241.133 471.651C240.795 471.804 240.872 472.264 241.133 472.448C241.7 472.846 241.685 473.751 241.378 474.318C240.933 475.162 239.998 475.637 239.186 476.082L239.753 476.802C239.86 476.71 239.998 476.68 240.105 476.695C240.305 476.726 240.473 476.818 240.611 476.956C240.964 477.293 240.949 477.814 240.719 478.274C240.427 478.857 239.937 479.286 239.446 479.7C238.91 480.145 238.388 480.574 237.99 481.157C237.744 481.509 238.143 481.923 238.511 481.831C238.634 481.8 238.787 481.816 238.91 481.877C239.063 481.954 239.186 482.076 239.277 482.23C239.492 482.552 239.584 482.966 239.492 483.318C239.232 484.315 238.128 484.882 237.3 485.327C236.886 485.557 237.085 486.185 237.53 486.185C237.852 486.185 238.143 486.385 238.327 486.691C238.542 487.029 238.634 487.443 238.572 487.841C238.419 488.869 237.422 489.651 236.671 490.294C236.41 490.509 236.548 491 236.87 491.061C237.422 491.168 237.99 491.276 238.542 491.383C238.45 491.153 238.358 490.923 238.266 490.708C237.698 491.812 236.978 492.794 236.088 493.637C235.797 493.913 236.012 494.434 236.41 494.419C236.932 494.404 237.438 494.388 237.959 494.358C237.806 494.158 237.668 493.974 237.514 493.775C237.407 494.496 237.146 495.17 236.671 495.722C236.456 495.983 236.518 496.397 236.87 496.489C236.993 496.519 237.07 496.611 237.116 496.734C237.177 496.918 237.177 497.087 237.116 497.271C236.947 497.715 236.395 498.022 235.996 498.267C235.49 498.574 235.95 499.371 236.456 499.065C237.116 498.666 237.898 498.16 238.051 497.347C238.189 496.627 237.882 495.799 237.116 495.584L237.315 496.351C237.882 495.676 238.281 494.863 238.404 493.99C238.45 493.714 238.296 493.392 237.959 493.407C237.438 493.422 236.932 493.438 236.41 493.468L236.732 494.25C237.683 493.346 238.465 492.288 239.063 491.122C239.186 490.877 239.094 490.509 238.787 490.448C238.235 490.34 237.668 490.233 237.116 490.126L237.315 490.892C238.312 490.065 239.446 489.053 239.507 487.657C239.553 486.507 238.772 485.25 237.53 485.235L237.76 486.093C238.91 485.48 240.305 484.622 240.443 483.196C240.565 481.984 239.569 480.62 238.266 480.911C238.434 481.141 238.618 481.371 238.787 481.586C239.247 480.927 239.937 480.482 240.535 479.945C241.133 479.409 241.669 478.703 241.777 477.891C241.884 477.139 241.577 476.45 240.949 476.036C240.366 475.652 239.599 475.637 239.094 476.128C238.695 476.496 239.201 477.093 239.661 476.848C240.688 476.296 241.823 475.637 242.298 474.502C242.712 473.506 242.543 472.249 241.608 471.62V472.417C242.819 471.85 244.26 470.991 244.138 469.458C244.092 468.86 243.801 468.231 243.233 467.94C242.405 467.526 241.562 467.971 240.872 468.446C240.443 468.753 240.703 469.397 241.225 469.289C242.497 469.029 242.727 467.235 241.915 466.392C241.424 465.87 240.627 465.763 239.967 465.932C239.247 466.116 238.618 466.606 238.266 467.266C237.821 468.078 237.744 469.029 237.806 469.918L238.71 469.795C238.434 468.676 237.162 468.277 236.15 468.538C234.831 468.875 234.295 470.209 234.494 471.482C234.632 472.279 235.046 473.015 235.582 473.613C235.751 473.797 236.073 473.782 236.242 473.613C236.441 473.414 236.395 473.153 236.242 472.954C235.552 472.08 234.264 471.896 233.283 472.341C232.255 472.816 231.841 473.996 232.102 475.054C232.255 475.652 232.623 476.189 233.145 476.511C233.651 476.833 234.095 476.036 233.605 475.714C232.593 475.039 231.228 475.622 230.645 476.588C229.894 477.814 230.462 479.378 231.259 480.421C231.504 480.237 231.749 480.053 231.979 479.853C230.967 478.872 229.388 479.439 228.637 480.467C227.594 481.877 228.392 483.809 229.143 485.158L229.864 484.591C228.836 483.732 227.395 484.315 226.736 485.342C225.847 486.737 226.69 488.485 227.38 489.773C227.625 489.589 227.87 489.405 228.1 489.206C227.242 488.424 225.969 488.685 225.187 489.436C224.267 490.31 224.313 491.674 224.957 492.702C225.356 493.33 225.923 493.836 226.582 494.174C226.705 493.898 226.812 493.606 226.935 493.33C225.739 493.024 224.773 494.128 224.666 495.216C224.528 496.473 225.525 497.531 226.337 498.359C226.705 498.727 227.334 498.252 227.058 497.792C226.46 496.795 224.927 496.78 224.206 497.654C223.777 498.16 223.685 498.835 223.807 499.479C223.93 500.122 224.329 500.674 224.85 501.058C225.479 501.518 226.26 501.717 227.027 501.778C227.272 501.794 227.487 501.548 227.487 501.318C227.487 501.058 227.272 500.874 227.027 500.858L227.042 500.874Z" fill="#144162"/>
<path d="M216.248 512.741C215.558 513.185 214.516 513.078 213.995 512.388C213.489 511.698 213.642 510.686 214.255 510.134C214.516 509.904 214.378 509.429 214.056 509.368C213.121 509.168 212.185 508.417 212.109 507.405C212.032 506.516 212.86 505.458 213.826 505.642C213.795 505.366 213.749 505.075 213.719 504.799C212.875 505.259 211.741 505.059 211.097 504.354C210.438 503.649 210.392 502.391 210.99 501.64C211.189 501.38 211.158 500.95 210.79 500.874C209.748 500.628 208.398 500.352 207.754 499.417C207.494 499.049 207.386 498.62 207.402 498.175C207.417 497.792 207.586 497.424 207.938 497.225C208.414 496.949 208.076 496.289 207.586 496.381C206.788 496.519 205.93 496.059 205.593 495.354C205.24 494.618 205.47 493.698 206.053 493.162C206.221 493.008 206.221 492.732 206.083 492.548C205.93 492.349 205.7 492.334 205.485 492.426C204.581 492.84 203.431 492.533 202.802 491.797C202.158 491.03 202.143 489.773 202.756 488.976C202.879 488.807 202.94 488.608 202.833 488.409C202.725 488.24 202.511 488.133 202.311 488.194C201.392 488.47 200.349 488.194 199.69 487.489C199.046 486.799 198.846 485.664 199.214 484.79C199.291 484.621 199.306 484.437 199.184 484.284C199.076 484.146 198.877 484.054 198.693 484.115C198.264 484.253 197.819 484.345 197.375 484.315C197.037 484.284 196.608 484.115 196.455 483.87C196.378 483.748 196.332 483.64 196.317 483.502C196.301 483.395 196.317 483.196 196.317 483.119C196.378 482.92 196.409 482.889 196.424 482.858C196.47 482.797 196.501 482.766 196.531 482.751C196.654 482.69 196.7 482.69 196.746 482.674L196.393 481.831C195.121 482.429 193.787 481.264 192.99 480.39C192.744 480.129 192.53 479.853 192.315 479.577C192.085 479.271 191.84 478.949 191.686 478.596C191.579 478.335 191.518 478.044 191.64 477.768C191.732 477.553 191.947 477.354 192.146 477.415C192.361 477.461 192.683 477.354 192.714 477.093C192.79 476.557 193.419 476.296 193.94 476.419C194.691 476.587 195.213 477.323 195.642 477.906C195.795 478.121 196.163 478.259 196.363 477.998C197.16 477.001 198.938 477.139 199.536 478.289C199.705 478.596 200.165 478.581 200.334 478.289C200.794 477.507 201.79 477.109 202.649 477.369C203.553 477.645 204.105 478.596 204.044 479.501C204.013 479.868 204.458 480.068 204.734 479.899C205.209 479.623 205.792 479.684 206.267 479.945C206.758 480.206 207.141 480.681 207.172 481.202C207.172 481.386 207.31 481.616 207.509 481.647C208.414 481.8 209.042 482.644 208.95 483.548C208.904 484.008 209.61 484.161 209.809 483.778C210.1 483.242 210.852 483.012 211.373 483.303C211.925 483.625 212.047 484.391 211.741 484.897C211.541 485.219 211.879 485.725 212.262 485.572C212.937 485.296 213.872 485.097 214.516 485.572C214.746 485.756 214.899 486.017 214.961 486.293C215.022 486.538 214.991 486.799 214.823 486.998C214.654 487.182 214.639 487.473 214.823 487.657C214.991 487.826 215.313 487.841 215.482 487.657C215.604 487.519 215.696 487.504 215.834 487.535C216.034 487.565 216.218 487.688 216.34 487.841C216.693 488.332 216.463 489.114 216.325 489.635C216.616 489.712 216.923 489.804 217.214 489.88C217.414 488.914 218.702 488.255 219.484 488.884C220.158 489.42 220.02 490.693 219.208 491.046C218.794 491.23 218.993 491.95 219.438 491.904C219.775 491.874 219.959 491.904 220.235 492.119C220.434 492.257 220.618 492.518 220.741 492.794C220.971 493.315 220.94 493.913 220.511 494.296C220.756 494.48 221.001 494.664 221.231 494.863C221.599 494.296 222.596 494.235 223.025 494.771C223.455 495.293 223.179 496.274 222.55 496.504C222.673 496.78 222.78 497.071 222.903 497.347C223.087 497.271 223.363 497.547 223.439 497.761C223.608 498.206 223.332 498.773 223.163 499.172C223.056 499.402 223.102 499.662 223.332 499.8C223.531 499.923 223.869 499.862 223.961 499.632C224.298 498.88 224.635 498.022 224.221 497.225C223.869 496.565 223.133 496.259 222.443 496.55C221.967 496.749 222.305 497.577 222.795 497.393C224.037 496.933 224.589 495.277 223.746 494.204C222.918 493.146 221.139 493.299 220.419 494.388C220.112 494.848 220.771 495.277 221.139 494.955C222.596 493.667 221.369 490.77 219.407 490.969L219.637 491.828C220.725 491.352 221.032 489.926 220.587 488.914C220.066 487.703 218.61 487.427 217.521 488.01C216.908 488.332 216.417 488.914 216.279 489.604C216.156 490.187 217.03 490.432 217.168 489.85C217.398 488.945 217.598 487.841 216.892 487.09C216.356 486.523 215.344 486.323 214.777 486.967C214.991 487.182 215.206 487.397 215.436 487.627C216.11 486.845 215.926 485.664 215.206 484.974C214.347 484.146 212.998 484.238 211.971 484.652C212.139 484.882 212.323 485.112 212.492 485.327C213.075 484.391 212.753 483.027 211.787 482.475C210.821 481.923 209.487 482.306 208.966 483.272L209.824 483.502C209.962 482.214 208.981 480.911 207.708 480.712C207.816 480.865 207.938 481.003 208.046 481.156C207.938 479.378 205.792 478.167 204.213 479.056C204.443 479.194 204.673 479.317 204.903 479.455C205.01 478.136 204.105 476.817 202.833 476.434C201.576 476.051 200.134 476.649 199.475 477.768H200.272C199.414 476.127 196.807 475.836 195.642 477.293C195.887 477.323 196.133 477.354 196.363 477.385C195.765 476.557 195.029 475.591 193.94 475.437C193.035 475.299 191.901 475.775 191.748 476.787C191.932 476.679 192.131 476.572 192.315 476.465C191.548 476.281 190.904 476.817 190.659 477.507C190.383 478.274 190.797 479.071 191.226 479.685C192.07 480.88 193.127 482.092 194.523 482.644C195.274 482.95 196.071 482.92 196.807 482.582C197.007 482.49 197.083 482.199 196.991 482C196.899 481.785 196.685 481.693 196.439 481.739C195.335 481.938 195.09 483.334 195.55 484.207C196.179 485.388 197.804 485.342 198.877 484.974C198.708 484.744 198.524 484.514 198.356 484.3C197.819 485.557 198.003 487.029 198.923 488.071C199.797 489.052 201.254 489.436 202.495 489.068C202.342 488.807 202.189 488.547 202.051 488.301C201.131 489.482 201.1 491.199 202.051 492.38C202.971 493.499 204.611 493.79 205.899 493.208L205.332 492.487C204.427 493.315 204.182 494.71 204.719 495.814C205.271 496.918 206.574 497.485 207.754 497.271L207.402 496.427C206.252 497.102 206.175 498.681 206.788 499.739C207.524 501.027 209.134 501.441 210.468 501.763L210.269 500.996C209.364 502.161 209.349 503.848 210.33 504.983C211.25 506.041 212.906 506.271 214.117 505.611C214.455 505.427 214.409 504.845 214.01 504.768C212.523 504.492 211.112 505.795 211.112 507.298C211.112 508.77 212.369 509.981 213.749 510.288L213.55 509.521C212.584 510.38 212.431 511.974 213.213 512.986C213.995 514.013 215.574 514.274 216.647 513.569C217.138 513.247 216.678 512.449 216.187 512.771L216.248 512.741Z" fill="#144162"/>
<path d="M197.896 481.417C200.472 482.644 202.91 484.177 205.117 485.986C207.356 487.795 209.38 489.865 211.204 492.088C213.075 494.388 214.715 496.887 216.126 499.494C217.644 502.3 218.916 505.228 219.959 508.233C221.017 511.269 221.86 514.381 222.55 517.524C222.642 517.923 222.719 518.306 222.795 518.705C222.841 518.95 223.133 519.088 223.363 519.027C223.623 518.95 223.731 518.705 223.685 518.46C223.041 515.286 222.228 512.127 221.216 509.046C220.189 505.964 218.962 502.944 217.475 500.061C216.065 497.332 214.424 494.725 212.538 492.303C210.76 490.003 208.751 487.887 206.543 485.986C204.335 484.1 201.913 482.444 199.337 481.11C199.015 480.942 198.693 480.789 198.371 480.635C198.141 480.528 197.865 480.574 197.743 480.804C197.62 481.003 197.681 481.325 197.911 481.432L197.896 481.417Z" fill="white"/>
<path d="M236.686 476.633C234.999 482.015 233.328 487.412 231.994 492.885C230.676 498.298 229.695 503.817 229.434 509.398C229.281 512.526 229.357 515.654 229.725 518.751C229.756 518.996 229.925 519.211 230.185 519.211C230.415 519.211 230.676 518.996 230.645 518.751C230.001 513.247 230.262 507.681 231.074 502.207C231.902 496.688 233.267 491.26 234.831 485.894C235.705 482.874 236.64 479.868 237.591 476.863C237.775 476.296 236.87 476.051 236.701 476.618L236.686 476.633Z" fill="white"/>
<path d="M260.681 483.395C258.412 485.511 256.158 487.642 253.981 489.85C251.804 492.058 249.688 494.327 247.725 496.718C245.809 499.064 244.015 501.517 242.451 504.109C240.933 506.638 239.615 509.306 238.587 512.081C237.56 514.856 236.839 517.739 236.502 520.683C236.456 521.035 236.425 521.403 236.395 521.756C236.379 522.001 236.625 522.216 236.855 522.216C237.115 522.216 237.299 522.001 237.315 521.756C237.56 518.874 238.189 516.037 239.124 513.308C240.059 510.563 241.301 507.926 242.758 505.412C244.23 502.851 245.931 500.429 247.771 498.129C249.688 495.737 251.742 493.453 253.889 491.26C256.035 489.052 258.258 486.937 260.497 484.836C260.773 484.575 261.049 484.315 261.325 484.054C261.754 483.64 261.11 482.996 260.666 483.395H260.681Z" fill="white"/>
<path d="M258.473 513.431H203.538V526.754C209.518 526.754 214.363 531.599 214.363 537.579V553.402C214.363 562.601 221.814 570.052 231.013 570.052C240.213 570.052 247.664 562.601 247.664 553.402V537.579C247.664 531.599 252.509 526.754 258.489 526.754V513.431H258.473Z" fill="#FF916C"/>
<path d="M260.129 556.729H201.867C201.867 565.008 208.582 571.709 216.846 571.709H245.149C253.429 571.709 260.129 564.993 260.129 556.729V556.729Z" fill="#4D5DB5"/>
<path d="M205.853 525.819H254.594C255.192 525.819 255.192 524.899 254.594 524.899H205.853C205.255 524.899 205.255 525.819 205.853 525.819Z" fill="#D07F69"/>
<path d="M216.003 546.824C217.184 545.092 218.349 543.359 219.529 541.627C219.284 541.657 219.039 541.688 218.809 541.719C220.127 543.236 221.277 544.892 222.274 546.64C222.458 546.962 222.872 546.901 223.071 546.64C224.558 544.662 226.23 542.822 228.054 541.151C227.809 541.121 227.564 541.09 227.334 541.059C228.499 542.792 229.449 544.678 230.155 546.655C230.293 547.039 230.768 547.115 230.998 546.763C232.071 545.138 233.313 543.65 234.724 542.301C235.076 541.964 235.444 541.642 235.812 541.32C235.95 541.197 236.104 541.044 236.272 540.967C236.426 540.906 236.502 540.967 236.594 541.075C236.901 541.412 237.116 541.887 237.346 542.271C237.606 542.73 237.867 543.175 238.112 543.65C238.664 544.693 239.185 545.751 239.661 546.824C239.799 547.146 240.305 547.1 240.458 546.824C241.654 544.8 243.049 542.899 244.644 541.167C244.398 541.136 244.153 541.105 243.923 541.075C244.736 542.255 245.533 543.436 246.346 544.601C246.484 544.8 246.744 544.892 246.974 544.77C247.173 544.647 247.281 544.34 247.143 544.141L244.72 540.615C244.567 540.385 244.214 540.293 244 540.523C242.359 542.301 240.903 544.264 239.676 546.364H240.473C240.013 545.322 239.523 544.294 238.986 543.298C238.71 542.776 238.434 542.27 238.127 541.765C237.867 541.32 237.621 540.829 237.284 540.446C236.916 540.017 236.364 539.894 235.843 540.155C235.383 540.385 234.984 540.814 234.601 541.151C233.819 541.857 233.068 542.623 232.378 543.42C231.581 544.325 230.86 545.291 230.201 546.303C230.477 546.334 230.768 546.38 231.044 546.41C230.323 544.356 229.342 542.408 228.131 540.599C227.962 540.339 227.64 540.293 227.41 540.507C225.524 542.24 223.807 544.141 222.289 546.18H223.087C222.059 544.371 220.833 542.654 219.468 541.075C219.254 540.829 218.901 540.937 218.748 541.167C217.567 542.899 216.402 544.632 215.221 546.364C214.884 546.855 215.681 547.315 216.018 546.824H216.003Z" fill="#D07F69"/>
<path d="M210.76 515.991H240.044C240.642 515.991 240.642 515.071 240.044 515.071H210.76C210.162 515.071 210.162 515.991 210.76 515.991Z" fill="#D07F69"/>
<path d="M203.247 185.49V253.397C203.247 254.102 204.351 254.102 204.351 253.397V185.49C204.351 184.785 203.247 184.785 203.247 185.49Z" fill="#443923"/>
<path d="M581.614 179.358H160.378V201.743H581.614V179.358Z" fill="#D07F69"/>
<path d="M581.614 204.671H160.378V227.056H581.614V204.671Z" fill="#D07F69"/>
<path d="M581.614 229.985H160.378V252.37H581.614V229.985Z" fill="#D07F69"/>
<path d="M218.088 886.202C232.7 884.331 247.312 882.461 261.938 880.575C266.661 879.977 271.828 879.134 274.956 875.546C275.967 874.396 276.719 872.817 276.305 871.345C275.753 869.367 273.484 868.478 271.475 868.018C259.746 865.35 247.511 867.481 235.674 869.612C227.64 871.054 219.606 872.51 211.572 873.951L218.088 886.187V886.202Z" fill="#5C4CA0"/>
<path d="M420.213 830.209C428.661 818.127 437.093 806.06 445.542 793.979C448.271 790.084 451.122 785.699 450.57 780.977C450.386 779.459 449.743 777.849 448.378 777.159C446.538 776.224 444.361 777.313 442.674 778.493C432.8 785.377 426.162 795.864 419.768 806.06C415.444 812.975 411.105 819.905 406.782 826.82L420.213 830.224V830.209Z" fill="#4D5DB5"/>
<path d="M273.407 770.321C264.315 792.384 256.419 814.938 249.765 837.844C247.741 844.79 245.641 852.118 240.443 857.147C230.186 867.098 208.736 869.183 197.651 878.214C207.126 879.272 247.373 874.381 250.685 873.875C254.671 873.261 258.75 874.12 262.782 873.905C266.814 873.691 271.261 871.958 272.687 868.171C273.668 865.549 272.947 862.636 272.794 859.831C272.303 850.601 278.053 842.352 283.327 834.747C299.917 810.844 314.482 784.58 318.545 755.771L273.407 770.306V770.321Z" fill="#FFAF80"/>
<path d="M375.688 714.849C385.301 736.682 396.095 757.994 408.008 778.677C411.611 784.948 415.445 791.541 415.475 798.762C415.537 813.052 401.048 823.923 399.882 838.166C409.526 845.449 435.622 802.841 443.042 794.27C445.68 791.219 447.519 786.803 445.772 783.17C444.56 780.64 441.954 779.153 439.838 777.313C432.831 771.272 430.869 761.413 429.029 752.352C423.264 723.834 414.417 695.132 396.448 672.241L375.673 714.865L375.688 714.849Z" fill="#FFAF80"/>
<path d="M504.003 389.331C497.886 389.331 492.918 384.364 492.918 378.246C492.918 372.129 497.886 367.161 504.003 367.161C510.121 367.161 515.088 372.129 515.088 378.246C515.088 384.364 510.121 389.331 504.003 389.331ZM504.003 368.02C498.361 368.02 493.777 372.604 493.777 378.246C493.777 383.889 498.361 388.473 504.003 388.473C509.645 388.473 514.23 383.889 514.23 378.246C514.23 372.604 509.645 368.02 504.003 368.02V368.02Z" fill="white"/>
<path d="M503.543 321.794C506.196 317.654 512.053 317.531 516.56 319.049C521.068 320.567 525.376 323.265 530.129 323.204C533.211 323.173 536.185 321.962 539.236 321.426C547.47 320.015 556.271 324.109 560.717 331.407C562.204 333.86 563.277 336.681 565.393 338.582C568.168 341.097 572.124 341.48 575.589 342.768C583.608 345.758 589.25 354.512 588.913 363.42C588.652 370.013 585.616 377.265 589.051 382.785C591.151 386.158 595.015 387.737 598.311 389.807C617.967 402.15 609.228 426.834 609.228 426.834C609.228 426.834 586.766 426.896 586.766 426.834C585.785 422.971 584.16 417.512 581.998 414.216C580.572 417.696 580.005 423.078 580.357 426.834C576.172 428.03 571.802 427.693 567.555 426.834C563.308 425.976 559.276 422.357 559.322 417.834C558.831 420.272 558.325 422.71 557.834 425.148C537.734 426.328 517.572 426.374 497.487 425.27C496.521 421.407 495.54 417.543 494.574 413.679C493.148 417.344 491.722 420.993 490.296 424.657C485.543 423.783 480.79 422.894 476.053 422.02C475.7 418.77 475.347 415.519 474.979 412.269C473.768 415.596 472.572 418.923 471.361 422.25C466.363 421.683 461.38 421.131 456.381 420.563C462.698 415.427 458.988 405.216 458.773 396.906C458.589 389.623 461.84 382.31 467.313 377.725C474.289 371.884 485.466 368.802 486.417 359.572C486.816 355.662 485.037 351.906 484.593 348.012C483.55 338.705 503.558 321.809 503.558 321.809L503.543 321.794Z" fill="#3F3622"/>
<path d="M464.875 545.337C491.936 556.683 520.071 565.484 548.773 571.586C547.163 588.972 544.05 606.206 539.497 623.056C536.032 635.874 531.432 648.937 522.079 658.366C507.1 673.453 483.856 675.707 462.637 677.087C429.688 679.218 396.724 681.349 363.775 683.48C342.632 721.979 324.141 761.935 308.517 802.979C278.926 800.143 249.504 795.405 220.511 788.827C234.08 748.213 250.715 708.701 267.335 669.221C272.41 657.17 277.485 645.104 283.71 633.604C287.175 627.196 291.085 620.863 296.681 616.187C303.458 610.514 312.136 607.739 320.676 605.455C339.78 600.334 359.359 596.991 379.076 595.473C390.468 594.599 402.35 594.231 412.439 588.88C417.698 586.105 422.175 582.104 426.621 578.133C439.056 567.032 451.49 555.932 463.909 544.831L464.875 545.337V545.337Z" fill="white"/>
<path d="M509.691 441.844C519.994 442.55 512.19 442.473 521.635 442.35C534.836 442.182 548.144 441.982 561.008 439.1C567.984 437.536 575.252 435.987 582.013 438.333C602.39 445.401 604.597 469.335 607.005 478.795C613.812 505.534 613.061 543.175 601.577 564.303C591.979 565.652 577.429 559.32 567.831 560.669C563.4 545.137 568.935 534.527 566.497 518.582C563.477 537.119 554.124 553.524 548.742 571.509C548.451 572.505 521.497 568.718 499.02 561.558C479.41 555.318 463.848 545.705 463.848 544.861C463.863 534.788 464.906 521.219 464.921 511.146C455.722 525.849 445.342 539.817 433.904 552.849C425.027 547.314 411.535 532.197 402.657 526.662C415.214 508.631 444.667 457.131 470.625 444.895C488.701 436.371 509.661 441.86 509.661 441.86L509.691 441.844Z" fill="#4D5DB5"/>
<path d="M595.398 549.247C574.838 537.241 553.082 527.26 530.559 519.533C532.199 513.921 533.518 508.202 534.499 502.422C535.097 498.896 535.572 495.216 534.606 491.766C532.429 483.993 524.242 480.267 516.192 477.998C515.088 477.691 514.322 479.086 515.165 479.853C517.726 482.214 520.501 484.361 523.429 486.262C519.136 483.288 514.552 480.727 509.753 478.657C508.465 478.105 507.146 479.439 507.744 480.696C509.63 484.698 513.111 487.949 517.281 489.451L505.659 483.41C504.877 482.996 503.957 483.656 504.08 484.529C504.739 489.19 508.649 493.361 513.371 494.005C510.811 491.95 507.882 490.356 504.77 489.298C504.494 489.206 504.218 489.129 503.927 489.098C500.768 488.746 500.676 490.325 502.225 492.226C503.543 493.851 505.429 496.918 506.978 498.328C510.673 501.686 510.657 507.512 509.446 512.373C508.25 517.218 506.15 522.032 506.671 527C506.962 529.713 508.066 532.35 509.799 534.466C511.915 537.042 514.843 538.79 517.71 540.477L576.233 574.836C579.99 577.044 584.589 577.274 588.56 575.449L594.248 572.827C597.852 571.172 600.519 567.998 601.547 564.165C603.095 558.369 600.581 552.236 595.398 549.216V549.247Z" fill="#FFAF80"/>
<path d="M496.076 344.73C495.754 359.572 496.506 375.548 496.506 375.548L480.208 377.189L495.218 391.877C495.218 391.877 494.558 404.449 495.908 408.942C497.41 413.955 502.378 417.313 507.499 418.402C512.62 419.49 517.925 418.724 523.107 417.972C523.168 425.132 523.23 432.277 523.291 439.437C523.184 439.345 515.732 443.255 502.945 440.419C510.703 457.882 507.315 470.96 526.388 469.902C545.461 468.845 558.708 458.894 562.971 437.935L554.093 438.288C554.093 438.288 550.306 404.173 550.352 394.836C555.734 399.052 563.247 399.727 568.782 395.725C574.332 391.724 576.11 383.046 571.955 377.618C567.785 372.19 554.446 377.863 554.446 377.863L552.606 342.737L496.076 344.73V344.73Z" fill="#FFAF80"/>
<path d="M502.623 322.269C497.395 325.366 492.013 328.601 488.042 333.277C486.065 335.608 484.562 338.229 483.581 341.127C482.615 343.994 482.109 346.999 481.526 349.958C480.959 352.856 480.346 355.815 479.088 358.499C477.754 361.366 475.669 363.573 473.139 365.444C470.564 367.345 467.804 368.97 465.458 371.163C463.312 373.187 461.487 375.563 460.046 378.139C457.179 383.306 455.829 389.347 456.427 395.234C456.504 395.986 456.611 396.722 456.734 397.458C456.872 398.27 458.099 397.918 457.961 397.12C456.933 391.386 457.884 385.345 460.444 380.132C461.717 377.526 463.373 375.119 465.381 373.018C467.528 370.78 470.104 369.124 472.634 367.361C475.179 365.582 477.57 363.619 479.196 360.952C480.729 358.453 481.588 355.616 482.216 352.78C482.86 349.882 483.305 346.923 484.041 344.04C484.777 341.158 485.85 338.429 487.552 335.976C491.002 331.008 496.245 327.589 501.335 324.522C501.979 324.139 502.608 323.756 503.252 323.372C503.957 322.958 503.313 321.855 502.608 322.269H502.623Z" fill="#3F3622"/>
<path d="M579.391 351.262C581.507 351.553 582.964 353.178 584.006 354.942C585.279 357.088 586.168 359.526 586.904 361.903C587.655 364.371 588.192 366.885 588.514 369.446C588.805 371.761 589.005 374.092 589.526 376.361C590.032 378.553 590.875 380.654 592.301 382.402C593.804 384.226 595.858 385.468 597.805 386.741C601.669 389.255 604.751 392.521 607.265 396.385C610.071 400.708 612.156 405.446 614.18 410.168C614.502 410.92 615.606 410.276 615.284 409.524C611.681 401.184 607.741 392.337 600.182 386.833C598.235 385.407 596.057 384.287 594.279 382.647C592.546 381.037 591.504 378.967 590.906 376.698C590.308 374.444 590.109 372.114 589.833 369.799C589.511 367.207 589.035 364.647 588.299 362.148C587.517 359.48 586.536 356.72 585.11 354.313C583.914 352.305 582.167 350.388 579.729 350.051C579.391 350.005 579.054 350.127 578.947 350.495C578.855 350.787 579.054 351.231 579.391 351.277V351.262Z" fill="#3F3622"/>
<path opacity="0.46" d="M523.107 417.972L540.233 409.877L523.69 429.303L523.107 417.972Z" fill="#BF6F41"/>
<path d="M557.543 389.868C559.812 387.124 562.403 384.671 565.286 382.586C565.562 382.386 565.7 382.034 565.516 381.712C565.362 381.436 564.918 381.282 564.642 381.482C561.667 383.628 558.984 386.143 556.638 388.964C556.117 389.592 557.022 390.497 557.543 389.868V389.868Z" fill="#944F2C"/>
<path d="M561.821 386.311C562.02 386.48 562.097 386.556 562.158 386.618C562.235 386.694 562.296 386.771 562.357 386.848C562.403 386.909 562.434 386.94 562.465 386.986C562.572 387.139 562.664 387.292 562.741 387.461C562.756 387.507 562.787 387.553 562.802 387.599C562.848 387.706 562.879 387.814 562.909 387.906C562.971 388.09 563.001 388.258 563.032 388.442C563.032 388.504 563.032 388.565 563.047 388.611C563.047 388.703 563.047 388.795 563.047 388.887C563.047 388.994 563.047 389.086 563.047 389.194C563.001 389.546 562.955 389.746 562.894 389.93C562.787 390.252 563.017 390.62 563.339 390.712C563.691 390.804 564.013 390.589 564.12 390.267C564.734 388.427 563.998 386.357 562.465 385.207C562.189 385.008 561.759 385.161 561.591 385.437C561.407 385.759 561.545 386.097 561.821 386.311V386.311Z" fill="#944F2C"/>
<path d="M497.564 400.217C500.998 400.386 504.386 398.5 506.073 395.51C506.472 394.79 505.383 394.161 504.969 394.866C503.482 397.488 500.553 399.083 497.564 398.929C496.751 398.883 496.751 400.156 497.564 400.202V400.217Z" fill="#944F2C"/>
<path d="M511.102 381.543C511.102 383.551 509.952 385.177 508.526 385.177C507.1 385.177 505.95 383.551 505.95 381.543C505.95 379.534 507.1 377.909 508.526 377.909C509.952 377.909 511.102 379.534 511.102 381.543Z" fill="#010101"/>
<path d="M505.95 365.367C506.533 366.379 506.272 367.943 507.299 368.526C507.867 368.848 508.572 368.679 509.201 368.495C512.574 367.529 516.345 366.471 519.473 368.097C516.56 364.08 510.596 362.654 506.195 364.923L505.95 365.367V365.367Z" fill="#3F3622"/>
<path d="M511.823 392.398C505.598 392.398 500.523 387.338 500.523 381.098C500.523 374.858 505.583 369.798 511.823 369.798C518.063 369.798 523.123 374.858 523.123 381.098C523.123 387.338 518.063 392.398 511.823 392.398ZM511.823 371.086C506.303 371.086 501.811 375.579 501.811 381.098C501.811 386.618 506.303 391.11 511.823 391.11C517.342 391.11 521.835 386.618 521.835 381.098C521.835 375.579 517.342 371.086 511.823 371.086V371.086Z" fill="white"/>
<path d="M494.988 375.18C496.827 373.739 500.032 374.981 500.553 377.235C500.737 378.032 501.964 377.695 501.78 376.897C501.412 375.303 500.124 374.138 498.621 373.601C497.088 373.064 495.386 373.264 494.098 374.276C493.822 374.49 493.868 374.95 494.098 375.18C494.359 375.441 494.727 375.395 495.003 375.18H494.988Z" fill="white"/>
<path d="M522.233 380.271C530.773 380.301 539.313 379.872 547.807 378.967C550.229 378.707 552.652 378.415 555.059 378.078C555.396 378.032 555.58 377.603 555.504 377.296C555.412 376.928 555.059 376.806 554.722 376.852C546.32 378.001 537.856 378.691 529.378 378.921C527.001 378.983 524.625 379.013 522.233 378.998C521.42 378.998 521.405 380.271 522.233 380.271V380.271Z" fill="white"/>
<path d="M564.029 375.057C562.143 362.439 558.402 350.725 556.531 338.122C556.363 337.018 556.163 335.838 555.351 335.056C554.323 334.074 552.714 334.044 551.272 334.059C531.218 334.427 511.179 335.592 491.231 337.57C491.661 338.643 492.105 339.717 492.535 340.79L493.807 340.621C496.46 345.849 499.342 351.354 504.463 354.481C510.075 357.916 517.204 357.809 523.628 359.526C530.712 361.412 536.722 365.95 541.383 371.378C546.995 377.909 547.7 380.148 547.731 382.325C547.761 385.177 544.511 387.538 541.812 386.648C545.492 389.332 551.088 386.633 553.035 382.509C553.817 380.853 554.17 379.09 554.293 377.28C559.214 376.667 564.059 375.073 564.059 375.073L564.029 375.057Z" fill="#3F3622"/>
<path d="M504.218 490.003C509.876 491.873 514.905 495.4 518.646 500.03C519.167 500.674 520.056 499.769 519.55 499.125C515.671 494.326 510.428 490.708 504.571 488.761C503.789 488.5 503.451 489.727 504.233 489.987L504.218 490.003Z" fill="#944F2C"/>
<path d="M508.955 485.48C514.72 488.009 519.673 492.195 523.076 497.5C523.521 498.19 524.625 497.546 524.18 496.856C520.669 491.383 515.563 486.998 509.599 484.376C508.863 484.054 508.204 485.142 508.955 485.48Z" fill="#944F2C"/>
<path d="M516.637 483.195C522.463 485.097 527.461 489.175 530.512 494.48C530.926 495.185 532.015 494.557 531.616 493.836C528.396 488.24 523.107 483.962 516.974 481.969C516.192 481.708 515.855 482.95 516.637 483.195Z" fill="#944F2C"/>
<path d="M517.066 502.299C522.156 499.678 527.262 497.041 532.352 494.419C533.088 494.051 532.444 492.947 531.708 493.315C526.618 495.937 521.512 498.574 516.422 501.196C515.686 501.564 516.33 502.667 517.066 502.299Z" fill="#944F2C"/>
<path d="M530.129 520.269L523.337 527.26C522.77 527.843 523.659 528.747 524.242 528.165C526.511 525.834 528.765 523.504 531.034 521.173C531.601 520.591 530.712 519.686 530.129 520.269Z" fill="#944F2C"/>
<path d="M334.445 578.853C333.739 572.184 323.329 524.485 317.947 500.122C316.322 492.763 321.888 485.787 329.416 485.71L434.38 484.683C440.053 484.622 444.959 488.593 446.109 494.143L463.649 578.868H334.46L334.445 578.853Z" fill="#28100C"/>
<path d="M460.199 568.764H516.284V578.853H458.022L460.199 568.764Z" fill="#28100C"/>
<path d="M432.923 489.896C434.517 489.328 436.265 489.911 437.523 490.969C438.918 492.149 439.838 493.775 440.727 495.354C441.126 496.074 442.23 495.43 441.831 494.71C440.819 492.916 439.761 491.061 438.09 489.788C436.557 488.608 434.471 487.979 432.586 488.654C431.819 488.93 432.156 490.156 432.923 489.88V489.896Z" fill="#F9F9FA"/>
<path d="M461.671 570.068C460.046 570.068 458.896 571.585 458.819 573.103C458.758 574.437 459.478 575.863 460.659 576.522C461.947 577.228 463.511 576.906 464.569 575.94C465.627 574.974 465.949 573.379 465.151 572.137C464.293 570.819 462.56 570.16 461.119 570.865C460.812 571.018 460.72 571.463 460.889 571.739C461.073 572.061 461.456 572.122 461.763 571.969C462.1 571.8 462.483 571.8 462.897 571.923C463.281 572.03 463.618 572.26 463.909 572.597C464.461 573.211 464.477 574.115 463.94 574.759C463.633 575.143 463.235 575.403 462.821 575.541C462.376 575.679 461.993 575.694 461.564 575.541C461.226 575.418 460.828 575.112 460.613 574.805C460.322 574.407 460.184 574.054 460.107 573.548C460.107 573.655 460.107 573.441 460.107 573.441C460.107 573.379 460.107 573.303 460.107 573.226C460.107 573.149 460.107 573.088 460.107 573.027C460.107 573.027 460.138 572.827 460.107 572.919C460.122 572.781 460.168 572.643 460.199 572.521C460.245 572.398 460.26 572.352 460.352 572.199C460.644 571.693 461.119 571.325 461.656 571.325C462.468 571.325 462.483 570.052 461.656 570.052L461.671 570.068Z" fill="#F9F9FA"/>
<path d="M468.187 571.417H508.097C508.909 571.417 508.925 570.144 508.097 570.144H468.187C467.374 570.144 467.359 571.417 468.187 571.417Z" fill="#F9F9FA"/>
<path d="M327.039 488.991C322.7 489.558 319.174 493.452 319.189 497.868C319.189 498.681 320.462 498.696 320.462 497.868C320.462 494.219 323.39 490.739 327.039 490.263C327.376 490.217 327.683 490.003 327.683 489.619C327.683 489.313 327.392 488.945 327.039 488.975V488.991Z" fill="#F9F9FA"/>
<path d="M460.368 588.712C438.979 582.61 421.194 568.013 401.339 558.001C379.307 546.886 354.852 541.489 330.52 537.349C321.213 535.77 311.6 534.359 302.4 536.506C283.741 540.86 270.954 559.458 268.164 578.424C265.373 597.39 270.724 616.586 277.424 634.54C294.366 679.862 320.446 721.749 353.64 756.952C354.116 757.458 354.622 757.979 355.281 758.224C356.416 758.638 357.658 758.117 358.761 757.611C382.894 746.357 408.315 737.879 434.364 732.42C420.351 702.707 408.622 671.935 399.284 640.443C421.731 625.555 442.705 608.46 461.809 589.478L460.337 588.742L460.368 588.712Z" fill="white"/>
<path d="M343.429 565.759C348.903 573.027 354.208 580.417 359.344 587.93C364.496 595.473 369.479 603.124 374.293 610.882C379.092 618.609 383.707 626.444 388.138 634.386C392.584 642.328 396.847 650.362 400.925 658.488C405.003 666.614 408.898 674.832 412.608 683.142C413.068 684.185 413.528 685.228 413.988 686.255C414.264 686.883 415.184 687.037 415.736 686.715C416.38 686.331 416.472 685.611 416.196 684.967C412.531 676.642 408.683 668.393 404.651 660.251C400.603 652.064 396.371 643.969 391.956 635.981C387.555 628.023 382.986 620.158 378.233 612.4C373.48 604.642 368.559 596.991 363.468 589.463C358.378 581.935 353.119 574.498 347.692 567.2C347.017 566.296 346.327 565.376 345.652 564.471C345.238 563.919 344.549 563.643 343.905 564.011C343.368 564.333 343.031 565.207 343.445 565.759H343.429Z" fill="#D8D8D8"/>
<path d="M356.845 568.274C359.206 576.446 361.567 584.602 363.944 592.774C364.403 594.338 366.857 593.679 366.397 592.1C364.036 583.928 361.674 575.771 359.298 567.599C358.838 566.035 356.385 566.694 356.845 568.274Z" fill="#D8D8D8"/>
<path d="M365.308 593.771C375.933 591.379 386.604 589.248 397.337 587.377C407.947 585.538 418.618 583.943 429.305 582.624C435.361 581.873 441.432 581.214 447.504 580.647C448.194 580.585 448.777 580.11 448.777 579.374C448.777 578.73 448.194 578.04 447.504 578.101C436.587 579.144 425.686 580.447 414.846 582.011C404.068 583.575 393.335 585.4 382.649 587.5C376.623 588.681 370.613 589.953 364.633 591.302C363.959 591.456 363.576 592.222 363.744 592.866C363.928 593.556 364.633 593.909 365.308 593.756V593.771Z" fill="#D8D8D8"/>
<path d="M280.567 648.553C287.267 660.436 294.167 672.211 301.25 683.863C308.303 695.454 315.54 706.938 322.976 718.299C327.161 724.693 331.393 731.04 335.701 737.357C336.085 737.924 336.821 738.185 337.449 737.817C338.017 737.495 338.293 736.652 337.909 736.069C330.228 724.8 322.746 713.393 315.448 701.879C308.18 690.41 301.112 678.834 294.228 667.136C290.349 660.558 286.546 653.935 282.79 647.281C281.977 645.855 279.785 647.143 280.598 648.569L280.567 648.553Z" fill="#D8D8D8"/>
<path d="M405.754 812.807C411.581 818.188 417.637 823.34 423.908 828.216C419.339 836.955 410.185 843.119 400.357 844.039C399.453 844.131 398.456 844.146 397.72 843.609C396.678 842.843 396.616 841.34 396.678 840.052C397.23 830.132 405.739 812.792 405.739 812.792L405.754 812.807Z" fill="#4D5DB5"/>
<path d="M223.378 860.95C223.317 868.892 223.577 876.834 224.175 884.745C214.639 887.244 203.921 884.607 196.623 877.968C195.949 877.355 195.259 876.635 195.167 875.73C195.029 874.442 196.102 873.384 197.099 872.572C204.811 866.316 223.363 860.95 223.363 860.95H223.378Z" fill="#4D5DB5"/>
<path d="M424.123 781.652C423.755 782.878 424.015 784.258 424.736 785.316C425.487 786.42 426.606 787.171 427.956 787.325C428.293 787.355 428.6 787.003 428.6 786.681C428.6 786.313 428.308 786.083 427.956 786.037C427.818 786.006 427.741 786.006 427.68 785.991C427.557 785.96 427.434 785.929 427.312 785.883C427.174 785.822 427.112 785.791 427.066 785.776C426.959 785.715 426.852 785.653 426.744 785.592C426.407 785.362 426.024 784.979 425.794 784.626C425.502 784.181 425.365 783.859 425.257 783.323C425.257 783.307 425.227 783.139 425.242 783.185C425.242 783.246 425.242 783.077 425.242 783.047C425.242 782.924 425.242 782.801 425.242 782.664C425.242 782.602 425.242 782.541 425.242 782.48C425.273 782.265 425.303 782.127 425.349 782.004C425.595 781.222 424.353 780.885 424.123 781.667V781.652Z" fill="#944F2C"/>
<path d="M259.117 849.22C256.388 850.631 255.315 854.326 256.772 857.009C257.155 857.73 258.259 857.086 257.876 856.365C256.741 854.265 257.676 851.413 259.777 850.324C260.497 849.941 259.853 848.852 259.133 849.22H259.117Z" fill="#944F2C"/>
<path d="M349.776 749.193C358.669 744.195 367.592 739.212 376.792 734.766C385.868 730.381 395.236 726.532 404.957 723.865C410.384 722.377 415.919 721.258 421.5 720.629C422.19 720.553 422.773 720.093 422.773 719.357C422.773 718.728 422.19 718.008 421.5 718.084C411.274 719.219 401.308 721.887 391.695 725.536C382.066 729.185 372.79 733.738 363.713 738.583C358.592 741.312 353.533 744.149 348.473 747.001C347.047 747.798 348.32 750.006 349.761 749.193H349.776Z" fill="#D8D8D8"/>
<path d="M458.589 583.299C466.485 588.114 474.059 593.449 481.22 599.291C483.243 600.947 485.237 602.633 487.199 604.366C487.72 604.826 488.487 604.872 488.993 604.366C489.453 603.906 489.514 603.017 488.993 602.572C481.925 596.332 474.427 590.582 466.577 585.369C464.369 583.897 462.131 582.487 459.877 581.107C458.467 580.248 457.194 582.456 458.589 583.299Z" fill="#D8D8D8"/>
<path d="M466.194 585.247C473.615 587.47 480.744 590.551 487.46 594.431C488.886 595.258 490.158 593.051 488.748 592.238C481.864 588.252 474.504 585.078 466.884 582.793C465.305 582.318 464.645 584.787 466.209 585.247H466.194Z" fill="#D8D8D8"/>
<path d="M228.1 781.575C238.02 784.779 248.094 787.554 258.259 789.885C268.424 792.215 278.697 794.086 289.03 795.512C294.918 796.324 300.821 796.984 306.724 797.505C307.414 797.566 307.996 796.876 307.996 796.233C307.996 795.497 307.414 795.021 306.724 794.96C296.421 794.055 286.148 792.691 275.952 790.882C265.726 789.057 255.56 786.803 245.533 784.089C239.906 782.571 234.325 780.916 228.79 779.122C228.131 778.907 227.395 779.367 227.226 780.011C227.042 780.701 227.456 781.36 228.116 781.575H228.1Z" fill="#F9F9FA"/>
<path d="M467.19 456.855C463.802 464.337 461.932 472.34 460.368 480.359C458.773 488.5 456.673 497.025 459.218 505.197C460.506 509.337 462.698 513.155 465.259 516.635C465.673 517.187 466.363 517.463 467.007 517.095C467.558 516.773 467.865 515.914 467.466 515.347C465.289 512.388 463.342 509.199 462.1 505.718C460.766 502.023 460.368 498.206 460.659 494.296C460.95 490.248 461.824 486.262 462.591 482.275C463.342 478.381 464.139 474.502 465.121 470.669C466.225 466.391 467.574 462.16 469.398 458.127C469.674 457.499 469.582 456.763 468.938 456.379C468.386 456.057 467.482 456.211 467.19 456.839V456.855Z" fill="#144162"/>
<path d="M568.996 518.245C570.238 511.315 571.557 504.385 572.952 497.485C574.347 490.586 575.834 483.686 577.383 476.817C578.257 472.938 579.161 469.059 580.097 465.196C580.48 463.601 578.027 462.926 577.643 464.521C576.003 471.374 574.439 478.243 572.952 485.127C571.465 492.012 570.054 498.926 568.72 505.841C567.969 509.751 567.248 513.661 566.543 517.57C566.42 518.245 566.727 518.95 567.432 519.134C568.046 519.303 568.873 518.92 568.996 518.245V518.245Z" fill="#144162"/>
<path d="M580.051 472.616C577.444 475.851 575.206 479.347 573.427 483.103C573.136 483.717 573.259 484.483 573.887 484.851C574.439 485.173 575.328 485.02 575.635 484.391C577.322 480.85 579.407 477.476 581.86 474.425C582.289 473.889 582.381 473.153 581.86 472.631C581.415 472.187 580.495 472.095 580.066 472.631L580.051 472.616Z" fill="#144162"/>
<path d="M570.989 533.899C580.971 535.693 591.719 537.625 599.523 544.647C601.439 546.379 603.095 548.342 604.368 550.58C605.18 552.006 607.388 550.718 606.56 549.292C601.301 540.108 591.059 535.647 581.185 533.332C578.027 532.596 574.838 532.013 571.664 531.446C570.989 531.323 570.284 531.63 570.1 532.335C569.932 532.948 570.315 533.776 570.989 533.899V533.899Z" fill="#144162"/>
<path d="M486.693 516.957C490.802 517.095 494.819 518.321 498.315 520.483C499.71 521.342 500.998 519.149 499.603 518.291C495.723 515.899 491.246 514.565 486.693 514.412C485.052 514.35 485.052 516.911 486.693 516.957V516.957Z" fill="#144162"/>
<path d="M490.327 521.204H490.495C490.664 521.234 490.465 521.219 490.403 521.204C490.511 521.234 490.618 521.234 490.725 521.265C490.94 521.311 491.155 521.357 491.369 521.418C491.584 521.48 491.799 521.541 491.998 521.618C492.105 521.648 492.213 521.694 492.305 521.74C492.351 521.756 492.412 521.786 492.458 521.802C492.335 521.756 492.243 521.71 492.412 521.802C492.811 521.986 493.209 522.2 493.577 522.43C493.669 522.492 493.761 522.553 493.853 522.614C493.899 522.645 493.945 522.676 493.991 522.706C494.022 522.722 494.175 522.844 494.022 522.737C493.868 522.614 494.022 522.737 494.052 522.768C494.098 522.798 494.144 522.844 494.175 522.875C494.267 522.952 494.359 523.044 494.451 523.12C494.942 523.565 495.77 523.642 496.245 523.12C496.69 522.63 496.766 521.802 496.245 521.326C494.589 519.809 492.519 518.919 490.296 518.689C489.637 518.628 488.993 519.318 489.024 519.962C489.054 520.713 489.591 521.158 490.296 521.235L490.327 521.204Z" fill="#144162"/>
<path d="M559.644 455.858C554.492 462.298 547.455 467.143 539.589 469.611C537.351 470.316 535.051 470.838 532.72 471.16C532.046 471.252 531.662 472.125 531.831 472.723C532.03 473.459 532.72 473.705 533.395 473.613C541.935 472.432 550.046 468.599 556.485 462.88C558.279 461.286 559.95 459.538 561.453 457.652C561.882 457.115 561.974 456.379 561.453 455.858C561.008 455.413 560.088 455.321 559.659 455.858H559.644Z" fill="#144162"/>
<path d="M497.962 451.366C499.327 456.517 501.259 461.5 503.712 466.238C504.034 466.851 504.877 467.035 505.46 466.698C506.073 466.33 506.226 465.563 505.92 464.95C503.574 460.412 501.749 455.628 500.431 450.691C500.017 449.112 497.548 449.787 497.978 451.366H497.962Z" fill="#144162"/>
<path d="M519.626 440.189C519.289 445.172 519.81 450.201 521.114 455.015C521.773 457.422 522.631 459.768 523.674 462.052C524.195 463.202 524.763 464.322 525.391 465.425C525.928 466.376 526.495 467.434 527.476 468.001C528.504 468.584 529.73 468.492 530.834 468.247C531.877 468.017 532.889 467.679 533.87 467.265C535.802 466.453 537.565 465.318 539.175 463.969C542.379 461.286 544.863 457.851 547.117 454.371C550.398 449.311 553.556 444.175 556.761 439.069C557.206 438.38 556.102 437.736 555.657 438.425C552.805 442.948 549.969 447.456 547.117 451.979C545.001 455.337 542.778 458.679 539.972 461.485C538.592 462.865 537.074 464.107 535.372 465.088C533.671 466.069 531.662 466.959 529.7 467.143C528.488 467.25 527.691 466.79 527.062 465.778C526.434 464.797 525.897 463.739 525.376 462.681C524.318 460.535 523.429 458.311 522.739 456.027C521.175 450.906 520.546 445.54 520.899 440.204C520.96 439.391 519.688 439.391 519.626 440.204V440.189Z" fill="white"/>
<path d="M528.673 467.097C526.342 468.293 526.204 472.233 528.504 473.49C530.804 474.732 534.1 472.264 533.426 469.734C532.766 467.204 528.504 466.79 527.461 469.197L528.657 467.097H528.673Z" fill="white"/>
</g>
<defs>
<clipPath id="clip0_48_931">
<rect width="676" height="1024" fill="white" transform="matrix(-1 0 0 1 676 0)"/>
</clipPath>
</defs>
</svg>
