<?xml version="1.0" encoding="UTF-8" standalone="no"?>
<!DOCTYPE svg PUBLIC "-//W3C//DTD SVG 1.1//EN" "http://www.w3.org/Graphics/SVG/1.1/DTD/svg11.dtd">
<svg xmlns="http://www.w3.org/2000/svg" version="1.1" viewBox="0 0 383 131">
<g stroke-width="2.00" fill="none" stroke-linecap="butt">
<path stroke="#ffea80" vector-effect="non-scaling-stroke" d="
  M 132.9676 64.9643
  A 62.53 62.41 -0.5 0 0 69.8954 3.1024
  A 62.53 62.41 -0.5 0 0 7.9124 66.0557
  A 62.53 62.41 -0.5 0 0 70.9846 127.9176
  A 62.53 62.41 -0.5 0 0 132.9676 64.9643"
/>
<path stroke="#80a0b9" vector-effect="non-scaling-stroke" d="
  M 156.31 30.81
  L 159.61 30.67
  A 0.60 0.53 -0.6 0 0 160.19 30.15
  L 160.24 28.29
  A 0.56 0.50 1.6 0 0 159.69 27.77
  L 156.70 27.75
  A 0.63 0.60 -5.6 0 1 156.09 27.27
  Q 155.45 24.06 155.90 20.78
  A 0.59 0.58 2.8 0 1 156.47 20.27
  L 160.97 20.22
  A 0.56 0.49 -88.0 0 0 161.45 19.71
  L 161.60 17.94
  A 0.51 0.41 -86.9 0 0 161.20 17.39
  L 152.77 17.45
  A 0.56 0.50 90.0 0 0 152.27 18.01
  L 152.30 41.59
  A 0.53 0.52 -89.4 0 0 152.81 42.12
  L 155.30 42.13
  A 0.49 0.46 90.0 0 0 155.76 41.64
  L 155.80 31.31
  A 0.53 0.50 -1.2 0 1 156.31 30.81"
/>
<path stroke="#80a0b9" vector-effect="non-scaling-stroke" d="
  M 175.87 23.01
  A 5.68 5.68 0.0 0 0 170.19 17.33
  L 169.57 17.33
  A 5.68 5.68 0.0 0 0 163.89 23.01
  L 163.89 36.47
  A 5.68 5.68 0.0 0 0 169.57 42.15
  L 170.19 42.15
  A 5.68 5.68 0.0 0 0 175.87 36.47
  L 175.87 23.01"
/>
<path stroke="#80a0b9" vector-effect="non-scaling-stroke" d="
  M 182.41 26.26
  L 182.53 26.25
  A 0.35 0.23 73.2 0 1 182.82 26.49
  L 188.41 41.47
  A 1.15 0.96 85.9 0 0 189.05 42.13
  Q 190.26 42.52 191.52 42.12
  A 0.71 0.67 81.6 0 0 191.99 41.45
  L 191.98 18.30
  A 0.57 0.54 -87.8 0 0 191.48 17.73
  L 189.05 17.57
  A 0.48 0.47 -88.4 0 0 188.54 18.06
  L 188.68 32.92
  Q 188.70 34.16 188.27 33.01
  L 182.83 18.05
  A 0.88 0.68 78.7 0 0 182.18 17.48
  L 180.21 17.37
  A 0.54 0.47 -89.6 0 0 179.72 17.92
  L 179.75 41.70
  A 0.52 0.52 0.6 0 0 180.26 42.22
  L 182.22 42.26
  A 0.53 0.52 -88.3 0 0 182.75 41.75
  Q 183.13 34.07 182.32 26.43
  A 0.17 0.11 83.8 0 1 182.41 26.26"
/>
<path stroke="#80a0b9" vector-effect="non-scaling-stroke" d="
  M 207.76 24.00
  C 207.69 17.62 201.64 16.54 196.52 17.43
  A 0.60 0.60 84.8 0 0 196.03 18.02
  L 196.07 41.33
  A 0.57 0.57 -86.6 0 0 196.57 41.90
  C 210.29 43.71 207.87 32.76 207.76 24.00"
/>
<path stroke="#80a0b9" vector-effect="non-scaling-stroke" d="
  M 218.83 38.04
  L 219.29 41.24
  A 0.74 0.46 85.5 0 0 219.76 41.88
  L 222.53 42.02
  A 0.48 0.41 85.4 0 0 222.94 41.45
  L 218.52 17.81
  A 0.65 0.56 83.2 0 0 217.93 17.27
  L 214.67 17.34
  A 0.70 0.61 -84.1 0 0 214.07 17.90
  L 209.70 41.28
  A 0.74 0.67 5.2 0 0 210.43 42.08
  L 212.65 42.09
  A 0.61 0.59 7.1 0 0 213.25 41.64
  L 214.03 38.13
  A 0.70 0.62 -83.5 0 1 214.64 37.58
  L 218.18 37.52
  A 0.65 0.60 -4.0 0 1 218.83 38.04"
/>
<path stroke="#80a0b9" vector-effect="non-scaling-stroke" d="
  M 232.06 20.41
  Q 236.39 21.17 235.44 17.80
  A 0.69 0.68 -7.8 0 0 234.78 17.31
  L 224.57 17.29
  A 0.67 0.66 -82.6 0 0 223.93 17.79
  Q 223.06 21.37 227.25 19.98
  A 0.58 0.58 80.8 0 1 228.01 20.53
  L 228.02 41.45
  A 0.57 0.50 90.0 0 0 228.52 42.02
  L 231.00 42.01
  A 0.58 0.50 -89.4 0 0 231.50 41.44
  L 231.56 20.81
  A 0.42 0.41 5.3 0 1 232.06 20.41"
/>
<path stroke="#80a0b9" vector-effect="non-scaling-stroke" d="
  M 241.9082 17.8136
  A 0.39 0.39 0.0 0 0 241.5168 17.4250
  L 238.5968 17.4352
  A 0.39 0.39 0.0 0 0 238.2082 17.8265
  L 238.2918 41.7864
  A 0.39 0.39 0.0 0 0 238.6832 42.1750
  L 241.6032 42.1648
  A 0.39 0.39 0.0 0 0 241.9918 41.7735
  L 241.9082 17.8136"
/>
<path stroke="#80a0b9" vector-effect="non-scaling-stroke" d="
  M 257.89 23.03
  A 5.71 5.71 0.0 0 0 252.18 17.32
  L 251.56 17.32
  A 5.71 5.71 0.0 0 0 245.85 23.03
  L 245.85 36.43
  A 5.71 5.71 0.0 0 0 251.56 42.14
  L 252.18 42.14
  A 5.71 5.71 0.0 0 0 257.89 36.43
  L 257.89 23.03"
/>
<path stroke="#80a0b9" vector-effect="non-scaling-stroke" d="
  M 270.23 33.21
  L 264.79 18.06
  A 0.89 0.69 78.9 0 0 264.13 17.48
  L 262.11 17.37
  A 0.55 0.48 -89.0 0 0 261.61 17.92
  L 261.53 41.47
  A 0.65 0.53 -88.1 0 0 262.02 42.11
  L 264.10 42.30
  A 0.57 0.49 -86.4 0 0 264.63 41.75
  Q 265.09 34.75 264.36 27.77
  Q 264.27 26.88 264.60 26.80
  A 0.82 0.43 70.9 0 1 265.24 27.40
  L 270.35 41.24
  A 1.51 1.15 87.7 0 0 270.96 41.98
  Q 272.06 42.57 273.32 42.19
  A 0.73 0.66 81.8 0 0 273.78 41.51
  L 273.74 18.32
  A 0.55 0.54 -87.8 0 0 273.24 17.77
  L 271.06 17.58
  A 0.48 0.48 3.4 0 0 270.54 18.04
  C 270.50 19.45 270.62 33.49 270.55 33.51
  A 0.41 0.21 70.8 0 1 270.23 33.21"
/>
<path stroke="#80a0b9" vector-effect="non-scaling-stroke" d="
  M 160.28 67.92
  Q 159.25 60.62 157.08 53.53
  A 0.64 0.61 -9.9 0 0 156.44 53.10
  L 152.77 53.30
  A 0.54 0.50 -1.8 0 0 152.26 53.80
  L 152.25 77.01
  A 0.70 0.63 -82.9 0 0 152.71 77.67
  Q 153.91 78.01 155.07 77.74
  A 0.66 0.63 84.0 0 0 155.56 77.10
  Q 155.59 67.92 155.40 58.75
  Q 155.39 58.47 155.51 58.49
  A 0.31 0.18 82.4 0 1 155.69 58.72
  L 159.13 73.77
  A 1.04 0.84 -88.9 0 0 159.68 74.48
  Q 160.52 74.81 161.37 74.54
  A 0.97 0.83 89.5 0 0 161.95 73.85
  C 162.27 72.38 165.26 58.55 165.71 58.50
  A 0.32 0.22 89.6 0 1 165.94 58.83
  L 165.50 76.97
  A 0.61 0.56 -85.2 0 0 165.98 77.59
  L 168.48 77.93
  A 0.49 0.45 -86.9 0 0 168.98 77.44
  L 168.98 53.56
  A 0.46 0.45 -1.8 0 0 168.49 53.11
  L 164.86 53.30
  A 0.70 0.66 5.0 0 0 164.23 53.80
  C 163.84 55.19 160.71 68.21 160.57 68.24
  A 0.35 0.22 80.6 0 1 160.28 67.92"
/>
<path stroke="#80a0b9" vector-effect="non-scaling-stroke" d="
  M 184.6763 58.6693
  A 5.64 5.64 0.0 0 0 179.0166 53.0490
  L 178.4166 53.0511
  A 5.64 5.64 0.0 0 0 172.7963 58.7108
  L 172.8437 72.2907
  A 5.64 5.64 0.0 0 0 178.5034 77.9110
  L 179.1034 77.9089
  A 5.64 5.64 0.0 0 0 184.7237 72.2492
  L 184.6763 58.6693"
/>
<path stroke="#80a0b9" vector-effect="non-scaling-stroke" d="
  M 196.69 67.06
  L 196.82 77.36
  A 0.50 0.49 -0.6 0 0 197.33 77.85
  L 199.67 77.82
  A 0.52 0.51 0.0 0 0 200.19 77.31
  L 200.19 53.68
  A 0.51 0.50 89.4 0 0 199.68 53.17
  L 197.25 53.22
  A 0.54 0.50 -90.0 0 0 196.76 53.75
  L 196.67 63.10
  A 0.52 0.47 -88.0 0 1 196.16 63.62
  L 192.51 63.34
  A 0.60 0.53 -87.9 0 1 192.02 62.75
  L 191.98 53.54
  A 0.46 0.43 -2.4 0 0 191.48 53.11
  L 189.03 53.30
  A 0.54 0.50 -3.0 0 0 188.53 53.81
  L 188.56 77.34
  A 0.52 0.49 1.2 0 0 189.06 77.83
  L 191.48 77.90
  A 0.49 0.47 1.2 0 0 191.98 77.44
  L 192.01 67.26
  A 0.61 0.52 89.6 0 1 192.51 66.66
  L 196.18 66.51
  A 0.56 0.48 88.0 0 1 196.69 67.06"
/>
<path stroke="#80a0b9" vector-effect="non-scaling-stroke" d="
  M 206.68 77.75
  A 0.60 0.54 -86.9 0 0 207.21 77.22
  L 207.58 74.13
  A 0.63 0.56 -86.6 0 1 208.14 73.57
  L 211.84 73.58
  A 0.62 0.60 86.8 0 1 212.44 74.13
  L 212.75 77.05
  A 0.69 0.49 87.1 0 0 213.24 77.67
  L 216.02 77.76
  A 0.46 0.41 84.9 0 0 216.43 77.21
  L 211.95 53.66
  A 0.60 0.57 82.6 0 0 211.35 53.17
  L 208.15 53.36
  A 0.67 0.63 -86.5 0 0 207.56 53.91
  L 203.43 77.32
  A 0.44 0.41 -84.9 0 0 203.84 77.84
  L 206.68 77.75"
/>
<path stroke="#80a0b9" vector-effect="non-scaling-stroke" d="
  M 226.97 67.56
  L 223.79 53.63
  A 0.66 0.58 -7.0 0 0 223.14 53.18
  L 219.75 53.30
  A 0.50 0.50 -0.6 0 0 219.26 53.80
  L 219.24 77.02
  A 0.67 0.63 -83.3 0 0 219.72 77.66
  Q 221.01 77.99 222.13 77.63
  A 0.72 0.65 82.4 0 0 222.59 76.96
  L 222.27 58.80
  A 0.29 0.22 -90.0 0 1 222.49 58.51
  C 222.87 58.51 225.81 72.35 226.14 73.78
  A 0.86 0.63 84.7 0 0 226.72 74.43
  L 228.12 74.61
  A 0.64 0.52 -79.1 0 0 228.73 74.10
  Q 230.37 66.52 232.40 59.04
  Q 232.56 58.46 232.54 59.00
  Q 232.29 68.10 232.46 77.29
  A 0.54 0.52 90.0 0 0 232.97 77.82
  L 235.44 77.85
  A 0.52 0.51 90.0 0 0 235.95 77.33
  L 235.97 53.80
  A 0.52 0.50 90.0 0 0 235.47 53.28
  L 231.57 53.28
  A 0.66 0.63 -83.1 0 0 230.95 53.79
  L 227.57 67.58
  Q 227.26 68.85 226.97 67.56"
/>
<path stroke="#80a0b9" vector-effect="non-scaling-stroke" d="
  M 248.31 68.19
  L 244.93 53.69
  A 0.62 0.61 -6.8 0 0 244.31 53.21
  L 240.78 53.29
  A 0.52 0.52 -0.6 0 0 240.27 53.81
  L 240.27 77.21
  A 0.52 0.50 1.2 0 0 240.77 77.71
  L 243.17 77.81
  A 0.49 0.47 0.6 0 0 243.68 77.33
  L 243.36 59.47
  A 0.57 0.31 -89.9 0 1 243.68 58.88
  C 244.10 58.90 246.86 72.12 247.17 73.52
  A 1.41 0.99 -86.1 0 0 247.66 74.33
  Q 248.38 74.82 249.28 74.62
  A 0.87 0.75 -88.4 0 0 249.86 73.98
  C 250.17 72.59 253.19 58.75 253.48 58.74
  A 0.31 0.21 -89.6 0 1 253.69 59.06
  L 253.55 77.22
  A 0.52 0.52 0.9 0 0 254.06 77.75
  L 256.44 77.83
  A 0.51 0.49 -88.9 0 0 256.95 77.32
  L 256.97 53.79
  A 0.53 0.49 1.9 0 0 256.47 53.30
  L 252.78 53.10
  A 0.66 0.57 7.0 0 0 252.13 53.53
  L 248.66 68.18
  Q 248.49 68.92 248.31 68.19"
/>
<path stroke="#80a0b9" vector-effect="non-scaling-stroke" d="
  M 264.79 74.69
  L 264.79 66.79
  A 0.52 0.49 -88.9 0 1 265.30 66.27
  L 268.26 66.38
  A 0.64 0.57 6.8 0 0 268.88 65.95
  Q 269.76 62.21 265.45 63.75
  A 0.52 0.51 -10.3 0 1 264.75 63.27
  L 264.78 56.28
  A 0.49 0.45 1.2 0 1 265.29 55.83
  L 269.29 56.03
  A 0.80 0.80 -75.8 0 0 270.04 55.58
  Q 270.52 54.57 270.14 53.56
  A 0.77 0.68 -9.7 0 0 269.43 53.12
  L 261.52 53.30
  A 0.51 0.49 -0.6 0 0 261.02 53.79
  L 261.03 77.23
  A 0.51 0.50 0.0 0 0 261.54 77.73
  L 269.69 77.72
  A 0.55 0.50 -0.0 0 0 270.24 77.22
  L 270.24 75.54
  A 0.54 0.49 -0.6 0 0 269.69 75.05
  L 265.31 75.18
  A 0.51 0.49 -0.6 0 1 264.79 74.69"
/>
<path stroke="#80a0b9" vector-effect="non-scaling-stroke" d="
  M 299.81 71.69
  L 297.18 53.82
  A 0.63 0.57 86.9 0 0 296.63 53.28
  L 293.85 53.20
  A 0.42 0.41 86.0 0 0 293.43 53.69
  L 297.67 77.23
  A 0.68 0.58 84.2 0 0 298.26 77.79
  L 301.51 77.79
  A 0.68 0.60 -84.3 0 0 302.11 77.23
  L 306.41 53.80
  A 0.47 0.41 -84.8 0 0 306.01 53.24
  L 303.24 53.36
  A 0.71 0.58 -86.3 0 0 302.67 53.97
  L 300.16 71.67
  Q 299.99 72.87 299.81 71.69"
/>
<path stroke="#80a0b9" vector-effect="non-scaling-stroke" d="
  M 283.79 74.85
  C 286.06 70.65 287.25 54.19 280.01 53.26
  Q 279.03 53.13 273.79 53.29
  A 0.53 0.51 -1.2 0 0 273.28 53.80
  L 273.31 76.83
  A 0.56 0.50 90.0 0 0 273.81 77.39
  L 280.17 77.36
  Q 282.44 77.35 283.79 74.85"
/>
<path stroke="#80a0b9" vector-effect="non-scaling-stroke" d="
  M 372.51 84.20
  L 369.42 86.27
  A 0.56 0.45 -36.5 0 0 369.23 87.01
  L 370.09 87.98
  A 0.76 0.63 -33.1 0 0 370.96 88.08
  L 374.63 86.15
  A 0.60 0.56 64.7 0 0 374.87 85.40
  Q 374.38 84.29 373.44 84.02
  A 1.24 1.00 -49.8 0 0 372.51 84.20"
/>
<path stroke="#80a0b9" vector-effect="non-scaling-stroke" d="
  M 160.57 89.94
  Q 157.01 88.13 152.82 88.85
  A 0.61 0.60 84.9 0 0 152.33 89.45
  L 152.37 113.27
  A 0.65 0.64 -83.9 0 0 152.87 113.90
  Q 154.19 114.21 155.54 113.91
  A 0.64 0.59 84.5 0 0 156.01 113.29
  L 156.08 106.86
  A 0.56 0.54 -1.8 0 1 156.60 106.33
  C 163.89 105.75 163.68 99.17 163.10 93.62
  Q 162.84 91.09 160.57 89.94"
/>
<path stroke="#80a0b9" vector-effect="non-scaling-stroke" d="
  M 175.06 89.44
  C 169.06 86.66 166.47 90.80 165.96 96.19
  C 165.32 103.03 164.52 117.73 175.70 112.64
  A 1.55 1.48 -86.1 0 0 176.40 112.00
  C 178.53 108.20 178.13 105.44 178.04 101.31
  C 177.98 97.84 178.84 91.19 175.06 89.44"
/>
<path stroke="#80a0b9" vector-effect="non-scaling-stroke" d="
  M 186.76 110.77
  Q 185.25 110.04 185.25 108.36
  L 185.23 89.31
  A 0.47 0.47 -1.2 0 0 184.74 88.84
  L 182.12 88.90
  A 0.54 0.51 0.5 0 0 181.59 89.39
  Q 181.17 100.67 181.80 108.68
  C 182.26 114.51 190.31 115.86 192.50 110.76
  C 194.39 106.33 193.28 94.67 193.24 89.48
  A 0.68 0.63 -83.5 0 0 192.76 88.83
  Q 191.52 88.52 190.22 88.88
  A 0.68 0.66 82.0 0 0 189.75 89.53
  Q 189.79 98.40 189.70 107.17
  C 189.69 108.86 188.88 111.80 186.76 110.77"
/>
<path stroke="#80a0b9" vector-effect="non-scaling-stroke" d="
  M 206.43 89.87
  Q 202.62 88.01 198.26 88.94
  A 0.62 0.61 84.3 0 0 197.77 89.55
  L 197.80 112.84
  A 0.53 0.51 1.2 0 0 198.31 113.35
  L 200.96 113.42
  A 0.50 0.49 0.6 0 0 201.47 112.93
  L 201.49 104.99
  A 1.32 0.80 78.0 0 1 201.80 104.10
  C 202.97 103.01 205.18 110.13 205.95 112.74
  A 0.97 0.90 88.7 0 0 206.56 113.37
  Q 208.00 113.79 209.52 113.35
  A 0.47 0.46 70.8 0 0 209.81 112.72
  L 206.43 104.43
  A 0.84 0.83 -35.7 0 1 206.57 103.59
  Q 210.56 98.94 208.77 92.66
  Q 208.22 90.75 206.43 89.87"
/>
<path stroke="#80a0b9" vector-effect="non-scaling-stroke" d="
  M 223.31 110.18
  L 223.21 89.42
  A 0.49 0.48 88.9 0 0 222.71 88.93
  L 220.02 89.03
  A 0.53 0.52 -1.1 0 0 219.51 89.55
  L 219.50 113.25
  A 0.52 0.51 0.6 0 0 220.01 113.76
  L 227.27 113.76
  A 0.90 0.78 11.7 0 0 228.04 113.33
  Q 228.54 112.33 228.16 111.22
  A 0.79 0.68 -7.9 0 0 227.46 110.77
  L 223.81 110.71
  A 0.53 0.51 -89.4 0 1 223.31 110.18"
/>
<path stroke="#80a0b9" vector-effect="non-scaling-stroke" d="
  M 234.06 109.27
  L 237.86 109.33
  A 0.62 0.57 87.1 0 1 238.42 109.88
  L 238.75 112.99
  A 0.78 0.71 -86.5 0 0 239.27 113.64
  Q 240.62 114.02 241.99 113.61
  A 0.58 0.55 76.6 0 0 242.37 112.95
  L 238.01 89.55
  A 0.68 0.57 84.1 0 0 237.43 88.99
  L 234.02 88.98
  A 0.68 0.57 -84.1 0 0 233.44 89.54
  L 229.41 112.84
  A 0.63 0.61 -74.7 0 0 229.79 113.53
  Q 231.20 114.06 232.54 113.69
  A 0.81 0.73 87.1 0 0 233.08 113.03
  L 233.50 109.80
  A 0.61 0.56 -85.9 0 1 234.06 109.27"
/>
<path stroke="#80a0b9" vector-effect="non-scaling-stroke" d="
  M 254.08 93.50
  C 255.51 88.90 259.05 92.72 258.78 95.77
  A 0.67 0.59 -79.6 0 0 259.19 96.45
  Q 260.30 96.81 261.44 96.27
  A 0.92 0.83 80.8 0 0 261.92 95.53
  C 262.42 88.70 255.57 86.13 251.65 90.61
  C 248.21 94.54 253.68 101.29 256.96 104.54
  C 258.27 105.84 259.93 112.10 255.74 111.00
  C 253.94 110.52 253.46 108.38 253.49 106.74
  A 0.72 0.66 -81.7 0 0 253.04 106.07
  Q 250.36 105.20 250.50 108.21
  C 250.96 118.12 267.56 112.67 260.24 102.99
  Q 257.46 99.33 254.51 95.71
  A 2.38 2.37 34.0 0 1 254.08 93.50"
/>
<path stroke="#80a0b9" vector-effect="non-scaling-stroke" d="
  M 276.83 94.49
  A 5.69 5.69 0.0 0 0 271.14 88.80
  L 270.52 88.80
  A 5.69 5.69 0.0 0 0 264.83 94.49
  L 264.83 107.93
  A 5.69 5.69 0.0 0 0 270.52 113.62
  L 271.14 113.62
  A 5.69 5.69 0.0 0 0 276.83 107.93
  L 276.83 94.49"
/>
<path stroke="#80a0b9" vector-effect="non-scaling-stroke" d="
  M 284.31 110.20
  L 284.25 89.31
  A 0.50 0.49 0.0 0 0 283.75 88.82
  L 281.03 88.82
  A 0.50 0.49 0.6 0 0 280.52 89.31
  L 280.52 113.20
  A 0.51 0.50 90.0 0 0 281.02 113.71
  L 288.52 113.76
  A 0.90 0.78 11.7 0 0 289.29 113.33
  Q 289.79 112.33 289.41 111.22
  A 0.77 0.67 -8.5 0 0 288.71 110.77
  L 284.81 110.71
  A 0.51 0.51 0.6 0 1 284.31 110.20"
/>
<path stroke="#80a0b9" vector-effect="non-scaling-stroke" d="
  M 295.51 89.27
  A 0.51 0.51 0.0 0 0 295.00 88.76
  L 292.26 88.76
  A 0.51 0.51 0.0 0 0 291.75 89.27
  L 291.75 113.25
  A 0.51 0.51 0.0 0 0 292.26 113.76
  L 295.00 113.76
  A 0.51 0.51 0.0 0 0 295.51 113.25
  L 295.51 89.27"
/>
<path stroke="#80a0b9" vector-effect="non-scaling-stroke" d="
  M 310.56 110.31
  Q 313.03 102.98 311.20 93.23
  C 310.26 88.28 304.14 88.81 300.49 88.72
  A 0.71 0.70 0.4 0 0 299.76 89.43
  L 299.77 112.71
  A 0.51 0.50 0.6 0 0 300.27 113.21
  C 303.23 113.28 309.30 114.05 310.56 110.31"
/>
<path stroke="#80a0b9" vector-effect="non-scaling-stroke" d="
  M 322.48 109.44
  Q 323.29 111.10 323.24 113.05
  A 0.64 0.58 -84.0 0 0 323.70 113.68
  Q 325.10 113.98 326.48 113.60
  A 0.56 0.53 77.0 0 0 326.86 112.96
  L 322.42 89.41
  A 0.62 0.61 84.2 0 0 321.82 88.91
  L 318.60 88.90
  A 0.60 0.59 -84.3 0 0 318.01 89.39
  L 313.81 113.02
  A 0.54 0.52 -78.6 0 0 314.20 113.64
  Q 315.60 113.96 317.07 113.66
  A 0.73 0.70 88.4 0 0 317.63 113.05
  L 318.07 109.85
  A 0.62 0.59 1.6 0 1 318.63 109.35
  L 321.75 109.08
  A 0.79 0.64 -12.6 0 1 322.48 109.44"
/>
<path stroke="#80a0b9" vector-effect="non-scaling-stroke" d="
  M 333.15 112.75
  C 333.01 111.07 332.37 102.32 334.39 104.29
  C 335.51 105.38 337.08 111.11 337.73 112.88
  A 0.76 0.65 77.5 0 0 338.40 113.38
  L 341.22 113.28
  A 0.37 0.36 77.4 0 0 341.53 112.77
  L 338.15 104.25
  A 0.81 0.77 -35.1 0 1 338.32 103.41
  Q 341.98 99.51 340.98 93.92
  C 340.04 88.66 334.60 88.39 330.01 88.78
  A 0.54 0.53 87.7 0 0 329.52 89.32
  L 329.52 112.72
  A 0.56 0.50 90.0 0 0 330.02 113.28
  L 332.71 113.31
  A 0.51 0.44 87.6 0 0 333.15 112.75"
/>
<path stroke="#80a0b9" vector-effect="non-scaling-stroke" d="
  M 348.50 89.30
  A 0.55 0.55 0.0 0 0 347.95 88.75
  L 345.31 88.75
  A 0.55 0.55 0.0 0 0 344.76 89.30
  L 344.76 113.16
  A 0.55 0.55 0.0 0 0 345.31 113.71
  L 347.95 113.71
  A 0.55 0.55 0.0 0 0 348.50 113.16
  L 348.50 89.30"
/>
<path stroke="#80a0b9" vector-effect="non-scaling-stroke" d="
  M 359.31 91.79
  L 362.19 91.72
  A 0.56 0.51 -0.6 0 0 362.74 91.21
  L 362.73 89.27
  A 0.55 0.50 0.0 0 0 362.18 88.77
  L 351.78 88.77
  A 0.71 0.67 8.4 0 0 351.11 89.24
  Q 350.76 90.35 351.10 91.51
  A 0.54 0.52 -15.0 0 0 351.74 91.86
  Q 353.26 91.52 354.64 91.89
  A 0.69 0.61 -83.5 0 1 355.10 92.54
  L 355.04 113.20
  A 0.53 0.49 90.0 0 0 355.53 113.73
  L 358.25 113.72
  A 0.52 0.50 90.0 0 0 358.75 113.20
  L 358.81 92.31
  A 0.52 0.52 -1.1 0 1 359.31 91.79"
/>
<path stroke="#80a0b9" vector-effect="non-scaling-stroke" d="
  M 369.05 102.63
  A 0.72 0.69 9.8 0 1 370.01 101.98
  Q 374.16 103.42 373.17 99.73
  A 0.71 0.62 -5.3 0 0 372.53 99.27
  L 369.62 99.16
  A 0.56 0.56 1.1 0 1 369.08 98.60
  L 369.09 92.40
  A 0.57 0.52 -89.5 0 1 369.62 91.83
  L 373.73 91.87
  A 0.71 0.53 6.8 0 0 374.39 91.49
  Q 374.74 90.38 374.39 89.24
  A 0.76 0.63 -6.7 0 0 373.71 88.80
  L 367.00 88.66
  A 1.46 1.40 0.8 0 0 365.50 90.06
  L 365.52 113.20
  A 0.51 0.49 -90.0 0 0 366.01 113.71
  L 373.97 113.73
  A 0.73 0.69 8.9 0 0 374.65 113.26
  Q 374.99 112.27 374.64 111.21
  A 0.76 0.63 -6.7 0 0 373.96 110.77
  L 369.61 110.66
  A 0.55 0.54 0.6 0 1 369.08 110.13
  L 369.05 102.63"
/>
<path stroke="#808b3a" vector-effect="non-scaling-stroke" d="
  M 81.46 67.57
  L 81.67 92.73
  A 1.57 1.14 -71.4 0 0 81.95 93.63
  Q 84.98 97.48 88.65 94.03
  A 1.19 1.14 69.1 0 0 89.01 93.18
  L 89.02 74.80
  Q 89.02 74.08 89.52 74.58
  L 99.18 84.12
  A 1.23 1.10 -69.6 0 1 99.52 84.99
  Q 99.46 96.12 99.52 107.27
  C 99.54 110.90 100.12 113.08 104.37 112.37
  Q 106.48 112.02 106.48 109.90
  L 106.47 84.98
  A 1.19 1.16 68.0 0 1 106.81 84.15
  L 120.89 70.31
  A 1.70 1.24 -25.3 0 0 121.35 69.47
  Q 121.81 66.68 119.00 65.16
  Q 117.09 64.12 115.52 65.65
  L 102.90 77.92
  A 0.60 0.59 -44.6 0 1 102.07 77.92
  L 89.96 66.28
  A 0.47 0.46 -45.4 0 1 89.96 65.61
  Q 95.91 59.89 101.85 54.05
  C 103.75 52.18 103.92 49.87 101.53 48.45
  Q 99.67 47.35 98.12 48.85
  L 85.40 61.17
  A 0.55 0.55 -45.4 0 1 84.64 61.18
  L 74.59 51.52
  A 0.50 0.50 -45.4 0 1 74.59 50.81
  L 87.73 37.92
  A 1.48 1.31 -20.9 0 0 88.17 37.08
  Q 88.76 32.93 84.49 32.98
  A 1.33 1.17 -64.1 0 0 83.63 33.34
  L 70.39 46.01
  A 0.54 0.52 -45.0 0 1 69.66 46.02
  L 56.22 33.51
  Q 54.62 32.02 53.04 33.53
  L 39.89 46.04
  A 0.52 0.52 0.0 0 1 39.17 46.04
  L 26.43 34.05
  Q 24.27 32.02 22.08 33.98
  Q 19.69 36.11 22.33 38.68
  Q 29.12 45.27 35.67 52.16
  A 1.26 1.24 -67.0 0 1 36.01 53.02
  L 36.01 77.45
  Q 36.01 79.44 37.90 80.05
  Q 40.87 81.02 42.69 78.85
  A 1.51 1.21 69.7 0 0 42.99 77.95
  L 43.01 60.09
  Q 43.01 59.13 43.70 59.79
  L 50.43 66.37
  A 1.24 1.14 -69.7 0 1 50.78 67.23
  L 50.75 91.97
  A 1.59 1.50 -64.2 0 0 51.04 92.88
  Q 54.17 97.07 57.69 93.08
  A 1.42 1.24 68.4 0 0 58.00 92.20
  L 57.98 67.27
  A 1.21 1.14 69.1 0 1 58.33 66.42
  L 66.24 58.72
  Q 66.75 58.22 66.75 58.94
  L 66.79 78.10
  A 1.27 1.18 -68.9 0 0 67.14 78.97
  Q 70.23 82.09 73.21 78.92
  A 1.32 1.18 69.0 0 0 73.54 78.05
  L 73.52 61.13
  Q 73.52 59.38 74.80 60.63
  L 81.06 66.73
  A 1.33 0.98 28.0 0 1 81.46 67.57"
/>
<path stroke="#808b3a" vector-effect="non-scaling-stroke" d="
  M 43.29 37.96
  A 4.54 4.54 0.0 0 0 38.75 33.42
  A 4.54 4.54 0.0 0 0 34.21 37.96
  A 4.54 4.54 0.0 0 0 38.75 42.50
  A 4.54 4.54 0.0 0 0 43.29 37.96"
/>
<path stroke="#808b3a" vector-effect="non-scaling-stroke" d="
  M 74.03 37.98
  A 4.54 4.54 0.0 0 0 69.49 33.44
  A 4.54 4.54 0.0 0 0 64.95 37.98
  A 4.54 4.54 0.0 0 0 69.49 42.52
  A 4.54 4.54 0.0 0 0 74.03 37.98"
/>
<path stroke="#808b3a" vector-effect="non-scaling-stroke" d="
  M 89.20 53.19
  A 4.54 4.54 0.0 0 0 84.66 48.65
  A 4.54 4.54 0.0 0 0 80.12 53.19
  A 4.54 4.54 0.0 0 0 84.66 57.73
  A 4.54 4.54 0.0 0 0 89.20 53.19"
/>
<path stroke="#808b3a" vector-effect="non-scaling-stroke" d="
  M 106.84 70.17
  A 4.53 4.53 0.0 0 0 102.31 65.64
  A 4.53 4.53 0.0 0 0 97.78 70.17
  A 4.53 4.53 0.0 0 0 102.31 74.70
  A 4.53 4.53 0.0 0 0 106.84 70.17"
/>
<path stroke="#80a0b9" vector-effect="non-scaling-stroke" d="
  M 171.95 22.45
  A 2.14 2.14 0.0 0 0 169.81 20.31
  L 169.71 20.31
  A 2.14 2.14 0.0 0 0 167.57 22.45
  L 167.57 37.47
  A 2.14 2.14 0.0 0 0 169.71 39.61
  L 169.81 39.61
  A 2.14 2.14 0.0 0 0 171.95 37.47
  L 171.95 22.45"
/>
<path stroke="#80a0b9" vector-effect="non-scaling-stroke" d="
  M 199.93 38.93
  C 206.34 42.11 204.20 25.23 203.96 22.80
  C 203.73 20.52 202.55 19.37 200.24 19.73
  A 0.60 0.57 86.1 0 0 199.75 20.32
  L 199.69 38.54
  A 0.44 0.43 -76.8 0 0 199.93 38.93"
/>
<path stroke="#80a0b9" vector-effect="non-scaling-stroke" d="
  M 216.19 23.92
  L 214.81 34.46
  A 0.44 0.41 1.0 0 0 215.28 34.92
  L 217.71 34.72
  A 0.48 0.46 84.2 0 0 218.13 34.18
  L 216.80 23.94
  Q 216.49 21.61 216.19 23.92"
/>
<path stroke="#80a0b9" vector-effect="non-scaling-stroke" d="
  M 253.96 22.45
  A 2.13 2.13 0.0 0 0 251.83 20.32
  L 251.71 20.32
  A 2.13 2.13 0.0 0 0 249.58 22.45
  L 249.58 37.33
  A 2.13 2.13 0.0 0 0 251.71 39.46
  L 251.83 39.46
  A 2.13 2.13 0.0 0 0 253.96 37.33
  L 253.96 22.45"
/>
<path stroke="#808b3a" vector-effect="non-scaling-stroke" d="
  M 43.99 50.64
  C 46.44 53.86 50.30 57.21 53.32 59.64
  A 0.77 0.77 42.6 0 0 54.34 59.60
  L 63.71 50.57
  A 0.53 0.50 -44.2 0 0 63.74 49.84
  L 54.44 40.53
  A 0.54 0.51 -44.2 0 0 53.71 40.54
  L 44.05 49.88
  A 0.57 0.57 49.8 0 0 43.99 50.64"
/>
<path stroke="#808b3a" vector-effect="non-scaling-stroke" d="
  M 58.29 52.25
  A 4.54 4.54 0.0 0 0 53.75 47.71
  A 4.54 4.54 0.0 0 0 49.21 52.25
  A 4.54 4.54 0.0 0 0 53.75 56.79
  A 4.54 4.54 0.0 0 0 58.29 52.25"
/>
<path stroke="#80a0b9" vector-effect="non-scaling-stroke" d="
  M 180.7704 58.1589
  A 2.07 2.07 0.0 0 0 178.6896 56.0998
  L 178.5496 56.1005
  A 2.07 2.07 0.0 0 0 176.4905 58.1813
  L 176.5696 73.2811
  A 2.07 2.07 0.0 0 0 178.6504 75.3402
  L 178.7904 75.3395
  A 2.07 2.07 0.0 0 0 180.8495 73.2587
  L 180.7704 58.1589"
/>
<path stroke="#80a0b9" vector-effect="non-scaling-stroke" d="
  M 209.25 59.91
  Q 208.54 64.90 207.92 69.97
  A 0.61 0.57 -78.9 0 0 208.33 70.63
  Q 209.66 70.99 211.08 70.66
  A 0.56 0.53 78.1 0 0 211.47 70.03
  C 211.23 68.66 210.27 59.35 209.94 59.02
  Q 209.45 58.50 209.25 59.91"
/>
<path stroke="#80a0b9" vector-effect="non-scaling-stroke" d="
  M 277.48 74.92
  C 283.07 77.72 281.21 61.47 281.01 58.73
  Q 280.76 55.24 277.57 55.37
  A 0.53 0.53 -1.1 0 0 277.06 55.90
  L 277.03 74.18
  A 0.83 0.80 -77.5 0 0 277.48 74.92"
/>
<path stroke="#80a0b9" vector-effect="non-scaling-stroke" d="
  M 157.51 91.78
  A 1.00 0.97 13.8 0 0 156.06 92.63
  L 156.09 102.83
  A 0.47 0.47 -2.8 0 0 156.61 103.30
  C 160.80 102.89 161.25 93.69 157.51 91.78"
/>
<path stroke="#80a0b9" vector-effect="non-scaling-stroke" d="
  M 174.2030 94.0137
  A 2.04 2.04 0.0 0 0 172.1666 91.9701
  L 172.0466 91.9699
  A 2.04 2.04 0.0 0 0 170.0030 94.0063
  L 169.9770 108.9263
  A 2.04 2.04 0.0 0 0 172.0134 110.9699
  L 172.1334 110.9701
  A 2.04 2.04 0.0 0 0 174.1770 108.9337
  L 174.2030 94.0137"
/>
<path stroke="#80a0b9" vector-effect="non-scaling-stroke" d="
  M 204.86 92.61
  Q 203.20 91.34 201.77 91.63
  A 0.65 0.62 83.5 0 0 201.28 92.27
  L 201.33 101.10
  A 0.58 0.57 2.8 0 0 201.85 101.67
  C 206.48 102.11 205.56 96.55 205.49 93.84
  A 1.60 1.58 -72.4 0 0 204.86 92.61"
/>
<path stroke="#80a0b9" vector-effect="non-scaling-stroke" d="
  M 235.19 95.93
  L 233.87 105.71
  A 0.63 0.57 -78.3 0 0 234.27 106.38
  Q 235.62 106.77 237.01 106.36
  A 0.60 0.54 78.4 0 0 237.39 105.72
  L 236.02 95.94
  Q 235.60 92.92 235.19 95.93"
/>
<path stroke="#80a0b9" vector-effect="non-scaling-stroke" d="
  M 272.95 93.98
  A 2.15 2.15 0.0 0 0 270.80 91.83
  L 270.68 91.83
  A 2.15 2.15 0.0 0 0 268.53 93.98
  L 268.53 108.80
  A 2.15 2.15 0.0 0 0 270.68 110.95
  L 270.80 110.95
  A 2.15 2.15 0.0 0 0 272.95 108.80
  L 272.95 93.98"
/>
<path stroke="#80a0b9" vector-effect="non-scaling-stroke" d="
  M 306.74 110.37
  C 308.74 108.81 308.13 96.87 307.95 94.16
  Q 307.72 90.67 304.07 91.04
  A 0.60 0.58 -3.3 0 0 303.54 91.62
  L 303.61 109.77
  A 0.78 0.74 -79.3 0 0 304.07 110.48
  Q 305.71 111.18 306.74 110.37"
/>
<path stroke="#80a0b9" vector-effect="non-scaling-stroke" d="
  M 320.00 95.44
  L 318.54 105.79
  A 0.58 0.58 11.2 0 0 318.97 106.43
  Q 320.21 106.73 321.52 106.36
  A 0.60 0.60 78.4 0 0 321.95 105.70
  L 320.59 95.43
  Q 320.31 93.30 320.00 95.44"
/>
<path stroke="#80a0b9" vector-effect="non-scaling-stroke" d="
  M 333.60 101.65
  C 338.58 101.99 338.96 91.00 333.60 91.60
  A 0.58 0.57 -2.8 0 0 333.08 92.17
  L 333.08 101.10
  A 0.56 0.55 2.2 0 0 333.60 101.65"
/>
</g>
<path fill="#ffffff" d="
  M 0.00 0.00
  L 383.00 0.00
  L 383.00 131.00
  L 0.00 131.00
  L 0.00 0.00
  Z
  M 132.9676 64.9643
  A 62.53 62.41 -0.5 0 0 69.8954 3.1024
  A 62.53 62.41 -0.5 0 0 7.9124 66.0557
  A 62.53 62.41 -0.5 0 0 70.9846 127.9176
  A 62.53 62.41 -0.5 0 0 132.9676 64.9643
  Z
  M 156.31 30.81
  L 159.61 30.67
  A 0.60 0.53 -0.6 0 0 160.19 30.15
  L 160.24 28.29
  A 0.56 0.50 1.6 0 0 159.69 27.77
  L 156.70 27.75
  A 0.63 0.60 -5.6 0 1 156.09 27.27
  Q 155.45 24.06 155.90 20.78
  A 0.59 0.58 2.8 0 1 156.47 20.27
  L 160.97 20.22
  A 0.56 0.49 -88.0 0 0 161.45 19.71
  L 161.60 17.94
  A 0.51 0.41 -86.9 0 0 161.20 17.39
  L 152.77 17.45
  A 0.56 0.50 90.0 0 0 152.27 18.01
  L 152.30 41.59
  A 0.53 0.52 -89.4 0 0 152.81 42.12
  L 155.30 42.13
  A 0.49 0.46 90.0 0 0 155.76 41.64
  L 155.80 31.31
  A 0.53 0.50 -1.2 0 1 156.31 30.81
  Z
  M 175.87 23.01
  A 5.68 5.68 0.0 0 0 170.19 17.33
  L 169.57 17.33
  A 5.68 5.68 0.0 0 0 163.89 23.01
  L 163.89 36.47
  A 5.68 5.68 0.0 0 0 169.57 42.15
  L 170.19 42.15
  A 5.68 5.68 0.0 0 0 175.87 36.47
  L 175.87 23.01
  Z
  M 182.41 26.26
  L 182.53 26.25
  A 0.35 0.23 73.2 0 1 182.82 26.49
  L 188.41 41.47
  A 1.15 0.96 85.9 0 0 189.05 42.13
  Q 190.26 42.52 191.52 42.12
  A 0.71 0.67 81.6 0 0 191.99 41.45
  L 191.98 18.30
  A 0.57 0.54 -87.8 0 0 191.48 17.73
  L 189.05 17.57
  A 0.48 0.47 -88.4 0 0 188.54 18.06
  L 188.68 32.92
  Q 188.70 34.16 188.27 33.01
  L 182.83 18.05
  A 0.88 0.68 78.7 0 0 182.18 17.48
  L 180.21 17.37
  A 0.54 0.47 -89.6 0 0 179.72 17.92
  L 179.75 41.70
  A 0.52 0.52 0.6 0 0 180.26 42.22
  L 182.22 42.26
  A 0.53 0.52 -88.3 0 0 182.75 41.75
  Q 183.13 34.07 182.32 26.43
  A 0.17 0.11 83.8 0 1 182.41 26.26
  Z
  M 207.76 24.00
  C 207.69 17.62 201.64 16.54 196.52 17.43
  A 0.60 0.60 84.8 0 0 196.03 18.02
  L 196.07 41.33
  A 0.57 0.57 -86.6 0 0 196.57 41.90
  C 210.29 43.71 207.87 32.76 207.76 24.00
  Z
  M 218.83 38.04
  L 219.29 41.24
  A 0.74 0.46 85.5 0 0 219.76 41.88
  L 222.53 42.02
  A 0.48 0.41 85.4 0 0 222.94 41.45
  L 218.52 17.81
  A 0.65 0.56 83.2 0 0 217.93 17.27
  L 214.67 17.34
  A 0.70 0.61 -84.1 0 0 214.07 17.90
  L 209.70 41.28
  A 0.74 0.67 5.2 0 0 210.43 42.08
  L 212.65 42.09
  A 0.61 0.59 7.1 0 0 213.25 41.64
  L 214.03 38.13
  A 0.70 0.62 -83.5 0 1 214.64 37.58
  L 218.18 37.52
  A 0.65 0.60 -4.0 0 1 218.83 38.04
  Z
  M 232.06 20.41
  Q 236.39 21.17 235.44 17.80
  A 0.69 0.68 -7.8 0 0 234.78 17.31
  L 224.57 17.29
  A 0.67 0.66 -82.6 0 0 223.93 17.79
  Q 223.06 21.37 227.25 19.98
  A 0.58 0.58 80.8 0 1 228.01 20.53
  L 228.02 41.45
  A 0.57 0.50 90.0 0 0 228.52 42.02
  L 231.00 42.01
  A 0.58 0.50 -89.4 0 0 231.50 41.44
  L 231.56 20.81
  A 0.42 0.41 5.3 0 1 232.06 20.41
  Z
  M 241.9082 17.8136
  A 0.39 0.39 0.0 0 0 241.5168 17.4250
  L 238.5968 17.4352
  A 0.39 0.39 0.0 0 0 238.2082 17.8265
  L 238.2918 41.7864
  A 0.39 0.39 0.0 0 0 238.6832 42.1750
  L 241.6032 42.1648
  A 0.39 0.39 0.0 0 0 241.9918 41.7735
  L 241.9082 17.8136
  Z
  M 257.89 23.03
  A 5.71 5.71 0.0 0 0 252.18 17.32
  L 251.56 17.32
  A 5.71 5.71 0.0 0 0 245.85 23.03
  L 245.85 36.43
  A 5.71 5.71 0.0 0 0 251.56 42.14
  L 252.18 42.14
  A 5.71 5.71 0.0 0 0 257.89 36.43
  L 257.89 23.03
  Z
  M 270.23 33.21
  L 264.79 18.06
  A 0.89 0.69 78.9 0 0 264.13 17.48
  L 262.11 17.37
  A 0.55 0.48 -89.0 0 0 261.61 17.92
  L 261.53 41.47
  A 0.65 0.53 -88.1 0 0 262.02 42.11
  L 264.10 42.30
  A 0.57 0.49 -86.4 0 0 264.63 41.75
  Q 265.09 34.75 264.36 27.77
  Q 264.27 26.88 264.60 26.80
  A 0.82 0.43 70.9 0 1 265.24 27.40
  L 270.35 41.24
  A 1.51 1.15 87.7 0 0 270.96 41.98
  Q 272.06 42.57 273.32 42.19
  A 0.73 0.66 81.8 0 0 273.78 41.51
  L 273.74 18.32
  A 0.55 0.54 -87.8 0 0 273.24 17.77
  L 271.06 17.58
  A 0.48 0.48 3.4 0 0 270.54 18.04
  C 270.50 19.45 270.62 33.49 270.55 33.51
  A 0.41 0.21 70.8 0 1 270.23 33.21
  Z
  M 160.28 67.92
  Q 159.25 60.62 157.08 53.53
  A 0.64 0.61 -9.9 0 0 156.44 53.10
  L 152.77 53.30
  A 0.54 0.50 -1.8 0 0 152.26 53.80
  L 152.25 77.01
  A 0.70 0.63 -82.9 0 0 152.71 77.67
  Q 153.91 78.01 155.07 77.74
  A 0.66 0.63 84.0 0 0 155.56 77.10
  Q 155.59 67.92 155.40 58.75
  Q 155.39 58.47 155.51 58.49
  A 0.31 0.18 82.4 0 1 155.69 58.72
  L 159.13 73.77
  A 1.04 0.84 -88.9 0 0 159.68 74.48
  Q 160.52 74.81 161.37 74.54
  A 0.97 0.83 89.5 0 0 161.95 73.85
  C 162.27 72.38 165.26 58.55 165.71 58.50
  A 0.32 0.22 89.6 0 1 165.94 58.83
  L 165.50 76.97
  A 0.61 0.56 -85.2 0 0 165.98 77.59
  L 168.48 77.93
  A 0.49 0.45 -86.9 0 0 168.98 77.44
  L 168.98 53.56
  A 0.46 0.45 -1.8 0 0 168.49 53.11
  L 164.86 53.30
  A 0.70 0.66 5.0 0 0 164.23 53.80
  C 163.84 55.19 160.71 68.21 160.57 68.24
  A 0.35 0.22 80.6 0 1 160.28 67.92
  Z
  M 184.6763 58.6693
  A 5.64 5.64 0.0 0 0 179.0166 53.0490
  L 178.4166 53.0511
  A 5.64 5.64 0.0 0 0 172.7963 58.7108
  L 172.8437 72.2907
  A 5.64 5.64 0.0 0 0 178.5034 77.9110
  L 179.1034 77.9089
  A 5.64 5.64 0.0 0 0 184.7237 72.2492
  L 184.6763 58.6693
  Z
  M 196.69 67.06
  L 196.82 77.36
  A 0.50 0.49 -0.6 0 0 197.33 77.85
  L 199.67 77.82
  A 0.52 0.51 0.0 0 0 200.19 77.31
  L 200.19 53.68
  A 0.51 0.50 89.4 0 0 199.68 53.17
  L 197.25 53.22
  A 0.54 0.50 -90.0 0 0 196.76 53.75
  L 196.67 63.10
  A 0.52 0.47 -88.0 0 1 196.16 63.62
  L 192.51 63.34
  A 0.60 0.53 -87.9 0 1 192.02 62.75
  L 191.98 53.54
  A 0.46 0.43 -2.4 0 0 191.48 53.11
  L 189.03 53.30
  A 0.54 0.50 -3.0 0 0 188.53 53.81
  L 188.56 77.34
  A 0.52 0.49 1.2 0 0 189.06 77.83
  L 191.48 77.90
  A 0.49 0.47 1.2 0 0 191.98 77.44
  L 192.01 67.26
  A 0.61 0.52 89.6 0 1 192.51 66.66
  L 196.18 66.51
  A 0.56 0.48 88.0 0 1 196.69 67.06
  Z
  M 206.68 77.75
  A 0.60 0.54 -86.9 0 0 207.21 77.22
  L 207.58 74.13
  A 0.63 0.56 -86.6 0 1 208.14 73.57
  L 211.84 73.58
  A 0.62 0.60 86.8 0 1 212.44 74.13
  L 212.75 77.05
  A 0.69 0.49 87.1 0 0 213.24 77.67
  L 216.02 77.76
  A 0.46 0.41 84.9 0 0 216.43 77.21
  L 211.95 53.66
  A 0.60 0.57 82.6 0 0 211.35 53.17
  L 208.15 53.36
  A 0.67 0.63 -86.5 0 0 207.56 53.91
  L 203.43 77.32
  A 0.44 0.41 -84.9 0 0 203.84 77.84
  L 206.68 77.75
  Z
  M 226.97 67.56
  L 223.79 53.63
  A 0.66 0.58 -7.0 0 0 223.14 53.18
  L 219.75 53.30
  A 0.50 0.50 -0.6 0 0 219.26 53.80
  L 219.24 77.02
  A 0.67 0.63 -83.3 0 0 219.72 77.66
  Q 221.01 77.99 222.13 77.63
  A 0.72 0.65 82.4 0 0 222.59 76.96
  L 222.27 58.80
  A 0.29 0.22 -90.0 0 1 222.49 58.51
  C 222.87 58.51 225.81 72.35 226.14 73.78
  A 0.86 0.63 84.7 0 0 226.72 74.43
  L 228.12 74.61
  A 0.64 0.52 -79.1 0 0 228.73 74.10
  Q 230.37 66.52 232.40 59.04
  Q 232.56 58.46 232.54 59.00
  Q 232.29 68.10 232.46 77.29
  A 0.54 0.52 90.0 0 0 232.97 77.82
  L 235.44 77.85
  A 0.52 0.51 90.0 0 0 235.95 77.33
  L 235.97 53.80
  A 0.52 0.50 90.0 0 0 235.47 53.28
  L 231.57 53.28
  A 0.66 0.63 -83.1 0 0 230.95 53.79
  L 227.57 67.58
  Q 227.26 68.85 226.97 67.56
  Z
  M 248.31 68.19
  L 244.93 53.69
  A 0.62 0.61 -6.8 0 0 244.31 53.21
  L 240.78 53.29
  A 0.52 0.52 -0.6 0 0 240.27 53.81
  L 240.27 77.21
  A 0.52 0.50 1.2 0 0 240.77 77.71
  L 243.17 77.81
  A 0.49 0.47 0.6 0 0 243.68 77.33
  L 243.36 59.47
  A 0.57 0.31 -89.9 0 1 243.68 58.88
  C 244.10 58.90 246.86 72.12 247.17 73.52
  A 1.41 0.99 -86.1 0 0 247.66 74.33
  Q 248.38 74.82 249.28 74.62
  A 0.87 0.75 -88.4 0 0 249.86 73.98
  C 250.17 72.59 253.19 58.75 253.48 58.74
  A 0.31 0.21 -89.6 0 1 253.69 59.06
  L 253.55 77.22
  A 0.52 0.52 0.9 0 0 254.06 77.75
  L 256.44 77.83
  A 0.51 0.49 -88.9 0 0 256.95 77.32
  L 256.97 53.79
  A 0.53 0.49 1.9 0 0 256.47 53.30
  L 252.78 53.10
  A 0.66 0.57 7.0 0 0 252.13 53.53
  L 248.66 68.18
  Q 248.49 68.92 248.31 68.19
  Z
  M 264.79 74.69
  L 264.79 66.79
  A 0.52 0.49 -88.9 0 1 265.30 66.27
  L 268.26 66.38
  A 0.64 0.57 6.8 0 0 268.88 65.95
  Q 269.76 62.21 265.45 63.75
  A 0.52 0.51 -10.3 0 1 264.75 63.27
  L 264.78 56.28
  A 0.49 0.45 1.2 0 1 265.29 55.83
  L 269.29 56.03
  A 0.80 0.80 -75.8 0 0 270.04 55.58
  Q 270.52 54.57 270.14 53.56
  A 0.77 0.68 -9.7 0 0 269.43 53.12
  L 261.52 53.30
  A 0.51 0.49 -0.6 0 0 261.02 53.79
  L 261.03 77.23
  A 0.51 0.50 0.0 0 0 261.54 77.73
  L 269.69 77.72
  A 0.55 0.50 -0.0 0 0 270.24 77.22
  L 270.24 75.54
  A 0.54 0.49 -0.6 0 0 269.69 75.05
  L 265.31 75.18
  A 0.51 0.49 -0.6 0 1 264.79 74.69
  Z
  M 299.81 71.69
  L 297.18 53.82
  A 0.63 0.57 86.9 0 0 296.63 53.28
  L 293.85 53.20
  A 0.42 0.41 86.0 0 0 293.43 53.69
  L 297.67 77.23
  A 0.68 0.58 84.2 0 0 298.26 77.79
  L 301.51 77.79
  A 0.68 0.60 -84.3 0 0 302.11 77.23
  L 306.41 53.80
  A 0.47 0.41 -84.8 0 0 306.01 53.24
  L 303.24 53.36
  A 0.71 0.58 -86.3 0 0 302.67 53.97
  L 300.16 71.67
  Q 299.99 72.87 299.81 71.69
  Z
  M 283.79 74.85
  C 286.06 70.65 287.25 54.19 280.01 53.26
  Q 279.03 53.13 273.79 53.29
  A 0.53 0.51 -1.2 0 0 273.28 53.80
  L 273.31 76.83
  A 0.56 0.50 90.0 0 0 273.81 77.39
  L 280.17 77.36
  Q 282.44 77.35 283.79 74.85
  Z
  M 372.51 84.20
  L 369.42 86.27
  A 0.56 0.45 -36.5 0 0 369.23 87.01
  L 370.09 87.98
  A 0.76 0.63 -33.1 0 0 370.96 88.08
  L 374.63 86.15
  A 0.60 0.56 64.7 0 0 374.87 85.40
  Q 374.38 84.29 373.44 84.02
  A 1.24 1.00 -49.8 0 0 372.51 84.20
  Z
  M 160.57 89.94
  Q 157.01 88.13 152.82 88.85
  A 0.61 0.60 84.9 0 0 152.33 89.45
  L 152.37 113.27
  A 0.65 0.64 -83.9 0 0 152.87 113.90
  Q 154.19 114.21 155.54 113.91
  A 0.64 0.59 84.5 0 0 156.01 113.29
  L 156.08 106.86
  A 0.56 0.54 -1.8 0 1 156.60 106.33
  C 163.89 105.75 163.68 99.17 163.10 93.62
  Q 162.84 91.09 160.57 89.94
  Z
  M 175.06 89.44
  C 169.06 86.66 166.47 90.80 165.96 96.19
  C 165.32 103.03 164.52 117.73 175.70 112.64
  A 1.55 1.48 -86.1 0 0 176.40 112.00
  C 178.53 108.20 178.13 105.44 178.04 101.31
  C 177.98 97.84 178.84 91.19 175.06 89.44
  Z
  M 186.76 110.77
  Q 185.25 110.04 185.25 108.36
  L 185.23 89.31
  A 0.47 0.47 -1.2 0 0 184.74 88.84
  L 182.12 88.90
  A 0.54 0.51 0.5 0 0 181.59 89.39
  Q 181.17 100.67 181.80 108.68
  C 182.26 114.51 190.31 115.86 192.50 110.76
  C 194.39 106.33 193.28 94.67 193.24 89.48
  A 0.68 0.63 -83.5 0 0 192.76 88.83
  Q 191.52 88.52 190.22 88.88
  A 0.68 0.66 82.0 0 0 189.75 89.53
  Q 189.79 98.40 189.70 107.17
  C 189.69 108.86 188.88 111.80 186.76 110.77
  Z
  M 206.43 89.87
  Q 202.62 88.01 198.26 88.94
  A 0.62 0.61 84.3 0 0 197.77 89.55
  L 197.80 112.84
  A 0.53 0.51 1.2 0 0 198.31 113.35
  L 200.96 113.42
  A 0.50 0.49 0.6 0 0 201.47 112.93
  L 201.49 104.99
  A 1.32 0.80 78.0 0 1 201.80 104.10
  C 202.97 103.01 205.18 110.13 205.95 112.74
  A 0.97 0.90 88.7 0 0 206.56 113.37
  Q 208.00 113.79 209.52 113.35
  A 0.47 0.46 70.8 0 0 209.81 112.72
  L 206.43 104.43
  A 0.84 0.83 -35.7 0 1 206.57 103.59
  Q 210.56 98.94 208.77 92.66
  Q 208.22 90.75 206.43 89.87
  Z
  M 223.31 110.18
  L 223.21 89.42
  A 0.49 0.48 88.9 0 0 222.71 88.93
  L 220.02 89.03
  A 0.53 0.52 -1.1 0 0 219.51 89.55
  L 219.50 113.25
  A 0.52 0.51 0.6 0 0 220.01 113.76
  L 227.27 113.76
  A 0.90 0.78 11.7 0 0 228.04 113.33
  Q 228.54 112.33 228.16 111.22
  A 0.79 0.68 -7.9 0 0 227.46 110.77
  L 223.81 110.71
  A 0.53 0.51 -89.4 0 1 223.31 110.18
  Z
  M 234.06 109.27
  L 237.86 109.33
  A 0.62 0.57 87.1 0 1 238.42 109.88
  L 238.75 112.99
  A 0.78 0.71 -86.5 0 0 239.27 113.64
  Q 240.62 114.02 241.99 113.61
  A 0.58 0.55 76.6 0 0 242.37 112.95
  L 238.01 89.55
  A 0.68 0.57 84.1 0 0 237.43 88.99
  L 234.02 88.98
  A 0.68 0.57 -84.1 0 0 233.44 89.54
  L 229.41 112.84
  A 0.63 0.61 -74.7 0 0 229.79 113.53
  Q 231.20 114.06 232.54 113.69
  A 0.81 0.73 87.1 0 0 233.08 113.03
  L 233.50 109.80
  A 0.61 0.56 -85.9 0 1 234.06 109.27
  Z
  M 254.08 93.50
  C 255.51 88.90 259.05 92.72 258.78 95.77
  A 0.67 0.59 -79.6 0 0 259.19 96.45
  Q 260.30 96.81 261.44 96.27
  A 0.92 0.83 80.8 0 0 261.92 95.53
  C 262.42 88.70 255.57 86.13 251.65 90.61
  C 248.21 94.54 253.68 101.29 256.96 104.54
  C 258.27 105.84 259.93 112.10 255.74 111.00
  C 253.94 110.52 253.46 108.38 253.49 106.74
  A 0.72 0.66 -81.7 0 0 253.04 106.07
  Q 250.36 105.20 250.50 108.21
  C 250.96 118.12 267.56 112.67 260.24 102.99
  Q 257.46 99.33 254.51 95.71
  A 2.38 2.37 34.0 0 1 254.08 93.50
  Z
  M 276.83 94.49
  A 5.69 5.69 0.0 0 0 271.14 88.80
  L 270.52 88.80
  A 5.69 5.69 0.0 0 0 264.83 94.49
  L 264.83 107.93
  A 5.69 5.69 0.0 0 0 270.52 113.62
  L 271.14 113.62
  A 5.69 5.69 0.0 0 0 276.83 107.93
  L 276.83 94.49
  Z
  M 284.31 110.20
  L 284.25 89.31
  A 0.50 0.49 0.0 0 0 283.75 88.82
  L 281.03 88.82
  A 0.50 0.49 0.6 0 0 280.52 89.31
  L 280.52 113.20
  A 0.51 0.50 90.0 0 0 281.02 113.71
  L 288.52 113.76
  A 0.90 0.78 11.7 0 0 289.29 113.33
  Q 289.79 112.33 289.41 111.22
  A 0.77 0.67 -8.5 0 0 288.71 110.77
  L 284.81 110.71
  A 0.51 0.51 0.6 0 1 284.31 110.20
  Z
  M 295.51 89.27
  A 0.51 0.51 0.0 0 0 295.00 88.76
  L 292.26 88.76
  A 0.51 0.51 0.0 0 0 291.75 89.27
  L 291.75 113.25
  A 0.51 0.51 0.0 0 0 292.26 113.76
  L 295.00 113.76
  A 0.51 0.51 0.0 0 0 295.51 113.25
  L 295.51 89.27
  Z
  M 310.56 110.31
  Q 313.03 102.98 311.20 93.23
  C 310.26 88.28 304.14 88.81 300.49 88.72
  A 0.71 0.70 0.4 0 0 299.76 89.43
  L 299.77 112.71
  A 0.51 0.50 0.6 0 0 300.27 113.21
  C 303.23 113.28 309.30 114.05 310.56 110.31
  Z
  M 322.48 109.44
  Q 323.29 111.10 323.24 113.05
  A 0.64 0.58 -84.0 0 0 323.70 113.68
  Q 325.10 113.98 326.48 113.60
  A 0.56 0.53 77.0 0 0 326.86 112.96
  L 322.42 89.41
  A 0.62 0.61 84.2 0 0 321.82 88.91
  L 318.60 88.90
  A 0.60 0.59 -84.3 0 0 318.01 89.39
  L 313.81 113.02
  A 0.54 0.52 -78.6 0 0 314.20 113.64
  Q 315.60 113.96 317.07 113.66
  A 0.73 0.70 88.4 0 0 317.63 113.05
  L 318.07 109.85
  A 0.62 0.59 1.6 0 1 318.63 109.35
  L 321.75 109.08
  A 0.79 0.64 -12.6 0 1 322.48 109.44
  Z
  M 333.15 112.75
  C 333.01 111.07 332.37 102.32 334.39 104.29
  C 335.51 105.38 337.08 111.11 337.73 112.88
  A 0.76 0.65 77.5 0 0 338.40 113.38
  L 341.22 113.28
  A 0.37 0.36 77.4 0 0 341.53 112.77
  L 338.15 104.25
  A 0.81 0.77 -35.1 0 1 338.32 103.41
  Q 341.98 99.51 340.98 93.92
  C 340.04 88.66 334.60 88.39 330.01 88.78
  A 0.54 0.53 87.7 0 0 329.52 89.32
  L 329.52 112.72
  A 0.56 0.50 90.0 0 0 330.02 113.28
  L 332.71 113.31
  A 0.51 0.44 87.6 0 0 333.15 112.75
  Z
  M 348.50 89.30
  A 0.55 0.55 0.0 0 0 347.95 88.75
  L 345.31 88.75
  A 0.55 0.55 0.0 0 0 344.76 89.30
  L 344.76 113.16
  A 0.55 0.55 0.0 0 0 345.31 113.71
  L 347.95 113.71
  A 0.55 0.55 0.0 0 0 348.50 113.16
  L 348.50 89.30
  Z
  M 359.31 91.79
  L 362.19 91.72
  A 0.56 0.51 -0.6 0 0 362.74 91.21
  L 362.73 89.27
  A 0.55 0.50 0.0 0 0 362.18 88.77
  L 351.78 88.77
  A 0.71 0.67 8.4 0 0 351.11 89.24
  Q 350.76 90.35 351.10 91.51
  A 0.54 0.52 -15.0 0 0 351.74 91.86
  Q 353.26 91.52 354.64 91.89
  A 0.69 0.61 -83.5 0 1 355.10 92.54
  L 355.04 113.20
  A 0.53 0.49 90.0 0 0 355.53 113.73
  L 358.25 113.72
  A 0.52 0.50 90.0 0 0 358.75 113.20
  L 358.81 92.31
  A 0.52 0.52 -1.1 0 1 359.31 91.79
  Z
  M 369.05 102.63
  A 0.72 0.69 9.8 0 1 370.01 101.98
  Q 374.16 103.42 373.17 99.73
  A 0.71 0.62 -5.3 0 0 372.53 99.27
  L 369.62 99.16
  A 0.56 0.56 1.1 0 1 369.08 98.60
  L 369.09 92.40
  A 0.57 0.52 -89.5 0 1 369.62 91.83
  L 373.73 91.87
  A 0.71 0.53 6.8 0 0 374.39 91.49
  Q 374.74 90.38 374.39 89.24
  A 0.76 0.63 -6.7 0 0 373.71 88.80
  L 367.00 88.66
  A 1.46 1.40 0.8 0 0 365.50 90.06
  L 365.52 113.20
  A 0.51 0.49 -90.0 0 0 366.01 113.71
  L 373.97 113.73
  A 0.73 0.69 8.9 0 0 374.65 113.26
  Q 374.99 112.27 374.64 111.21
  A 0.76 0.63 -6.7 0 0 373.96 110.77
  L 369.61 110.66
  A 0.55 0.54 0.6 0 1 369.08 110.13
  L 369.05 102.63
  Z"
/>
<path fill="#ffd500" d="
  M 132.9676 64.9643
  A 62.53 62.41 -0.5 0 1 70.9846 127.9176
  A 62.53 62.41 -0.5 0 1 7.9124 66.0557
  A 62.53 62.41 -0.5 0 1 69.8954 3.1024
  A 62.53 62.41 -0.5 0 1 132.9676 64.9643
  Z
  M 81.46 67.57
  L 81.67 92.73
  A 1.57 1.14 -71.4 0 0 81.95 93.63
  Q 84.98 97.48 88.65 94.03
  A 1.19 1.14 69.1 0 0 89.01 93.18
  L 89.02 74.80
  Q 89.02 74.08 89.52 74.58
  L 99.18 84.12
  A 1.23 1.10 -69.6 0 1 99.52 84.99
  Q 99.46 96.12 99.52 107.27
  C 99.54 110.90 100.12 113.08 104.37 112.37
  Q 106.48 112.02 106.48 109.90
  L 106.47 84.98
  A 1.19 1.16 68.0 0 1 106.81 84.15
  L 120.89 70.31
  A 1.70 1.24 -25.3 0 0 121.35 69.47
  Q 121.81 66.68 119.00 65.16
  Q 117.09 64.12 115.52 65.65
  L 102.90 77.92
  A 0.60 0.59 -44.6 0 1 102.07 77.92
  L 89.96 66.28
  A 0.47 0.46 -45.4 0 1 89.96 65.61
  Q 95.91 59.89 101.85 54.05
  C 103.75 52.18 103.92 49.87 101.53 48.45
  Q 99.67 47.35 98.12 48.85
  L 85.40 61.17
  A 0.55 0.55 -45.4 0 1 84.64 61.18
  L 74.59 51.52
  A 0.50 0.50 -45.4 0 1 74.59 50.81
  L 87.73 37.92
  A 1.48 1.31 -20.9 0 0 88.17 37.08
  Q 88.76 32.93 84.49 32.98
  A 1.33 1.17 -64.1 0 0 83.63 33.34
  L 70.39 46.01
  A 0.54 0.52 -45.0 0 1 69.66 46.02
  L 56.22 33.51
  Q 54.62 32.02 53.04 33.53
  L 39.89 46.04
  A 0.52 0.52 0.0 0 1 39.17 46.04
  L 26.43 34.05
  Q 24.27 32.02 22.08 33.98
  Q 19.69 36.11 22.33 38.68
  Q 29.12 45.27 35.67 52.16
  A 1.26 1.24 -67.0 0 1 36.01 53.02
  L 36.01 77.45
  Q 36.01 79.44 37.90 80.05
  Q 40.87 81.02 42.69 78.85
  A 1.51 1.21 69.7 0 0 42.99 77.95
  L 43.01 60.09
  Q 43.01 59.13 43.70 59.79
  L 50.43 66.37
  A 1.24 1.14 -69.7 0 1 50.78 67.23
  L 50.75 91.97
  A 1.59 1.50 -64.2 0 0 51.04 92.88
  Q 54.17 97.07 57.69 93.08
  A 1.42 1.24 68.4 0 0 58.00 92.20
  L 57.98 67.27
  A 1.21 1.14 69.1 0 1 58.33 66.42
  L 66.24 58.72
  Q 66.75 58.22 66.75 58.94
  L 66.79 78.10
  A 1.27 1.18 -68.9 0 0 67.14 78.97
  Q 70.23 82.09 73.21 78.92
  A 1.32 1.18 69.0 0 0 73.54 78.05
  L 73.52 61.13
  Q 73.52 59.38 74.80 60.63
  L 81.06 66.73
  A 1.33 0.98 28.0 0 1 81.46 67.57
  Z
  M 43.29 37.96
  A 4.54 4.54 0.0 0 0 38.75 33.42
  A 4.54 4.54 0.0 0 0 34.21 37.96
  A 4.54 4.54 0.0 0 0 38.75 42.50
  A 4.54 4.54 0.0 0 0 43.29 37.96
  Z
  M 74.03 37.98
  A 4.54 4.54 0.0 0 0 69.49 33.44
  A 4.54 4.54 0.0 0 0 64.95 37.98
  A 4.54 4.54 0.0 0 0 69.49 42.52
  A 4.54 4.54 0.0 0 0 74.03 37.98
  Z
  M 89.20 53.19
  A 4.54 4.54 0.0 0 0 84.66 48.65
  A 4.54 4.54 0.0 0 0 80.12 53.19
  A 4.54 4.54 0.0 0 0 84.66 57.73
  A 4.54 4.54 0.0 0 0 89.20 53.19
  Z
  M 106.84 70.17
  A 4.53 4.53 0.0 0 0 102.31 65.64
  A 4.53 4.53 0.0 0 0 97.78 70.17
  A 4.53 4.53 0.0 0 0 102.31 74.70
  A 4.53 4.53 0.0 0 0 106.84 70.17
  Z"
/>
<path fill="#014073" d="
  M 155.80 31.31
  L 155.76 41.64
  A 0.49 0.46 90.0 0 1 155.30 42.13
  L 152.81 42.12
  A 0.53 0.52 -89.4 0 1 152.30 41.59
  L 152.27 18.01
  A 0.56 0.50 -90.0 0 1 152.77 17.45
  L 161.20 17.39
  A 0.51 0.41 -86.9 0 1 161.60 17.94
  L 161.45 19.71
  A 0.56 0.49 -88.0 0 1 160.97 20.22
  L 156.47 20.27
  A 0.59 0.58 2.8 0 0 155.90 20.78
  Q 155.45 24.06 156.09 27.27
  A 0.63 0.60 -5.6 0 0 156.70 27.75
  L 159.69 27.77
  A 0.56 0.50 1.6 0 1 160.24 28.29
  L 160.19 30.15
  A 0.60 0.53 -0.6 0 1 159.61 30.67
  L 156.31 30.81
  A 0.53 0.50 -1.2 0 0 155.80 31.31
  Z"
/>
<path fill="#014073" d="
  M 175.87 36.47
  A 5.68 5.68 0.0 0 1 170.19 42.15
  L 169.57 42.15
  A 5.68 5.68 0.0 0 1 163.89 36.47
  L 163.89 23.01
  A 5.68 5.68 0.0 0 1 169.57 17.33
  L 170.19 17.33
  A 5.68 5.68 0.0 0 1 175.87 23.01
  L 175.87 36.47
  Z
  M 171.95 22.45
  A 2.14 2.14 0.0 0 0 169.81 20.31
  L 169.71 20.31
  A 2.14 2.14 0.0 0 0 167.57 22.45
  L 167.57 37.47
  A 2.14 2.14 0.0 0 0 169.71 39.61
  L 169.81 39.61
  A 2.14 2.14 0.0 0 0 171.95 37.47
  L 171.95 22.45
  Z"
/>
<path fill="#014073" d="
  M 182.32 26.43
  Q 183.13 34.07 182.75 41.75
  A 0.53 0.52 -88.3 0 1 182.22 42.26
  L 180.26 42.22
  A 0.52 0.52 0.6 0 1 179.75 41.70
  L 179.72 17.92
  A 0.54 0.47 -89.6 0 1 180.21 17.37
  L 182.18 17.48
  A 0.88 0.68 78.7 0 1 182.83 18.05
  L 188.27 33.01
  Q 188.70 34.16 188.68 32.92
  L 188.54 18.06
  A 0.48 0.47 -88.4 0 1 189.05 17.57
  L 191.48 17.73
  A 0.57 0.54 -87.8 0 1 191.98 18.30
  L 191.99 41.45
  A 0.71 0.67 81.6 0 1 191.52 42.12
  Q 190.26 42.52 189.05 42.13
  A 1.15 0.96 85.9 0 1 188.41 41.47
  L 182.82 26.49
  A 0.35 0.23 73.2 0 0 182.53 26.25
  L 182.41 26.26
  A 0.17 0.11 83.8 0 0 182.32 26.43
  Z"
/>
<path fill="#014073" d="
  M 196.52 17.43
  C 201.64 16.54 207.69 17.62 207.76 24.00
  C 207.87 32.76 210.29 43.71 196.57 41.90
  A 0.57 0.57 -86.6 0 1 196.07 41.33
  L 196.03 18.02
  A 0.60 0.60 84.8 0 1 196.52 17.43
  Z
  M 199.93 38.93
  C 206.34 42.11 204.20 25.23 203.96 22.80
  C 203.73 20.52 202.55 19.37 200.24 19.73
  A 0.60 0.57 86.1 0 0 199.75 20.32
  L 199.69 38.54
  A 0.44 0.43 -76.8 0 0 199.93 38.93
  Z"
/>
<path fill="#014073" d="
  M 218.18 37.52
  L 214.64 37.58
  A 0.70 0.62 -83.5 0 0 214.03 38.13
  L 213.25 41.64
  A 0.61 0.59 7.1 0 1 212.65 42.09
  L 210.43 42.08
  A 0.74 0.67 5.2 0 1 209.70 41.28
  L 214.07 17.90
  A 0.70 0.61 -84.1 0 1 214.67 17.34
  L 217.93 17.27
  A 0.65 0.56 83.2 0 1 218.52 17.81
  L 222.94 41.45
  A 0.48 0.41 85.4 0 1 222.53 42.02
  L 219.76 41.88
  A 0.74 0.46 85.5 0 1 219.29 41.24
  L 218.83 38.04
  A 0.65 0.60 -4.0 0 0 218.18 37.52
  Z
  M 216.19 23.92
  L 214.81 34.46
  A 0.44 0.41 1.0 0 0 215.28 34.92
  L 217.71 34.72
  A 0.48 0.46 84.2 0 0 218.13 34.18
  L 216.80 23.94
  Q 216.49 21.61 216.19 23.92
  Z"
/>
<path fill="#014073" d="
  M 231.56 20.81
  L 231.50 41.44
  A 0.58 0.50 -89.4 0 1 231.00 42.01
  L 228.52 42.02
  A 0.57 0.50 -90.0 0 1 228.02 41.45
  L 228.01 20.53
  A 0.58 0.58 80.8 0 0 227.25 19.98
  Q 223.06 21.37 223.93 17.79
  A 0.67 0.66 -82.6 0 1 224.57 17.29
  L 234.78 17.31
  A 0.69 0.68 -7.8 0 1 235.44 17.80
  Q 236.39 21.17 232.06 20.41
  A 0.42 0.41 5.3 0 0 231.56 20.81
  Z"
/>
<rect fill="#014073" x="-1.85" y="-12.37" transform="translate(240.10,29.80) rotate(-0.2)" width="3.70" height="24.74" rx="0.39"/>
<path fill="#014073" d="
  M 257.89 36.43
  A 5.71 5.71 0.0 0 1 252.18 42.14
  L 251.56 42.14
  A 5.71 5.71 0.0 0 1 245.85 36.43
  L 245.85 23.03
  A 5.71 5.71 0.0 0 1 251.56 17.32
  L 252.18 17.32
  A 5.71 5.71 0.0 0 1 257.89 23.03
  L 257.89 36.43
  Z
  M 253.96 22.45
  A 2.13 2.13 0.0 0 0 251.83 20.32
  L 251.71 20.32
  A 2.13 2.13 0.0 0 0 249.58 22.45
  L 249.58 37.33
  A 2.13 2.13 0.0 0 0 251.71 39.46
  L 251.83 39.46
  A 2.13 2.13 0.0 0 0 253.96 37.33
  L 253.96 22.45
  Z"
/>
<path fill="#014073" d="
  M 270.55 33.51
  C 270.62 33.49 270.50 19.45 270.54 18.04
  A 0.48 0.48 3.4 0 1 271.06 17.58
  L 273.24 17.77
  A 0.55 0.54 -87.8 0 1 273.74 18.32
  L 273.78 41.51
  A 0.73 0.66 81.8 0 1 273.32 42.19
  Q 272.06 42.57 270.96 41.98
  A 1.51 1.15 87.7 0 1 270.35 41.24
  L 265.24 27.40
  A 0.82 0.43 70.9 0 0 264.60 26.80
  Q 264.27 26.88 264.36 27.77
  Q 265.09 34.75 264.63 41.75
  A 0.57 0.49 -86.4 0 1 264.10 42.30
  L 262.02 42.11
  A 0.65 0.53 -88.1 0 1 261.53 41.47
  L 261.61 17.92
  A 0.55 0.48 -89.0 0 1 262.11 17.37
  L 264.13 17.48
  A 0.89 0.69 78.9 0 1 264.79 18.06
  L 270.23 33.21
  A 0.41 0.21 70.8 0 0 270.55 33.51
  Z"
/>
<path fill="#ffffff" d="
  M 199.93 38.93
  A 0.44 0.43 -76.8 0 1 199.69 38.54
  L 199.75 20.32
  A 0.60 0.57 86.1 0 1 200.24 19.73
  C 202.55 19.37 203.73 20.52 203.96 22.80
  C 204.20 25.23 206.34 42.11 199.93 38.93
  Z"
/>
<rect fill="#ffffff" x="167.57" y="20.31" width="4.38" height="19.30" rx="2.14"/>
<rect fill="#ffffff" x="249.58" y="20.32" width="4.38" height="19.14" rx="2.13"/>
<path fill="#ffffff" d="
  M 216.19 23.92
  Q 216.49 21.61 216.80 23.94
  L 218.13 34.18
  A 0.48 0.46 84.2 0 1 217.71 34.72
  L 215.28 34.92
  A 0.44 0.41 1.0 0 1 214.81 34.46
  L 216.19 23.92
  Z"
/>
<path fill="#014073" d="
  M 81.06 66.73
  L 74.80 60.63
  Q 73.52 59.38 73.52 61.13
  L 73.54 78.05
  A 1.32 1.18 69.0 0 1 73.21 78.92
  Q 70.23 82.09 67.14 78.97
  A 1.27 1.18 -68.9 0 1 66.79 78.10
  L 66.75 58.94
  Q 66.75 58.22 66.24 58.72
  L 58.33 66.42
  A 1.21 1.14 69.1 0 0 57.98 67.27
  L 58.00 92.20
  A 1.42 1.24 68.4 0 1 57.69 93.08
  Q 54.17 97.07 51.04 92.88
  A 1.59 1.50 -64.2 0 1 50.75 91.97
  L 50.78 67.23
  A 1.24 1.14 -69.7 0 0 50.43 66.37
  L 43.70 59.79
  Q 43.01 59.13 43.01 60.09
  L 42.99 77.95
  A 1.51 1.21 69.7 0 1 42.69 78.85
  Q 40.87 81.02 37.90 80.05
  Q 36.01 79.44 36.01 77.45
  L 36.01 53.02
  A 1.26 1.24 -67.0 0 0 35.67 52.16
  Q 29.12 45.27 22.33 38.68
  Q 19.69 36.11 22.08 33.98
  Q 24.27 32.02 26.43 34.05
  L 39.17 46.04
  A 0.52 0.52 90.0 0 0 39.89 46.04
  L 53.04 33.53
  Q 54.62 32.02 56.22 33.51
  L 69.66 46.02
  A 0.54 0.52 -45.0 0 0 70.39 46.01
  L 83.63 33.34
  A 1.33 1.17 -64.1 0 1 84.49 32.98
  Q 88.76 32.93 88.17 37.08
  A 1.48 1.31 -20.9 0 1 87.73 37.92
  L 74.59 50.81
  A 0.50 0.50 -45.4 0 0 74.59 51.52
  L 84.64 61.18
  A 0.55 0.55 -45.4 0 0 85.40 61.17
  L 98.12 48.85
  Q 99.67 47.35 101.53 48.45
  C 103.92 49.87 103.75 52.18 101.85 54.05
  Q 95.91 59.89 89.96 65.61
  A 0.47 0.46 -45.4 0 0 89.96 66.28
  L 102.07 77.92
  A 0.60 0.59 -44.6 0 0 102.90 77.92
  L 115.52 65.65
  Q 117.09 64.12 119.00 65.16
  Q 121.81 66.68 121.35 69.47
  A 1.70 1.24 -25.3 0 1 120.89 70.31
  L 106.81 84.15
  A 1.19 1.16 68.0 0 0 106.47 84.98
  L 106.48 109.90
  Q 106.48 112.02 104.37 112.37
  C 100.12 113.08 99.54 110.90 99.52 107.27
  Q 99.46 96.12 99.52 84.99
  A 1.23 1.10 -69.6 0 0 99.18 84.12
  L 89.52 74.58
  Q 89.02 74.08 89.02 74.80
  L 89.01 93.18
  A 1.19 1.14 69.1 0 1 88.65 94.03
  Q 84.98 97.48 81.95 93.63
  A 1.57 1.14 -71.4 0 1 81.67 92.73
  L 81.46 67.57
  A 1.33 0.98 28.0 0 0 81.06 66.73
  Z
  M 43.99 50.64
  C 46.44 53.86 50.30 57.21 53.32 59.64
  A 0.77 0.77 42.6 0 0 54.34 59.60
  L 63.71 50.57
  A 0.53 0.50 -44.2 0 0 63.74 49.84
  L 54.44 40.53
  A 0.54 0.51 -44.2 0 0 53.71 40.54
  L 44.05 49.88
  A 0.57 0.57 49.8 0 0 43.99 50.64
  Z"
/>
<circle fill="#014073" cx="38.75" cy="37.96" r="4.54"/>
<circle fill="#014073" cx="69.49" cy="37.98" r="4.54"/>
<path fill="#ffd500" d="
  M 53.32 59.64
  C 50.30 57.21 46.44 53.86 43.99 50.64
  A 0.57 0.57 49.8 0 1 44.05 49.88
  L 53.71 40.54
  A 0.54 0.51 -44.2 0 1 54.44 40.53
  L 63.74 49.84
  A 0.53 0.50 -44.2 0 1 63.71 50.57
  L 54.34 59.60
  A 0.77 0.77 42.6 0 1 53.32 59.64
  Z
  M 58.29 52.25
  A 4.54 4.54 0.0 0 0 53.75 47.71
  A 4.54 4.54 0.0 0 0 49.21 52.25
  A 4.54 4.54 0.0 0 0 53.75 56.79
  A 4.54 4.54 0.0 0 0 58.29 52.25
  Z"
/>
<circle fill="#014073" cx="53.75" cy="52.25" r="4.54"/>
<circle fill="#014073" cx="84.66" cy="53.19" r="4.54"/>
<path fill="#014073" d="
  M 160.57 68.24
  C 160.71 68.21 163.84 55.19 164.23 53.80
  A 0.70 0.66 5.0 0 1 164.86 53.30
  L 168.49 53.11
  A 0.46 0.45 -1.8 0 1 168.98 53.56
  L 168.98 77.44
  A 0.49 0.45 -86.9 0 1 168.48 77.93
  L 165.98 77.59
  A 0.61 0.56 -85.2 0 1 165.50 76.97
  L 165.94 58.83
  A 0.32 0.22 89.6 0 0 165.71 58.50
  C 165.26 58.55 162.27 72.38 161.95 73.85
  A 0.97 0.83 89.5 0 1 161.37 74.54
  Q 160.52 74.81 159.68 74.48
  A 1.04 0.84 -88.9 0 1 159.13 73.77
  L 155.69 58.72
  A 0.31 0.18 82.4 0 0 155.51 58.49
  Q 155.39 58.47 155.40 58.75
  Q 155.59 67.92 155.56 77.10
  A 0.66 0.63 84.0 0 1 155.07 77.74
  Q 153.91 78.01 152.71 77.67
  A 0.70 0.63 -82.9 0 1 152.25 77.01
  L 152.26 53.80
  A 0.54 0.50 -1.8 0 1 152.77 53.30
  L 156.44 53.10
  A 0.64 0.61 -9.9 0 1 157.08 53.53
  Q 159.25 60.62 160.28 67.92
  A 0.35 0.22 80.6 0 0 160.57 68.24
  Z"
/>
<path fill="#014073" d="
  M 184.7237 72.2492
  A 5.64 5.64 0.0 0 1 179.1034 77.9089
  L 178.5034 77.9110
  A 5.64 5.64 0.0 0 1 172.8437 72.2907
  L 172.7963 58.7108
  A 5.64 5.64 0.0 0 1 178.4166 53.0511
  L 179.0166 53.0490
  A 5.64 5.64 0.0 0 1 184.6763 58.6693
  L 184.7237 72.2492
  Z
  M 180.7704 58.1589
  A 2.07 2.07 0.0 0 0 178.6896 56.0998
  L 178.5496 56.1005
  A 2.07 2.07 0.0 0 0 176.4905 58.1813
  L 176.5696 73.2811
  A 2.07 2.07 0.0 0 0 178.6504 75.3402
  L 178.7904 75.3395
  A 2.07 2.07 0.0 0 0 180.8495 73.2587
  L 180.7704 58.1589
  Z"
/>
<path fill="#014073" d="
  M 196.18 66.51
  L 192.51 66.66
  A 0.61 0.52 89.6 0 0 192.01 67.26
  L 191.98 77.44
  A 0.49 0.47 1.2 0 1 191.48 77.90
  L 189.06 77.83
  A 0.52 0.49 1.2 0 1 188.56 77.34
  L 188.53 53.81
  A 0.54 0.50 -3.0 0 1 189.03 53.30
  L 191.48 53.11
  A 0.46 0.43 -2.4 0 1 191.98 53.54
  L 192.02 62.75
  A 0.60 0.53 -87.9 0 0 192.51 63.34
  L 196.16 63.62
  A 0.52 0.47 -88.0 0 0 196.67 63.10
  L 196.76 53.75
  A 0.54 0.50 -90.0 0 1 197.25 53.22
  L 199.68 53.17
  A 0.51 0.50 89.4 0 1 200.19 53.68
  L 200.19 77.31
  A 0.52 0.51 -0.0 0 1 199.67 77.82
  L 197.33 77.85
  A 0.50 0.49 -0.6 0 1 196.82 77.36
  L 196.69 67.06
  A 0.56 0.48 88.0 0 0 196.18 66.51
  Z"
/>
<path fill="#014073" d="
  M 206.68 77.75
  L 203.84 77.84
  A 0.44 0.41 -84.9 0 1 203.43 77.32
  L 207.56 53.91
  A 0.67 0.63 -86.5 0 1 208.15 53.36
  L 211.35 53.17
  A 0.60 0.57 82.6 0 1 211.95 53.66
  L 216.43 77.21
  A 0.46 0.41 84.9 0 1 216.02 77.76
  L 213.24 77.67
  A 0.69 0.49 87.1 0 1 212.75 77.05
  L 212.44 74.13
  A 0.62 0.60 86.8 0 0 211.84 73.58
  L 208.14 73.57
  A 0.63 0.56 -86.6 0 0 207.58 74.13
  L 207.21 77.22
  A 0.60 0.54 -86.9 0 1 206.68 77.75
  Z
  M 209.25 59.91
  Q 208.54 64.90 207.92 69.97
  A 0.61 0.57 -78.9 0 0 208.33 70.63
  Q 209.66 70.99 211.08 70.66
  A 0.56 0.53 78.1 0 0 211.47 70.03
  C 211.23 68.66 210.27 59.35 209.94 59.02
  Q 209.45 58.50 209.25 59.91
  Z"
/>
<path fill="#014073" d="
  M 226.97 67.56
  Q 227.26 68.85 227.57 67.58
  L 230.95 53.79
  A 0.66 0.63 -83.1 0 1 231.57 53.28
  L 235.47 53.28
  A 0.52 0.50 90.0 0 1 235.97 53.80
  L 235.95 77.33
  A 0.52 0.51 90.0 0 1 235.44 77.85
  L 232.97 77.82
  A 0.54 0.52 90.0 0 1 232.46 77.29
  Q 232.29 68.10 232.54 59.00
  Q 232.56 58.46 232.40 59.04
  Q 230.37 66.52 228.73 74.10
  A 0.64 0.52 -79.1 0 1 228.12 74.61
  L 226.72 74.43
  A 0.86 0.63 84.7 0 1 226.14 73.78
  C 225.81 72.35 222.87 58.51 222.49 58.51
  A 0.29 0.22 90.0 0 0 222.27 58.80
  L 222.59 76.96
  A 0.72 0.65 82.4 0 1 222.13 77.63
  Q 221.01 77.99 219.72 77.66
  A 0.67 0.63 -83.3 0 1 219.24 77.02
  L 219.26 53.80
  A 0.50 0.50 -0.6 0 1 219.75 53.30
  L 223.14 53.18
  A 0.66 0.58 -7.0 0 1 223.79 53.63
  L 226.97 67.56
  Z"
/>
<path fill="#014073" d="
  M 248.31 68.19
  Q 248.49 68.92 248.66 68.18
  L 252.13 53.53
  A 0.66 0.57 7.0 0 1 252.78 53.10
  L 256.47 53.30
  A 0.53 0.49 1.9 0 1 256.97 53.79
  L 256.95 77.32
  A 0.51 0.49 -88.9 0 1 256.44 77.83
  L 254.06 77.75
  A 0.52 0.52 0.8 0 1 253.55 77.22
  L 253.69 59.06
  A 0.31 0.21 -89.6 0 0 253.48 58.74
  C 253.19 58.75 250.17 72.59 249.86 73.98
  A 0.87 0.75 -88.4 0 1 249.28 74.62
  Q 248.38 74.82 247.66 74.33
  A 1.41 0.99 -86.1 0 1 247.17 73.52
  C 246.86 72.12 244.10 58.90 243.68 58.88
  A 0.57 0.31 -89.9 0 0 243.36 59.47
  L 243.68 77.33
  A 0.49 0.47 0.6 0 1 243.17 77.81
  L 240.77 77.71
  A 0.52 0.50 1.2 0 1 240.27 77.21
  L 240.27 53.81
  A 0.52 0.52 -0.6 0 1 240.78 53.29
  L 244.31 53.21
  A 0.62 0.61 -6.8 0 1 244.93 53.69
  L 248.31 68.19
  Z"
/>
<path fill="#014073" d="
  M 265.31 75.18
  L 269.69 75.05
  A 0.54 0.49 -0.6 0 1 270.24 75.54
  L 270.24 77.22
  A 0.55 0.50 -0.0 0 1 269.69 77.72
  L 261.54 77.73
  A 0.51 0.50 0.0 0 1 261.03 77.23
  L 261.02 53.79
  A 0.51 0.49 -0.6 0 1 261.52 53.30
  L 269.43 53.12
  A 0.77 0.68 -9.7 0 1 270.14 53.56
  Q 270.52 54.57 270.04 55.58
  A 0.80 0.80 -75.8 0 1 269.29 56.03
  L 265.29 55.83
  A 0.49 0.45 1.2 0 0 264.78 56.28
  L 264.75 63.27
  A 0.52 0.51 -10.3 0 0 265.45 63.75
  Q 269.76 62.21 268.88 65.95
  A 0.64 0.57 6.8 0 1 268.26 66.38
  L 265.30 66.27
  A 0.52 0.49 -88.9 0 0 264.79 66.79
  L 264.79 74.69
  A 0.51 0.49 -0.6 0 0 265.31 75.18
  Z"
/>
<path fill="#014073" d="
  M 299.81 71.69
  Q 299.99 72.87 300.16 71.67
  L 302.67 53.97
  A 0.71 0.58 -86.3 0 1 303.24 53.36
  L 306.01 53.24
  A 0.47 0.41 -84.8 0 1 306.41 53.80
  L 302.11 77.23
  A 0.68 0.60 -84.3 0 1 301.51 77.79
  L 298.26 77.79
  A 0.68 0.58 84.2 0 1 297.67 77.23
  L 293.43 53.69
  A 0.42 0.41 86.0 0 1 293.85 53.20
  L 296.63 53.28
  A 0.63 0.57 86.9 0 1 297.18 53.82
  L 299.81 71.69
  Z"
/>
<path fill="#014073" d="
  M 283.79 74.85
  Q 282.44 77.35 280.17 77.36
  L 273.81 77.39
  A 0.56 0.50 -90.0 0 1 273.31 76.83
  L 273.28 53.80
  A 0.53 0.51 -1.2 0 1 273.79 53.29
  Q 279.03 53.13 280.01 53.26
  C 287.25 54.19 286.06 70.65 283.79 74.85
  Z
  M 277.48 74.92
  C 283.07 77.72 281.21 61.47 281.01 58.73
  Q 280.76 55.24 277.57 55.37
  A 0.53 0.53 -1.1 0 0 277.06 55.90
  L 277.03 74.18
  A 0.83 0.80 -77.5 0 0 277.48 74.92
  Z"
/>
<path fill="#ffffff" d="
  M 281.01 58.73
  C 281.21 61.47 283.07 77.72 277.48 74.92
  A 0.83 0.80 -77.5 0 1 277.03 74.18
  L 277.06 55.90
  A 0.53 0.53 -1.1 0 1 277.57 55.37
  Q 280.76 55.24 281.01 58.73
  Z"
/>
<rect fill="#ffffff" x="-2.14" y="-9.62" transform="translate(178.67,65.72) rotate(-0.3)" width="4.28" height="19.24" rx="2.07"/>
<path fill="#ffffff" d="
  M 209.25 59.91
  Q 209.45 58.50 209.94 59.02
  C 210.27 59.35 211.23 68.66 211.47 70.03
  A 0.56 0.53 78.1 0 1 211.08 70.66
  Q 209.66 70.99 208.33 70.63
  A 0.61 0.57 -78.9 0 1 207.92 69.97
  Q 208.54 64.90 209.25 59.91
  Z"
/>
<circle fill="#014073" cx="102.31" cy="70.17" r="4.53"/>
<path fill="#014073" d="
  M 373.44 84.02
  Q 374.38 84.29 374.87 85.40
  A 0.60 0.56 64.7 0 1 374.63 86.15
  L 370.96 88.08
  A 0.76 0.63 -33.1 0 1 370.09 87.98
  L 369.23 87.01
  A 0.56 0.45 -36.5 0 1 369.42 86.27
  L 372.51 84.20
  A 1.24 1.00 -49.8 0 1 373.44 84.02
  Z"
/>
<path fill="#014073" d="
  M 160.57 89.94
  Q 162.84 91.09 163.10 93.62
  C 163.68 99.17 163.89 105.75 156.60 106.33
  A 0.56 0.54 -1.8 0 0 156.08 106.86
  L 156.01 113.29
  A 0.64 0.59 84.5 0 1 155.54 113.91
  Q 154.19 114.21 152.87 113.90
  A 0.65 0.64 -83.9 0 1 152.37 113.27
  L 152.33 89.45
  A 0.61 0.60 84.9 0 1 152.82 88.85
  Q 157.01 88.13 160.57 89.94
  Z
  M 157.51 91.78
  A 1.00 0.97 13.8 0 0 156.06 92.63
  L 156.09 102.83
  A 0.47 0.47 -2.8 0 0 156.61 103.30
  C 160.80 102.89 161.25 93.69 157.51 91.78
  Z"
/>
<path fill="#014073" d="
  M 175.06 89.44
  C 178.84 91.19 177.98 97.84 178.04 101.31
  C 178.13 105.44 178.53 108.20 176.40 112.00
  A 1.55 1.48 -86.1 0 1 175.70 112.64
  C 164.52 117.73 165.32 103.03 165.96 96.19
  C 166.47 90.80 169.06 86.66 175.06 89.44
  Z
  M 174.2030 94.0137
  A 2.04 2.04 0.0 0 0 172.1666 91.9701
  L 172.0466 91.9699
  A 2.04 2.04 0.0 0 0 170.0030 94.0063
  L 169.9770 108.9263
  A 2.04 2.04 0.0 0 0 172.0134 110.9699
  L 172.1334 110.9701
  A 2.04 2.04 0.0 0 0 174.1770 108.9337
  L 174.2030 94.0137
  Z"
/>
<path fill="#014073" d="
  M 186.76 110.77
  C 188.88 111.80 189.69 108.86 189.70 107.17
  Q 189.79 98.40 189.75 89.53
  A 0.68 0.66 82.0 0 1 190.22 88.88
  Q 191.52 88.52 192.76 88.83
  A 0.68 0.63 -83.5 0 1 193.24 89.48
  C 193.28 94.67 194.39 106.33 192.50 110.76
  C 190.31 115.86 182.26 114.51 181.80 108.68
  Q 181.17 100.67 181.59 89.39
  A 0.54 0.51 0.5 0 1 182.12 88.90
  L 184.74 88.84
  A 0.47 0.47 -1.2 0 1 185.23 89.31
  L 185.25 108.36
  Q 185.25 110.04 186.76 110.77
  Z"
/>
<path fill="#014073" d="
  M 206.43 89.87
  Q 208.22 90.75 208.77 92.66
  Q 210.56 98.94 206.57 103.59
  A 0.84 0.83 -35.7 0 0 206.43 104.43
  L 209.81 112.72
  A 0.47 0.46 70.8 0 1 209.52 113.35
  Q 208.00 113.79 206.56 113.37
  A 0.97 0.90 88.7 0 1 205.95 112.74
  C 205.18 110.13 202.97 103.01 201.80 104.10
  A 1.32 0.80 78.0 0 0 201.49 104.99
  L 201.47 112.93
  A 0.50 0.49 0.6 0 1 200.96 113.42
  L 198.31 113.35
  A 0.53 0.51 1.2 0 1 197.80 112.84
  L 197.77 89.55
  A 0.62 0.61 84.3 0 1 198.26 88.94
  Q 202.62 88.01 206.43 89.87
  Z
  M 204.86 92.61
  Q 203.20 91.34 201.77 91.63
  A 0.65 0.62 83.5 0 0 201.28 92.27
  L 201.33 101.10
  A 0.58 0.57 2.8 0 0 201.85 101.67
  C 206.48 102.11 205.56 96.55 205.49 93.84
  A 1.60 1.58 -72.4 0 0 204.86 92.61
  Z"
/>
<path fill="#014073" d="
  M 223.81 110.71
  L 227.46 110.77
  A 0.79 0.68 -7.9 0 1 228.16 111.22
  Q 228.54 112.33 228.04 113.33
  A 0.90 0.78 11.7 0 1 227.27 113.76
  L 220.01 113.76
  A 0.52 0.51 0.6 0 1 219.50 113.25
  L 219.51 89.55
  A 0.53 0.52 -1.1 0 1 220.02 89.03
  L 222.71 88.93
  A 0.49 0.48 88.9 0 1 223.21 89.42
  L 223.31 110.18
  A 0.53 0.51 -89.4 0 0 223.81 110.71
  Z"
/>
<path fill="#014073" d="
  M 233.50 109.80
  L 233.08 113.03
  A 0.81 0.73 87.1 0 1 232.54 113.69
  Q 231.20 114.06 229.79 113.53
  A 0.63 0.61 -74.7 0 1 229.41 112.84
  L 233.44 89.54
  A 0.68 0.57 -84.1 0 1 234.02 88.98
  L 237.43 88.99
  A 0.68 0.57 84.1 0 1 238.01 89.55
  L 242.37 112.95
  A 0.58 0.55 76.6 0 1 241.99 113.61
  Q 240.62 114.02 239.27 113.64
  A 0.78 0.71 -86.5 0 1 238.75 112.99
  L 238.42 109.88
  A 0.62 0.57 87.1 0 0 237.86 109.33
  L 234.06 109.27
  A 0.61 0.56 -85.9 0 0 233.50 109.80
  Z
  M 235.19 95.93
  L 233.87 105.71
  A 0.63 0.57 -78.3 0 0 234.27 106.38
  Q 235.62 106.77 237.01 106.36
  A 0.60 0.54 78.4 0 0 237.39 105.72
  L 236.02 95.94
  Q 235.60 92.92 235.19 95.93
  Z"
/>
<path fill="#014073" d="
  M 254.08 93.50
  A 2.38 2.37 34.0 0 0 254.51 95.71
  Q 257.46 99.33 260.24 102.99
  C 267.56 112.67 250.96 118.12 250.50 108.21
  Q 250.36 105.20 253.04 106.07
  A 0.72 0.66 -81.7 0 1 253.49 106.74
  C 253.46 108.38 253.94 110.52 255.74 111.00
  C 259.93 112.10 258.27 105.84 256.96 104.54
  C 253.68 101.29 248.21 94.54 251.65 90.61
  C 255.57 86.13 262.42 88.70 261.92 95.53
  A 0.92 0.83 80.8 0 1 261.44 96.27
  Q 260.30 96.81 259.19 96.45
  A 0.67 0.59 -79.6 0 1 258.78 95.77
  C 259.05 92.72 255.51 88.90 254.08 93.50
  Z"
/>
<path fill="#014073" d="
  M 276.83 107.93
  A 5.69 5.69 0.0 0 1 271.14 113.62
  L 270.52 113.62
  A 5.69 5.69 0.0 0 1 264.83 107.93
  L 264.83 94.49
  A 5.69 5.69 0.0 0 1 270.52 88.80
  L 271.14 88.80
  A 5.69 5.69 0.0 0 1 276.83 94.49
  L 276.83 107.93
  Z
  M 272.95 93.98
  A 2.15 2.15 0.0 0 0 270.80 91.83
  L 270.68 91.83
  A 2.15 2.15 0.0 0 0 268.53 93.98
  L 268.53 108.80
  A 2.15 2.15 0.0 0 0 270.68 110.95
  L 270.80 110.95
  A 2.15 2.15 0.0 0 0 272.95 108.80
  L 272.95 93.98
  Z"
/>
<path fill="#014073" d="
  M 284.81 110.71
  L 288.71 110.77
  A 0.77 0.67 -8.5 0 1 289.41 111.22
  Q 289.79 112.33 289.29 113.33
  A 0.90 0.78 11.7 0 1 288.52 113.76
  L 281.02 113.71
  A 0.51 0.50 90.0 0 1 280.52 113.20
  L 280.52 89.31
  A 0.50 0.49 0.6 0 1 281.03 88.82
  L 283.75 88.82
  A 0.50 0.49 0.0 0 1 284.25 89.31
  L 284.31 110.20
  A 0.51 0.51 0.6 0 0 284.81 110.71
  Z"
/>
<rect fill="#014073" x="291.75" y="88.76" width="3.76" height="25.00" rx="0.51"/>
<path fill="#014073" d="
  M 310.56 110.31
  C 309.30 114.05 303.23 113.28 300.27 113.21
  A 0.51 0.50 0.6 0 1 299.77 112.71
  L 299.76 89.43
  A 0.71 0.70 0.4 0 1 300.49 88.72
  C 304.14 88.81 310.26 88.28 311.20 93.23
  Q 313.03 102.98 310.56 110.31
  Z
  M 306.74 110.37
  C 308.74 108.81 308.13 96.87 307.95 94.16
  Q 307.72 90.67 304.07 91.04
  A 0.60 0.58 -3.3 0 0 303.54 91.62
  L 303.61 109.77
  A 0.78 0.74 -79.3 0 0 304.07 110.48
  Q 305.71 111.18 306.74 110.37
  Z"
/>
<path fill="#014073" d="
  M 321.75 109.08
  L 318.63 109.35
  A 0.62 0.59 1.6 0 0 318.07 109.85
  L 317.63 113.05
  A 0.73 0.70 88.4 0 1 317.07 113.66
  Q 315.60 113.96 314.20 113.64
  A 0.54 0.52 -78.6 0 1 313.81 113.02
  L 318.01 89.39
  A 0.60 0.59 -84.3 0 1 318.60 88.90
  L 321.82 88.91
  A 0.62 0.61 84.2 0 1 322.42 89.41
  L 326.86 112.96
  A 0.56 0.53 77.0 0 1 326.48 113.60
  Q 325.10 113.98 323.70 113.68
  A 0.64 0.58 -84.0 0 1 323.24 113.05
  Q 323.29 111.10 322.48 109.44
  A 0.79 0.64 -12.6 0 0 321.75 109.08
  Z
  M 320.00 95.44
  L 318.54 105.79
  A 0.58 0.58 11.2 0 0 318.97 106.43
  Q 320.21 106.73 321.52 106.36
  A 0.60 0.60 78.4 0 0 321.95 105.70
  L 320.59 95.43
  Q 320.31 93.30 320.00 95.44
  Z"
/>
<path fill="#014073" d="
  M 334.39 104.29
  C 332.37 102.32 333.01 111.07 333.15 112.75
  A 0.51 0.44 87.6 0 1 332.71 113.31
  L 330.02 113.28
  A 0.56 0.50 -90.0 0 1 329.52 112.72
  L 329.52 89.32
  A 0.54 0.53 87.7 0 1 330.01 88.78
  C 334.60 88.39 340.04 88.66 340.98 93.92
  Q 341.98 99.51 338.32 103.41
  A 0.81 0.77 -35.1 0 0 338.15 104.25
  L 341.53 112.77
  A 0.37 0.36 77.4 0 1 341.22 113.28
  L 338.40 113.38
  A 0.76 0.65 77.5 0 1 337.73 112.88
  C 337.08 111.11 335.51 105.38 334.39 104.29
  Z
  M 333.60 101.65
  C 338.58 101.99 338.96 91.00 333.60 91.60
  A 0.58 0.57 -2.8 0 0 333.08 92.17
  L 333.08 101.10
  A 0.56 0.55 2.2 0 0 333.60 101.65
  Z"
/>
<rect fill="#014073" x="344.76" y="88.75" width="3.74" height="24.96" rx="0.55"/>
<path fill="#014073" d="
  M 358.81 92.31
  L 358.75 113.20
  A 0.52 0.50 -90.0 0 1 358.25 113.72
  L 355.53 113.73
  A 0.53 0.49 -90.0 0 1 355.04 113.20
  L 355.10 92.54
  A 0.69 0.61 -83.5 0 0 354.64 91.89
  Q 353.26 91.52 351.74 91.86
  A 0.54 0.52 -15.0 0 1 351.10 91.51
  Q 350.76 90.35 351.11 89.24
  A 0.71 0.67 8.4 0 1 351.78 88.77
  L 362.18 88.77
  A 0.55 0.50 0.0 0 1 362.73 89.27
  L 362.74 91.21
  A 0.56 0.51 -0.6 0 1 362.19 91.72
  L 359.31 91.79
  A 0.52 0.52 -1.1 0 0 358.81 92.31
  Z"
/>
<path fill="#014073" d="
  M 369.05 102.63
  L 369.08 110.13
  A 0.55 0.54 0.6 0 0 369.61 110.66
  L 373.96 110.77
  A 0.76 0.63 -6.7 0 1 374.64 111.21
  Q 374.99 112.27 374.65 113.26
  A 0.73 0.69 8.9 0 1 373.97 113.73
  L 366.01 113.71
  A 0.51 0.49 90.0 0 1 365.52 113.20
  L 365.50 90.06
  A 1.46 1.40 0.8 0 1 367.00 88.66
  L 373.71 88.80
  A 0.76 0.63 -6.7 0 1 374.39 89.24
  Q 374.74 90.38 374.39 91.49
  A 0.71 0.53 6.8 0 1 373.73 91.87
  L 369.62 91.83
  A 0.57 0.52 -89.5 0 0 369.09 92.40
  L 369.08 98.60
  A 0.56 0.56 1.1 0 0 369.62 99.16
  L 372.53 99.27
  A 0.71 0.62 -5.3 0 1 373.17 99.73
  Q 374.16 103.42 370.01 101.98
  A 0.72 0.69 9.8 0 0 369.05 102.63
  Z"
/>
<path fill="#ffffff" d="
  M 306.74 110.37
  Q 305.71 111.18 304.07 110.48
  A 0.78 0.74 -79.3 0 1 303.61 109.77
  L 303.54 91.62
  A 0.60 0.58 -3.3 0 1 304.07 91.04
  Q 307.72 90.67 307.95 94.16
  C 308.13 96.87 308.74 108.81 306.74 110.37
  Z"
/>
<path fill="#ffffff" d="
  M 157.51 91.78
  C 161.25 93.69 160.80 102.89 156.61 103.30
  A 0.47 0.47 -2.8 0 1 156.09 102.83
  L 156.06 92.63
  A 1.00 0.97 13.8 0 1 157.51 91.78
  Z"
/>
<path fill="#ffffff" d="
  M 204.86 92.61
  A 1.60 1.58 -72.4 0 1 205.49 93.84
  C 205.56 96.55 206.48 102.11 201.85 101.67
  A 0.58 0.57 2.8 0 1 201.33 101.10
  L 201.28 92.27
  A 0.65 0.62 83.5 0 1 201.77 91.63
  Q 203.20 91.34 204.86 92.61
  Z"
/>
<path fill="#ffffff" d="
  M 333.60 91.60
  C 338.96 91.00 338.58 101.99 333.60 101.65
  A 0.56 0.55 2.2 0 1 333.08 101.10
  L 333.08 92.17
  A 0.58 0.57 -2.8 0 1 333.60 91.60
  Z"
/>
<rect fill="#ffffff" x="268.53" y="91.83" width="4.42" height="19.12" rx="2.15"/>
<rect fill="#ffffff" x="-2.10" y="-9.50" transform="translate(172.09,101.47) rotate(0.1)" width="4.20" height="19.00" rx="2.04"/>
<path fill="#ffffff" d="
  M 235.19 95.93
  Q 235.60 92.92 236.02 95.94
  L 237.39 105.72
  A 0.60 0.54 78.4 0 1 237.01 106.36
  Q 235.62 106.77 234.27 106.38
  A 0.63 0.57 -78.3 0 1 233.87 105.71
  L 235.19 95.93
  Z"
/>
<path fill="#ffffff" d="
  M 320.00 95.44
  Q 320.31 93.30 320.59 95.43
  L 321.95 105.70
  A 0.60 0.60 78.4 0 1 321.52 106.36
  Q 320.21 106.73 318.97 106.43
  A 0.58 0.58 11.2 0 1 318.54 105.79
  L 320.00 95.44
  Z"
/>
</svg>
