<?xml version="1.0" encoding="UTF-8" standalone="no"?>
<!DOCTYPE svg PUBLIC "-//W3C//DTD SVG 1.1//EN" "http://www.w3.org/Graphics/SVG/1.1/DTD/svg11.dtd">
<svg xmlns="http://www.w3.org/2000/svg" version="1.1" viewBox="0 0 590 481">
<g stroke-width="2.00" fill="none" stroke-linecap="butt">
<path stroke="#99ccb2" vector-effect="non-scaling-stroke" d="
  M 227.72 113.67
  L 166.41 52.17
  A 0.50 0.49 45.4 0 0 165.71 52.16
  L 44.18 173.56
  A 1.24 1.24 -44.8 0 0 44.17 175.32
  L 164.43 295.57
  A 0.93 0.93 -41.2 0 0 165.64 295.65
  C 166.63 294.91 167.90 294.04 168.80 293.13
  Q 198.14 263.58 228.07 234.03"
/>
<path stroke="#cccccc" vector-effect="non-scaling-stroke" d="
  M 228.07 234.03
  Q 255.82 261.61 283.30 289.20
  Q 284.34 290.23 288.91 295.36
  A 0.51 0.50 48.2 0 0 289.62 295.41
  C 304.85 281.45 320.28 264.72 346.61 238.61
  Q 351.50 233.75 356.27 232.36
  A 0.38 0.32 -12.2 0 1 356.75 232.61
  L 356.79 233.00"
/>
<path stroke="#9b9dc5" vector-effect="non-scaling-stroke" d="
  M 356.79 233.00
  L 354.59 234.43
  A 0.49 0.42 49.3 0 0 354.59 235.14
  L 415.65 295.96
  A 0.52 0.51 45.4 0 0 416.37 295.97
  C 456.94 255.45 497.34 214.77 538.20 174.55
  A 0.50 0.49 -44.6 0 0 538.21 173.85
  Q 483.15 118.75 427.99 63.75
  Q 422.18 57.96 417.26 52.78
  A 1.32 1.32 45.6 0 0 415.36 52.76
  L 352.45 115.54"
/>
<path stroke="#cccccc" vector-effect="non-scaling-stroke" d="
  M 352.45 115.54
  Q 321.56 84.79 290.79 53.80
  C 290.01 53.01 288.98 49.18 287.93 53.06
  Q 287.79 53.56 287.46 53.90
  L 227.72 113.67"
/>
<path stroke="#686a92" vector-effect="non-scaling-stroke" d="
  M 352.45 115.54
  L 323.26 144.41"
/>
<path stroke="#cccccc" vector-effect="non-scaling-stroke" d="
  M 323.26 144.41
  Q 305.93 128.44 289.83 111.50
  A 0.66 0.42 50.2 0 0 289.16 111.29
  L 288.79 111.50"
/>
<path stroke="#9b8789" vector-effect="non-scaling-stroke" d="
  M 288.79 111.50
  C 288.80 108.98 284.37 114.34 284.12 114.61
  Q 271.75 127.37 259.04 139.79
  Q 258.16 140.64 258.54 141.50"
/>
<path stroke="#cccccc" vector-effect="non-scaling-stroke" d="
  M 258.54 141.50
  L 257.16 143.20"
/>
<path stroke="#66987f" vector-effect="non-scaling-stroke" d="
  M 257.16 143.20
  Q 255.03 144.85 253.22 146.93
  C 245.91 155.29 237.63 163.03 229.74 170.86
  C 227.37 173.21 227.29 176.14 224.90 178.72
  Q 212.17 192.49 198.18 204.63"
/>
<path stroke="#cccccc" vector-effect="non-scaling-stroke" d="
  M 198.18 204.63
  L 167.92 173.96
  A 0.54 0.54 45.4 0 1 167.92 173.19
  Q 182.16 159.41 195.78 145.28
  Q 196.58 144.45 197.29 143.50"
/>
<path stroke="#66987f" vector-effect="non-scaling-stroke" d="
  M 197.29 143.50
  L 197.77 143.50
  A 1.19 1.16 22.0 0 0 198.60 143.16
  L 226.08 115.53
  Q 226.37 115.24 226.61 114.72
  Q 226.98 113.93 227.72 113.67"
/>
<path stroke="#cebbbc" vector-effect="non-scaling-stroke" d="
  M 288.79 111.50
  C 274.72 126.03 265.34 136.17 258.54 141.50"
/>
<path stroke="#99ccb2" vector-effect="non-scaling-stroke" d="
  M 197.29 143.50
  L 195.25 141.04"
/>
<path stroke="#238a54" vector-effect="non-scaling-stroke" d="
  M 195.25 141.04
  Q 196.03 140.57 195.92 139.67
  A 1.47 0.97 25.9 0 0 195.44 138.86
  C 187.25 131.64 180.34 122.72 172.17 115.50
  Q 169.85 113.45 167.83 111.12
  A 0.70 0.56 52.8 0 0 167.03 110.92
  Q 166.61 111.17 166.46 111.75"
/>
<path stroke="#99ccb2" vector-effect="non-scaling-stroke" d="
  M 166.46 111.75
  C 165.71 111.63 109.68 168.19 103.76 174.11
  A 0.72 0.63 44.7 0 0 103.83 175.07
  L 105.75 176.96"
/>
<path stroke="#1a864a" vector-effect="non-scaling-stroke" d="
  M 105.75 176.96
  Q 105.03 178.09 105.70 178.79
  Q 127.89 201.77 159.42 231.92
  C 160.18 232.65 161.30 233.11 162.25 233.46"
/>
<path stroke="#99ccb2" vector-effect="non-scaling-stroke" d="
  M 162.25 233.46
  L 165.44 236.35
  A 0.52 0.51 -47.0 0 0 166.16 236.32
  Q 181.29 220.22 198.18 204.63"
/>
<path stroke="#99ccb2" vector-effect="non-scaling-stroke" d="
  M 257.16 143.20
  L 287.64 173.64
  A 0.50 0.49 44.6 0 1 287.65 174.34
  L 257.25 204.96"
/>
<path stroke="#66987f" vector-effect="non-scaling-stroke" d="
  M 257.25 204.96
  Q 242.06 218.99 228.07 234.03"
/>
<path stroke="#686a92" vector-effect="non-scaling-stroke" d="
  M 356.79 233.00
  C 357.36 232.71 358.10 232.52 358.55 232.09
  Q 369.35 221.76 379.46 210.75"
/>
<path stroke="#9b9dc5" vector-effect="non-scaling-stroke" d="
  M 379.46 210.75
  L 383.95 205.58
  A 0.53 0.48 -50.4 0 1 384.64 205.48
  Q 387.06 207.36 389.25 209.49
  Q 402.82 222.72 415.94 236.31
  A 0.50 0.48 45.8 0 0 416.64 236.33
  L 478.30 174.67
  A 0.50 0.49 -45.4 0 0 478.30 173.98
  L 416.48 112.25
  A 0.28 0.27 -44.3 0 0 416.09 112.25
  L 382.03 146.10"
/>
<path stroke="#686a92" vector-effect="non-scaling-stroke" d="
  M 382.03 146.10
  Q 357.15 170.46 332.19 194.19
  Q 328.66 197.54 323.46 203.50"
/>
<path stroke="#9b9dc5" vector-effect="non-scaling-stroke" d="
  M 323.46 203.50
  L 295.04 175.51
  Q 293.64 174.12 295.07 172.69
  L 323.26 144.41"
/>
<path stroke="#cccccc" vector-effect="non-scaling-stroke" d="
  M 323.46 203.50
  L 322.25 205.46"
/>
<path stroke="#cebbbc" vector-effect="non-scaling-stroke" d="
  M 322.25 205.46
  L 290.04 237.30"
/>
<path stroke="#cccccc" vector-effect="non-scaling-stroke" d="
  M 290.04 237.30
  L 257.25 204.96"
/>
<path stroke="#80b997" vector-effect="non-scaling-stroke" d="
  M 162.25 233.46
  L 105.75 176.96"
/>
<path stroke="#8abea1" vector-effect="non-scaling-stroke" d="
  M 195.25 141.04
  Q 182.23 128.67 169.74 115.76
  Q 167.93 113.89 166.46 111.75"
/>
<path stroke="#9b8789" vector-effect="non-scaling-stroke" d="
  M 290.04 237.30
  C 290.20 238.78 291.18 238.80 292.05 237.91
  Q 306.96 222.63 322.01 207.52
  Q 323.18 206.35 322.25 205.46"
/>
<path stroke="#cccccc" vector-effect="non-scaling-stroke" d="
  M 379.46 210.75
  L 377.97 211.69
  Q 377.35 212.08 377.80 211.52
  L 383.13 205.08
  A 0.90 0.88 -34.7 0 0 383.29 204.24
  Q 382.76 202.61 383.94 201.44
  Q 397.34 188.07 410.68 174.64
  A 0.53 0.52 -44.2 0 0 410.70 173.92
  Q 397.21 159.21 382.03 146.10"
/>
<path stroke="#818181" vector-effect="non-scaling-stroke" d="
  M 51.05 367.56
  C 47.79 393.31 56.49 420.79 84.08 428.91
  C 111.88 437.10 143.44 425.39 150.17 394.92
  C 158.69 356.37 140.95 321.28 97.09 323.28
  C 70.66 324.49 54.29 342.07 51.05 367.56"
/>
<path stroke="#818181" vector-effect="non-scaling-stroke" d="
  M 191.30 342.81
  L 240.85 342.50
  A 0.52 0.50 0.0 0 0 241.37 342.00
  L 241.45 325.28
  A 0.52 0.51 0.0 0 0 240.93 324.77
  L 170.28 324.79
  A 0.50 0.50 0.0 0 0 169.78 325.29
  L 169.77 428.94
  A 0.51 0.50 90.0 0 0 170.27 429.45
  L 190.27 429.44
  A 0.50 0.49 90.0 0 0 190.76 428.94
  L 190.92 385.60
  A 0.51 0.50 -0.0 0 1 191.43 385.10
  L 234.26 385.05
  A 0.48 0.47 -0.6 0 0 234.73 384.58
  L 234.73 367.70
  A 0.49 0.48 0.6 0 0 234.25 367.22
  L 191.38 367.17
  A 0.51 0.49 0.0 0 1 190.87 366.68
  L 190.80 343.31
  A 0.50 0.50 0.0 0 1 191.30 342.81"
/>
<path stroke="#818181" vector-effect="non-scaling-stroke" d="
  M 339.02 347.49
  C 335.41 331.13 321.87 325.17 306.23 324.91
  Q 283.43 324.54 260.51 324.81
  A 0.51 0.50 89.4 0 0 260.02 325.32
  L 259.99 428.83
  A 0.52 0.50 90.0 0 0 260.49 429.35
  L 280.58 429.37
  A 0.51 0.49 90.0 0 0 281.07 428.86
  L 281.02 391.60
  A 1.76 1.75 1.3 0 1 282.86 389.85
  Q 296.06 390.40 308.50 389.45
  Q 317.64 388.75 322.64 386.48
  C 338.07 379.46 342.43 362.93 339.02 347.49"
/>
<path stroke="#818181" vector-effect="non-scaling-stroke" d="
  M 438.18 363.65
  C 440.87 346.68 432.89 327.87 413.99 325.78
  C 396.01 323.79 377.00 324.68 358.96 324.78
  A 0.46 0.45 0.0 0 0 358.50 325.23
  L 358.51 428.94
  A 0.51 0.51 0.0 0 0 359.02 429.45
  L 379.25 429.49
  A 0.49 0.49 0.0 0 0 379.74 429.00
  L 379.72 390.73
  A 0.80 0.80 0.7 0 1 380.54 389.93
  C 402.59 390.48 433.51 393.08 438.18 363.65"
/>
<path stroke="#818181" vector-effect="non-scaling-stroke" d="
  M 480.48 342.56
  A 0.54 0.53 89.4 0 1 481.01 343.09
  L 481.02 428.94
  A 0.51 0.50 90.0 0 0 481.52 429.45
  L 501.74 429.45
  A 0.50 0.50 0.0 0 0 502.24 428.95
  Q 502.20 397.20 502.22 365.45
  C 502.23 360.14 501.76 350.47 502.20 342.92
  A 0.45 0.44 1.3 0 1 502.65 342.50
  L 532.65 342.47
  A 0.50 0.50 0.0 0 0 533.15 341.97
  L 532.95 325.27
  A 0.50 0.50 0.0 0 0 532.45 324.77
  L 450.55 324.77
  A 0.50 0.50 0.0 0 0 450.05 325.27
  L 449.95 341.92
  A 0.52 0.51 0.6 0 0 450.46 342.43
  L 480.48 342.56"
/>
<path stroke="#818181" vector-effect="non-scaling-stroke" d="
  M 84.19 407.31
  Q 94.34 415.25 107.53 412.52
  C 120.53 409.83 127.67 399.44 129.49 386.75
  C 131.64 371.82 130.14 353.12 115.94 344.95
  C 104.02 338.09 86.95 340.67 78.76 352.17
  C 68.82 366.13 69.74 396.01 84.19 407.31"
/>
<path stroke="#818181" vector-effect="non-scaling-stroke" d="
  M 317.72 360.56
  C 322.54 338.84 292.93 342.67 281.74 342.73
  A 0.47 0.47 0.0 0 0 281.27 343.20
  L 281.28 371.73
  A 0.51 0.50 0.6 0 0 281.78 372.23
  Q 291.36 372.27 300.93 371.90
  C 308.89 371.59 315.80 369.24 317.72 360.56"
/>
<path stroke="#818181" vector-effect="non-scaling-stroke" d="
  M 413.75 366.27
  C 422.48 355.21 412.79 342.68 400.38 342.78
  C 393.68 342.83 386.99 342.57 380.26 342.53
  A 0.50 0.49 -0.0 0 0 379.76 343.02
  L 379.78 371.72
  A 0.51 0.51 0.6 0 0 380.28 372.23
  Q 389.86 372.27 399.44 371.87
  C 404.99 371.64 410.34 370.59 413.75 366.27"
/>
</g>
<path fill="#ffffff" d="
  M 0.00 0.00
  L 590.00 0.00
  L 590.00 481.00
  L 0.00 481.00
  L 0.00 0.00
  Z
  M 227.72 113.67
  L 166.41 52.17
  A 0.50 0.49 45.4 0 0 165.71 52.16
  L 44.18 173.56
  A 1.24 1.24 -44.8 0 0 44.17 175.32
  L 164.43 295.57
  A 0.93 0.93 -41.2 0 0 165.64 295.65
  C 166.63 294.91 167.90 294.04 168.80 293.13
  Q 198.14 263.58 228.07 234.03
  Q 255.82 261.61 283.30 289.20
  Q 284.34 290.23 288.91 295.36
  A 0.51 0.50 48.2 0 0 289.62 295.41
  C 304.85 281.45 320.28 264.72 346.61 238.61
  Q 351.50 233.75 356.27 232.36
  A 0.38 0.32 -12.2 0 1 356.75 232.61
  L 356.79 233.00
  L 354.59 234.43
  A 0.49 0.42 49.3 0 0 354.59 235.14
  L 415.65 295.96
  A 0.52 0.51 45.4 0 0 416.37 295.97
  C 456.94 255.45 497.34 214.77 538.20 174.55
  A 0.50 0.49 -44.6 0 0 538.21 173.85
  Q 483.15 118.75 427.99 63.75
  Q 422.18 57.96 417.26 52.78
  A 1.32 1.32 45.6 0 0 415.36 52.76
  L 352.45 115.54
  Q 321.56 84.79 290.79 53.80
  C 290.01 53.01 288.98 49.18 287.93 53.06
  Q 287.79 53.56 287.46 53.90
  L 227.72 113.67
  Z
  M 51.05 367.56
  C 47.79 393.31 56.49 420.79 84.08 428.91
  C 111.88 437.10 143.44 425.39 150.17 394.92
  C 158.69 356.37 140.95 321.28 97.09 323.28
  C 70.66 324.49 54.29 342.07 51.05 367.56
  Z
  M 191.30 342.81
  L 240.85 342.50
  A 0.52 0.50 0.0 0 0 241.37 342.00
  L 241.45 325.28
  A 0.52 0.51 0.0 0 0 240.93 324.77
  L 170.28 324.79
  A 0.50 0.50 0.0 0 0 169.78 325.29
  L 169.77 428.94
  A 0.51 0.50 90.0 0 0 170.27 429.45
  L 190.27 429.44
  A 0.50 0.49 90.0 0 0 190.76 428.94
  L 190.92 385.60
  A 0.51 0.50 -0.0 0 1 191.43 385.10
  L 234.26 385.05
  A 0.48 0.47 -0.6 0 0 234.73 384.58
  L 234.73 367.70
  A 0.49 0.48 0.6 0 0 234.25 367.22
  L 191.38 367.17
  A 0.51 0.49 0.0 0 1 190.87 366.68
  L 190.80 343.31
  A 0.50 0.50 0.0 0 1 191.30 342.81
  Z
  M 339.02 347.49
  C 335.41 331.13 321.87 325.17 306.23 324.91
  Q 283.43 324.54 260.51 324.81
  A 0.51 0.50 89.4 0 0 260.02 325.32
  L 259.99 428.83
  A 0.52 0.50 90.0 0 0 260.49 429.35
  L 280.58 429.37
  A 0.51 0.49 90.0 0 0 281.07 428.86
  L 281.02 391.60
  A 1.76 1.75 1.3 0 1 282.86 389.85
  Q 296.06 390.40 308.50 389.45
  Q 317.64 388.75 322.64 386.48
  C 338.07 379.46 342.43 362.93 339.02 347.49
  Z
  M 438.18 363.65
  C 440.87 346.68 432.89 327.87 413.99 325.78
  C 396.01 323.79 377.00 324.68 358.96 324.78
  A 0.46 0.45 0.0 0 0 358.50 325.23
  L 358.51 428.94
  A 0.51 0.51 0.0 0 0 359.02 429.45
  L 379.25 429.49
  A 0.49 0.49 0.0 0 0 379.74 429.00
  L 379.72 390.73
  A 0.80 0.80 0.7 0 1 380.54 389.93
  C 402.59 390.48 433.51 393.08 438.18 363.65
  Z
  M 480.48 342.56
  A 0.54 0.53 89.4 0 1 481.01 343.09
  L 481.02 428.94
  A 0.51 0.50 90.0 0 0 481.52 429.45
  L 501.74 429.45
  A 0.50 0.50 0.0 0 0 502.24 428.95
  Q 502.20 397.20 502.22 365.45
  C 502.23 360.14 501.76 350.47 502.20 342.92
  A 0.45 0.44 1.3 0 1 502.65 342.50
  L 532.65 342.47
  A 0.50 0.50 0.0 0 0 533.15 341.97
  L 532.95 325.27
  A 0.50 0.50 0.0 0 0 532.45 324.77
  L 450.55 324.77
  A 0.50 0.50 0.0 0 0 450.05 325.27
  L 449.95 341.92
  A 0.52 0.51 0.6 0 0 450.46 342.43
  L 480.48 342.56
  Z"
/>
<path fill="#999899" d="
  M 352.45 115.54
  L 323.26 144.41
  Q 305.93 128.44 289.83 111.50
  A 0.66 0.42 50.2 0 0 289.16 111.29
  L 288.79 111.50
  C 288.80 108.98 284.37 114.34 284.12 114.61
  Q 271.75 127.37 259.04 139.79
  Q 258.16 140.64 258.54 141.50
  L 257.16 143.20
  Q 255.03 144.85 253.22 146.93
  C 245.91 155.29 237.63 163.03 229.74 170.86
  C 227.37 173.21 227.29 176.14 224.90 178.72
  Q 212.17 192.49 198.18 204.63
  L 167.92 173.96
  A 0.54 0.54 45.4 0 1 167.92 173.19
  Q 182.16 159.41 195.78 145.28
  Q 196.58 144.45 197.29 143.50
  L 197.77 143.50
  A 1.19 1.16 22.0 0 0 198.60 143.16
  L 226.08 115.53
  Q 226.37 115.24 226.61 114.72
  Q 226.98 113.93 227.72 113.67
  L 287.46 53.90
  Q 287.79 53.56 287.93 53.06
  C 288.98 49.18 290.01 53.01 290.79 53.80
  Q 321.56 84.79 352.45 115.54
  Z"
/>
<path fill="#329865" d="
  M 227.72 113.67
  Q 226.98 113.93 226.61 114.72
  Q 226.37 115.24 226.08 115.53
  L 198.60 143.16
  A 1.19 1.16 22.0 0 1 197.77 143.50
  L 197.29 143.50
  L 195.25 141.04
  Q 196.03 140.57 195.92 139.67
  A 1.47 0.97 25.9 0 0 195.44 138.86
  C 187.25 131.64 180.34 122.72 172.17 115.50
  Q 169.85 113.45 167.83 111.12
  A 0.70 0.56 52.8 0 0 167.03 110.92
  Q 166.61 111.17 166.46 111.75
  C 165.71 111.63 109.68 168.19 103.76 174.11
  A 0.72 0.63 44.7 0 0 103.83 175.07
  L 105.75 176.96
  Q 105.03 178.09 105.70 178.79
  Q 127.89 201.77 159.42 231.92
  C 160.18 232.65 161.30 233.11 162.25 233.46
  L 165.44 236.35
  A 0.52 0.51 -47.0 0 0 166.16 236.32
  Q 181.29 220.22 198.18 204.63
  Q 212.17 192.49 224.90 178.72
  C 227.29 176.14 227.37 173.21 229.74 170.86
  C 237.63 163.03 245.91 155.29 253.22 146.93
  Q 255.03 144.85 257.16 143.20
  L 287.64 173.64
  A 0.50 0.49 44.6 0 1 287.65 174.34
  L 257.25 204.96
  Q 242.06 218.99 228.07 234.03
  Q 198.14 263.58 168.80 293.13
  C 167.90 294.04 166.63 294.91 165.64 295.65
  A 0.93 0.93 -41.2 0 1 164.43 295.57
  L 44.17 175.32
  A 1.24 1.24 -44.8 0 1 44.18 173.56
  L 165.71 52.16
  A 0.50 0.49 45.4 0 1 166.41 52.17
  L 227.72 113.67
  Z"
/>
<path fill="#373b8b" d="
  M 356.79 233.00
  C 357.36 232.71 358.10 232.52 358.55 232.09
  Q 369.35 221.76 379.46 210.75
  L 383.95 205.58
  A 0.53 0.48 -50.4 0 1 384.64 205.48
  Q 387.06 207.36 389.25 209.49
  Q 402.82 222.72 415.94 236.31
  A 0.50 0.48 45.8 0 0 416.64 236.33
  L 478.30 174.67
  A 0.50 0.49 -45.4 0 0 478.30 173.98
  L 416.48 112.25
  A 0.28 0.27 -44.3 0 0 416.09 112.25
  L 382.03 146.10
  Q 357.15 170.46 332.19 194.19
  Q 328.66 197.54 323.46 203.50
  L 295.04 175.51
  Q 293.64 174.12 295.07 172.69
  L 323.26 144.41
  L 352.45 115.54
  L 415.36 52.76
  A 1.32 1.32 45.6 0 1 417.26 52.78
  Q 422.18 57.96 427.99 63.75
  Q 483.15 118.75 538.21 173.85
  A 0.50 0.49 -44.6 0 1 538.20 174.55
  C 497.34 214.77 456.94 255.45 416.37 295.97
  A 0.52 0.51 45.4 0 1 415.65 295.96
  L 354.59 235.14
  A 0.49 0.42 49.3 0 1 354.59 234.43
  L 356.79 233.00
  Z"
/>
<path fill="#147c42" d="
  M 195.25 141.04
  Q 182.23 128.67 169.74 115.76
  Q 167.93 113.89 166.46 111.75
  Q 166.61 111.17 167.03 110.92
  A 0.70 0.56 52.8 0 1 167.83 111.12
  Q 169.85 113.45 172.17 115.50
  C 180.34 122.72 187.25 131.64 195.44 138.86
  A 1.47 0.97 25.9 0 1 195.92 139.67
  Q 196.03 140.57 195.25 141.04
  Z"
/>
<path fill="#9c7678" d="
  M 288.79 111.50
  C 274.72 126.03 265.34 136.17 258.54 141.50
  Q 258.16 140.64 259.04 139.79
  Q 271.75 127.37 284.12 114.61
  C 284.37 114.34 288.80 108.98 288.79 111.50
  Z"
/>
<path fill="#ffffff" d="
  M 323.26 144.41
  L 295.07 172.69
  Q 293.64 174.12 295.04 175.51
  L 323.46 203.50
  L 322.25 205.46
  L 290.04 237.30
  L 257.25 204.96
  L 287.65 174.34
  A 0.50 0.49 44.6 0 0 287.64 173.64
  L 257.16 143.20
  L 258.54 141.50
  C 265.34 136.17 274.72 126.03 288.79 111.50
  L 289.16 111.29
  A 0.66 0.42 50.2 0 1 289.83 111.50
  Q 305.93 128.44 323.26 144.41
  Z"
/>
<path fill="#ffffff" d="
  M 166.46 111.75
  Q 167.93 113.89 169.74 115.76
  Q 182.23 128.67 195.25 141.04
  L 197.29 143.50
  Q 196.58 144.45 195.78 145.28
  Q 182.16 159.41 167.92 173.19
  A 0.54 0.54 45.4 0 0 167.92 173.96
  L 198.18 204.63
  Q 181.29 220.22 166.16 236.32
  A 0.52 0.51 -47.0 0 1 165.44 236.35
  L 162.25 233.46
  L 105.75 176.96
  L 103.83 175.07
  A 0.72 0.63 44.7 0 1 103.76 174.11
  C 109.68 168.19 165.71 111.63 166.46 111.75
  Z"
/>
<path fill="#ffffff" d="
  M 379.46 210.75
  L 377.97 211.69
  Q 377.35 212.08 377.80 211.52
  L 383.13 205.08
  A 0.90 0.88 -34.7 0 0 383.29 204.24
  Q 382.76 202.61 383.94 201.44
  Q 397.34 188.07 410.68 174.64
  A 0.53 0.52 -44.2 0 0 410.70 173.92
  Q 397.21 159.21 382.03 146.10
  L 416.09 112.25
  A 0.28 0.27 -44.3 0 1 416.48 112.25
  L 478.30 173.98
  A 0.50 0.49 -45.4 0 1 478.30 174.67
  L 416.64 236.33
  A 0.50 0.48 45.8 0 1 415.94 236.31
  Q 402.82 222.72 389.25 209.49
  Q 387.06 207.36 384.64 205.48
  A 0.53 0.48 -50.4 0 0 383.95 205.58
  L 379.46 210.75
  Z"
/>
<path fill="#999899" d="
  M 382.03 146.10
  Q 397.21 159.21 410.70 173.92
  A 0.53 0.52 -44.2 0 1 410.68 174.64
  Q 397.34 188.07 383.94 201.44
  Q 382.76 202.61 383.29 204.24
  A 0.90 0.88 -34.7 0 1 383.13 205.08
  L 377.80 211.52
  Q 377.35 212.08 377.97 211.69
  L 379.46 210.75
  Q 369.35 221.76 358.55 232.09
  C 358.10 232.52 357.36 232.71 356.79 233.00
  L 356.75 232.61
  A 0.38 0.32 -12.2 0 0 356.27 232.36
  Q 351.50 233.75 346.61 238.61
  C 320.28 264.72 304.85 281.45 289.62 295.41
  A 0.51 0.50 48.2 0 1 288.91 295.36
  Q 284.34 290.23 283.30 289.20
  Q 255.82 261.61 228.07 234.03
  Q 242.06 218.99 257.25 204.96
  L 290.04 237.30
  C 290.20 238.78 291.18 238.80 292.05 237.91
  Q 306.96 222.63 322.01 207.52
  Q 323.18 206.35 322.25 205.46
  L 323.46 203.50
  Q 328.66 197.54 332.19 194.19
  Q 357.15 170.46 382.03 146.10
  Z"
/>
<path fill="#01732f" d="
  M 105.75 176.96
  L 162.25 233.46
  C 161.30 233.11 160.18 232.65 159.42 231.92
  Q 127.89 201.77 105.70 178.79
  Q 105.03 178.09 105.75 176.96
  Z"
/>
<path fill="#9c7678" d="
  M 322.25 205.46
  Q 323.18 206.35 322.01 207.52
  Q 306.96 222.63 292.05 237.91
  C 291.18 238.80 290.20 238.78 290.04 237.30
  L 322.25 205.46
  Z"
/>
<path fill="#030303" d="
  M 84.08 428.91
  C 56.49 420.79 47.79 393.31 51.05 367.56
  C 54.29 342.07 70.66 324.49 97.09 323.28
  C 140.95 321.28 158.69 356.37 150.17 394.92
  C 143.44 425.39 111.88 437.10 84.08 428.91
  Z
  M 84.19 407.31
  Q 94.34 415.25 107.53 412.52
  C 120.53 409.83 127.67 399.44 129.49 386.75
  C 131.64 371.82 130.14 353.12 115.94 344.95
  C 104.02 338.09 86.95 340.67 78.76 352.17
  C 68.82 366.13 69.74 396.01 84.19 407.31
  Z"
/>
<path fill="#030303" d="
  M 190.80 343.31
  L 190.87 366.68
  A 0.51 0.49 -0.0 0 0 191.38 367.17
  L 234.25 367.22
  A 0.49 0.48 0.6 0 1 234.73 367.70
  L 234.73 384.58
  A 0.48 0.47 -0.6 0 1 234.26 385.05
  L 191.43 385.10
  A 0.51 0.50 -0.0 0 0 190.92 385.60
  L 190.76 428.94
  A 0.50 0.49 90.0 0 1 190.27 429.44
  L 170.27 429.45
  A 0.51 0.50 90.0 0 1 169.77 428.94
  L 169.78 325.29
  A 0.50 0.50 0.0 0 1 170.28 324.79
  L 240.93 324.77
  A 0.52 0.51 -0.0 0 1 241.45 325.28
  L 241.37 342.00
  A 0.52 0.50 -0.0 0 1 240.85 342.50
  L 191.30 342.81
  A 0.50 0.50 0.0 0 0 190.80 343.31
  Z"
/>
<path fill="#030303" d="
  M 306.23 324.91
  C 321.87 325.17 335.41 331.13 339.02 347.49
  C 342.43 362.93 338.07 379.46 322.64 386.48
  Q 317.64 388.75 308.50 389.45
  Q 296.06 390.40 282.86 389.85
  A 1.76 1.75 1.3 0 0 281.02 391.60
  L 281.07 428.86
  A 0.51 0.49 -90.0 0 1 280.58 429.37
  L 260.49 429.35
  A 0.52 0.50 90.0 0 1 259.99 428.83
  L 260.02 325.32
  A 0.51 0.50 89.4 0 1 260.51 324.81
  Q 283.43 324.54 306.23 324.91
  Z
  M 317.72 360.56
  C 322.54 338.84 292.93 342.67 281.74 342.73
  A 0.47 0.47 0.0 0 0 281.27 343.20
  L 281.28 371.73
  A 0.51 0.50 0.6 0 0 281.78 372.23
  Q 291.36 372.27 300.93 371.90
  C 308.89 371.59 315.80 369.24 317.72 360.56
  Z"
/>
<path fill="#030303" d="
  M 413.99 325.78
  C 432.89 327.87 440.87 346.68 438.18 363.65
  C 433.51 393.08 402.59 390.48 380.54 389.93
  A 0.80 0.80 0.7 0 0 379.72 390.73
  L 379.74 429.00
  A 0.49 0.49 0.0 0 1 379.25 429.49
  L 359.02 429.45
  A 0.51 0.51 0.0 0 1 358.51 428.94
  L 358.50 325.23
  A 0.46 0.45 -0.0 0 1 358.96 324.78
  C 377.00 324.68 396.01 323.79 413.99 325.78
  Z
  M 413.75 366.27
  C 422.48 355.21 412.79 342.68 400.38 342.78
  C 393.68 342.83 386.99 342.57 380.26 342.53
  A 0.50 0.49 -0.0 0 0 379.76 343.02
  L 379.78 371.72
  A 0.51 0.51 0.6 0 0 380.28 372.23
  Q 389.86 372.27 399.44 371.87
  C 404.99 371.64 410.34 370.59 413.75 366.27
  Z"
/>
<path fill="#030303" d="
  M 480.48 342.56
  L 450.46 342.43
  A 0.52 0.51 0.6 0 1 449.95 341.92
  L 450.05 325.27
  A 0.50 0.50 0.0 0 1 450.55 324.77
  L 532.45 324.77
  A 0.50 0.50 0.0 0 1 532.95 325.27
  L 533.15 341.97
  A 0.50 0.50 0.0 0 1 532.65 342.47
  L 502.65 342.50
  A 0.45 0.44 1.3 0 0 502.20 342.92
  C 501.76 350.47 502.23 360.14 502.22 365.45
  Q 502.20 397.20 502.24 428.95
  A 0.50 0.50 0.0 0 1 501.74 429.45
  L 481.52 429.45
  A 0.51 0.50 90.0 0 1 481.02 428.94
  L 481.01 343.09
  A 0.54 0.53 89.4 0 0 480.48 342.56
  Z"
/>
<path fill="#ffffff" d="
  M 84.19 407.31
  C 69.74 396.01 68.82 366.13 78.76 352.17
  C 86.95 340.67 104.02 338.09 115.94 344.95
  C 130.14 353.12 131.64 371.82 129.49 386.75
  C 127.67 399.44 120.53 409.83 107.53 412.52
  Q 94.34 415.25 84.19 407.31
  Z"
/>
<path fill="#ffffff" d="
  M 281.74 342.73
  C 292.93 342.67 322.54 338.84 317.72 360.56
  C 315.80 369.24 308.89 371.59 300.93 371.90
  Q 291.36 372.27 281.78 372.23
  A 0.51 0.50 0.6 0 1 281.28 371.73
  L 281.27 343.20
  A 0.47 0.47 0.2 0 1 281.74 342.73
  Z"
/>
<path fill="#ffffff" d="
  M 400.38 342.78
  C 412.79 342.68 422.48 355.21 413.75 366.27
  C 410.34 370.59 404.99 371.64 399.44 371.87
  Q 389.86 372.27 380.28 372.23
  A 0.51 0.51 0.6 0 1 379.78 371.72
  L 379.76 343.02
  A 0.50 0.49 -0.0 0 1 380.26 342.53
  C 386.99 342.57 393.68 342.83 400.38 342.78
  Z"
/>
</svg>
