<?xml version="1.0" encoding="UTF-8" standalone="no"?>
<!DOCTYPE svg PUBLIC "-//W3C//DTD SVG 1.1//EN" "http://www.w3.org/Graphics/SVG/1.1/DTD/svg11.dtd">
<svg xmlns="http://www.w3.org/2000/svg" version="1.1" viewBox="0 0 702 369">
<g stroke-width="2.00" fill="none" stroke-linecap="butt">
<path stroke="#808080" vector-effect="non-scaling-stroke" d="
  M 100.94 148.31
  C 110.52 158.08 110.29 173.14 100.20 182.45
  C 87.31 194.33 68.50 187.63 64.41 170.95
  Q 63.56 167.48 62.67 163.91
  A 0.44 0.44 -16.4 0 0 62.09 163.60
  L 49.18 168.22
  A 0.61 0.60 77.0 0 0 48.78 168.87
  C 53.56 204.47 99.90 212.80 117.76 182.48
  C 125.72 168.95 123.34 152.42 112.62 140.97
  C 105.18 133.03 97.01 129.16 87.00 125.25
  Q 82.93 123.65 77.56 119.20
  C 70.09 113.01 71.01 101.04 79.55 95.81
  C 87.95 90.67 96.75 97.95 98.66 106.15
  A 0.52 0.51 72.7 0 0 99.34 106.52
  L 111.70 101.68
  A 0.54 0.54 69.6 0 0 112.01 101.00
  Q 106.57 84.99 90.75 82.04
  C 72.90 78.70 55.80 92.85 58.14 111.68
  C 61.08 135.30 87.62 134.74 100.94 148.31"
/>
<path stroke="#e78099" vector-effect="non-scaling-stroke" d="
  M 555.7392 140.9210
  A 60.92 59.95 -0.3 0 0 494.5061 81.2908
  A 60.92 59.95 -0.3 0 0 433.9008 141.5590
  A 60.92 59.95 -0.3 0 0 495.1339 201.1892
  A 60.92 59.95 -0.3 0 0 555.7392 140.9210"
/>
<path stroke="#808080" vector-effect="non-scaling-stroke" d="
  M 150.7993 83.7471
  A 0.58 0.58 0.0 0 0 150.2183 83.1681
  L 136.5183 83.1920
  A 0.58 0.58 0.0 0 0 135.9393 83.7731
  L 136.1407 199.1729
  A 0.58 0.58 0.0 0 0 136.7217 199.7519
  L 150.4217 199.7280
  A 0.58 0.58 0.0 0 0 151.0007 199.1469
  L 150.7993 83.7471"
/>
<path stroke="#808080" vector-effect="non-scaling-stroke" d="
  M 260.44 105.82
  L 260.50 199.19
  A 0.51 0.49 -90.0 0 0 260.99 199.70
  L 274.75 199.70
  A 0.50 0.49 -90.0 0 0 275.24 199.20
  L 275.25 83.51
  A 0.50 0.50 0.0 0 0 274.75 83.01
  L 260.04 83.03
  A 1.04 1.03 18.7 0 0 259.22 83.43
  L 222.42 131.57
  A 0.44 0.43 -44.7 0 1 221.73 131.57
  L 184.93 83.53
  A 1.04 1.03 -18.7 0 0 184.11 83.13
  L 169.56 83.16
  A 0.51 0.49 0.0 0 0 169.05 83.65
  L 168.99 199.44
  A 0.29 0.29 -1.0 0 0 169.29 199.73
  L 182.99 199.70
  A 0.51 0.50 -90.0 0 0 183.49 199.19
  L 183.50 105.67
  Q 183.50 104.82 184.01 105.49
  L 221.79 154.85
  A 0.38 0.38 44.8 0 0 222.39 154.85
  L 260.13 105.71
  Q 260.44 105.30 260.44 105.82"
/>
<path stroke="#808080" vector-effect="non-scaling-stroke" d="
  M 292.77 83.53
  C 292.79 122.09 292.76 160.64 292.75 199.19
  A 0.51 0.51 0.0 0 0 293.26 199.70
  L 306.75 199.70
  A 0.52 0.50 -89.4 0 0 307.25 199.19
  L 307.33 167.90
  A 0.50 0.48 0.6 0 1 307.84 167.42
  Q 322.66 167.86 328.20 167.14
  C 353.19 163.90 370.00 141.53 365.24 116.48
  C 362.26 100.74 348.98 88.25 334.06 84.33
  Q 328.90 82.98 319.31 82.99
  Q 306.32 83.00 293.27 83.03
  A 0.50 0.50 0.0 0 0 292.77 83.53"
/>
<path stroke="#808080" vector-effect="non-scaling-stroke" d="
  M 394.03 187.18
  A 0.53 0.53 -0.5 0 1 393.49 186.65
  L 393.47 83.67
  A 0.52 0.51 90.0 0 0 392.96 83.15
  L 379.18 83.06
  A 0.43 0.41 -89.3 0 0 378.76 83.49
  L 378.77 199.21
  A 0.50 0.50 0.0 0 0 379.27 199.71
  L 434.94 199.72
  A 0.52 0.49 0.0 0 0 435.46 199.23
  L 435.37 187.60
  A 0.53 0.51 0.0 0 0 434.84 187.09
  L 394.03 187.18"
/>
<path stroke="#808080" vector-effect="non-scaling-stroke" d="
  M 584.07 110.43
  Q 584.07 108.57 585.14 110.08
  L 648.83 199.22
  A 0.97 0.95 72.3 0 0 649.62 199.64
  L 664.49 199.70
  A 0.51 0.50 -90.0 0 0 664.99 199.19
  L 664.99 83.55
  A 0.51 0.50 0.0 0 0 664.48 83.05
  L 651.29 83.01
  A 0.47 0.46 90.0 0 0 650.83 83.48
  L 650.76 174.82
  Q 650.76 176.25 649.93 175.09
  L 584.56 83.62
  A 1.82 1.57 -15.3 0 0 583.15 82.95
  L 570.02 82.99
  A 0.53 0.50 -0.6 0 0 569.50 83.49
  L 569.51 199.20
  A 0.50 0.50 0.0 0 0 570.01 199.70
  L 583.67 199.81
  A 0.51 0.49 90.0 0 0 584.16 199.30
  L 584.07 110.43"
/>
<path stroke="#808080" vector-effect="non-scaling-stroke" d="
  M 327.94 291.05
  A 0.70 0.64 -0.8 0 0 328.64 290.39
  L 328.51 286.03
  A 0.56 0.52 -0.5 0 0 327.95 285.52
  L 314.36 285.49
  A 0.61 0.60 0.0 0 1 313.75 284.89
  L 313.76 250.04
  A 0.52 0.50 89.5 0 0 313.25 249.52
  L 308.00 249.56
  A 0.53 0.50 -90.0 0 0 307.50 250.09
  L 307.45 290.64
  A 0.50 0.50 -0.6 0 0 307.96 291.14
  L 327.94 291.05"
/>
<path stroke="#808080" vector-effect="non-scaling-stroke" d="
  M 338.5656 249.8657
  A 0.51 0.51 0.0 0 0 338.0565 249.3548
  L 332.5565 249.3452
  A 0.51 0.51 0.0 0 0 332.0456 249.8543
  L 331.9744 290.6943
  A 0.51 0.51 0.0 0 0 332.4835 291.2052
  L 337.9835 291.2148
  A 0.51 0.51 0.0 0 0 338.4944 290.7057
  L 338.5656 249.8657"
/>
<path stroke="#808080" vector-effect="non-scaling-stroke" d="
  M 370.96 279.19
  L 350.20 249.99
  A 1.04 0.91 70.1 0 0 349.41 249.55
  L 344.26 249.54
  A 0.53 0.50 -90.0 0 0 343.76 250.07
  L 343.75 290.52
  A 0.55 0.51 -89.5 0 0 344.25 291.07
  L 349.52 291.14
  A 0.55 0.51 -90.0 0 0 350.03 290.59
  L 350.00 262.20
  Q 349.99 260.84 350.78 261.94
  L 371.22 290.57
  A 1.04 0.91 -14.5 0 0 372.02 290.97
  L 377.72 291.15
  A 0.50 0.47 0.6 0 0 378.23 290.68
  L 378.20 249.93
  A 0.51 0.48 0.0 0 0 377.69 249.45
  L 372.31 249.45
  A 0.50 0.47 0.0 0 0 371.81 249.92
  L 371.76 278.94
  Q 371.76 280.31 370.96 279.19"
/>
<path stroke="#808080" vector-effect="non-scaling-stroke" d="
  M 389.80 284.94
  L 389.79 273.78
  A 0.50 0.50 0.0 0 1 390.29 273.28
  L 406.20 273.23
  A 0.52 0.50 -0.0 0 0 406.72 272.73
  L 406.72 268.02
  A 0.52 0.50 0.0 0 0 406.20 267.52
  L 390.30 267.47
  A 0.51 0.51 -90.0 0 1 389.79 266.96
  L 389.86 255.69
  A 0.53 0.51 0.6 0 1 390.39 255.19
  L 406.09 255.18
  A 0.56 0.52 0.5 0 0 406.65 254.67
  L 406.71 250.02
  A 0.54 0.49 0.5 0 0 406.17 249.52
  L 383.72 249.54
  A 0.51 0.49 90.0 0 0 383.23 250.05
  L 383.23 290.43
  A 0.56 0.56 -86.6 0 0 383.72 290.99
  C 390.71 291.75 397.24 290.79 405.99 291.22
  A 0.56 0.48 2.2 0 0 406.58 290.75
  L 406.66 286.05
  A 0.57 0.48 0.5 0 0 406.09 285.56
  L 390.32 285.44
  A 0.52 0.50 -0.0 0 1 389.80 284.94"
/>
<path stroke="#e78099" vector-effect="non-scaling-stroke" d="
  M 494.2365 188.1665
  A 46.94 46.10 90.7 0 0 540.9066 141.7932
  A 46.94 46.10 90.7 0 0 495.3835 94.2935
  A 46.94 46.10 90.7 0 0 448.7134 140.6668
  A 46.94 46.10 90.7 0 0 494.2365 188.1665"
/>
<path stroke="#808080" vector-effect="non-scaling-stroke" d="
  M 307.44 141.69
  Q 307.14 148.82 307.36 152.89
  A 0.56 0.54 -0.5 0 0 307.90 153.40
  C 315.54 153.65 325.63 154.53 332.66 151.81
  C 356.29 142.63 357.51 111.03 335.18 99.55
  C 327.85 95.78 315.80 96.41 307.70 96.97
  A 0.53 0.52 -2.9 0 0 307.21 97.50
  Q 307.84 132.08 307.44 141.69"
/>
<path stroke="#e78099" vector-effect="non-scaling-stroke" d="
  M 502.9706 118.3486
  A 0.53 0.53 0.0 0 0 502.4387 117.8205
  L 485.4988 117.8796
  A 0.53 0.53 0.0 0 0 484.9707 118.4115
  L 485.0294 135.2514
  A 0.53 0.53 0.0 0 0 485.5613 135.7795
  L 502.5012 135.7204
  A 0.53 0.53 0.0 0 0 503.0293 135.1885
  L 502.9706 118.3486"
/>
<path stroke="#e78099" vector-effect="non-scaling-stroke" d="
  M 503.0149 150.1657
  A 0.40 0.40 0.0 0 0 502.6156 149.7650
  L 485.4157 149.7350
  A 0.40 0.40 0.0 0 0 485.0150 150.1343
  L 484.9851 167.2743
  A 0.40 0.40 0.0 0 0 485.3844 167.6750
  L 502.5843 167.7050
  A 0.40 0.40 0.0 0 0 502.9850 167.3057
  L 503.0149 150.1657"
/>
</g>
<path fill="#ffffff" d="
  M 0.00 0.00
  L 702.00 0.00
  L 702.00 369.00
  L 0.00 369.00
  L 0.00 0.00
  Z
  M 100.94 148.31
  C 110.52 158.08 110.29 173.14 100.20 182.45
  C 87.31 194.33 68.50 187.63 64.41 170.95
  Q 63.56 167.48 62.67 163.91
  A 0.44 0.44 -16.4 0 0 62.09 163.60
  L 49.18 168.22
  A 0.61 0.60 77.0 0 0 48.78 168.87
  C 53.56 204.47 99.90 212.80 117.76 182.48
  C 125.72 168.95 123.34 152.42 112.62 140.97
  C 105.18 133.03 97.01 129.16 87.00 125.25
  Q 82.93 123.65 77.56 119.20
  C 70.09 113.01 71.01 101.04 79.55 95.81
  C 87.95 90.67 96.75 97.95 98.66 106.15
  A 0.52 0.51 72.7 0 0 99.34 106.52
  L 111.70 101.68
  A 0.54 0.54 69.6 0 0 112.01 101.00
  Q 106.57 84.99 90.75 82.04
  C 72.90 78.70 55.80 92.85 58.14 111.68
  C 61.08 135.30 87.62 134.74 100.94 148.31
  Z
  M 555.7392 140.9210
  A 60.92 59.95 -0.3 0 0 494.5061 81.2908
  A 60.92 59.95 -0.3 0 0 433.9008 141.5590
  A 60.92 59.95 -0.3 0 0 495.1339 201.1892
  A 60.92 59.95 -0.3 0 0 555.7392 140.9210
  Z
  M 150.7993 83.7471
  A 0.58 0.58 0.0 0 0 150.2183 83.1681
  L 136.5183 83.1920
  A 0.58 0.58 0.0 0 0 135.9393 83.7731
  L 136.1407 199.1729
  A 0.58 0.58 0.0 0 0 136.7217 199.7519
  L 150.4217 199.7280
  A 0.58 0.58 0.0 0 0 151.0007 199.1469
  L 150.7993 83.7471
  Z
  M 260.44 105.82
  L 260.50 199.19
  A 0.51 0.49 -90.0 0 0 260.99 199.70
  L 274.75 199.70
  A 0.50 0.49 -90.0 0 0 275.24 199.20
  L 275.25 83.51
  A 0.50 0.50 0.0 0 0 274.75 83.01
  L 260.04 83.03
  A 1.04 1.03 18.7 0 0 259.22 83.43
  L 222.42 131.57
  A 0.44 0.43 -44.7 0 1 221.73 131.57
  L 184.93 83.53
  A 1.04 1.03 -18.7 0 0 184.11 83.13
  L 169.56 83.16
  A 0.51 0.49 0.0 0 0 169.05 83.65
  L 168.99 199.44
  A 0.29 0.29 -1.0 0 0 169.29 199.73
  L 182.99 199.70
  A 0.51 0.50 -90.0 0 0 183.49 199.19
  L 183.50 105.67
  Q 183.50 104.82 184.01 105.49
  L 221.79 154.85
  A 0.38 0.38 44.8 0 0 222.39 154.85
  L 260.13 105.71
  Q 260.44 105.30 260.44 105.82
  Z
  M 292.77 83.53
  C 292.79 122.09 292.76 160.64 292.75 199.19
  A 0.51 0.51 0.0 0 0 293.26 199.70
  L 306.75 199.70
  A 0.52 0.50 -89.4 0 0 307.25 199.19
  L 307.33 167.90
  A 0.50 0.48 0.6 0 1 307.84 167.42
  Q 322.66 167.86 328.20 167.14
  C 353.19 163.90 370.00 141.53 365.24 116.48
  C 362.26 100.74 348.98 88.25 334.06 84.33
  Q 328.90 82.98 319.31 82.99
  Q 306.32 83.00 293.27 83.03
  A 0.50 0.50 0.0 0 0 292.77 83.53
  Z
  M 394.03 187.18
  A 0.53 0.53 -0.5 0 1 393.49 186.65
  L 393.47 83.67
  A 0.52 0.51 90.0 0 0 392.96 83.15
  L 379.18 83.06
  A 0.43 0.41 -89.3 0 0 378.76 83.49
  L 378.77 199.21
  A 0.50 0.50 0.0 0 0 379.27 199.71
  L 434.94 199.72
  A 0.52 0.49 0.0 0 0 435.46 199.23
  L 435.37 187.60
  A 0.53 0.51 0.0 0 0 434.84 187.09
  L 394.03 187.18
  Z
  M 584.07 110.43
  Q 584.07 108.57 585.14 110.08
  L 648.83 199.22
  A 0.97 0.95 72.3 0 0 649.62 199.64
  L 664.49 199.70
  A 0.51 0.50 -90.0 0 0 664.99 199.19
  L 664.99 83.55
  A 0.51 0.50 0.0 0 0 664.48 83.05
  L 651.29 83.01
  A 0.47 0.46 90.0 0 0 650.83 83.48
  L 650.76 174.82
  Q 650.76 176.25 649.93 175.09
  L 584.56 83.62
  A 1.82 1.57 -15.3 0 0 583.15 82.95
  L 570.02 82.99
  A 0.53 0.50 -0.6 0 0 569.50 83.49
  L 569.51 199.20
  A 0.50 0.50 0.0 0 0 570.01 199.70
  L 583.67 199.81
  A 0.51 0.49 90.0 0 0 584.16 199.30
  L 584.07 110.43
  Z
  M 327.94 291.05
  A 0.70 0.64 -0.8 0 0 328.64 290.39
  L 328.51 286.03
  A 0.56 0.52 -0.5 0 0 327.95 285.52
  L 314.36 285.49
  A 0.61 0.60 0.0 0 1 313.75 284.89
  L 313.76 250.04
  A 0.52 0.50 89.5 0 0 313.25 249.52
  L 308.00 249.56
  A 0.53 0.50 -90.0 0 0 307.50 250.09
  L 307.45 290.64
  A 0.50 0.50 -0.6 0 0 307.96 291.14
  L 327.94 291.05
  Z
  M 338.5656 249.8657
  A 0.51 0.51 0.0 0 0 338.0565 249.3548
  L 332.5565 249.3452
  A 0.51 0.51 0.0 0 0 332.0456 249.8543
  L 331.9744 290.6943
  A 0.51 0.51 0.0 0 0 332.4835 291.2052
  L 337.9835 291.2148
  A 0.51 0.51 0.0 0 0 338.4944 290.7057
  L 338.5656 249.8657
  Z
  M 370.96 279.19
  L 350.20 249.99
  A 1.04 0.91 70.1 0 0 349.41 249.55
  L 344.26 249.54
  A 0.53 0.50 -90.0 0 0 343.76 250.07
  L 343.75 290.52
  A 0.55 0.51 -89.5 0 0 344.25 291.07
  L 349.52 291.14
  A 0.55 0.51 -90.0 0 0 350.03 290.59
  L 350.00 262.20
  Q 349.99 260.84 350.78 261.94
  L 371.22 290.57
  A 1.04 0.91 -14.5 0 0 372.02 290.97
  L 377.72 291.15
  A 0.50 0.47 0.6 0 0 378.23 290.68
  L 378.20 249.93
  A 0.51 0.48 0.0 0 0 377.69 249.45
  L 372.31 249.45
  A 0.50 0.47 0.0 0 0 371.81 249.92
  L 371.76 278.94
  Q 371.76 280.31 370.96 279.19
  Z
  M 389.80 284.94
  L 389.79 273.78
  A 0.50 0.50 0.0 0 1 390.29 273.28
  L 406.20 273.23
  A 0.52 0.50 -0.0 0 0 406.72 272.73
  L 406.72 268.02
  A 0.52 0.50 0.0 0 0 406.20 267.52
  L 390.30 267.47
  A 0.51 0.51 -90.0 0 1 389.79 266.96
  L 389.86 255.69
  A 0.53 0.51 0.6 0 1 390.39 255.19
  L 406.09 255.18
  A 0.56 0.52 0.5 0 0 406.65 254.67
  L 406.71 250.02
  A 0.54 0.49 0.5 0 0 406.17 249.52
  L 383.72 249.54
  A 0.51 0.49 90.0 0 0 383.23 250.05
  L 383.23 290.43
  A 0.56 0.56 -86.6 0 0 383.72 290.99
  C 390.71 291.75 397.24 290.79 405.99 291.22
  A 0.56 0.48 2.2 0 0 406.58 290.75
  L 406.66 286.05
  A 0.57 0.48 0.5 0 0 406.09 285.56
  L 390.32 285.44
  A 0.52 0.50 -0.0 0 1 389.80 284.94
  Z"
/>
<path fill="#000000" d="
  M 100.94 148.31
  C 87.62 134.74 61.08 135.30 58.14 111.68
  C 55.80 92.85 72.90 78.70 90.75 82.04
  Q 106.57 84.99 112.01 101.00
  A 0.54 0.54 69.6 0 1 111.70 101.68
  L 99.34 106.52
  A 0.52 0.51 72.7 0 1 98.66 106.15
  C 96.75 97.95 87.95 90.67 79.55 95.81
  C 71.01 101.04 70.09 113.01 77.56 119.20
  Q 82.93 123.65 87.00 125.25
  C 97.01 129.16 105.18 133.03 112.62 140.97
  C 123.34 152.42 125.72 168.95 117.76 182.48
  C 99.90 212.80 53.56 204.47 48.78 168.87
  A 0.61 0.60 77.0 0 1 49.18 168.22
  L 62.09 163.60
  A 0.44 0.44 -16.4 0 1 62.67 163.91
  Q 63.56 167.48 64.41 170.95
  C 68.50 187.63 87.31 194.33 100.20 182.45
  C 110.29 173.14 110.52 158.08 100.94 148.31
  Z"
/>
<path fill="#ce0033" d="
  M 555.7392 140.9210
  A 60.92 59.95 -0.3 0 1 495.1339 201.1892
  A 60.92 59.95 -0.3 0 1 433.9008 141.5590
  A 60.92 59.95 -0.3 0 1 494.5061 81.2908
  A 60.92 59.95 -0.3 0 1 555.7392 140.9210
  Z
  M 494.2365 188.1665
  A 46.94 46.10 90.7 0 0 540.9066 141.7932
  A 46.94 46.10 90.7 0 0 495.3835 94.2935
  A 46.94 46.10 90.7 0 0 448.7134 140.6668
  A 46.94 46.10 90.7 0 0 494.2365 188.1665
  Z"
/>
<rect fill="#000000" x="-7.43" y="-58.28" transform="translate(143.47,141.46) rotate(-0.1)" width="14.86" height="116.56" rx="0.58"/>
<path fill="#000000" d="
  M 260.13 105.71
  L 222.39 154.85
  A 0.38 0.38 45.1 0 1 221.79 154.85
  L 184.01 105.49
  Q 183.50 104.82 183.50 105.67
  L 183.49 199.19
  A 0.51 0.50 -90.0 0 1 182.99 199.70
  L 169.29 199.73
  A 0.29 0.29 -1.0 0 1 168.99 199.44
  L 169.05 83.65
  A 0.51 0.49 -0.0 0 1 169.56 83.16
  L 184.11 83.13
  A 1.04 1.03 -18.7 0 1 184.93 83.53
  L 221.73 131.57
  A 0.44 0.43 -44.7 0 0 222.42 131.57
  L 259.22 83.43
  A 1.04 1.03 18.7 0 1 260.04 83.03
  L 274.75 83.01
  A 0.50 0.50 0.0 0 1 275.25 83.51
  L 275.24 199.20
  A 0.50 0.49 -90.0 0 1 274.75 199.70
  L 260.99 199.70
  A 0.51 0.49 90.0 0 1 260.50 199.19
  L 260.44 105.82
  Q 260.44 105.30 260.13 105.71
  Z"
/>
<path fill="#000000" d="
  M 292.75 199.19
  C 292.76 160.64 292.79 122.09 292.77 83.53
  A 0.50 0.50 0.0 0 1 293.27 83.03
  Q 306.32 83.00 319.31 82.99
  Q 328.90 82.98 334.06 84.33
  C 348.98 88.25 362.26 100.74 365.24 116.48
  C 370.00 141.53 353.19 163.90 328.20 167.14
  Q 322.66 167.86 307.84 167.42
  A 0.50 0.48 0.6 0 0 307.33 167.90
  L 307.25 199.19
  A 0.52 0.50 -89.4 0 1 306.75 199.70
  L 293.26 199.70
  A 0.51 0.51 0.0 0 1 292.75 199.19
  Z
  M 307.44 141.69
  Q 307.14 148.82 307.36 152.89
  A 0.56 0.54 -0.5 0 0 307.90 153.40
  C 315.54 153.65 325.63 154.53 332.66 151.81
  C 356.29 142.63 357.51 111.03 335.18 99.55
  C 327.85 95.78 315.80 96.41 307.70 96.97
  A 0.53 0.52 -2.9 0 0 307.21 97.50
  Q 307.84 132.08 307.44 141.69
  Z"
/>
<path fill="#000000" d="
  M 394.03 187.18
  L 434.84 187.09
  A 0.53 0.51 0.0 0 1 435.37 187.60
  L 435.46 199.23
  A 0.52 0.49 -0.0 0 1 434.94 199.72
  L 379.27 199.71
  A 0.50 0.50 0.0 0 1 378.77 199.21
  L 378.76 83.49
  A 0.43 0.41 -89.3 0 1 379.18 83.06
  L 392.96 83.15
  A 0.52 0.51 -90.0 0 1 393.47 83.67
  L 393.49 186.65
  A 0.53 0.53 -0.5 0 0 394.03 187.18
  Z"
/>
<path fill="#000000" d="
  M 584.07 110.43
  L 584.16 199.30
  A 0.51 0.49 -90.0 0 1 583.67 199.81
  L 570.01 199.70
  A 0.50 0.50 0.0 0 1 569.51 199.20
  L 569.50 83.49
  A 0.53 0.50 -0.6 0 1 570.02 82.99
  L 583.15 82.95
  A 1.82 1.57 -15.3 0 1 584.56 83.62
  L 649.93 175.09
  Q 650.76 176.25 650.76 174.82
  L 650.83 83.48
  A 0.47 0.46 90.0 0 1 651.29 83.01
  L 664.48 83.05
  A 0.51 0.50 0.0 0 1 664.99 83.55
  L 664.99 199.19
  A 0.51 0.50 -90.0 0 1 664.49 199.70
  L 649.62 199.64
  A 0.97 0.95 72.3 0 1 648.83 199.22
  L 585.14 110.08
  Q 584.07 108.57 584.07 110.43
  Z"
/>
<path fill="#ffffff" d="
  M 494.2365 188.1665
  A 46.94 46.10 90.7 0 1 448.7134 140.6668
  A 46.94 46.10 90.7 0 1 495.3835 94.2935
  A 46.94 46.10 90.7 0 1 540.9066 141.7932
  A 46.94 46.10 90.7 0 1 494.2365 188.1665
  Z
  M 502.9706 118.3486
  A 0.53 0.53 0.0 0 0 502.4387 117.8205
  L 485.4988 117.8796
  A 0.53 0.53 0.0 0 0 484.9707 118.4115
  L 485.0294 135.2514
  A 0.53 0.53 0.0 0 0 485.5613 135.7795
  L 502.5012 135.7204
  A 0.53 0.53 0.0 0 0 503.0293 135.1885
  L 502.9706 118.3486
  Z
  M 503.0149 150.1657
  A 0.40 0.40 0.0 0 0 502.6156 149.7650
  L 485.4157 149.7350
  A 0.40 0.40 0.0 0 0 485.0150 150.1343
  L 484.9851 167.2743
  A 0.40 0.40 0.0 0 0 485.3844 167.6750
  L 502.5843 167.7050
  A 0.40 0.40 0.0 0 0 502.9850 167.3057
  L 503.0149 150.1657
  Z"
/>
<path fill="#ffffff" d="
  M 307.44 141.69
  Q 307.84 132.08 307.21 97.50
  A 0.53 0.52 -2.9 0 1 307.70 96.97
  C 315.80 96.41 327.85 95.78 335.18 99.55
  C 357.51 111.03 356.29 142.63 332.66 151.81
  C 325.63 154.53 315.54 153.65 307.90 153.40
  A 0.56 0.54 -0.5 0 1 307.36 152.89
  Q 307.14 148.82 307.44 141.69
  Z"
/>
<rect fill="#ce0033" x="-9.00" y="-8.95" transform="translate(494.00,126.80) rotate(-0.2)" width="18.00" height="17.90" rx="0.53"/>
<rect fill="#ce0033" x="-9.00" y="-8.97" transform="translate(494.00,158.72) rotate(0.1)" width="18.00" height="17.94" rx="0.40"/>
<path fill="#000000" d="
  M 327.94 291.05
  L 307.96 291.14
  A 0.50 0.50 -0.6 0 1 307.45 290.64
  L 307.50 250.09
  A 0.53 0.50 -90.0 0 1 308.00 249.56
  L 313.25 249.52
  A 0.52 0.50 89.5 0 1 313.76 250.04
  L 313.75 284.89
  A 0.61 0.60 0.0 0 0 314.36 285.49
  L 327.95 285.52
  A 0.56 0.52 -0.5 0 1 328.51 286.03
  L 328.64 290.39
  A 0.70 0.64 -0.8 0 1 327.94 291.05
  Z"
/>
<rect fill="#000000" x="-3.26" y="-20.93" transform="translate(335.27,270.28) rotate(0.1)" width="6.52" height="41.86" rx="0.51"/>
<path fill="#000000" d="
  M 370.96 279.19
  Q 371.76 280.31 371.76 278.94
  L 371.81 249.92
  A 0.50 0.47 -0.0 0 1 372.31 249.45
  L 377.69 249.45
  A 0.51 0.48 0.0 0 1 378.20 249.93
  L 378.23 290.68
  A 0.50 0.47 0.6 0 1 377.72 291.15
  L 372.02 290.97
  A 1.04 0.91 -14.5 0 1 371.22 290.57
  L 350.78 261.94
  Q 349.99 260.84 350.00 262.20
  L 350.03 290.59
  A 0.55 0.51 90.0 0 1 349.52 291.14
  L 344.25 291.07
  A 0.55 0.51 -89.5 0 1 343.75 290.52
  L 343.76 250.07
  A 0.53 0.50 -90.0 0 1 344.26 249.54
  L 349.41 249.55
  A 1.04 0.91 70.1 0 1 350.20 249.99
  L 370.96 279.19
  Z"
/>
<path fill="#000000" d="
  M 390.32 285.44
  L 406.09 285.56
  A 0.57 0.48 0.5 0 1 406.66 286.05
  L 406.58 290.75
  A 0.56 0.48 2.2 0 1 405.99 291.22
  C 397.24 290.79 390.71 291.75 383.72 290.99
  A 0.56 0.56 -86.6 0 1 383.23 290.43
  L 383.23 250.05
  A 0.51 0.49 -90.0 0 1 383.72 249.54
  L 406.17 249.52
  A 0.54 0.49 0.5 0 1 406.71 250.02
  L 406.65 254.67
  A 0.56 0.52 0.5 0 1 406.09 255.18
  L 390.39 255.19
  A 0.53 0.51 0.6 0 0 389.86 255.69
  L 389.79 266.96
  A 0.51 0.51 90.0 0 0 390.30 267.47
  L 406.20 267.52
  A 0.52 0.50 0.0 0 1 406.72 268.02
  L 406.72 272.73
  A 0.52 0.50 -0.0 0 1 406.20 273.23
  L 390.29 273.28
  A 0.50 0.50 0.0 0 0 389.79 273.78
  L 389.80 284.94
  A 0.52 0.50 0.0 0 0 390.32 285.44
  Z"
/>
</svg>
