<?xml version="1.0" encoding="UTF-8" standalone="no"?>
<!DOCTYPE svg PUBLIC "-//W3C//DTD SVG 1.1//EN" "http://www.w3.org/Graphics/SVG/1.1/DTD/svg11.dtd">
<svg xmlns="http://www.w3.org/2000/svg" version="1.1" viewBox="0 0 267 189">
<g stroke-width="2.00" fill="none" stroke-linecap="butt">
<path stroke="#feea87" vector-effect="non-scaling-stroke" d="
  M 21.20 97.21
  Q 20.31 93.25 20.61 86.72
  Q 20.70 84.75 18.49 85.15
  A 0.50 0.40 -6.5 0 1 17.90 84.78
  L 17.89 80.49
  A 0.52 0.41 5.3 0 1 18.48 80.10
  Q 19.66 80.27 20.30 79.44
  A 1.53 0.91 72.7 0 0 20.52 78.53
  C 20.33 75.16 19.77 69.49 22.78 67.16
  Q 23.14 66.88 22.69 66.88
  L 8.84 66.93
  A 0.50 0.49 -0.0 0 0 8.34 67.42
  L 8.33 98.61
  A 0.52 0.51 90.0 0 0 8.84 99.13
  L 22.41 99.18
  Q 23.09 99.19 22.62 98.75
  L 21.75 97.93
  A 1.35 0.36 37.7 0 1 21.20 97.21"
/>
<path stroke="#feea87" vector-effect="non-scaling-stroke" d="
  M 30.44 70.94
  L 26.55 71.09
  A 0.59 0.54 -0.6 0 0 25.98 71.62
  L 25.78 79.52
  A 1.69 0.77 79.5 0 1 25.55 80.44
  L 24.21 82.35
  A 0.54 0.53 -52.2 0 0 24.29 83.06
  C 26.61 85.11 25.72 91.13 25.82 94.17
  A 0.65 0.54 -89.7 0 0 26.33 94.79
  L 30.26 95.03
  A 0.66 0.47 1.2 0 1 30.86 95.48
  L 31.06 98.46
  A 0.54 0.48 87.6 0 0 31.55 98.97
  L 40.00 98.96
  A 0.52 0.50 90.0 0 0 40.50 98.44
  L 40.48 67.30
  A 0.51 0.49 90.0 0 0 39.99 66.79
  L 31.78 66.77
  A 0.60 0.54 2.1 0 0 31.19 67.27
  L 30.93 70.43
  A 0.57 0.50 -87.3 0 1 30.44 70.94"
/>
<path stroke="#82a0bb" vector-effect="non-scaling-stroke" d="
  M 54.31 94.44
  L 54.17 90.89
  A 0.60 0.55 88.8 0 0 53.63 90.32
  L 50.52 90.27
  A 0.53 0.49 -89.5 0 0 50.02 90.80
  L 50.01 98.74
  A 0.49 0.48 90.0 0 0 50.49 99.23
  Q 59.22 99.32 67.94 99.18
  C 78.16 99.02 77.11 88.54 77.07 81.66
  A 0.53 0.52 1.8 0 0 76.57 81.14
  Q 65.79 80.49 54.98 81.00
  A 0.70 0.70 -1.1 0 1 54.24 80.29
  C 54.30 75.87 53.75 70.96 59.77 70.76
  Q 62.06 70.69 72.23 70.77
  A 0.64 0.51 -1.9 0 1 72.86 71.24
  L 73.05 73.27
  A 0.66 0.43 87.1 0 0 73.49 73.87
  L 76.43 73.99
  A 0.55 0.52 -89.5 0 0 76.97 73.43
  L 76.82 67.26
  A 0.56 0.51 -0.5 0 0 76.26 66.76
  C 70.52 66.76 59.93 65.73 55.45 67.70
  C 49.17 70.46 49.73 77.73 50.12 84.42
  A 0.54 0.53 88.3 0 0 50.65 84.93
  L 72.23 85.00
  A 0.60 0.58 -4.5 0 1 72.82 85.49
  C 73.75 90.91 72.86 94.95 66.43 95.00
  Q 60.63 95.04 54.81 94.95
  A 0.53 0.51 89.4 0 1 54.31 94.44"
/>
<path stroke="#82a0bb" vector-effect="non-scaling-stroke" d="
  M 110.25 75.72
  A 8.92 8.92 0.0 0 0 101.33 66.80
  L 89.43 66.80
  A 8.92 8.92 0.0 0 0 80.51 75.72
  L 80.51 90.30
  A 8.92 8.92 0.0 0 0 89.43 99.22
  L 101.33 99.22
  A 8.92 8.92 0.0 0 0 110.25 90.30
  L 110.25 75.72"
/>
<path stroke="#82a0bb" vector-effect="non-scaling-stroke" d="
  M 122.50 94.95
  C 119.27 94.91 117.98 92.25 117.99 89.27
  Q 118.02 78.43 117.99 67.54
  A 0.69 0.66 -83.3 0 0 117.50 66.89
  Q 116.00 66.50 114.44 66.85
  A 0.64 0.61 83.3 0 0 113.97 67.48
  Q 114.06 78.47 113.75 89.43
  C 113.42 101.59 127.85 99.02 135.19 98.98
  A 0.54 0.50 0.0 0 0 135.73 98.48
  L 135.72 95.51
  A 0.53 0.50 0.0 0 0 135.19 95.01
  Q 128.84 95.03 122.50 94.95"
/>
<path stroke="#82a0bb" vector-effect="non-scaling-stroke" d="
  M 143.1926 67.3163
  A 0.56 0.56 0.0 0 0 142.6317 66.7573
  L 139.5317 66.7627
  A 0.56 0.56 0.0 0 0 138.9726 67.3237
  L 139.0274 98.6837
  A 0.56 0.56 0.0 0 0 139.5883 99.2427
  L 142.6883 99.2373
  A 0.56 0.56 0.0 0 0 143.2474 98.6763
  L 143.1926 67.3163"
/>
<path stroke="#feea87" vector-effect="non-scaling-stroke" d="
  M 150.58 85.06
  C 150.78 78.80 148.01 70.82 157.68 70.75
  Q 163.71 70.71 169.78 70.81
  A 0.64 0.62 6.2 0 0 170.40 70.33
  Q 170.75 68.81 170.36 67.25
  A 0.67 0.65 -6.9 0 0 169.73 66.77
  C 161.58 66.68 151.48 65.21 148.10 70.78
  C 145.64 74.84 146.75 84.92 146.76 89.98
  C 146.79 102.08 162.34 99.02 169.72 98.98
  A 0.68 0.67 8.0 0 0 170.37 98.50
  Q 170.78 97.03 170.36 95.49
  A 0.67 0.65 -7.4 0 0 169.72 95.01
  Q 162.96 95.00 156.20 94.99
  C 150.14 94.99 150.42 90.29 150.58 85.06"
/>
<path stroke="#feea87" vector-effect="non-scaling-stroke" d="
  M 203.76 75.93
  A 9.13 9.13 0.0 0 0 194.63 66.80
  L 182.91 66.80
  A 9.13 9.13 0.0 0 0 173.78 75.93
  L 173.78 90.11
  A 9.13 9.13 0.0 0 0 182.91 99.24
  L 194.63 99.24
  A 9.13 9.13 0.0 0 0 203.76 90.11
  L 203.76 75.93"
/>
<path stroke="#feea87" vector-effect="non-scaling-stroke" d="
  M 234.28 75.69
  C 234.17 70.23 229.79 66.81 224.47 66.80
  Q 211.37 66.78 207.58 66.87
  A 0.51 0.51 -0.6 0 0 207.08 67.38
  L 207.04 98.46
  A 0.51 0.50 0.0 0 0 207.55 98.96
  C 212.83 99.01 226.15 100.31 230.33 97.54
  C 235.77 93.94 234.45 83.70 234.28 75.69"
/>
<path stroke="#feea87" vector-effect="non-scaling-stroke" d="
  M 241.51 80.19
  C 240.33 67.72 251.52 70.57 258.72 70.88
  A 0.66 0.62 8.4 0 0 259.37 70.43
  Q 259.78 68.87 259.35 67.21
  A 0.66 0.61 -7.2 0 0 258.71 66.75
  C 249.84 67.00 237.80 64.08 237.76 77.57
  Q 237.72 88.11 237.78 98.71
  A 0.52 0.50 89.4 0 0 238.28 99.22
  L 258.77 99.25
  A 0.65 0.64 6.1 0 0 259.40 98.75
  Q 259.76 97.15 259.34 95.47
  A 0.66 0.62 -6.8 0 0 258.71 95.00
  L 242.12 94.92
  A 0.52 0.51 1.1 0 1 241.61 94.40
  L 241.74 85.54
  A 0.53 0.52 0.6 0 1 242.27 85.03
  L 255.68 84.98
  A 0.56 0.48 -1.0 0 0 256.24 84.48
  L 256.13 81.42
  A 0.60 0.48 0.1 0 0 255.54 80.95
  L 242.06 80.73
  A 0.60 0.56 87.7 0 1 241.51 80.19"
/>
<path stroke="#82a0bb" vector-effect="non-scaling-stroke" d="
  M 106.2572 75.5910
  A 4.82 4.82 0.0 0 0 101.4288 70.7794
  L 89.3089 70.8006
  A 4.82 4.82 0.0 0 0 84.4973 75.6290
  L 84.5228 90.2290
  A 4.82 4.82 0.0 0 0 89.3512 95.0406
  L 101.4711 95.0194
  A 4.82 4.82 0.0 0 0 106.2827 90.1910
  L 106.2572 75.5910"
/>
<path stroke="#feea87" vector-effect="non-scaling-stroke" d="
  M 199.74 75.64
  A 4.85 4.85 0.0 0 0 194.89 70.79
  L 182.83 70.79
  A 4.85 4.85 0.0 0 0 177.98 75.64
  L 177.98 90.18
  A 4.85 4.85 0.0 0 0 182.83 95.03
  L 194.89 95.03
  A 4.85 4.85 0.0 0 0 199.74 90.18
  L 199.74 75.64"
/>
<path stroke="#feea87" vector-effect="non-scaling-stroke" d="
  M 228.57 72.29
  C 225.05 69.83 216.81 70.65 211.84 70.87
  A 0.53 0.52 88.9 0 0 211.34 71.40
  L 211.34 94.36
  A 0.53 0.51 90.0 0 0 211.85 94.89
  L 226.44 94.94
  Q 229.97 94.95 229.97 91.69
  L 229.99 75.00
  Q 229.99 73.29 228.57 72.29"
/>
</g>
<path fill="#ffffff" d="
  M 0.00 0.00
  L 267.00 0.00
  L 267.00 189.00
  L 0.00 189.00
  L 0.00 0.00
  Z
  M 21.20 97.21
  Q 20.31 93.25 20.61 86.72
  Q 20.70 84.75 18.49 85.15
  A 0.50 0.40 -6.5 0 1 17.90 84.78
  L 17.89 80.49
  A 0.52 0.41 5.3 0 1 18.48 80.10
  Q 19.66 80.27 20.30 79.44
  A 1.53 0.91 72.7 0 0 20.52 78.53
  C 20.33 75.16 19.77 69.49 22.78 67.16
  Q 23.14 66.88 22.69 66.88
  L 8.84 66.93
  A 0.50 0.49 -0.0 0 0 8.34 67.42
  L 8.33 98.61
  A 0.52 0.51 90.0 0 0 8.84 99.13
  L 22.41 99.18
  Q 23.09 99.19 22.62 98.75
  L 21.75 97.93
  A 1.35 0.36 37.7 0 1 21.20 97.21
  Z
  M 30.44 70.94
  L 26.55 71.09
  A 0.59 0.54 -0.6 0 0 25.98 71.62
  L 25.78 79.52
  A 1.69 0.77 79.5 0 1 25.55 80.44
  L 24.21 82.35
  A 0.54 0.53 -52.2 0 0 24.29 83.06
  C 26.61 85.11 25.72 91.13 25.82 94.17
  A 0.65 0.54 -89.7 0 0 26.33 94.79
  L 30.26 95.03
  A 0.66 0.47 1.2 0 1 30.86 95.48
  L 31.06 98.46
  A 0.54 0.48 87.6 0 0 31.55 98.97
  L 40.00 98.96
  A 0.52 0.50 90.0 0 0 40.50 98.44
  L 40.48 67.30
  A 0.51 0.49 90.0 0 0 39.99 66.79
  L 31.78 66.77
  A 0.60 0.54 2.1 0 0 31.19 67.27
  L 30.93 70.43
  A 0.57 0.50 -87.3 0 1 30.44 70.94
  Z
  M 54.31 94.44
  L 54.17 90.89
  A 0.60 0.55 88.8 0 0 53.63 90.32
  L 50.52 90.27
  A 0.53 0.49 -89.5 0 0 50.02 90.80
  L 50.01 98.74
  A 0.49 0.48 90.0 0 0 50.49 99.23
  Q 59.22 99.32 67.94 99.18
  C 78.16 99.02 77.11 88.54 77.07 81.66
  A 0.53 0.52 1.8 0 0 76.57 81.14
  Q 65.79 80.49 54.98 81.00
  A 0.70 0.70 -1.1 0 1 54.24 80.29
  C 54.30 75.87 53.75 70.96 59.77 70.76
  Q 62.06 70.69 72.23 70.77
  A 0.64 0.51 -1.9 0 1 72.86 71.24
  L 73.05 73.27
  A 0.66 0.43 87.1 0 0 73.49 73.87
  L 76.43 73.99
  A 0.55 0.52 -89.5 0 0 76.97 73.43
  L 76.82 67.26
  A 0.56 0.51 -0.5 0 0 76.26 66.76
  C 70.52 66.76 59.93 65.73 55.45 67.70
  C 49.17 70.46 49.73 77.73 50.12 84.42
  A 0.54 0.53 88.3 0 0 50.65 84.93
  L 72.23 85.00
  A 0.60 0.58 -4.5 0 1 72.82 85.49
  C 73.75 90.91 72.86 94.95 66.43 95.00
  Q 60.63 95.04 54.81 94.95
  A 0.53 0.51 89.4 0 1 54.31 94.44
  Z
  M 110.25 75.72
  A 8.92 8.92 0.0 0 0 101.33 66.80
  L 89.43 66.80
  A 8.92 8.92 0.0 0 0 80.51 75.72
  L 80.51 90.30
  A 8.92 8.92 0.0 0 0 89.43 99.22
  L 101.33 99.22
  A 8.92 8.92 0.0 0 0 110.25 90.30
  L 110.25 75.72
  Z
  M 122.50 94.95
  C 119.27 94.91 117.98 92.25 117.99 89.27
  Q 118.02 78.43 117.99 67.54
  A 0.69 0.66 -83.3 0 0 117.50 66.89
  Q 116.00 66.50 114.44 66.85
  A 0.64 0.61 83.3 0 0 113.97 67.48
  Q 114.06 78.47 113.75 89.43
  C 113.42 101.59 127.85 99.02 135.19 98.98
  A 0.54 0.50 0.0 0 0 135.73 98.48
  L 135.72 95.51
  A 0.53 0.50 0.0 0 0 135.19 95.01
  Q 128.84 95.03 122.50 94.95
  Z
  M 143.1926 67.3163
  A 0.56 0.56 0.0 0 0 142.6317 66.7573
  L 139.5317 66.7627
  A 0.56 0.56 0.0 0 0 138.9726 67.3237
  L 139.0274 98.6837
  A 0.56 0.56 0.0 0 0 139.5883 99.2427
  L 142.6883 99.2373
  A 0.56 0.56 0.0 0 0 143.2474 98.6763
  L 143.1926 67.3163
  Z
  M 150.58 85.06
  C 150.78 78.80 148.01 70.82 157.68 70.75
  Q 163.71 70.71 169.78 70.81
  A 0.64 0.62 6.2 0 0 170.40 70.33
  Q 170.75 68.81 170.36 67.25
  A 0.67 0.65 -6.9 0 0 169.73 66.77
  C 161.58 66.68 151.48 65.21 148.10 70.78
  C 145.64 74.84 146.75 84.92 146.76 89.98
  C 146.79 102.08 162.34 99.02 169.72 98.98
  A 0.68 0.67 8.0 0 0 170.37 98.50
  Q 170.78 97.03 170.36 95.49
  A 0.67 0.65 -7.4 0 0 169.72 95.01
  Q 162.96 95.00 156.20 94.99
  C 150.14 94.99 150.42 90.29 150.58 85.06
  Z
  M 203.76 75.93
  A 9.13 9.13 0.0 0 0 194.63 66.80
  L 182.91 66.80
  A 9.13 9.13 0.0 0 0 173.78 75.93
  L 173.78 90.11
  A 9.13 9.13 0.0 0 0 182.91 99.24
  L 194.63 99.24
  A 9.13 9.13 0.0 0 0 203.76 90.11
  L 203.76 75.93
  Z
  M 234.28 75.69
  C 234.17 70.23 229.79 66.81 224.47 66.80
  Q 211.37 66.78 207.58 66.87
  A 0.51 0.51 -0.6 0 0 207.08 67.38
  L 207.04 98.46
  A 0.51 0.50 0.0 0 0 207.55 98.96
  C 212.83 99.01 226.15 100.31 230.33 97.54
  C 235.77 93.94 234.45 83.70 234.28 75.69
  Z
  M 241.51 80.19
  C 240.33 67.72 251.52 70.57 258.72 70.88
  A 0.66 0.62 8.4 0 0 259.37 70.43
  Q 259.78 68.87 259.35 67.21
  A 0.66 0.61 -7.2 0 0 258.71 66.75
  C 249.84 67.00 237.80 64.08 237.76 77.57
  Q 237.72 88.11 237.78 98.71
  A 0.52 0.50 89.4 0 0 238.28 99.22
  L 258.77 99.25
  A 0.65 0.64 6.1 0 0 259.40 98.75
  Q 259.76 97.15 259.34 95.47
  A 0.66 0.62 -6.8 0 0 258.71 95.00
  L 242.12 94.92
  A 0.52 0.51 1.1 0 1 241.61 94.40
  L 241.74 85.54
  A 0.53 0.52 0.6 0 1 242.27 85.03
  L 255.68 84.98
  A 0.56 0.48 -1.0 0 0 256.24 84.48
  L 256.13 81.42
  A 0.60 0.48 0.1 0 0 255.54 80.95
  L 242.06 80.73
  A 0.60 0.56 87.7 0 1 241.51 80.19
  Z"
/>
<path fill="#fdd40e" d="
  M 21.75 97.93
  L 22.62 98.75
  Q 23.09 99.19 22.41 99.18
  L 8.84 99.13
  A 0.52 0.51 90.0 0 1 8.33 98.61
  L 8.34 67.42
  A 0.50 0.49 -0.0 0 1 8.84 66.93
  L 22.69 66.88
  Q 23.14 66.88 22.78 67.16
  C 19.77 69.49 20.33 75.16 20.52 78.53
  A 1.53 0.91 72.7 0 1 20.30 79.44
  Q 19.66 80.27 18.48 80.10
  A 0.52 0.41 5.3 0 0 17.89 80.49
  L 17.90 84.78
  A 0.50 0.40 -6.5 0 0 18.49 85.15
  Q 20.70 84.75 20.61 86.72
  Q 20.31 93.25 21.20 97.21
  A 1.35 0.36 37.7 0 0 21.75 97.93
  Z"
/>
<path fill="#fdd40e" d="
  M 30.93 70.43
  L 31.19 67.27
  A 0.60 0.54 2.1 0 1 31.78 66.77
  L 39.99 66.79
  A 0.51 0.49 -90.0 0 1 40.48 67.30
  L 40.50 98.44
  A 0.52 0.50 -90.0 0 1 40.00 98.96
  L 31.55 98.97
  A 0.54 0.48 87.6 0 1 31.06 98.46
  L 30.86 95.48
  A 0.66 0.47 1.2 0 0 30.26 95.03
  L 26.33 94.79
  A 0.65 0.54 -89.7 0 1 25.82 94.17
  C 25.72 91.13 26.61 85.11 24.29 83.06
  A 0.54 0.53 -52.2 0 1 24.21 82.35
  L 25.55 80.44
  A 1.69 0.77 79.5 0 0 25.78 79.52
  L 25.98 71.62
  A 0.59 0.54 -0.6 0 1 26.55 71.09
  L 30.44 70.94
  A 0.57 0.50 -87.3 0 0 30.93 70.43
  Z"
/>
<path fill="#044177" d="
  M 54.81 94.95
  Q 60.63 95.04 66.43 95.00
  C 72.86 94.95 73.75 90.91 72.82 85.49
  A 0.60 0.58 -4.5 0 0 72.23 85.00
  L 50.65 84.93
  A 0.54 0.53 88.3 0 1 50.12 84.42
  C 49.73 77.73 49.17 70.46 55.45 67.70
  C 59.93 65.73 70.52 66.76 76.26 66.76
  A 0.56 0.51 -0.5 0 1 76.82 67.26
  L 76.97 73.43
  A 0.55 0.52 -89.5 0 1 76.43 73.99
  L 73.49 73.87
  A 0.66 0.43 87.1 0 1 73.05 73.27
  L 72.86 71.24
  A 0.64 0.51 -1.9 0 0 72.23 70.77
  Q 62.06 70.69 59.77 70.76
  C 53.75 70.96 54.30 75.87 54.24 80.29
  A 0.70 0.70 -1.1 0 0 54.98 81.00
  Q 65.79 80.49 76.57 81.14
  A 0.53 0.52 1.8 0 1 77.07 81.66
  C 77.11 88.54 78.16 99.02 67.94 99.18
  Q 59.22 99.32 50.49 99.23
  A 0.49 0.48 90.0 0 1 50.01 98.74
  L 50.02 90.80
  A 0.53 0.49 -89.5 0 1 50.52 90.27
  L 53.63 90.32
  A 0.60 0.55 88.8 0 1 54.17 90.89
  L 54.31 94.44
  A 0.53 0.51 89.4 0 0 54.81 94.95
  Z"
/>
<path fill="#044177" d="
  M 110.25 90.30
  A 8.92 8.92 0.0 0 1 101.33 99.22
  L 89.43 99.22
  A 8.92 8.92 0.0 0 1 80.51 90.30
  L 80.51 75.72
  A 8.92 8.92 0.0 0 1 89.43 66.80
  L 101.33 66.80
  A 8.92 8.92 0.0 0 1 110.25 75.72
  L 110.25 90.30
  Z
  M 106.2572 75.5910
  A 4.82 4.82 0.0 0 0 101.4288 70.7794
  L 89.3089 70.8006
  A 4.82 4.82 0.0 0 0 84.4973 75.6290
  L 84.5228 90.2290
  A 4.82 4.82 0.0 0 0 89.3512 95.0406
  L 101.4711 95.0194
  A 4.82 4.82 0.0 0 0 106.2827 90.1910
  L 106.2572 75.5910
  Z"
/>
<path fill="#044177" d="
  M 122.50 94.95
  Q 128.84 95.03 135.19 95.01
  A 0.53 0.50 0.0 0 1 135.72 95.51
  L 135.73 98.48
  A 0.54 0.50 -0.0 0 1 135.19 98.98
  C 127.85 99.02 113.42 101.59 113.75 89.43
  Q 114.06 78.47 113.97 67.48
  A 0.64 0.61 83.3 0 1 114.44 66.85
  Q 116.00 66.50 117.50 66.89
  A 0.69 0.66 -83.3 0 1 117.99 67.54
  Q 118.02 78.43 117.99 89.27
  C 117.98 92.25 119.27 94.91 122.50 94.95
  Z"
/>
<rect fill="#044177" x="-2.11" y="-16.24" transform="translate(141.11,83.00) rotate(-0.1)" width="4.22" height="32.48" rx="0.56"/>
<path fill="#fdd40e" d="
  M 150.58 85.06
  C 150.42 90.29 150.14 94.99 156.20 94.99
  Q 162.96 95.00 169.72 95.01
  A 0.67 0.65 -7.4 0 1 170.36 95.49
  Q 170.78 97.03 170.37 98.50
  A 0.68 0.67 8.0 0 1 169.72 98.98
  C 162.34 99.02 146.79 102.08 146.76 89.98
  C 146.75 84.92 145.64 74.84 148.10 70.78
  C 151.48 65.21 161.58 66.68 169.73 66.77
  A 0.67 0.65 -6.9 0 1 170.36 67.25
  Q 170.75 68.81 170.40 70.33
  A 0.64 0.62 6.2 0 1 169.78 70.81
  Q 163.71 70.71 157.68 70.75
  C 148.01 70.82 150.78 78.80 150.58 85.06
  Z"
/>
<path fill="#fdd40e" d="
  M 203.76 90.11
  A 9.13 9.13 0.0 0 1 194.63 99.24
  L 182.91 99.24
  A 9.13 9.13 0.0 0 1 173.78 90.11
  L 173.78 75.93
  A 9.13 9.13 0.0 0 1 182.91 66.80
  L 194.63 66.80
  A 9.13 9.13 0.0 0 1 203.76 75.93
  L 203.76 90.11
  Z
  M 199.74 75.64
  A 4.85 4.85 0.0 0 0 194.89 70.79
  L 182.83 70.79
  A 4.85 4.85 0.0 0 0 177.98 75.64
  L 177.98 90.18
  A 4.85 4.85 0.0 0 0 182.83 95.03
  L 194.89 95.03
  A 4.85 4.85 0.0 0 0 199.74 90.18
  L 199.74 75.64
  Z"
/>
<path fill="#fdd40e" d="
  M 224.47 66.80
  C 229.79 66.81 234.17 70.23 234.28 75.69
  C 234.45 83.70 235.77 93.94 230.33 97.54
  C 226.15 100.31 212.83 99.01 207.55 98.96
  A 0.51 0.50 0.0 0 1 207.04 98.46
  L 207.08 67.38
  A 0.51 0.51 -0.6 0 1 207.58 66.87
  Q 211.37 66.78 224.47 66.80
  Z
  M 228.57 72.29
  C 225.05 69.83 216.81 70.65 211.84 70.87
  A 0.53 0.52 88.9 0 0 211.34 71.40
  L 211.34 94.36
  A 0.53 0.51 90.0 0 0 211.85 94.89
  L 226.44 94.94
  Q 229.97 94.95 229.97 91.69
  L 229.99 75.00
  Q 229.99 73.29 228.57 72.29
  Z"
/>
<path fill="#fdd40e" d="
  M 242.06 80.73
  L 255.54 80.95
  A 0.60 0.48 0.1 0 1 256.13 81.42
  L 256.24 84.48
  A 0.56 0.48 -1.0 0 1 255.68 84.98
  L 242.27 85.03
  A 0.53 0.52 0.6 0 0 241.74 85.54
  L 241.61 94.40
  A 0.52 0.51 1.1 0 0 242.12 94.92
  L 258.71 95.00
  A 0.66 0.62 -6.8 0 1 259.34 95.47
  Q 259.76 97.15 259.40 98.75
  A 0.65 0.64 6.1 0 1 258.77 99.25
  L 238.28 99.22
  A 0.52 0.50 89.4 0 1 237.78 98.71
  Q 237.72 88.11 237.76 77.57
  C 237.80 64.08 249.84 67.00 258.71 66.75
  A 0.66 0.61 -7.2 0 1 259.35 67.21
  Q 259.78 68.87 259.37 70.43
  A 0.66 0.62 8.4 0 1 258.72 70.88
  C 251.52 70.57 240.33 67.72 241.51 80.19
  A 0.60 0.56 87.7 0 0 242.06 80.73
  Z"
/>
<rect fill="#ffffff" x="-10.88" y="-12.12" transform="translate(95.39,82.91) rotate(-0.1)" width="21.76" height="24.24" rx="4.82"/>
<rect fill="#ffffff" x="177.98" y="70.79" width="21.76" height="24.24" rx="4.85"/>
<path fill="#ffffff" d="
  M 228.57 72.29
  Q 229.99 73.29 229.99 75.00
  L 229.97 91.69
  Q 229.97 94.95 226.44 94.94
  L 211.85 94.89
  A 0.53 0.51 90.0 0 1 211.34 94.36
  L 211.34 71.40
  A 0.53 0.52 88.9 0 1 211.84 70.87
  C 216.81 70.65 225.05 69.83 228.57 72.29
  Z"
/>
</svg>
