<svg width="566" height="756" viewBox="0 0 566 756" fill="none" xmlns="http://www.w3.org/2000/svg">
<g clip-path="url(#clip0_192_508)">
<path d="M359.976 738.531L348.658 737.234L369.256 543.16L380.572 544.473L359.976 738.531Z" fill="#D07F69"/>
<path d="M497.794 738.531L509.094 737.234L488.497 543.16L477.197 544.473L497.794 738.531Z" fill="#D07F69"/>
<path d="M491.567 601.508H366.186V607.235H491.567V601.508Z" fill="#D07F69"/>
<path d="M502.578 554.846H355.174C349.371 554.846 344.654 550.57 344.654 545.274C344.654 539.98 349.354 535.705 355.174 535.705H502.578C508.381 535.705 513.097 539.98 513.097 545.274C513.097 550.57 508.397 554.846 502.578 554.846Z" fill="#4D5DB5"/>
<path d="M471.988 50.5593V192.784C471.988 193.495 473.21 193.495 473.21 192.784V50.5593C473.21 49.8494 471.988 49.8494 471.988 50.5593Z" fill="#5C4CA0"/>
<path d="M472.6 195.254C475.739 195.254 478.284 192.939 478.284 190.083C478.284 187.227 475.739 184.912 472.6 184.912C469.461 184.912 466.916 187.227 466.916 190.083C466.916 192.939 469.461 195.254 472.6 195.254Z" fill="#5C4CA0"/>
<path d="M64.1504 31.9438V445.792H501.85V31.9438H64.1504ZM495.301 247.442H268.172V38.5812H495.301V247.442ZM261.606 38.5812V247.442H70.6994V38.5812H261.606ZM70.6994 254.08H261.606V439.139H70.6994V254.08ZM268.155 439.139V254.08H495.284V439.139H268.155Z" fill="#FF916C"/>
<path d="M566 439.046H0V457.137H566V439.046Z" fill="white"/>
<path d="M108.109 379.558C103.63 365.742 92.4151 354.705 81.5566 344.225C98.1328 345.985 113.335 356.126 120.172 369.972C120.24 356.651 126.687 343.453 137.511 334.469C133.423 345.213 131.455 356.635 131.777 367.995C140.481 355.987 154.478 347.25 169.935 344.209C154.478 356.852 142.365 372.842 134.849 390.47C125.635 392.23 116.168 392.832 106.786 392.23L108.109 379.558Z" fill="#4D5DB5"/>
<path d="M134.355 365.866C133.32 365.604 132.777 364.322 133.371 363.504C133.982 362.671 135.475 362.717 136.153 363.473C136.476 363.828 137.189 363.443 137.002 363.025C136.714 362.347 136.527 361.621 136.56 360.896C136.595 360.325 136.867 359.661 137.358 359.382C137.596 359.243 137.766 359.198 138.071 359.151C138.003 359.151 138.19 359.151 138.206 359.151C138.274 359.151 138.343 359.151 138.427 359.151C138.579 359.151 138.563 359.151 138.732 359.198C138.783 359.198 138.851 359.229 138.902 359.245C139.072 359.306 139.123 359.337 139.191 359.382C139.394 359.552 139.377 359.522 139.463 359.661C139.513 359.815 139.529 359.876 139.547 359.939C139.869 359.862 140.209 359.769 140.53 359.692C140.243 359.059 140.09 358.364 140.174 357.669C140.209 357.36 140.311 357.053 140.479 356.774C140.633 356.527 140.837 356.311 141.057 356.188C141.482 355.94 142.024 355.895 142.499 356.018C142.991 356.141 143.296 356.373 143.364 356.836C143.687 356.758 144.027 356.666 144.348 356.59C144.094 355.432 143.992 354.011 144.807 352.992C144.977 352.792 145.129 352.638 145.35 352.529C145.553 352.421 145.723 352.375 145.994 352.328C146.164 352.314 146.232 352.314 146.3 352.298C146.418 352.298 146.605 352.298 146.673 352.298C146.724 352.298 146.91 352.345 146.996 352.359C147.047 352.359 147.098 352.39 147.148 352.406C147.25 352.437 147.182 352.406 147.266 352.452C147.368 352.498 147.538 352.591 147.573 352.622C147.573 352.622 147.657 352.699 147.69 352.715C147.928 353.008 147.962 353.101 147.962 353.347C148.284 353.271 148.589 353.193 148.912 353.115C148.386 351.989 148.403 350.492 149.252 349.489C149.455 349.257 149.693 349.056 149.981 348.903C150.118 348.825 150.151 348.825 150.303 348.778C150.423 348.747 150.643 348.702 150.694 348.686C151.288 348.624 151.83 348.717 152.323 348.964C152.458 349.04 152.594 349.118 152.679 349.18C152.747 349.226 152.798 349.288 152.848 349.335C152.899 349.38 152.95 349.442 152.95 349.442C153.036 349.566 153.12 349.689 153.138 349.766C153.188 349.921 153.222 350.044 153.222 350.167L154.223 350.044C153.748 349.026 153.73 347.713 154.512 346.787C154.698 346.571 154.936 346.385 155.207 346.247C155.393 346.154 155.699 346.077 155.902 346.077C156.445 346.047 156.938 346.186 157.395 346.479C157.599 346.602 157.786 346.803 157.905 347.004C158.023 347.204 158.074 347.42 158.04 347.698H159.058C159.008 346.586 159.414 345.043 160.738 344.658C161.009 344.58 161.247 344.58 161.518 344.658C161.789 344.719 162.061 344.858 162.264 345.027C162.485 345.197 162.638 345.398 162.706 345.614C162.774 345.83 162.757 345.985 162.638 346.201L163.572 346.555C163.877 345.506 164.217 344.332 165.116 343.576C165.505 343.252 165.896 343.082 166.371 343.082C166.812 343.082 167.237 343.206 167.61 343.453C167.745 343.545 167.88 343.685 167.982 343.869C167.949 343.808 168.017 343.947 168.017 343.978C168.05 344.209 168.034 344.256 168.017 344.365L169.018 344.488C168.984 344.24 169.018 344.133 169.153 343.947C169.153 343.947 169.307 343.808 169.34 343.777C169.408 343.732 169.561 343.638 169.679 343.607C170.069 343.453 170.562 343.469 170.884 343.777C171.258 344.117 171.308 344.658 171.172 345.105C171.019 345.645 170.595 346.047 170.018 346.231C169.289 346.463 168.458 346.401 167.763 346.092C167.507 345.985 167.202 346.031 167.067 346.262C166.93 346.479 166.998 346.772 167.253 346.895C168.034 347.281 168.288 348.331 167.745 348.948C167.186 349.581 165.913 349.55 165.386 348.886C164.997 348.393 164.25 348.809 164.504 349.35C164.86 350.106 164.504 351.032 163.91 351.634C163.265 352.283 162.333 352.652 161.416 352.421C161.043 352.314 160.687 352.652 160.789 352.992C161.06 353.949 160.568 354.922 159.754 355.586C158.922 356.25 157.819 356.543 156.785 356.172C156.344 356.018 156.005 356.527 156.208 356.852C156.734 357.686 156.683 358.78 156.038 359.552C155.444 360.263 154.393 360.648 153.425 360.478C153.069 360.417 152.645 360.695 152.798 361.05C153.476 362.763 151.779 364.816 149.76 364.693C149.184 364.646 149.064 365.496 149.625 365.604C149.913 365.666 150.1 365.819 150.184 366.098C150.286 366.391 150.27 366.7 150.151 366.977C149.795 367.733 148.726 368.089 147.928 368.366C147.606 368.475 147.453 368.768 147.623 369.046C148.505 370.558 146.808 372.843 144.908 372.596C144.654 372.566 144.399 372.627 144.297 372.859C144.213 373.043 144.263 373.353 144.502 373.445C144.84 373.568 144.977 373.754 145.044 374.078C145.112 374.355 145.044 374.711 144.891 374.988C144.416 375.776 143.263 376.053 142.397 376.285C141.99 376.393 141.939 376.795 142.176 377.057C142.33 377.241 142.397 377.489 142.397 377.735C142.397 377.983 142.295 378.261 142.16 378.508C142.008 378.739 141.82 378.94 141.583 379.079C141.294 379.249 141.074 379.28 140.735 379.249C140.362 379.202 140.09 379.681 140.293 379.943C140.565 380.298 140.582 380.792 140.225 381.101C139.869 381.41 139.326 381.394 138.953 381.148C138.732 381.009 138.376 381.116 138.257 381.317C138.104 381.548 138.206 381.812 138.444 381.949C139.191 382.429 140.311 382.336 140.954 381.749C141.599 381.163 141.701 380.144 141.175 379.464C141.023 379.696 140.888 379.927 140.735 380.159C141.718 380.267 142.618 379.665 143.075 378.909C143.568 378.091 143.552 377.134 142.923 376.377L142.703 377.149C143.89 376.825 145.333 376.393 145.892 375.266C146.333 374.371 146.181 373.043 145.061 372.611L144.67 373.46C146.079 373.646 147.352 373.013 148.165 371.994C148.947 370.991 149.167 369.648 148.539 368.552L148.234 369.231C149.404 368.829 150.779 368.305 151.203 367.116C151.543 366.174 151.101 364.893 149.93 364.662C149.879 364.971 149.846 365.264 149.795 365.572C152.442 365.758 154.715 363.025 153.816 360.757C153.613 360.942 153.392 361.142 153.188 361.328C154.596 361.56 156.056 361.066 156.92 360.015C157.786 358.966 157.854 357.454 157.141 356.311C156.955 356.543 156.75 356.774 156.564 356.99C159.346 357.979 162.571 355.246 161.824 352.668C161.621 352.853 161.4 353.054 161.197 353.24C162.485 353.578 163.859 353.07 164.725 352.175C165.624 351.232 165.998 349.966 165.438 348.794C165.149 348.948 164.844 349.103 164.555 349.257C165.268 350.167 166.608 350.462 167.728 350.013C168.848 349.566 169.307 348.393 168.984 347.358C168.797 346.787 168.39 346.278 167.813 345.985C167.643 346.247 167.474 346.524 167.304 346.787C168.203 347.174 169.238 347.313 170.206 347.049C171.138 346.803 171.868 346.201 172.173 345.367C172.462 344.611 172.327 343.731 171.766 343.098C171.24 342.496 170.341 342.326 169.543 342.558C168.695 342.805 167.931 343.515 168.05 344.365C168.085 344.596 168.22 344.795 168.492 344.828C168.746 344.858 168.984 344.719 169.051 344.488C169.391 343.252 168.22 342.279 166.965 342.079C166.303 341.972 165.607 342.048 165.03 342.388C164.369 342.759 163.859 343.33 163.503 343.963C163.097 344.672 162.859 345.428 162.638 346.201C162.485 346.71 163.283 347.034 163.572 346.555C164.318 345.352 163.214 344.055 161.942 343.685C160.483 343.252 159.109 344.209 158.549 345.383C158.21 346.077 158.058 346.85 158.091 347.606C158.108 348.208 159.041 348.192 159.109 347.606C159.279 346.154 157.7 345.135 156.259 345.043C154.563 344.935 153.273 346.231 153.001 347.667C152.831 348.516 152.917 349.396 153.29 350.183C153.392 350.399 153.578 350.554 153.849 350.523C154.088 350.492 154.308 350.306 154.291 350.06C154.205 348.547 152.594 347.606 151.05 347.62C149.201 347.62 147.911 349.026 147.657 350.615C147.504 351.588 147.657 352.56 148.081 353.455C148.165 353.641 148.454 353.718 148.658 353.672C148.878 353.609 149.031 353.425 149.031 353.224C149.048 351.912 147.606 351.171 146.3 351.218C145.604 351.249 144.926 351.464 144.433 351.896C143.822 352.437 143.449 353.193 143.313 353.949C143.144 354.86 143.229 355.77 143.433 356.682C143.483 356.928 143.806 357.067 144.06 357.006C144.348 356.928 144.467 356.682 144.416 356.434C144.213 355.307 142.856 354.768 141.718 354.891C141.091 354.953 140.497 355.184 140.073 355.617C139.547 356.141 139.293 356.805 139.224 357.5C139.14 358.256 139.31 359.059 139.631 359.769C139.887 360.325 140.718 360.108 140.616 359.522C140.446 358.38 139.054 357.932 137.934 358.086C137.375 358.163 136.816 358.395 136.443 358.796C135.917 359.337 135.678 360.046 135.628 360.741C135.577 361.544 135.798 362.361 136.103 363.119C136.392 362.964 136.679 362.81 136.951 362.671C136.12 361.73 134.508 361.575 133.388 362.177C132.15 362.824 131.895 364.23 132.506 365.34C132.828 365.959 133.439 366.436 134.169 366.606C134.813 366.762 135.084 365.866 134.439 365.711L134.355 365.866Z" fill="#144162"/>
<path d="M120.665 368.073C119.477 367.995 118.035 367.409 118.069 366.143C118.069 365.68 118.357 365.309 118.781 365.202C119.002 365.141 119.189 365.141 119.392 365.186C119.596 365.233 119.714 365.309 119.833 365.479L120.631 364.909C119.986 364.307 119.121 363.566 119.07 362.656C119.07 362.316 119.189 361.976 119.426 361.729C119.528 361.605 119.698 361.498 119.816 361.435C120.003 361.359 120.122 361.359 120.291 361.404C120.834 361.529 121.208 360.802 120.682 360.556C119.647 360.062 118.476 358.919 118.951 357.762C119.104 357.391 119.511 357.052 119.901 356.913C120.156 356.821 120.342 356.79 120.614 356.805C120.749 356.805 120.987 356.897 121.123 357.021C121.547 357.376 122.209 356.928 121.92 356.45C121.581 355.879 121.258 355.292 121.072 354.674C120.919 354.166 120.851 353.547 121.123 353.084C121.326 352.73 121.666 352.437 122.056 352.297C122.412 352.174 122.785 352.158 123.057 352.359C123.481 352.683 124.16 352.283 123.854 351.788C123.243 350.769 122.429 349.241 123.193 348.145C123.43 347.79 123.854 347.513 124.261 347.405C124.686 347.282 125.076 347.312 125.381 347.589C125.568 347.745 125.856 347.775 126.06 347.62C126.247 347.497 126.348 347.204 126.196 347.018C125.568 346.278 124.923 345.12 125.449 344.209C125.636 343.885 125.958 343.623 126.314 343.5C126.705 343.361 127.044 343.361 127.4 343.576L127.909 342.774C127.112 342.326 126.908 341.168 127.519 340.535C128.198 339.841 129.487 339.949 130.098 340.659C130.335 340.443 130.573 340.226 130.828 339.995C130.335 339.501 129.962 338.884 129.877 338.22C129.826 337.911 129.86 337.587 129.979 337.294C130.03 337.155 130.115 337.016 130.2 336.893C130.166 336.94 130.285 336.815 130.285 336.8C130.573 336.569 130.777 336.491 131.031 336.444C131.184 336.414 131.15 336.414 131.32 336.414C131.387 336.414 131.455 336.414 131.54 336.414C131.557 336.414 131.761 336.43 131.659 336.414C131.947 336.46 132.066 336.491 132.287 336.645C132.524 336.909 132.524 336.909 132.558 337.077C132.694 337.571 133.61 337.479 133.559 336.954C133.491 336.198 133.525 335.395 133.949 334.717C134.289 334.176 134.899 333.791 135.578 333.791C135.73 333.791 135.867 333.805 136.002 333.852C136.138 333.898 136.273 333.975 136.324 334.022C136.41 334.098 136.461 334.145 136.528 334.284C136.494 334.223 136.562 334.377 136.562 334.408C136.562 334.424 136.596 334.592 136.596 334.531C136.629 334.778 136.596 334.979 136.494 335.133C136.494 335.149 136.375 335.287 136.426 335.225C136.393 335.272 136.342 335.319 136.291 335.35C136.359 335.303 136.205 335.395 136.189 335.395C136.257 335.364 136.087 335.411 136.07 335.426L136.461 336.276C136.901 335.997 137.614 335.534 138.123 335.797C138.429 335.951 138.547 336.337 138.547 336.692C138.547 337.108 138.259 337.479 137.886 337.788C137.411 338.159 136.817 338.405 136.257 338.653C135.884 338.806 135.968 339.269 136.257 339.455C136.885 339.857 136.868 340.767 136.528 341.338C136.037 342.187 135.001 342.666 134.102 343.113L134.729 343.838C134.848 343.746 135.001 343.715 135.12 343.731C135.341 343.762 135.527 343.854 135.679 343.994C136.07 344.332 136.053 344.858 135.798 345.321C135.476 345.907 134.933 346.339 134.391 346.756C133.797 347.204 133.22 347.636 132.779 348.222C132.507 348.577 132.948 348.995 133.355 348.902C133.491 348.871 133.661 348.886 133.797 348.948C133.967 349.025 134.102 349.149 134.203 349.304C134.442 349.628 134.543 350.044 134.442 350.398C134.153 351.402 132.931 351.974 132.015 352.421C131.557 352.652 131.778 353.285 132.27 353.285C132.626 353.285 132.948 353.486 133.152 353.795C133.389 354.135 133.491 354.551 133.423 354.953C133.254 355.987 132.151 356.774 131.32 357.422C131.031 357.638 131.184 358.132 131.54 358.194C132.151 358.302 132.779 358.411 133.389 358.518C133.288 358.286 133.186 358.055 133.084 357.839C132.456 358.95 131.659 359.939 130.675 360.787C130.352 361.066 130.59 361.59 131.031 361.574C131.608 361.559 132.168 361.543 132.745 361.513C132.575 361.312 132.422 361.127 132.253 360.927C132.134 361.652 131.846 362.33 131.32 362.887C131.082 363.149 131.15 363.566 131.54 363.658C131.676 363.689 131.761 363.782 131.812 363.905C131.879 364.09 131.879 364.26 131.812 364.446C131.625 364.893 131.014 365.202 130.573 365.448C130.013 365.758 130.522 366.561 131.082 366.251C131.812 365.85 132.677 365.341 132.847 364.522C132.999 363.797 132.66 362.963 131.812 362.748L132.032 363.519C132.66 362.84 133.101 362.023 133.237 361.142C133.288 360.865 133.118 360.54 132.745 360.556C132.168 360.571 131.608 360.587 131.031 360.617L131.387 361.404C132.439 360.494 133.305 359.429 133.967 358.255C134.102 358.009 134 357.638 133.661 357.577C133.05 357.468 132.422 357.36 131.812 357.253L132.032 358.024C133.135 357.19 134.391 356.172 134.458 354.768C134.509 353.61 133.644 352.344 132.27 352.328L132.524 353.193C133.797 352.576 135.341 351.711 135.493 350.275C135.628 349.056 134.526 347.682 133.084 347.976C133.271 348.208 133.474 348.439 133.661 348.655C134.17 347.991 134.933 347.544 135.595 347.003C136.257 346.463 136.85 345.753 136.969 344.934C137.088 344.178 136.748 343.484 136.053 343.067C135.408 342.681 134.561 342.666 134 343.16C133.559 343.53 134.119 344.133 134.628 343.885C135.765 343.33 137.02 342.666 137.546 341.523C138.005 340.521 137.818 339.255 136.783 338.622V339.425C138.123 338.853 139.718 337.989 139.582 336.444C139.532 335.844 139.209 335.211 138.582 334.917C137.665 334.5 136.732 334.948 135.968 335.426C135.493 335.735 135.781 336.383 136.359 336.276C137.767 336.013 138.021 334.207 137.122 333.358C136.578 332.832 135.697 332.725 134.967 332.895C134.17 333.08 133.474 333.574 133.084 334.238C132.592 335.055 132.507 336.013 132.575 336.909L133.576 336.784C133.271 335.658 131.862 335.256 130.743 335.518C129.284 335.858 128.69 337.202 128.91 338.483C129.063 339.286 129.521 340.026 130.115 340.628C130.302 340.814 130.658 340.798 130.844 340.628C131.065 340.427 131.014 340.165 130.844 339.964C130.081 339.085 128.656 338.899 127.57 339.347C126.433 339.825 125.975 341.015 126.264 342.078C126.433 342.681 126.84 343.221 127.417 343.545C127.977 343.869 128.469 343.067 127.926 342.742C126.806 342.064 125.296 342.65 124.652 343.623C123.82 344.858 124.448 346.432 125.33 347.481C125.602 347.296 125.873 347.112 126.128 346.911C125.008 345.922 123.26 346.493 122.429 347.528C121.275 348.948 122.158 350.894 122.989 352.252L123.786 351.68C122.65 350.816 121.055 351.402 120.325 352.437C119.341 353.842 120.274 355.6 121.038 356.897C121.309 356.712 121.581 356.526 121.835 356.327C120.885 355.539 119.477 355.801 118.612 356.558C117.594 357.438 117.645 358.812 118.357 359.845C118.798 360.478 119.426 360.988 120.156 361.328C120.291 361.05 120.41 360.757 120.546 360.478C119.222 360.17 118.154 361.281 118.035 362.377C117.882 363.643 118.985 364.708 119.884 365.541C120.291 365.912 120.987 365.434 120.682 364.971C120.02 363.967 118.323 363.951 117.526 364.832C117.051 365.341 116.949 366.02 117.085 366.668C117.22 367.317 117.662 367.872 118.238 368.259C118.934 368.722 119.799 368.921 120.648 368.984C120.919 368.999 121.157 368.753 121.157 368.521C121.157 368.257 120.919 368.073 120.648 368.058L120.665 368.073Z" fill="#144162"/>
<path d="M108.72 380.02C107.957 380.468 106.803 380.36 106.226 379.665C105.666 378.971 105.836 377.952 106.515 377.397C106.803 377.165 106.65 376.686 106.294 376.625C105.259 376.424 104.224 375.668 104.139 374.649C104.055 373.754 104.971 372.689 106.04 372.873C106.006 372.595 105.955 372.302 105.921 372.025C104.988 372.488 103.732 372.287 103.02 371.577C102.29 370.867 102.239 369.601 102.901 368.845C103.121 368.583 103.088 368.151 102.68 368.073C101.527 367.826 100.034 367.549 99.3209 366.606C99.0326 366.236 98.9138 365.803 98.9307 365.356C98.9477 364.971 99.1343 364.6 99.5246 364.4C100.05 364.121 99.6772 363.457 99.1344 363.55C98.2521 363.689 97.3019 363.226 96.9286 362.517C96.5384 361.775 96.7929 360.849 97.4377 360.309C97.6243 360.155 97.6243 359.876 97.4716 359.692C97.3019 359.491 97.0474 359.475 96.8099 359.569C95.8089 359.985 94.5364 359.676 93.8408 358.936C93.1282 358.163 93.1113 356.897 93.7899 356.094C93.9256 355.926 93.9934 355.725 93.8748 355.524C93.7559 355.354 93.5184 355.246 93.2979 355.307C92.2799 355.586 91.1262 355.307 90.3966 354.598C89.6841 353.904 89.4634 352.761 89.8706 351.882C89.9554 351.712 89.9724 351.526 89.8367 351.372C89.7179 351.232 89.4974 351.14 89.2938 351.202C88.8187 351.341 88.3268 351.433 87.8347 351.402C87.4614 351.372 86.9864 351.202 86.8167 350.955C86.7319 350.831 86.6809 350.724 86.6641 350.585C86.6471 350.476 86.6641 350.276 86.6641 350.198C86.7319 349.997 86.7658 349.966 86.7828 349.936C86.8336 349.874 86.8676 349.843 86.9016 349.829C87.0373 349.766 87.0881 349.766 87.1391 349.751L86.7489 348.901C85.3406 349.503 83.8646 348.331 82.9823 347.451C82.7108 347.188 82.4733 346.911 82.2358 346.633C81.9813 346.324 81.7098 346 81.5401 345.645C81.4214 345.383 81.3536 345.09 81.4893 344.812C81.5911 344.595 81.8286 344.394 82.0491 344.457C82.2866 344.502 82.6429 344.395 82.6769 344.132C82.7618 343.592 83.4574 343.33 84.0342 343.453C84.8656 343.623 85.4424 344.363 85.9174 344.951C86.0871 345.166 86.4944 345.305 86.7149 345.043C87.5971 344.039 89.5653 344.179 90.2269 345.336C90.4136 345.645 90.9226 345.629 91.1092 345.336C91.6182 344.549 92.7211 344.148 93.6711 344.41C94.6721 344.688 95.2829 345.645 95.2151 346.555C95.1811 346.926 95.6731 347.127 95.9786 346.957C96.5046 346.68 97.1493 346.741 97.6752 347.004C98.2181 347.266 98.6423 347.744 98.6762 348.27C98.6762 348.454 98.8289 348.686 99.0494 348.717C100.05 348.87 100.746 349.72 100.644 350.63C100.593 351.093 101.374 351.249 101.594 350.862C101.917 350.322 102.748 350.091 103.325 350.384C103.936 350.708 104.072 351.48 103.732 351.989C103.512 352.314 103.885 352.822 104.309 352.668C105.056 352.39 106.091 352.189 106.803 352.668C107.058 352.853 107.227 353.115 107.295 353.394C107.363 353.64 107.329 353.904 107.142 354.104C106.956 354.289 106.939 354.582 107.142 354.767C107.329 354.937 107.685 354.953 107.872 354.767C108.008 354.629 108.11 354.613 108.262 354.644C108.483 354.674 108.686 354.799 108.822 354.953C109.212 355.447 108.958 356.234 108.805 356.758C109.128 356.836 109.467 356.928 109.789 357.006C110.01 356.033 111.435 355.369 112.3 356.002C113.047 356.543 112.894 357.823 111.995 358.179C111.537 358.364 111.757 359.089 112.249 359.043C112.623 359.012 112.826 359.043 113.132 359.259C113.352 359.399 113.556 359.661 113.692 359.938C113.946 360.464 113.912 361.065 113.437 361.451C113.708 361.636 113.98 361.822 114.234 362.023C114.642 361.451 115.744 361.39 116.219 361.929C116.695 362.455 116.389 363.443 115.694 363.674C115.829 363.951 115.948 364.244 116.084 364.523C116.287 364.445 116.593 364.723 116.678 364.94C116.864 365.387 116.559 365.959 116.372 366.36C116.253 366.592 116.304 366.854 116.559 366.993C116.779 367.116 117.153 367.055 117.254 366.823C117.628 366.067 118.001 365.203 117.543 364.4C117.153 363.736 116.338 363.427 115.575 363.72C115.049 363.921 115.422 364.754 115.965 364.57C117.339 364.107 117.95 362.439 117.017 361.359C116.101 360.294 114.133 360.448 113.335 361.544C112.996 362.007 113.725 362.439 114.133 362.115C115.744 360.818 114.387 357.901 112.215 358.102L112.47 358.966C113.675 358.487 114.014 357.053 113.522 356.033C112.945 354.814 111.333 354.535 110.129 355.123C109.45 355.447 108.907 356.033 108.754 356.727C108.619 357.315 109.586 357.561 109.738 356.975C109.993 356.064 110.213 354.953 109.433 354.197C108.839 353.625 107.719 353.425 107.092 354.072C107.329 354.289 107.567 354.505 107.821 354.736C108.568 353.949 108.364 352.761 107.567 352.066C106.617 351.233 105.123 351.325 103.987 351.742C104.173 351.974 104.377 352.205 104.564 352.421C105.208 351.48 104.852 350.106 103.783 349.55C102.714 348.995 101.238 349.38 100.661 350.353L101.611 350.585C101.764 349.288 100.678 347.975 99.2701 347.774C99.3888 347.93 99.5246 348.069 99.6433 348.223C99.5246 346.432 97.1493 345.213 95.4017 346.108C95.6562 346.247 95.9107 346.371 96.1652 346.51C96.2839 345.182 95.2829 343.855 93.8748 343.468C92.4834 343.082 90.8886 343.685 90.1591 344.812H91.0413C90.0912 343.16 87.2069 342.867 85.9174 344.332C86.1889 344.363 86.4604 344.395 86.7149 344.426C86.0532 343.592 85.2388 342.619 84.0342 342.466C83.0332 342.326 81.7777 342.804 81.6081 343.824C81.8116 343.716 82.0322 343.607 82.2358 343.5C81.3874 343.314 80.6749 343.855 80.4034 344.549C80.0979 345.321 80.5561 346.123 81.0311 346.741C81.9643 347.944 83.1349 349.165 84.6789 349.72C85.5103 350.028 86.3926 349.997 87.2069 349.659C87.4274 349.565 87.5123 349.272 87.4106 349.071C87.3088 348.856 87.0712 348.763 86.7997 348.809C85.5781 349.01 85.3067 350.415 85.8157 351.294C86.5113 352.482 88.3098 352.437 89.4974 352.066C89.3108 351.835 89.1072 351.603 88.9206 351.388C88.3267 352.652 88.5303 354.135 89.5483 355.184C90.5154 356.172 92.1272 356.557 93.5014 356.188C93.3318 355.926 93.1621 355.662 93.0094 355.416C91.9914 356.604 91.9576 358.333 93.0094 359.522C94.0274 360.648 95.8429 360.942 97.2681 360.355L96.6403 359.63C95.6392 360.464 95.3678 361.868 95.9616 362.98C96.5724 364.09 98.0146 364.662 99.3209 364.445L98.9307 363.597C97.6583 364.277 97.5734 365.866 98.2521 366.93C99.0664 368.227 100.848 368.645 102.324 368.968L102.103 368.196C101.102 369.37 101.085 371.068 102.171 372.21C103.189 373.275 105.022 373.506 106.362 372.843C106.735 372.658 106.684 372.071 106.243 371.994C104.598 371.716 103.037 373.027 103.037 374.541C103.037 376.022 104.428 377.242 105.955 377.551L105.734 376.779C104.665 377.643 104.496 379.249 105.361 380.267C106.226 381.302 107.974 381.564 109.162 380.854C109.704 380.53 109.195 379.727 108.652 380.052L108.72 380.02Z" fill="#144162"/>
<path d="M88.412 348.485C91.2624 349.72 93.96 351.263 96.4032 353.085C98.8802 354.906 101.12 356.99 103.139 359.229C105.209 361.544 107.024 364.06 108.585 366.684C110.265 369.509 111.673 372.457 112.827 375.482C113.997 378.538 114.931 381.673 115.694 384.836C115.796 385.238 115.881 385.623 115.966 386.025C116.016 386.272 116.339 386.411 116.593 386.348C116.882 386.272 117.001 386.025 116.95 385.778C116.237 382.583 115.338 379.403 114.218 376.301C113.081 373.197 111.724 370.157 110.078 367.255C108.517 364.508 106.702 361.884 104.615 359.444C102.647 357.129 100.424 354.998 97.981 353.085C95.5379 351.187 92.8572 349.52 90.0069 348.176C89.6505 348.006 89.2942 347.852 88.938 347.698C88.6835 347.59 88.378 347.637 88.2424 347.868C88.1066 348.069 88.1745 348.393 88.429 348.501L88.412 348.485Z" fill="white"/>
<path d="M131.336 343.67C129.47 349.087 127.62 354.521 126.144 360.032C124.685 365.48 123.599 371.037 123.311 376.655C123.141 379.804 123.226 382.953 123.633 386.071C123.667 386.319 123.854 386.534 124.142 386.534C124.397 386.534 124.685 386.319 124.651 386.071C123.939 380.53 124.227 374.926 125.126 369.417C126.043 363.859 127.553 358.395 129.283 352.992C130.25 349.952 131.285 346.926 132.337 343.901C132.541 343.33 131.54 343.082 131.353 343.654L131.336 343.67Z" fill="white"/>
<path d="M157.89 350.476C155.378 352.607 152.884 354.752 150.474 356.975C148.066 359.198 145.724 361.482 143.552 363.89C141.432 366.252 139.447 368.721 137.716 371.33C136.037 373.877 134.577 376.563 133.441 379.357C132.304 382.15 131.506 385.053 131.133 388.016C131.082 388.372 131.048 388.741 131.014 389.097C130.997 389.343 131.269 389.56 131.523 389.56C131.812 389.56 132.015 389.343 132.032 389.097C132.304 386.194 132.999 383.339 134.035 380.591C135.069 377.829 136.443 375.174 138.056 372.642C139.684 370.064 141.568 367.626 143.603 365.309C145.724 362.902 147.998 360.602 150.373 358.395C152.749 356.172 155.208 354.041 157.685 351.927C157.991 351.665 158.297 351.402 158.602 351.14C159.077 350.724 158.365 350.075 157.872 350.476H157.89Z" fill="white"/>
<path d="M155.445 380.715H94.6543V394.129C101.271 394.129 106.633 399.007 106.633 405.026V420.955C106.633 430.218 114.878 437.72 125.058 437.72C135.237 437.72 143.484 430.218 143.484 420.955V405.026C143.484 399.007 148.846 394.129 155.462 394.129V380.715H155.445Z" fill="#FF916C"/>
<path d="M157.279 424.305H92.8066C92.8066 432.64 100.238 439.386 109.383 439.386H140.703C149.865 439.386 157.279 432.625 157.279 424.305Z" fill="#4D5DB5"/>
<path d="M97.217 393.187H151.153C151.815 393.187 151.815 392.261 151.153 392.261H97.217C96.5553 392.261 96.5553 393.187 97.217 393.187Z" fill="#D07F69"/>
<path d="M108.448 414.334C109.754 412.59 111.043 410.845 112.35 409.102C112.078 409.132 111.807 409.163 111.552 409.194C113.012 410.722 114.284 412.39 115.387 414.149C115.591 414.473 116.049 414.412 116.269 414.149C117.915 412.158 119.764 410.306 121.783 408.622C121.512 408.592 121.24 408.561 120.986 408.53C122.275 410.274 123.327 412.173 124.108 414.164C124.26 414.55 124.786 414.627 125.041 414.273C126.228 412.636 127.603 411.138 129.164 409.78C129.554 409.441 129.961 409.116 130.368 408.792C130.521 408.669 130.691 408.515 130.877 408.438C131.047 408.376 131.132 408.438 131.234 408.546C131.573 408.885 131.81 409.364 132.065 409.749C132.353 410.212 132.642 410.661 132.913 411.138C133.524 412.189 134.101 413.254 134.627 414.334C134.779 414.658 135.34 414.612 135.509 414.334C136.832 412.296 138.376 410.382 140.141 408.638C139.869 408.608 139.598 408.577 139.343 408.546C140.243 409.734 141.124 410.923 142.024 412.095C142.177 412.296 142.465 412.39 142.719 412.265C142.94 412.142 143.059 411.833 142.907 411.632L140.225 408.083C140.057 407.852 139.666 407.758 139.428 407.989C137.613 409.78 136.001 411.757 134.644 413.871H135.526C135.017 412.822 134.474 411.787 133.88 410.784C133.575 410.259 133.27 409.749 132.93 409.241C132.642 408.792 132.37 408.299 131.997 407.913C131.59 407.481 130.979 407.356 130.402 407.62C129.893 407.852 129.452 408.284 129.028 408.622C128.163 409.333 127.331 410.105 126.568 410.907C125.686 411.818 124.888 412.791 124.159 413.81C124.464 413.84 124.786 413.886 125.092 413.918C124.294 411.849 123.208 409.888 121.868 408.067C121.681 407.805 121.325 407.758 121.071 407.975C118.984 409.718 117.084 411.632 115.404 413.686H116.286C115.149 411.864 113.792 410.136 112.282 408.546C112.045 408.299 111.654 408.407 111.485 408.638C110.178 410.382 108.889 412.127 107.582 413.871C107.209 414.365 108.091 414.828 108.465 414.334H108.448Z" fill="#D07F69"/>
<path d="M102.647 383.293H135.052C135.715 383.293 135.715 382.367 135.052 382.367H102.647C101.985 382.367 101.985 383.293 102.647 383.293Z" fill="#D07F69"/>
<path d="M94.334 50.5593V118.924C94.334 119.635 95.5555 119.635 95.5555 118.924V50.5593C95.5555 49.8494 94.334 49.8494 94.334 50.5593Z" fill="#443923"/>
<path d="M513.03 44.3848H46.8945V66.9209H513.03V44.3848Z" fill="#D07F69"/>
<path d="M513.03 69.8691H46.8945V92.4049H513.03V69.8691Z" fill="#D07F69"/>
<path d="M513.03 95.353H46.8945V117.889H513.03V95.353Z" fill="#D07F69"/>
<path d="M110.756 756.003C126.925 754.12 143.093 752.237 159.279 750.338C164.505 749.736 170.223 748.888 173.684 745.276C174.804 744.118 175.635 742.528 175.177 741.046C174.567 739.056 172.055 738.159 169.833 737.696C156.854 735.01 143.314 737.157 130.216 739.302C121.326 740.753 112.435 742.219 103.545 743.67L110.756 755.989V756.003Z" fill="#5C4CA0"/>
<path d="M334.426 699.632C343.773 687.47 353.105 675.321 362.454 663.158C365.474 659.237 368.629 654.823 368.019 650.068C367.816 648.54 367.103 646.919 365.593 646.225C363.557 645.284 361.148 646.379 359.282 647.568C348.355 654.498 341.009 665.057 333.933 675.321C329.148 682.283 324.347 689.259 319.562 696.221L334.426 699.648V699.632Z" fill="#4D5DB5"/>
<path d="M171.971 639.341C161.91 661.552 153.173 684.258 145.81 707.319C143.57 714.312 141.245 721.691 135.494 726.753C124.143 736.772 100.407 738.87 88.1406 747.962C98.6258 749.027 143.163 744.103 146.828 743.594C151.238 742.976 155.751 743.84 160.214 743.625C164.676 743.408 169.596 741.664 171.174 737.852C172.26 735.213 171.463 732.279 171.293 729.454C170.75 720.162 177.112 711.857 182.949 704.202C201.307 680.138 217.425 653.696 221.921 624.692L171.971 639.325V639.341Z" fill="#FFAF80"/>
<path d="M285.155 583.494C295.794 605.475 307.737 626.93 320.92 647.753C324.907 654.065 329.149 660.703 329.184 667.974C329.251 682.36 313.218 693.303 311.928 707.644C322.6 714.975 351.477 672.08 359.689 663.451C362.607 660.379 364.642 655.934 362.709 652.275C361.368 649.728 358.484 648.231 356.143 646.379C348.389 640.297 346.217 630.372 344.182 621.25C337.802 592.539 328.013 563.643 308.128 540.597L285.139 583.51L285.155 583.494Z" fill="#FFAF80"/>
<path d="M427.147 255.777C420.378 255.777 414.881 250.776 414.881 244.617C414.881 238.459 420.378 233.458 427.147 233.458C433.916 233.458 439.414 238.459 439.414 244.617C439.414 250.776 433.916 255.777 427.147 255.777ZM427.147 234.322C420.903 234.322 415.831 238.936 415.831 244.617C415.831 250.297 420.903 254.912 427.147 254.912C433.39 254.912 438.464 250.297 438.464 244.617C438.464 238.936 433.39 234.322 427.147 234.322Z" fill="white"/>
<path d="M426.638 187.783C429.573 183.615 436.054 183.492 441.042 185.021C446.03 186.548 450.798 189.264 456.058 189.203C459.467 189.172 462.759 187.953 466.136 187.412C475.247 185.992 484.985 190.114 489.905 197.461C491.551 199.932 492.739 202.771 495.079 204.685C498.152 207.217 502.528 207.602 506.363 208.899C515.236 211.909 521.479 220.723 521.106 229.692C520.818 236.328 517.459 243.63 521.259 249.186C523.584 252.583 527.859 254.173 531.507 256.256C553.258 268.682 543.587 293.533 543.587 293.533C543.587 293.533 518.731 293.595 518.731 293.533C517.646 289.643 515.848 284.148 513.455 280.829C511.877 284.334 511.249 289.751 511.639 293.533C507.007 294.738 502.173 294.398 497.472 293.533C492.773 292.669 488.31 289.026 488.361 284.472C487.819 286.926 487.259 289.381 486.715 291.835C464.473 293.023 442.162 293.07 419.935 291.96C418.867 288.069 417.781 284.179 416.712 280.29C415.134 283.978 413.557 287.652 411.979 291.341C406.719 290.462 401.459 289.567 396.217 288.686C395.826 285.414 395.437 282.142 395.029 278.87C393.689 282.218 392.366 285.568 391.025 288.918C385.494 288.348 379.979 287.791 374.449 287.221C381.439 282.05 377.333 271.769 377.096 263.402C376.893 256.071 380.489 248.708 386.545 244.093C394.266 238.211 406.634 235.109 407.687 225.816C408.127 221.88 406.159 218.098 405.668 214.179C404.513 204.808 426.655 187.799 426.655 187.799L426.638 187.783Z" fill="#3F3622"/>
<path d="M383.849 412.837C413.794 424.259 444.927 433.119 476.689 439.263C474.908 456.766 471.464 474.117 466.424 491.081C462.589 503.984 457.5 517.136 447.15 526.629C430.574 541.818 404.854 544.086 381.372 545.475C344.911 547.622 308.433 549.767 271.972 551.912C248.575 590.672 228.113 630.898 210.825 672.219C178.08 669.363 145.521 664.594 113.438 657.972C128.453 617.083 146.862 577.305 165.254 537.557C170.869 525.424 176.485 513.277 183.374 501.7C187.207 495.248 191.534 488.872 197.727 484.166C205.225 478.454 214.829 475.66 224.279 473.361C245.419 468.204 267.085 464.84 288.904 463.312C301.511 462.431 314.659 462.062 325.824 456.674C331.643 453.88 336.596 449.851 341.518 445.854C355.277 434.678 369.036 423.502 382.78 412.327L383.849 412.837Z" fill="#103150"/>
<path d="M433.441 308.645C444.842 309.356 436.206 309.278 446.658 309.155C461.266 308.985 475.992 308.784 490.228 305.882C497.947 304.308 505.989 302.749 513.471 305.111C536.02 312.226 538.462 336.322 541.126 345.845C548.66 372.765 547.829 410.661 535.121 431.931C524.5 433.289 508.399 426.914 497.777 428.272C492.875 412.636 498.999 401.954 496.301 385.901C492.959 404.563 482.609 421.079 476.655 439.186C476.332 440.189 446.505 436.377 421.632 429.167C399.931 422.886 382.711 413.207 382.711 412.357C382.728 402.216 383.881 388.557 383.899 378.415C373.719 393.218 362.233 407.28 349.576 420.4C339.752 414.828 324.822 399.608 314.998 394.035C328.894 375.883 361.486 324.035 390.21 311.716C410.213 303.134 433.407 308.661 433.407 308.661L433.441 308.645Z" fill="#4D5DB5"/>
<path d="M528.285 416.772C505.532 404.686 481.457 394.637 456.534 386.858C458.348 381.208 459.808 375.451 460.893 369.631C461.556 366.08 462.081 362.376 461.012 358.903C458.604 351.077 449.544 347.326 440.636 345.041C439.415 344.734 438.566 346.137 439.499 346.91C442.333 349.286 445.404 351.448 448.645 353.361C443.893 350.368 438.821 347.789 433.51 345.705C432.085 345.15 430.626 346.493 431.287 347.758C433.375 351.788 437.226 355.06 441.841 356.572L428.98 350.491C428.115 350.073 427.096 350.737 427.233 351.618C427.962 356.31 432.288 360.509 437.515 361.157C434.681 359.088 431.44 357.483 427.996 356.418C427.691 356.326 427.386 356.248 427.063 356.217C423.568 355.863 423.466 357.452 425.179 359.366C426.639 361.003 428.725 364.09 430.439 365.51C434.528 368.891 434.511 374.756 433.171 379.649C431.848 384.527 429.522 389.374 430.1 394.375C430.422 397.106 431.643 399.762 433.561 401.892C435.902 404.486 439.143 406.244 442.316 407.942L507.076 442.534C511.234 444.756 516.324 444.988 520.718 443.152L527.012 440.511C531 438.845 533.951 435.65 535.087 431.791C536.801 425.957 534.02 419.782 528.285 416.741V416.772Z" fill="#FFAF80"/>
<path d="M418.374 210.874C418.018 225.816 418.85 241.9 418.85 241.9L400.814 243.552L417.424 258.34C417.424 258.34 416.695 270.997 418.188 275.519C419.851 280.567 425.348 283.947 431.014 285.043C436.681 286.139 442.551 285.367 448.286 284.611C448.354 291.819 448.423 299.012 448.49 306.221C448.37 306.129 440.125 310.065 425.975 307.209C434.56 324.789 430.811 337.957 451.918 336.891C473.023 335.826 487.683 325.809 492.399 304.708L482.575 305.064C482.575 305.064 478.385 270.718 478.435 261.319C484.391 265.564 492.704 266.242 498.829 262.214C504.97 258.184 506.939 249.448 502.341 243.984C497.726 238.52 482.966 244.23 482.966 244.23L480.93 208.868L418.374 210.874Z" fill="#FFAF80"/>
<path d="M425.619 188.261C419.834 191.379 413.879 194.636 409.485 199.344C407.296 201.69 405.633 204.33 404.548 207.248C403.478 210.133 402.919 213.159 402.274 216.138C401.647 219.055 400.967 222.034 399.577 224.736C398.099 227.623 395.793 229.846 392.993 231.729C390.143 233.642 387.089 235.279 384.493 237.486C382.118 239.524 380.099 241.915 378.504 244.509C375.331 249.711 373.838 255.793 374.5 261.72C374.584 262.476 374.703 263.218 374.839 263.958C374.993 264.777 376.349 264.421 376.197 263.618C375.059 257.846 376.111 251.764 378.945 246.516C380.353 243.892 382.186 241.468 384.408 239.354C386.784 237.1 389.634 235.433 392.433 233.658C395.249 231.868 397.896 229.891 399.694 227.205C401.391 224.689 402.341 221.834 403.037 218.979C403.75 216.062 404.243 213.081 405.056 210.18C405.871 207.279 407.058 204.531 408.942 202.061C412.759 197.06 418.561 193.618 424.194 190.53C424.908 190.145 425.603 189.758 426.315 189.373C427.095 188.957 426.383 187.844 425.603 188.261H425.619Z" fill="#3F3622"/>
<path d="M510.571 217.451C512.913 217.744 514.524 219.381 515.677 221.155C517.086 223.316 518.069 225.771 518.884 228.164C519.715 230.649 520.309 233.179 520.665 235.757C520.988 238.088 521.208 240.434 521.785 242.718C522.346 244.927 523.278 247.041 524.856 248.801C526.519 250.637 528.793 251.888 530.947 253.169C535.223 255.701 538.633 258.988 541.416 262.878C544.52 267.231 546.828 272.001 549.067 276.754C549.424 277.511 550.646 276.863 550.289 276.107C546.302 267.709 541.942 258.803 533.578 253.261C531.422 251.827 529.013 250.7 527.045 249.047C525.128 247.426 523.974 245.343 523.312 243.058C522.651 240.79 522.43 238.443 522.125 236.113C521.768 233.503 521.242 230.926 520.428 228.41C519.563 225.724 518.477 222.946 516.899 220.522C515.575 218.5 513.642 216.57 510.944 216.232C510.571 216.185 510.198 216.308 510.078 216.679C509.977 216.972 510.198 217.42 510.571 217.466V217.451Z" fill="#3F3622"/>
<path opacity="0.46" d="M448.287 284.611L467.239 276.461L448.932 296.018L448.287 284.611Z" fill="#BF6F41"/>
<path d="M486.393 256.318C488.904 253.554 491.772 251.085 494.962 248.985C495.267 248.785 495.419 248.43 495.216 248.106C495.046 247.828 494.555 247.674 494.249 247.875C490.957 250.036 487.988 252.566 485.392 255.408C484.815 256.039 485.816 256.951 486.393 256.318Z" fill="#944F2C"/>
<path d="M491.127 252.737C491.347 252.907 491.433 252.984 491.501 253.046C491.585 253.122 491.653 253.2 491.72 253.277C491.772 253.339 491.806 253.37 491.839 253.417C491.958 253.57 492.06 253.724 492.144 253.894C492.162 253.941 492.197 253.987 492.213 254.034C492.263 254.142 492.298 254.249 492.332 254.343C492.4 254.527 492.433 254.697 492.467 254.882C492.467 254.944 492.467 255.006 492.484 255.052C492.484 255.144 492.484 255.238 492.484 255.33C492.484 255.437 492.484 255.531 492.484 255.638C492.433 255.994 492.383 256.195 492.314 256.379C492.197 256.703 492.451 257.074 492.807 257.166C493.197 257.26 493.553 257.043 493.672 256.719C494.351 254.867 493.536 252.784 491.839 251.626C491.534 251.425 491.059 251.579 490.872 251.858C490.668 252.181 490.821 252.521 491.127 252.737Z" fill="#944F2C"/>
<path d="M420.02 266.736C423.822 266.906 427.571 265.008 429.437 261.997C429.878 261.272 428.673 260.639 428.216 261.349C426.57 263.988 423.329 265.594 420.02 265.439C419.121 265.394 419.121 266.674 420.02 266.721V266.736Z" fill="#944F2C"/>
<path d="M435.001 247.936C435.001 249.958 433.728 251.595 432.151 251.595C430.573 251.595 429.301 249.958 429.301 247.936C429.301 245.914 430.573 244.279 432.151 244.279C433.728 244.279 435.001 245.914 435.001 247.936Z" fill="#010101"/>
<path d="M429.301 231.652C429.946 232.671 429.657 234.244 430.794 234.832C431.422 235.156 432.202 234.986 432.897 234.801C436.631 233.828 440.804 232.763 444.264 234.4C441.041 230.355 434.442 228.919 429.572 231.204L429.301 231.652Z" fill="#3F3622"/>
<path d="M435.799 258.864C428.911 258.864 423.295 253.771 423.295 247.488C423.295 241.206 428.893 236.111 435.799 236.111C442.704 236.111 448.303 241.206 448.303 247.488C448.303 253.771 442.704 258.864 435.799 258.864ZM435.799 237.408C429.691 237.408 424.72 241.931 424.72 247.488C424.72 253.046 429.691 257.568 435.799 257.568C441.906 257.568 446.878 253.046 446.878 247.488C446.878 241.931 441.906 237.408 435.799 237.408Z" fill="white"/>
<path d="M417.172 241.53C419.207 240.079 422.753 241.329 423.329 243.599C423.533 244.402 424.891 244.062 424.687 243.259C424.279 241.653 422.854 240.481 421.192 239.94C419.496 239.399 417.612 239.6 416.187 240.62C415.882 240.835 415.933 241.298 416.187 241.53C416.476 241.792 416.883 241.747 417.188 241.53H417.172Z" fill="white"/>
<path d="M447.322 246.654C456.771 246.685 466.222 246.254 475.622 245.343C478.302 245.08 480.983 244.787 483.646 244.447C484.019 244.401 484.223 243.968 484.138 243.66C484.037 243.29 483.646 243.167 483.273 243.212C473.976 244.37 464.609 245.064 455.228 245.296C452.598 245.359 449.968 245.39 447.322 245.373C446.422 245.373 446.405 246.654 447.322 246.654Z" fill="white"/>
<path d="M493.57 241.407C491.483 228.703 487.343 216.91 485.274 204.222C485.087 203.111 484.866 201.923 483.967 201.135C482.831 200.147 481.049 200.116 479.454 200.132C457.262 200.502 435.088 201.675 413.014 203.667C413.489 204.747 413.981 205.828 414.456 206.908L415.864 206.738C418.799 212.001 421.989 217.543 427.656 220.692C433.866 224.15 441.755 224.042 448.864 225.771C456.703 227.67 463.353 232.239 468.511 237.703C474.721 244.278 475.501 246.531 475.535 248.723C475.569 251.595 471.971 253.972 468.986 253.077C473.058 255.777 479.25 253.061 481.406 248.909C482.27 247.242 482.661 245.467 482.796 243.646C488.242 243.028 493.604 241.423 493.604 241.423L493.57 241.407Z" fill="#3F3622"/>
<path d="M427.385 357.129C433.645 359.012 439.21 362.562 443.35 367.223C443.926 367.872 444.911 366.961 444.35 366.313C440.058 361.481 434.256 357.838 427.774 355.878C426.91 355.615 426.537 356.851 427.401 357.113L427.385 357.129Z" fill="#944F2C"/>
<path d="M432.627 352.575C439.007 355.121 444.486 359.336 448.253 364.677C448.745 365.371 449.967 364.723 449.474 364.027C445.59 358.518 439.939 354.103 433.34 351.464C432.525 351.139 431.796 352.235 432.627 352.575Z" fill="#944F2C"/>
<path d="M441.127 350.276C447.573 352.189 453.105 356.295 456.481 361.636C456.94 362.345 458.144 361.712 457.703 360.987C454.139 355.353 448.287 351.046 441.5 349.04C440.634 348.778 440.261 350.028 441.127 350.276Z" fill="#944F2C"/>
<path d="M441.602 369.508C447.235 366.869 452.884 364.213 458.517 361.573C459.331 361.204 458.619 360.092 457.804 360.462C452.171 363.101 446.522 365.756 440.889 368.397C440.075 368.766 440.787 369.878 441.602 369.508Z" fill="#944F2C"/>
<path d="M456.059 387.599L448.543 394.637C447.915 395.225 448.899 396.135 449.544 395.549C452.054 393.203 454.548 390.855 457.06 388.509C457.687 387.923 456.704 387.012 456.059 387.599Z" fill="#944F2C"/>
<path d="M239.515 446.578C238.735 439.864 227.214 391.843 221.259 367.316C219.46 359.907 225.619 352.884 233.95 352.806L350.101 351.772C356.38 351.71 361.808 355.709 363.081 361.296L382.491 446.594H239.532L239.515 446.578Z" fill="#28100C"/>
<path d="M378.674 436.422H440.737V446.579H376.264L378.674 436.422Z" fill="#28100C"/>
<path d="M348.489 357.021C350.254 356.449 352.188 357.035 353.579 358.101C355.124 359.289 356.142 360.926 357.125 362.515C357.567 363.241 358.789 362.593 358.347 361.868C357.227 360.061 356.056 358.194 354.207 356.912C352.51 355.724 350.204 355.091 348.116 355.771C347.268 356.048 347.641 357.283 348.489 357.004V357.021Z" fill="#F9F9FA"/>
<path d="M380.303 437.733C378.505 437.733 377.232 439.262 377.146 440.79C377.08 442.134 377.877 443.568 379.183 444.232C380.608 444.943 382.338 444.619 383.509 443.646C384.68 442.673 385.037 441.068 384.154 439.818C383.204 438.491 381.286 437.827 379.691 438.536C379.353 438.692 379.251 439.139 379.437 439.417C379.641 439.741 380.065 439.802 380.405 439.649C380.778 439.479 381.202 439.479 381.66 439.602C382.084 439.71 382.457 439.942 382.78 440.282C383.391 440.898 383.407 441.81 382.813 442.458C382.475 442.843 382.033 443.105 381.576 443.244C381.083 443.384 380.659 443.4 380.184 443.244C379.811 443.121 379.369 442.812 379.132 442.504C378.81 442.103 378.657 441.747 378.573 441.238C378.573 441.345 378.573 441.13 378.573 441.13C378.573 441.068 378.573 440.991 378.573 440.915C378.573 440.837 378.573 440.775 378.573 440.714C378.573 440.714 378.606 440.513 378.573 440.605C378.589 440.466 378.64 440.327 378.675 440.204C378.725 440.081 378.741 440.034 378.843 439.88C379.166 439.37 379.691 438.999 380.286 438.999C381.185 438.999 381.202 437.719 380.286 437.719L380.303 437.733Z" fill="#F9F9FA"/>
<path d="M387.512 439.093H431.677C432.576 439.093 432.593 437.811 431.677 437.811H387.512C386.613 437.811 386.597 439.093 387.512 439.093Z" fill="#F9F9FA"/>
<path d="M231.32 356.11C226.519 356.68 222.615 360.601 222.633 365.047C222.633 365.865 224.041 365.881 224.041 365.047C224.041 361.374 227.281 357.87 231.32 357.391C231.693 357.344 232.031 357.129 232.031 356.743C232.031 356.434 231.71 356.063 231.32 356.094V356.11Z" fill="#F9F9FA"/>
<path d="M378.861 456.504C355.193 450.36 335.512 435.666 313.541 425.586C289.16 414.395 262.099 408.962 235.173 404.793C224.874 403.204 214.236 401.784 204.056 403.945C183.407 408.329 169.257 427.053 166.171 446.147C163.082 465.24 169.003 484.566 176.417 502.642C195.165 548.269 224.026 590.439 260.758 625.88C261.284 626.389 261.843 626.915 262.574 627.161C263.829 627.579 265.203 627.053 266.425 626.544C293.13 615.215 321.26 606.678 350.086 601.183C334.579 571.269 321.6 540.289 311.267 508.583C336.106 493.596 359.316 476.385 380.456 457.276L378.827 456.534L378.861 456.504Z" fill="#103150"/>
<path d="M249.457 433.396C255.515 440.714 261.385 448.153 267.069 455.717C272.769 463.312 278.283 471.013 283.611 478.825C288.922 486.604 294.028 494.492 298.932 502.488C303.852 510.483 308.569 518.571 313.082 526.752C317.595 534.933 321.904 543.207 326.01 551.573C326.519 552.623 327.027 553.672 327.537 554.707C327.842 555.34 328.86 555.494 329.471 555.17C330.184 554.783 330.286 554.058 329.98 553.41C325.925 545.028 321.667 536.723 317.205 528.528C312.725 520.285 308.043 512.134 303.156 504.092C298.287 496.082 293.231 488.163 287.971 480.353C282.712 472.542 277.265 464.84 271.633 457.26C266 449.681 260.18 442.195 254.174 434.848C253.427 433.937 252.665 433.011 251.918 432.101C251.459 431.544 250.696 431.267 249.983 431.638C249.389 431.962 249.016 432.841 249.475 433.396H249.457Z" fill="#D8D8D8"/>
<path d="M264.304 435.928C266.916 444.156 269.529 452.367 272.159 460.595C272.668 462.169 275.383 461.505 274.873 459.915C272.261 451.689 269.648 443.476 267.019 435.25C266.509 433.674 263.794 434.338 264.304 435.928Z" fill="#D8D8D8"/>
<path d="M273.669 461.597C285.426 459.19 297.236 457.045 309.111 455.162C320.853 453.31 332.661 451.704 344.487 450.376C351.189 449.62 357.908 448.956 364.626 448.385C365.39 448.323 366.034 447.845 366.034 447.104C366.034 446.455 365.39 445.76 364.626 445.823C352.546 446.873 340.484 448.184 328.488 449.759C316.56 451.333 304.684 453.17 292.858 455.285C286.19 456.473 279.54 457.754 272.922 459.112C272.176 459.267 271.751 460.04 271.939 460.687C272.142 461.382 272.922 461.737 273.669 461.583V461.597Z" fill="#D8D8D8"/>
<path d="M179.896 516.749C187.31 528.712 194.945 540.566 202.783 552.298C210.588 563.967 218.596 575.528 226.824 586.966C231.456 593.404 236.14 599.794 240.907 606.153C241.331 606.725 242.145 606.987 242.841 606.616C243.468 606.292 243.773 605.443 243.349 604.856C234.85 593.512 226.57 582.027 218.493 570.435C210.452 558.888 202.631 547.235 195.013 535.457C190.72 528.835 186.512 522.167 182.355 515.469C181.456 514.033 179.03 515.33 179.929 516.764L179.896 516.749Z" fill="#D8D8D8"/>
<path d="M318.425 682.113C324.873 687.53 331.574 692.717 338.513 697.626C333.458 706.424 323.329 712.629 312.453 713.555C311.453 713.648 310.35 713.664 309.535 713.123C308.382 712.351 308.313 710.838 308.382 709.542C308.992 699.554 318.409 682.097 318.409 682.097L318.425 682.113Z" fill="#4D5DB5"/>
<path d="M116.61 730.581C116.543 738.577 116.831 746.573 117.493 754.537C106.94 757.054 95.0801 754.399 87.0041 747.714C86.2574 747.097 85.4941 746.372 85.3922 745.461C85.2396 744.164 86.4271 743.1 87.5299 742.281C96.0641 735.983 116.593 730.581 116.593 730.581H116.61Z" fill="#4D5DB5"/>
<path d="M338.753 650.747C338.344 651.982 338.633 653.371 339.431 654.436C340.262 655.548 341.501 656.304 342.994 656.458C343.368 656.489 343.706 656.135 343.706 655.811C343.706 655.44 343.384 655.208 342.994 655.162C342.84 655.131 342.756 655.131 342.688 655.116C342.553 655.085 342.418 655.055 342.281 655.008C342.128 654.946 342.06 654.915 342.009 654.899C341.89 654.838 341.773 654.776 341.653 654.715C341.28 654.483 340.856 654.096 340.602 653.742C340.279 653.295 340.127 652.97 340.008 652.43C340.008 652.414 339.974 652.244 339.99 652.291C339.99 652.353 339.99 652.183 339.99 652.152C339.99 652.029 339.99 651.906 339.99 651.766C339.99 651.705 339.99 651.642 339.99 651.58C340.025 651.365 340.059 651.226 340.109 651.103C340.381 650.314 339.007 649.976 338.753 650.763V650.747Z" fill="#944F2C"/>
<path d="M156.158 718.773C153.138 720.193 151.951 723.913 153.562 726.614C153.987 727.339 155.208 726.692 154.784 725.966C153.529 723.851 154.563 720.98 156.889 719.884C157.686 719.499 156.973 718.402 156.176 718.773H156.158Z" fill="#944F2C"/>
<path d="M256.481 618.069C266.323 613.037 276.196 608.022 286.376 603.545C296.421 599.13 306.787 595.256 317.544 592.57C323.55 591.073 329.674 589.946 335.851 589.313C336.614 589.236 337.259 588.773 337.259 588.032C337.259 587.399 336.614 586.674 335.851 586.751C324.534 587.893 313.505 590.579 302.868 594.252C292.213 597.926 281.948 602.511 271.904 607.389C266.237 610.136 260.639 612.992 255.04 615.862C253.461 616.665 254.87 618.888 256.465 618.069H256.481Z" fill="#D8D8D8"/>
<path d="M376.891 451.056C385.628 455.903 394.01 461.273 401.934 467.155C404.174 468.822 406.379 470.519 408.551 472.264C409.127 472.727 409.976 472.773 410.535 472.264C411.045 471.801 411.113 470.906 410.535 470.458C402.714 464.176 394.418 458.388 385.731 453.139C383.288 451.658 380.81 450.237 378.316 448.848C376.756 447.983 375.347 450.206 376.891 451.056Z" fill="#D8D8D8"/>
<path d="M385.306 453.015C393.518 455.254 401.407 458.356 408.839 462.261C410.416 463.095 411.825 460.872 410.264 460.054C402.646 456.041 394.503 452.846 386.07 450.546C384.323 450.067 383.594 452.552 385.324 453.015H385.306Z" fill="#D8D8D8"/>
<path d="M121.836 650.67C132.813 653.896 143.96 656.69 155.209 659.036C166.458 661.383 177.824 663.266 189.261 664.701C195.776 665.52 202.307 666.183 208.839 666.708C209.603 666.77 210.248 666.075 210.248 665.427C210.248 664.686 209.603 664.207 208.839 664.145C197.438 663.235 186.071 661.861 174.788 660.04C163.471 658.202 152.223 655.934 141.127 653.201C134.899 651.674 128.724 650.007 122.599 648.2C121.87 647.985 121.056 648.447 120.869 649.095C120.665 649.79 121.123 650.454 121.853 650.67H121.836Z" fill="#F9F9FA"/>
<path d="M386.411 323.756C382.66 331.29 380.59 339.346 378.86 347.42C377.095 355.615 374.771 364.197 377.588 372.425C379.013 376.592 381.439 380.436 384.273 383.941C384.73 384.496 385.494 384.774 386.206 384.404C386.818 384.08 387.157 383.215 386.716 382.644C384.306 379.665 382.152 376.454 380.778 372.95C379.302 369.231 378.86 365.387 379.183 361.45C379.505 357.375 380.473 353.361 381.321 349.349C382.152 345.428 383.034 341.523 384.12 337.664C385.342 333.357 386.835 329.097 388.853 325.037C389.159 324.404 389.058 323.664 388.344 323.277C387.734 322.954 386.733 323.107 386.411 323.74V323.756Z" fill="#144162"/>
<path d="M499.067 385.561C500.441 378.584 501.901 371.607 503.445 364.66C504.989 357.715 506.635 350.769 508.348 343.853C509.315 339.948 510.316 336.043 511.352 332.153C511.776 330.548 509.061 329.868 508.637 331.474C506.821 338.374 505.091 345.289 503.445 352.22C501.8 359.151 500.238 366.112 498.762 373.073C497.931 377.01 497.134 380.946 496.354 384.881C496.217 385.561 496.557 386.271 497.337 386.457C498.016 386.627 498.932 386.24 499.067 385.561Z" fill="#144162"/>
<path d="M511.3 339.625C508.417 342.882 505.939 346.4 503.972 350.182C503.649 350.8 503.785 351.571 504.48 351.942C505.09 352.266 506.075 352.112 506.414 351.479C508.28 347.914 510.589 344.517 513.302 341.446C513.778 340.905 513.88 340.165 513.302 339.639C512.811 339.192 511.793 339.1 511.318 339.639L511.3 339.625Z" fill="#144162"/>
<path d="M501.274 401.321C512.318 403.127 524.212 405.072 532.848 412.142C534.969 413.886 536.8 415.861 538.209 418.115C539.109 419.551 541.552 418.254 540.635 416.819C534.816 407.573 523.483 403.081 512.556 400.749C509.061 400.009 505.531 399.423 502.02 398.852C501.274 398.729 500.492 399.036 500.289 399.747C500.103 400.364 500.527 401.198 501.274 401.321Z" fill="#144162"/>
<path d="M407.991 384.265C412.537 384.404 416.983 385.639 420.851 387.815C422.395 388.679 423.82 386.471 422.277 385.607C417.985 383.199 413.03 381.857 407.991 381.702C406.175 381.64 406.175 384.218 407.991 384.265Z" fill="#144162"/>
<path d="M412.014 388.54H412.2C412.386 388.571 412.166 388.555 412.098 388.54C412.217 388.571 412.335 388.571 412.454 388.602C412.692 388.649 412.929 388.694 413.167 388.756C413.404 388.817 413.642 388.88 413.863 388.956C413.981 388.987 414.1 389.034 414.202 389.081C414.253 389.096 414.321 389.126 414.372 389.142C414.236 389.096 414.133 389.049 414.321 389.142C414.762 389.327 415.203 389.544 415.611 389.775C415.712 389.837 415.814 389.898 415.916 389.96C415.967 389.991 416.017 390.022 416.068 390.052C416.102 390.068 416.272 390.192 416.102 390.083C415.933 389.96 416.102 390.083 416.137 390.114C416.187 390.145 416.238 390.192 416.272 390.222C416.373 390.3 416.475 390.392 416.577 390.47C417.12 390.917 418.037 390.995 418.562 390.47C419.055 389.976 419.139 389.142 418.562 388.663C416.731 387.135 414.44 386.24 411.979 386.008C411.25 385.947 410.537 386.641 410.572 387.29C410.605 388.046 411.199 388.493 411.979 388.571L412.014 388.54Z" fill="#144162"/>
<path d="M488.717 322.753C483.017 329.237 475.23 334.113 466.526 336.599C464.049 337.309 461.504 337.834 458.924 338.158C458.177 338.251 457.753 339.131 457.941 339.733C458.161 340.474 458.924 340.72 459.671 340.628C469.121 339.44 478.096 335.58 485.222 329.823C487.208 328.217 489.057 326.459 490.719 324.56C491.194 324.019 491.296 323.278 490.719 322.753C490.228 322.306 489.21 322.214 488.735 322.753H488.717Z" fill="#144162"/>
<path d="M420.461 318.229C421.97 323.417 424.109 328.434 426.824 333.203C427.179 333.82 428.112 334.005 428.757 333.666C429.435 333.296 429.605 332.523 429.267 331.906C426.671 327.338 424.652 322.521 423.192 317.551C422.734 315.961 420.002 316.64 420.477 318.229H420.461Z" fill="#144162"/>
<path d="M444.435 306.977C444.062 311.995 444.638 317.057 446.081 321.904C446.81 324.328 447.76 326.689 448.915 328.989C449.491 330.147 450.119 331.274 450.815 332.384C451.409 333.343 452.036 334.406 453.122 334.978C454.259 335.564 455.616 335.472 456.837 335.225C457.991 334.994 459.111 334.654 460.197 334.238C462.334 333.419 464.286 332.277 466.067 330.919C469.613 328.217 472.362 324.759 474.856 321.255C478.487 316.162 481.982 310.991 485.528 305.851C486.019 305.156 484.798 304.508 484.306 305.203C481.15 309.756 478.012 314.294 474.856 318.848C472.514 322.228 470.055 325.593 466.949 328.418C465.422 329.807 463.743 331.057 461.859 332.046C459.976 333.033 457.754 333.929 455.582 334.113C454.242 334.222 453.36 333.759 452.664 332.74C451.968 331.751 451.374 330.687 450.797 329.622C449.627 327.461 448.643 325.223 447.879 322.923C446.149 317.768 445.453 312.365 445.844 306.994C445.911 306.175 444.503 306.175 444.435 306.994V306.977Z" fill="white"/>
<path d="M454.444 334.068C451.866 335.271 451.713 339.239 454.258 340.505C456.803 341.755 460.451 339.27 459.704 336.723C458.975 334.176 454.258 333.759 453.105 336.182L454.428 334.068H454.444Z" fill="white"/>
</g>
<defs>
<clipPath id="clip0_192_508">
<rect width="566" height="756" fill="white"/>
</clipPath>
</defs>
</svg>
