<svg width="788" height="767" viewBox="0 0 788 767" fill="none" xmlns="http://www.w3.org/2000/svg">
<g clip-path="url(#clip0_188_786)">
<path d="M14.1382 102.46L14.1182 183.79" stroke="#A3A0AB" stroke-width="2"/>
<path d="M14.0879 271.6L14.1279 307.45" stroke="#A3A0AB" stroke-width="2"/>
<path d="M14.0684 522.52L14.3383 560.65" stroke="#A3A0AB" stroke-width="2"/>
<path d="M14.338 560.65C13.9047 581.27 13.888 594.253 14.288 599.6C15.608 617.44 26.948 633.85 44.478 638.51C47.8713 639.417 53.1947 639.85 60.448 639.81C76.628 639.717 92.728 639.76 108.748 639.94" stroke="#E4E5EB" stroke-width="2"/>
<path d="M108.748 639.94C109.715 644.433 109.835 648.817 109.108 653.09C106.548 668.19 105.888 683.74 105.458 699.04C105.218 707.607 104.715 715.903 103.948 723.93" stroke="#B2B0BE" stroke-width="2"/>
<path d="M103.948 723.93C98.6749 728.93 93.4515 733.93 88.2782 738.93C84.2682 742.8 79.1982 744.51 74.1582 746.5" stroke="#D1BBB9" stroke-width="2"/>
<path d="M74.1582 746.5L73.6582 746.83" stroke="#C8B5B3" stroke-width="2"/>
<path d="M73.6582 746.83C72.0115 746.75 70.7482 747.403 69.8682 748.79" stroke="#E4E5EB" stroke-width="2"/>
<path d="M69.8679 748.79C63.4879 748.877 57.2345 749.783 51.1079 751.51C49.6379 751.93 47.7379 752.06 48.4379 754.1C48.4872 754.243 48.5736 754.373 48.69 754.481C48.8064 754.588 48.9495 754.67 49.1079 754.72C53.1745 756 57.3379 756.883 61.5979 757.37C79.1512 759.397 96.7579 760.833 114.418 761.68C181.498 764.88 248.758 766.55 315.908 766.53C404.348 766.52 486.868 765.93 572.088 761.11C583.134 760.483 595.738 759.447 609.898 758C616.158 757.353 622.001 756.2 627.428 754.54C627.598 754.485 627.748 754.399 627.862 754.29C627.977 754.181 628.051 754.053 628.078 753.92C628.144 753.587 628.084 753.23 627.898 752.85C627.838 752.721 627.743 752.601 627.619 752.498C627.495 752.395 627.345 752.31 627.178 752.25C623.098 750.817 618.901 749.87 614.588 749.41C604.321 748.317 594.075 747.207 583.848 746.08" stroke="#F8F7FF" stroke-width="2"/>
<path d="M583.848 746.08C588.688 739 588.448 724.84 577.088 724.82C551.368 724.78 525.648 724.773 499.928 724.8C499.742 724.8 499.468 724.703 499.108 724.51L498.698 724.29" stroke="#E4E5EB" stroke-width="2"/>
<path d="M498.698 724.29L495.408 722" stroke="#DADAE0" stroke-width="2"/>
<path d="M495.408 722C470.658 703.11 459.518 672.99 466.618 642.54" stroke="#E4E5EB" stroke-width="2"/>
<path d="M466.618 642.54L467.408 639.83" stroke="#DADAE0" stroke-width="2"/>
<path d="M467.408 639.83C554.935 639.783 642.462 639.77 729.988 639.79C736.135 639.79 740.832 639.337 744.078 638.43C758.608 634.36 769.438 621.31 772.668 606.94C773.502 603.24 773.918 596.607 773.918 587.04C773.918 578.207 773.902 569.373 773.868 560.54" stroke="#E4E5EB" stroke-width="2"/>
<path d="M773.868 560.54L773.948 407.54" stroke="#A3A0AB" stroke-width="2"/>
<path d="M773.948 220.45V189.54" stroke="#A3A0AB" stroke-width="2"/>
<path d="M773.918 116.54L773.938 97.21" stroke="#A3A0AB" stroke-width="2"/>
<path d="M751.658 34.58C744.905 32.22 738.822 31.04 733.408 31.04C584.328 31.06 435.245 31.0467 286.158 31" stroke="#A3A0AB" stroke-width="2"/>
<path d="M286.158 31C211.091 31.0467 136.024 31.0633 60.9577 31.05C52.891 31.0433 47.111 31.5033 43.6177 32.43C30.1577 35.98 19.1977 46.8 15.5477 60.19C14.6144 63.61 14.151 68.8967 14.1577 76.05C14.1644 84.7633 14.1577 93.5667 14.1377 102.46" stroke="#9C98AB" stroke-width="2"/>
<path d="M751.658 34.5801C762.598 40.8734 769.568 49.6201 772.568 60.8201C775.318 71.1201 773.898 85.8101 773.938 97.2101" stroke="#9C98AB" stroke-width="2"/>
<path d="M773.918 116.54L773.948 189.54" stroke="#9C98AB" stroke-width="2"/>
<path d="M773.948 220.45V407.54" stroke="#9C98AB" stroke-width="2"/>
<path d="M773.868 560.54H202.628" stroke="#888697" stroke-width="2"/>
<path d="M202.628 560.54L201.808 544.03" stroke="#56516A" stroke-width="2"/>
<path d="M201.808 544.03L199.198 528.79" stroke="#A35B73" stroke-width="2"/>
<path d="M199.198 528.79C376.765 528.79 554.328 528.79 731.888 528.79C740.988 528.79 748.438 525.13 751.728 516.41C752.682 513.883 753.158 509.903 753.158 504.47C753.158 366.91 753.158 229.353 753.158 91.8C753.158 90.89 752.778 89.85 752.868 88.79" stroke="#4A4768" stroke-width="2"/>
<path d="M752.868 88.79C753.234 87.8434 753.344 87.01 753.198 86.29C750.784 74.6234 743.771 68.79 732.158 68.79C508.731 68.79 285.304 68.79 61.8777 68.79C54.8644 68.79 49.9877 69.31 47.2477 70.35C40.1977 73.02 34.5377 80.3 34.9477 88.77" stroke="#888697" stroke-width="2"/>
<path d="M34.9482 88.77V126.54" stroke="#4A4768" stroke-width="2"/>
<path d="M34.9477 126.54C34.8943 253.533 34.8843 380.527 34.9177 507.52C34.9177 522.33 43.8477 528.92 57.8977 528.82C80.3043 528.667 102.711 528.74 125.118 529.04" stroke="#A3A0AB" stroke-width="2"/>
<path d="M125.118 529.04C124.478 533.96 123.358 540 119.728 543.65C119.676 543.703 119.632 543.765 119.601 543.832C119.57 543.898 119.552 543.968 119.547 544.037C119.542 544.106 119.552 544.173 119.574 544.233C119.597 544.294 119.632 544.347 119.678 544.39L120.928 545.55" stroke="#A35B73" stroke-width="2"/>
<path d="M120.928 545.55C120.362 550.623 119.365 555.637 117.938 560.59" stroke="#56516A" stroke-width="2"/>
<path d="M117.938 560.59L14.3379 560.65" stroke="#888697" stroke-width="2"/>
<path d="M14.0684 522.52L14.1284 307.45" stroke="#9C98AB" stroke-width="2"/>
<path d="M14.0879 271.6L14.1179 183.79" stroke="#9C98AB" stroke-width="2"/>
<path d="M199.198 528.79C197.605 520.89 196.382 512.893 195.528 504.8C195.514 504.668 195.552 504.536 195.633 504.43C195.715 504.324 195.835 504.252 195.968 504.23C206.128 502.47 209.128 490.51 211.528 482.21C214.675 471.33 216.165 460.213 215.998 448.86C215.978 447.493 216.125 445.173 216.438 441.9C218.558 420.07 202.398 414.44 186.868 406.29" stroke="#A66083" stroke-width="2"/>
<path d="M186.868 406.29L186.748 388.18" stroke="#A6A6BC" stroke-width="2"/>
<path d="M186.748 388.18L195.308 377.61C196.621 375.99 197.321 374.293 197.408 372.52C197.598 368.64 198.618 359.42 192.738 359.37C191.311 359.363 190.851 358.69 191.358 357.35C193.431 351.957 191.935 348.103 186.868 345.79" stroke="#64546A" stroke-width="2"/>
<path d="M186.868 345.79L186.848 127.11C186.848 126.975 186.796 126.845 186.702 126.749C186.608 126.654 186.481 126.6 186.348 126.6L34.9482 126.54" stroke="#A6A6BC" stroke-width="2"/>
<path d="M467.408 639.83L325.828 639.85C325.795 639.85 325.762 639.86 325.734 639.877C325.706 639.895 325.683 639.92 325.668 639.95L325.618 640.04" stroke="#BEC0CC" stroke-width="2"/>
<path d="M325.618 640.04C325.412 639.86 325.175 639.77 324.908 639.77C282.742 639.783 240.592 639.79 198.458 639.79C198.31 639.789 198.164 639.824 198.033 639.893C197.902 639.962 197.79 640.063 197.707 640.185C197.624 640.308 197.572 640.449 197.557 640.597C197.541 640.744 197.562 640.893 197.618 641.03C199.098 644.73 199.765 648.567 199.618 652.54" stroke="#E4E5EB" stroke-width="2"/>
<path d="M202.628 560.54C202.022 563.447 201.602 566.383 201.368 569.35C200.478 580.51 198.118 591.58 195.908 602.54C194.328 610.37 196.408 619.31 196.348 627.54C196.278 636.79 196.528 643.98 199.618 652.54" stroke="#9796AA" stroke-width="2"/>
<path d="M199.618 652.54C204.558 671.86 198.318 693.6 192.958 714.6C192.505 716.38 191.891 721.527 191.118 730.04" stroke="#B2B0BE" stroke-width="2"/>
<path d="M191.118 730.04C185.738 726.38 178.018 721.29 173.938 729.85C173.867 729.997 173.766 730.123 173.643 730.216C173.521 730.308 173.381 730.365 173.238 730.38C171.704 730.56 170.684 729.873 170.178 728.32" stroke="#846C78" stroke-width="2"/>
<path d="M170.178 728.32C171.845 721.933 173.241 715.543 174.368 709.15C175.278 704.01 173.428 697.44 173.368 692.04C173.228 679.433 173.722 666.853 174.848 654.3C174.874 653.972 174.816 653.642 174.678 653.34C172.605 648.887 170.918 644.287 169.618 639.54" stroke="#B2B0BE" stroke-width="2"/>
<path d="M169.618 639.54C167.385 630.987 166.228 623.57 166.148 617.29C166.028 607.76 164.918 595.34 159.408 586.33" stroke="#9796AA" stroke-width="2"/>
<path d="M159.408 586.33C159.108 584.803 157.932 583.383 155.878 582.07C155.765 582 155.629 581.978 155.497 582.008C155.365 582.037 155.247 582.117 155.168 582.23C139.548 604.88 132.858 627.54 129.578 654.54C126.385 680.753 122.898 706.94 119.118 733.1" stroke="#605C77" stroke-width="2"/>
<path d="M119.118 733.1C115.718 732.78 112.728 731.83 110.148 730.25C110.019 730.171 109.905 730.063 109.814 729.932C109.723 729.802 109.656 729.652 109.618 729.49C108.972 726.703 107.082 724.85 103.948 723.93" stroke="#846C78" stroke-width="2"/>
<path d="M108.748 639.94C109.668 629.02 111.658 618.21 111.698 607.17C111.731 595.17 112.441 583.207 113.828 571.28C114.015 569.673 115.385 566.11 117.938 560.59" stroke="#9796AA" stroke-width="2"/>
<path d="M752.868 88.79L34.9482 88.77" stroke="#8A8BA8" stroke-width="2"/>
<path d="M201.808 544.03C192.668 546.123 183.554 547.703 174.468 548.77C171.818 549.08 168.078 549.26 165.968 548.99C152.521 547.27 139.024 546.43 125.478 546.47C124.578 546.477 123.061 546.17 120.928 545.55" stroke="#B26B86" stroke-width="2"/>
<path d="M186.868 345.79C180.598 344.81 174.918 344.17 172.488 339.21C171.995 338.197 171.218 337.504 170.158 337.13C163.328 334.75 158.268 336.14 150.638 339.46C150.341 339.589 150.007 339.607 149.698 339.51C144.308 337.78 140.318 335.8 136.658 341.83" stroke="#BEAEAE" stroke-width="2"/>
<path d="M136.658 341.83L60.698 341.99C60.5597 341.989 60.4257 342.039 60.3208 342.131C60.2159 342.223 60.1474 342.351 60.128 342.49C59.7347 345.49 59.7347 348.397 60.128 351.21C60.1474 351.349 60.2159 351.477 60.3208 351.569C60.4257 351.661 60.5597 351.711 60.698 351.71L135.868 351.54" stroke="#DAD8FF" stroke-width="2"/>
<path d="M135.868 351.54C137.828 354.76 140.828 355.09 141.408 359.39" stroke="#BEAEAE" stroke-width="2"/>
<path d="M141.408 359.39C131.928 373.72 136.438 391.49 152.658 397.86C152.795 397.913 152.913 398.006 152.995 398.126C153.077 398.246 153.12 398.387 153.118 398.53C153.051 401.71 151.898 404.367 149.658 406.5" stroke="#FDDFDF" stroke-width="2"/>
<path d="M149.658 406.5C142.638 409.36 134.258 413.79 126.838 414.99C114.278 417.01 109.848 432.46 110.638 443.44C110.878 446.78 109.538 451.01 108.118 454.16C103.472 464.48 102.905 474.94 106.418 485.54C109.418 494.6 119.748 495.04 127.658 494.83C127.723 494.829 127.787 494.84 127.848 494.865C127.908 494.889 127.962 494.925 128.008 494.97C128.054 495.016 128.09 495.071 128.114 495.131C128.138 495.191 128.15 495.255 128.148 495.32C127.895 506.66 126.885 517.9 125.118 529.04" stroke="#FFBAC7" stroke-width="2"/>
<path d="M186.868 406.29L184.658 405.5" stroke="#FFBAC7" stroke-width="2"/>
<path d="M186.748 388.18C183.188 391.687 181.215 396.044 180.828 401.25" stroke="#BEAEAE" stroke-width="2"/>
<path d="M180.828 401.25C177.195 401.837 175.745 400.01 176.478 395.77C177.065 392.35 177.558 388.904 177.958 385.43C178.498 380.66 175.818 374.21 170.438 380.95C170.224 381.216 169.946 381.399 169.648 381.47C159.308 384.09 167.218 364.99 160.748 361.03C157.082 358.783 153.655 358.707 150.468 360.8C146.838 363.19 143.198 364.8 141.408 359.39" stroke="#BC8D8D" stroke-width="2"/>
<path d="M135.868 351.54C134.668 348.167 134.931 344.93 136.658 341.83" stroke="#9987AE" stroke-width="2"/>
<path d="M466.618 642.54C430.188 641.26 391.568 642.39 327.408 642.41C327.062 642.41 326.728 642.467 326.408 642.58" stroke="#BEC0CC" stroke-width="2"/>
<path d="M325.618 640.04L326.408 642.58" stroke="#DADAE0" stroke-width="2"/>
<path d="M326.408 642.58C332.848 673.85 322.568 702.77 297.148 722.43" stroke="#E4E5EB" stroke-width="2"/>
<path d="M297.148 722.43L294.618 723.79" stroke="#DADAE0" stroke-width="2"/>
<path d="M294.618 723.79L293.748 724.49C293.503 724.684 293.185 724.79 292.848 724.79C267.075 724.777 241.301 724.783 215.528 724.81C204.208 724.82 200.638 730.9 202.868 741.79" stroke="#E4E5EB" stroke-width="2"/>
<path d="M202.868 741.79L194.678 742.45C194.526 742.462 194.376 742.432 194.249 742.364C194.122 742.296 194.024 742.193 193.968 742.07C192.588 739.017 192.138 735.837 192.618 732.53C192.643 732.361 192.629 732.193 192.58 732.046C192.531 731.898 192.447 731.775 192.338 731.69C192.078 731.49 191.782 731.357 191.448 731.29" stroke="#F8F7FF" stroke-width="2"/>
<path d="M191.448 731.29L191.118 730.04" stroke="#D1BBB9" stroke-width="2"/>
<path d="M159.408 586.33C153.102 595.13 148.425 604.703 145.378 615.05C142.778 623.9 140.458 631.28 138.408 639.5" stroke="#9291A4" stroke-width="2"/>
<path d="M138.408 639.5C136.478 645.86 134.208 652.8 134.488 659.56C135.008 672.06 134.188 684.46 132.028 696.76C130.988 702.68 128.378 709.56 127.168 714.54C125.902 719.747 125.402 725.643 125.668 732.23C125.674 732.403 125.643 732.569 125.578 732.711C125.513 732.854 125.416 732.967 125.298 733.04L124.448 733.54" stroke="#ADABB8" stroke-width="2"/>
<path d="M124.448 733.54L123.978 731.83C123.965 731.78 123.939 731.734 123.902 731.696C123.865 731.659 123.82 731.631 123.769 731.616C123.718 731.601 123.664 731.599 123.611 731.611C123.559 731.622 123.509 731.646 123.468 731.68C122.062 732.847 120.611 733.32 119.118 733.1" stroke="#7F6771" stroke-width="2"/>
<path d="M126.368 742.04C114.282 746.04 102.295 748.457 90.4082 749.29C84.9815 749.67 79.5649 748.74 74.1582 746.5" stroke="#9A716C" stroke-width="2"/>
<path d="M169.618 639.54C159.212 639.973 148.808 639.96 138.408 639.5" stroke="#E4E5EB" stroke-width="2"/>
<path d="M191.448 731.29C191.578 734.17 191.178 736.87 191.858 739.57C192.678 742.803 193.931 745.877 195.618 748.79" stroke="#C9B3B9" stroke-width="2"/>
<path d="M195.618 748.79C188.738 748.85 181.855 748.913 174.968 748.98C173.442 748.993 171.922 748.5 170.408 747.5" stroke="#9A716C" stroke-width="2"/>
<path d="M170.408 747.5L170.968 742.91" stroke="#C9B3B9" stroke-width="2"/>
<path d="M170.178 728.32L170.968 742.91" stroke="#D1BBB9" stroke-width="2"/>
<path d="M170.968 742.91L127.428 744.45C127.358 744.452 127.291 744.433 127.239 744.396C127.188 744.359 127.155 744.307 127.148 744.25L127.118 744.04" stroke="#F8F7FF" stroke-width="2"/>
<path d="M127.118 744.04L126.368 742.04" stroke="#C8B5B3" stroke-width="2"/>
<path d="M126.368 742.04C125.075 739.36 124.435 736.527 124.448 733.54" stroke="#D1BBB9" stroke-width="2"/>
<path d="M180.828 401.25L184.658 405.5" stroke="#FDDFDF" stroke-width="2"/>
<path d="M184.658 405.5C179.728 413.42 170.488 427.81 161.518 431.06C160.004 431.613 158.758 431.247 157.778 429.96C153.298 424.07 147.928 414.38 149.658 406.5" stroke="#FD99A6" stroke-width="2"/>
<path d="M495.408 722C494.835 722.207 494.252 722.313 493.658 722.32C428.165 722.527 362.662 722.563 297.148 722.43" stroke="#BEC0CC" stroke-width="2"/>
<path d="M498.698 724.29C498.548 724.64 498.308 724.81 497.908 724.81C433.655 724.783 369.405 724.777 305.158 724.79C303.998 724.79 294.778 725.98 294.618 723.79" stroke="#BEC0CC" stroke-width="2"/>
<path d="M583.848 746.08C581.048 747.553 579.318 748.29 578.658 748.29C457.038 748.297 335.418 748.293 213.798 748.28C208.378 748.28 204.878 746.7 202.868 741.79" stroke="#DCDDEB" stroke-width="2"/>
<path d="M69.868 748.79C68.488 751.217 68.8747 752.76 71.028 753.42" stroke="#DCDDEB" stroke-width="2"/>
<path d="M71.0283 753.42C80.1183 756.08 88.5183 756.55 97.8583 754.13C104.738 752.343 112.925 750.743 122.418 749.33C125.165 748.917 126.732 747.153 127.118 744.04" stroke="#C1ADB3" stroke-width="2"/>
<path d="M170.408 747.5C169.795 749.573 169.738 751.81 170.238 754.21C170.313 754.574 170.49 754.91 170.751 755.177C171.011 755.445 171.343 755.633 171.708 755.72C176.468 756.83 199.958 760.47 195.618 748.79" stroke="#C1ADB3" stroke-width="2"/>
<path d="M71.0278 753.42C70.5411 750.627 71.4178 748.43 73.6578 746.83" stroke="#AD9B9F" stroke-width="2"/>
<path d="M403.208 50.1299C403.208 47.6873 402.238 45.3447 400.511 43.6175C398.783 41.8903 396.441 40.9199 393.998 40.9199C391.555 40.9199 389.213 41.8903 387.486 43.6175C385.758 45.3447 384.788 47.6873 384.788 50.1299C384.788 51.3394 385.026 52.537 385.489 53.6544C385.952 54.7718 386.63 55.7871 387.486 56.6424C388.341 57.4976 389.356 58.176 390.474 58.6389C391.591 59.1017 392.789 59.3399 393.998 59.3399C395.208 59.3399 396.405 59.1017 397.523 58.6389C398.64 58.176 399.655 57.4976 400.511 56.6424C401.366 55.7871 402.044 54.7718 402.507 53.6544C402.97 52.537 403.208 51.3394 403.208 50.1299Z" stroke="#A3A0AB" stroke-width="2"/>
<path d="M59.378 78.7798C59.378 77.4644 58.8554 76.2028 57.9252 75.2726C56.9951 74.3424 55.7335 73.8198 54.418 73.8198C53.1025 73.8198 51.8409 74.3424 50.9108 75.2726C49.9806 76.2028 49.458 77.4644 49.458 78.7798C49.458 80.0953 49.9806 81.3569 50.9108 82.2871C51.8409 83.2173 53.1025 83.7398 54.418 83.7398C55.7335 83.7398 56.9951 83.2173 57.9252 82.2871C58.8554 81.3569 59.378 80.0953 59.378 78.7798Z" stroke="#DBDCE6" stroke-width="2"/>
<path d="M74.0177 78.7901C74.0177 77.4799 73.4972 76.2234 72.5708 75.297C71.6444 74.3706 70.3879 73.8501 69.0777 73.8501C67.7675 73.8501 66.511 74.3706 65.5846 75.297C64.6581 76.2234 64.1377 77.4799 64.1377 78.7901C64.1377 80.1003 64.6581 81.3568 65.5846 82.2832C66.511 83.2096 67.7675 83.7301 69.0777 83.7301C70.3879 83.7301 71.6444 83.2096 72.5708 82.2832C73.4972 81.3568 74.0177 80.1003 74.0177 78.7901Z" stroke="#DBDCE6" stroke-width="2"/>
<path d="M88.6075 78.7901C88.6075 77.4799 88.0871 76.2234 87.1606 75.297C86.2342 74.3706 84.9777 73.8501 83.6675 73.8501C82.3574 73.8501 81.1009 74.3706 80.1744 75.297C79.248 76.2234 78.7275 77.4799 78.7275 78.7901C78.7275 80.1003 79.248 81.3568 80.1744 82.2832C81.1009 83.2096 82.3574 83.7301 83.6675 83.7301C84.9777 83.7301 86.2342 83.2096 87.1606 82.2832C88.0871 81.3568 88.6075 80.1003 88.6075 78.7901Z" stroke="#DBDCE6" stroke-width="2"/>
<path d="M161.668 104.14C161.668 103.981 161.605 103.828 161.492 103.716C161.38 103.603 161.227 103.54 161.068 103.54H60.5082C60.3491 103.54 60.1965 103.603 60.084 103.716C59.9714 103.828 59.9082 103.981 59.9082 104.14V112.7C59.9082 112.859 59.9714 113.012 60.084 113.124C60.1965 113.237 60.3491 113.3 60.5082 113.3H161.068C161.227 113.3 161.38 113.237 161.492 113.124C161.605 113.012 161.668 112.859 161.668 112.7V104.14Z" stroke="#FF916C" stroke-width="2"/>
<path d="M718.928 138.49C718.928 138.307 718.855 138.131 718.726 138.002C718.596 137.873 718.421 137.8 718.238 137.8H270.118C269.935 137.8 269.759 137.873 269.63 138.002C269.5 138.131 269.428 138.307 269.428 138.49V138.85C269.428 139.033 269.5 139.208 269.63 139.338C269.759 139.467 269.935 139.54 270.118 139.54H718.238C718.421 139.54 718.596 139.467 718.726 139.338C718.855 139.208 718.928 139.033 718.928 138.85V138.49Z" stroke="#707196" stroke-width="2"/>
<path d="M641.158 172.83C593.265 172.837 545.368 172.877 497.468 172.95C497.295 172.95 497.122 172.98 496.948 173.04" stroke="#707196" stroke-width="2"/>
<path d="M496.948 173.04C495.628 160.68 479.878 158.32 475.128 169.79C474.428 171.48 475.268 173.65 471.908 172.83" stroke="#FF916C" stroke-width="2"/>
<path d="M471.908 172.83C404.742 172.737 337.575 172.803 270.408 173.03C269.302 173.037 268.958 173.327 269.378 173.9C269.461 174.014 269.58 174.106 269.725 174.169C269.869 174.232 270.035 174.263 270.208 174.26C274.638 174.23 279.468 174.56 283.468 174.55C343.115 174.517 402.762 174.527 462.408 174.58" stroke="#707196" stroke-width="2"/>
<path d="M462.408 174.58C442.278 180.78 429.118 192.84 411.658 207.58" stroke="#FF916C" stroke-width="2"/>
<path d="M411.658 207.58L270.468 207.56C270.109 207.56 269.789 207.672 269.578 207.87C268.538 208.84 269.918 209.27 270.738 209.27C316.958 209.27 363.181 209.29 409.408 209.33" stroke="#707196" stroke-width="2"/>
<path d="M409.408 209.33C386.068 229.41 358.298 238.68 327.578 232.36C307.032 228.133 288.255 220.73 271.248 210.15C270.94 209.957 270.609 209.875 270.318 209.92C269.252 210.087 268.865 210.78 269.158 212" stroke="#FF916C" stroke-width="2"/>
<path d="M269.158 212C268.738 222.193 268.738 232.387 269.158 242.58" stroke="#54529A" stroke-width="2"/>
<path d="M269.158 242.58L269.118 243.29" stroke="#6765A9" stroke-width="2"/>
<path d="M269.118 243.29C268.738 254.83 268.761 266.167 269.188 277.3" stroke="#54529A" stroke-width="2"/>
<path d="M269.188 277.3C268.714 278.46 268.871 279.04 269.658 279.04C419.158 279.04 568.661 279.04 718.168 279.04C718.332 279.04 718.489 278.997 718.618 278.919C718.747 278.84 718.841 278.729 718.888 278.6C719.054 278.147 718.978 277.697 718.658 277.25" stroke="#6563A5" stroke-width="2"/>
<path d="M718.658 277.25L718.848 243.92" stroke="#54529A" stroke-width="2"/>
<path d="M718.848 243.92L718.868 242.5" stroke="#6765A9" stroke-width="2"/>
<path d="M718.868 242.5V209.29" stroke="#54529A" stroke-width="2"/>
<path d="M718.868 209.29L718.858 207.63" stroke="#6765A9" stroke-width="2"/>
<path d="M718.858 207.63L718.618 176.54" stroke="#54529A" stroke-width="2"/>
<path d="M718.618 176.54C719.812 174.033 719.202 172.753 716.788 172.7C716.449 172.693 716.132 172.596 715.878 172.42C695.848 158.47 672.698 153.59 650.878 166.78C647.612 168.753 644.372 170.77 641.158 172.83" stroke="#FF916C" stroke-width="2"/>
<path d="M718.618 176.54L714.158 174.5" stroke="#645EDE" stroke-width="2"/>
<path d="M714.158 174.5C713.578 173.693 712.828 173.11 711.908 172.75" stroke="#7770ED" stroke-width="2"/>
<path d="M711.908 172.75C691.238 158.64 666.858 156.92 646.408 172.75" stroke="#645EDE" stroke-width="2"/>
<path d="M646.408 172.75C645.402 172.897 644.652 173.397 644.158 174.25" stroke="#7770ED" stroke-width="2"/>
<path d="M644.158 174.25C643.198 174.59 642.611 174.85 642.398 175.03C628.858 186.06 616.398 197.53 601.638 207.61" stroke="#645EDE" stroke-width="2"/>
<path d="M601.638 207.61C600.478 207.69 599.485 208.18 598.658 209.08" stroke="#7770ED" stroke-width="2"/>
<path d="M598.658 209.08C587.492 213.88 575.988 215.297 564.148 213.33C559.328 212.53 553.658 210.64 548.408 209.25" stroke="#645EDE" stroke-width="2"/>
<path d="M548.408 209.25C547.295 208.383 546.045 207.8 544.658 207.5" stroke="#7770ED" stroke-width="2"/>
<path d="M544.658 207.5C533.568 202.19 524.798 196.22 514.748 188.57C509.335 184.45 503.518 181.167 497.298 178.72C497.039 178.617 496.753 178.601 496.484 178.675C496.215 178.749 495.978 178.909 495.808 179.13C489.338 187.65 477.748 186.77 474.528 175.75C474.48 175.587 474.376 175.446 474.234 175.351C474.091 175.256 473.92 175.213 473.748 175.23C450.608 177.6 433.558 191.2 416.158 207.5" stroke="#645EDE" stroke-width="2"/>
<path d="M416.158 207.5C415.132 207.74 414.365 208.303 413.858 209.19" stroke="#7770ED" stroke-width="2"/>
<path d="M413.858 209.19C399.948 221.03 382.178 231.71 364.148 235.09C330.198 241.44 298.168 227.76 269.158 212" stroke="#645EDE" stroke-width="2"/>
<path d="M409.408 209.33C410.362 209.017 411.112 208.433 411.658 207.58" stroke="#807DD9" stroke-width="2"/>
<path d="M462.408 174.58L471.908 172.83" stroke="#807DD9" stroke-width="2"/>
<path d="M496.948 173.04L497.198 174.54" stroke="#807DD9" stroke-width="2"/>
<path d="M497.198 174.54C496.284 175.327 496.284 175.907 497.198 176.28C511.298 182.07 522.368 191.18 534.988 199.03C541.058 202.81 545.708 206.01 552.908 207.58" stroke="#FF916C" stroke-width="2"/>
<path d="M552.908 207.58C554.588 208.873 556.505 209.54 558.658 209.58" stroke="#807DD9" stroke-width="2"/>
<path d="M558.658 209.58C569.432 212.76 580.192 212.733 590.938 209.5" stroke="#FF916C" stroke-width="2"/>
<path d="M590.938 209.5C592.405 209.16 593.688 208.59 594.788 207.79" stroke="#807DD9" stroke-width="2"/>
<path d="M594.788 207.79C611.388 200 625.018 186.32 638.908 174.58" stroke="#FF916C" stroke-width="2"/>
<path d="M638.908 174.58L641.158 172.83" stroke="#807DD9" stroke-width="2"/>
<path d="M638.908 174.58L497.198 174.54" stroke="#707196" stroke-width="2"/>
<path d="M718.858 207.63L601.638 207.61" stroke="#6F6BCB" stroke-width="2"/>
<path d="M594.788 207.79L552.908 207.58" stroke="#707196" stroke-width="2"/>
<path d="M548.408 209.25L413.858 209.19" stroke="#6F6BCB" stroke-width="2"/>
<path d="M590.938 209.5C580.145 208.9 569.385 208.927 558.658 209.58" stroke="#707196" stroke-width="2"/>
<path d="M544.658 207.5C539.128 207.9 532.068 207.54 528.198 207.54C490.852 207.56 453.505 207.547 416.158 207.5" stroke="#6F6BCB" stroke-width="2"/>
<path d="M718.868 242.5C569.258 242.15 419.628 242.83 270.028 242.34C269.928 242.34 269.745 242.403 269.478 242.53C269.385 242.57 269.278 242.587 269.158 242.58" stroke="#6F6BCB" stroke-width="2"/>
<path d="M718.868 209.29L598.658 209.08" stroke="#6F6BCB" stroke-width="2"/>
<path d="M711.908 172.75H646.408" stroke="#6F6BCB" stroke-width="2"/>
<path d="M714.158 174.5L644.678 174.48C644.542 174.48 644.415 174.438 644.318 174.36L644.158 174.25" stroke="#6F6BCB" stroke-width="2"/>
<path d="M718.848 243.92C569.258 244.14 419.668 243.97 270.088 244.01C269.735 244.01 269.411 243.77 269.118 243.29" stroke="#6F6BCB" stroke-width="2"/>
<path d="M718.658 277.25L269.188 277.3" stroke="#6D69C7" stroke-width="2"/>
<path d="M375.398 357.23C375.398 357.116 375.353 357.006 375.272 356.926C375.192 356.845 375.082 356.8 374.968 356.8H309.588C309.474 356.8 309.365 356.845 309.284 356.926C309.204 357.006 309.158 357.116 309.158 357.23V370.61C309.158 370.724 309.204 370.833 309.284 370.914C309.365 370.994 309.474 371.04 309.588 371.04H374.968C375.082 371.04 375.192 370.994 375.272 370.914C375.353 370.833 375.398 370.724 375.398 370.61V357.23Z" stroke="#707196" stroke-width="2"/>
<path d="M526.898 357.22C526.898 357.164 526.887 357.108 526.865 357.055C526.844 357.003 526.812 356.956 526.772 356.916C526.732 356.876 526.685 356.844 526.633 356.823C526.581 356.801 526.525 356.79 526.468 356.79H461.088C460.974 356.79 460.865 356.835 460.784 356.916C460.703 356.997 460.658 357.106 460.658 357.22V370.6C460.658 370.714 460.703 370.823 460.784 370.904C460.865 370.985 460.974 371.03 461.088 371.03H526.468C526.525 371.03 526.581 371.019 526.633 370.997C526.685 370.976 526.732 370.944 526.772 370.904C526.812 370.864 526.844 370.817 526.865 370.765C526.887 370.712 526.898 370.657 526.898 370.6V357.22Z" stroke="#707196" stroke-width="2"/>
<path d="M678.658 357.15C678.658 357.052 678.619 356.958 678.55 356.888C678.481 356.819 678.387 356.78 678.288 356.78H612.768C612.67 356.78 612.576 356.819 612.507 356.888C612.437 356.958 612.398 357.052 612.398 357.15V370.67C612.398 370.768 612.437 370.862 612.507 370.931C612.576 371.001 612.67 371.04 612.768 371.04H678.288C678.387 371.04 678.481 371.001 678.55 370.931C678.619 370.862 678.658 370.768 678.658 370.67V357.15Z" stroke="#707196" stroke-width="2"/>
<path d="M509.408 420.58C511.468 421.766 513.518 422.973 515.558 424.2C531.878 433.99 536.708 455.82 528.488 472.19C515.958 497.11 482.148 499.25 465.758 477.2C451.558 458.1 459.588 431.91 480.518 421.85C480.578 421.821 480.632 421.78 480.676 421.73C480.72 421.681 480.754 421.623 480.776 421.56C480.797 421.498 480.806 421.432 480.801 421.367C480.796 421.301 480.778 421.238 480.748 421.18L477.088 413.84C476.988 413.642 476.814 413.492 476.603 413.421C476.392 413.35 476.161 413.364 475.958 413.46C460.568 420.87 450.878 435 449.278 451.83C446.218 483.89 477.438 509.01 508.218 500.27C550.428 488.28 554.128 427.68 512.928 412.17C512.866 412.147 512.799 412.136 512.733 412.138C512.666 412.14 512.601 412.155 512.542 412.182C512.482 412.209 512.429 412.248 512.385 412.295C512.342 412.343 512.309 412.399 512.288 412.46C511.455 414.813 510.948 417.163 510.768 419.51C510.738 419.99 510.398 420.37 509.908 420.25" stroke="#54529A" stroke-width="2"/>
<path d="M509.908 420.25L511.508 412.42C511.574 412.097 511.523 411.762 511.364 411.481C511.205 411.2 510.95 410.993 510.648 410.9C499.208 407.48 488.322 408.03 477.988 412.55C477.928 412.575 477.874 412.612 477.829 412.66C477.784 412.708 477.749 412.765 477.726 412.828C477.704 412.89 477.694 412.957 477.698 413.025C477.702 413.092 477.719 413.159 477.748 413.22L481.428 420.67C481.49 420.796 481.592 420.896 481.719 420.953C481.845 421.009 481.987 421.019 482.118 420.98C492.138 418.06 499.368 416.71 509.408 420.58" stroke="#FF916C" stroke-width="2"/>
<path d="M509.908 420.25L509.408 420.58" stroke="#645EDE" stroke-width="2"/>
<path d="M619.038 431.04C641.848 405.73 682.418 420.38 682.968 455C682.969 455.073 682.985 455.145 683.015 455.212C683.045 455.279 683.088 455.34 683.142 455.39C683.196 455.44 683.26 455.479 683.329 455.505C683.399 455.531 683.473 455.543 683.548 455.54L690.818 455.23C691.058 455.22 691.294 455.162 691.511 455.06C691.728 454.958 691.922 454.814 692.08 454.637C692.238 454.46 692.357 454.254 692.431 454.031C692.505 453.808 692.531 453.573 692.508 453.34C691.521 443.647 688.908 435.61 684.668 429.23C667.558 403.51 633.148 402.05 612.358 424.01C612.22 424.159 612.145 424.353 612.147 424.553C612.148 424.752 612.228 424.941 612.368 425.08L618.338 431.06C618.384 431.107 618.439 431.143 618.5 431.168C618.561 431.192 618.626 431.204 618.692 431.202C618.758 431.2 618.822 431.185 618.882 431.157C618.941 431.129 618.994 431.089 619.038 431.04Z" stroke="#54529A" stroke-width="2"/>
<path d="M317.558 483.24C317.605 483.192 317.641 483.134 317.665 483.07C317.688 483.007 317.698 482.938 317.694 482.868C317.691 482.799 317.673 482.729 317.643 482.664C317.613 482.599 317.57 482.54 317.518 482.49C292.038 458.52 307.078 420.57 341.468 418.56C341.616 418.552 341.756 418.493 341.858 418.394C341.96 418.296 342.018 418.165 342.018 418.03L341.958 409.57C341.957 409.503 341.942 409.437 341.913 409.375C341.884 409.314 341.843 409.258 341.791 409.212C341.738 409.165 341.677 409.129 341.61 409.105C341.542 409.08 341.471 409.069 341.398 409.07C298.338 409.86 279.948 459.68 310.538 489.21C310.71 489.377 310.937 489.474 311.17 489.48C311.402 489.486 311.621 489.399 311.778 489.24L317.558 483.24Z" stroke="#FF916C" stroke-width="2"/>
<path d="M344.098 418.64C356.264 419.693 365.631 424.71 372.198 433.69C386.708 453.54 378.708 481.14 355.758 489.96C343.304 494.747 331.195 492.85 319.428 484.27C319.216 484.115 318.958 484.038 318.699 484.055C318.44 484.071 318.199 484.18 318.018 484.36L312.548 489.81C312.454 489.903 312.382 490.015 312.337 490.139C312.291 490.263 312.273 490.396 312.283 490.528C312.294 490.661 312.332 490.791 312.397 490.908C312.462 491.026 312.551 491.129 312.658 491.21C326.164 501.517 340.454 504.487 355.528 500.12C376.738 493.97 390.248 474.59 388.988 452.56C387.628 428.69 368.028 410.13 343.948 409.13C343.809 409.126 343.674 409.171 343.567 409.257C343.46 409.344 343.39 409.466 343.368 409.6C342.921 412.447 342.965 415.287 343.498 418.12C343.524 418.258 343.597 418.383 343.706 418.477C343.814 418.571 343.952 418.628 344.098 418.64Z" stroke="#54529A" stroke-width="2"/>
<path d="M615.098 490.6C630.458 504.3 652.068 506.36 669.648 495.98C683.095 488.04 690.755 475.443 692.628 458.19C692.768 456.93 692.201 456.3 690.928 456.3L683.658 456.28C683.519 456.279 683.385 456.331 683.283 456.423C683.181 456.516 683.118 456.644 683.108 456.78C681.835 471.027 675.641 481.38 664.528 487.84C644.338 499.57 619.518 490.18 611.448 468.57C606.855 456.25 608.901 444.217 617.588 432.47C617.672 432.357 617.711 432.216 617.699 432.074C617.686 431.932 617.621 431.799 617.518 431.7L611.908 426.16C611.804 426.055 611.678 425.973 611.541 425.92C611.404 425.866 611.257 425.842 611.111 425.848C610.964 425.855 610.822 425.892 610.692 425.958C610.562 426.024 610.448 426.116 610.358 426.23C594.648 445.86 596.038 473.61 615.098 490.6Z" stroke="#FF916C" stroke-width="2"/>
<path d="M161.668 149.57C161.668 149.429 161.612 149.295 161.513 149.195C161.414 149.096 161.279 149.04 161.138 149.04H60.4382C60.2976 149.04 60.1628 149.096 60.0634 149.195C59.9641 149.295 59.9082 149.429 59.9082 149.57V158.27C59.9082 158.411 59.9641 158.545 60.0634 158.645C60.1628 158.744 60.2976 158.8 60.4382 158.8H161.138C161.279 158.8 161.414 158.744 161.513 158.645C161.612 158.545 161.668 158.411 161.668 158.27V149.57Z" stroke="#DAD8FF" stroke-width="2"/>
<path d="M161.658 181.79C161.658 181.657 161.605 181.53 161.512 181.436C161.418 181.343 161.291 181.29 161.158 181.29H60.418C60.2854 181.29 60.1582 181.343 60.0644 181.436C59.9706 181.53 59.918 181.657 59.918 181.79V190.29C59.918 190.423 59.9706 190.55 60.0644 190.644C60.1582 190.737 60.2854 190.79 60.418 190.79H161.158C161.291 190.79 161.418 190.737 161.512 190.644C161.605 190.55 161.658 190.423 161.658 190.29V181.79Z" stroke="#DAD8FF" stroke-width="2"/>
<path d="M161.668 214.14C161.668 213.981 161.605 213.828 161.492 213.716C161.38 213.603 161.227 213.54 161.068 213.54H60.5082C60.3491 213.54 60.1965 213.603 60.084 213.716C59.9714 213.828 59.9082 213.981 59.9082 214.14V222.44C59.9082 222.519 59.9237 222.597 59.9539 222.67C59.984 222.742 60.0282 222.809 60.084 222.864C60.1397 222.92 60.2058 222.964 60.2786 222.994C60.3514 223.025 60.4294 223.04 60.5082 223.04H161.068C161.227 223.04 161.38 222.977 161.492 222.864C161.605 222.752 161.668 222.599 161.668 222.44V214.14Z" stroke="#DAD8FF" stroke-width="2"/>
<path d="M161.668 246.18C161.668 246.01 161.601 245.848 161.481 245.727C161.361 245.607 161.198 245.54 161.028 245.54H60.5482C60.3785 245.54 60.2157 245.607 60.0956 245.727C59.9756 245.848 59.9082 246.01 59.9082 246.18V254.64C59.9082 254.81 59.9756 254.973 60.0956 255.093C60.2157 255.213 60.3785 255.28 60.5482 255.28H161.028C161.198 255.28 161.361 255.213 161.481 255.093C161.601 254.973 161.668 254.81 161.668 254.64V246.18Z" stroke="#DAD8FF" stroke-width="2"/>
<path d="M161.668 278.35C161.668 278.202 161.609 278.059 161.504 277.954C161.399 277.849 161.257 277.79 161.108 277.79H60.4682C60.3197 277.79 60.1773 277.849 60.0722 277.954C59.9672 278.059 59.9082 278.202 59.9082 278.35V286.73C59.9082 286.879 59.9672 287.021 60.0722 287.126C60.1773 287.231 60.3197 287.29 60.4682 287.29H161.108C161.257 287.29 161.399 287.231 161.504 287.126C161.609 287.021 161.668 286.879 161.668 286.73V278.35Z" stroke="#DAD8FF" stroke-width="2"/>
<path d="M161.658 310.31C161.658 310.238 161.63 310.17 161.579 310.119C161.528 310.068 161.46 310.04 161.388 310.04H60.188C60.1163 310.04 60.0477 310.068 59.997 310.119C59.9464 310.17 59.918 310.238 59.918 310.31V319.27C59.918 319.342 59.9464 319.41 59.997 319.461C60.0477 319.512 60.1163 319.54 60.188 319.54H161.388C161.46 319.54 161.528 319.512 161.579 319.461C161.63 319.41 161.658 319.342 161.658 319.27V310.31Z" stroke="#DAD8FF" stroke-width="2"/>
<path d="M171.248 464.3C171.266 464.303 171.285 464.302 171.303 464.297C171.321 464.292 171.337 464.282 171.35 464.27C171.364 464.257 171.374 464.242 171.381 464.224C171.388 464.207 171.39 464.188 171.388 464.17C170.018 453.74 172.518 442.49 175.528 432.5C175.551 432.421 175.553 432.34 175.533 432.268C175.513 432.196 175.473 432.137 175.418 432.1C175.158 431.93 175.148 432.45 175.028 432.68C170.138 441.87 167.378 452.99 169.348 463.13C169.608 464.43 170.248 464.13 171.248 464.3Z" stroke="#F26E87" stroke-width="2"/>
<path d="M158.968 465.6C160.468 459.68 153.368 443.46 150.608 437.73C150.461 437.424 150.424 437.437 150.498 437.77C152.684 446.924 154.858 456.067 157.018 465.2C157.258 466.2 158.168 468.75 158.968 465.6Z" stroke="#F26E87" stroke-width="2"/>
<path d="M130.658 463.26C128.751 464.286 127.681 465.463 127.448 466.79C127.421 466.944 127.426 467.102 127.462 467.254C127.498 467.407 127.565 467.55 127.659 467.675C127.753 467.801 127.871 467.906 128.007 467.984C128.142 468.062 128.292 468.112 128.448 468.13C131.161 468.45 133.814 468.406 136.408 468" stroke="#F794A1" stroke-width="2"/>
<path d="M136.408 468C136.761 468.253 137.104 468.326 137.438 468.22C137.563 468.181 137.664 468.084 137.72 467.949C137.776 467.814 137.782 467.653 137.738 467.5C136.098 461.993 134.324 456.53 132.418 451.11C130.898 446.81 130.708 443 130.368 438.59C130.361 438.514 130.341 438.439 130.309 438.372C130.277 438.304 130.234 438.246 130.183 438.2C130.132 438.155 130.074 438.124 130.014 438.11C129.954 438.096 129.894 438.099 129.838 438.12C129.544 438.226 129.461 438.54 129.588 439.06C131.534 447.133 131.891 455.2 130.658 463.26" stroke="#F26E87" stroke-width="2"/>
<path d="M136.408 468L130.658 463.26" stroke="#EA8E9A" stroke-width="2"/>
<path d="M148.748 490.89C152.495 493.09 156.535 494.533 160.868 495.22C160.92 495.228 160.973 495.223 161.022 495.205C161.072 495.186 161.115 495.156 161.149 495.116C161.182 495.077 161.204 495.03 161.213 494.979C161.222 494.929 161.217 494.878 161.198 494.83C159.871 491.23 159.491 487.563 160.058 483.83" stroke="#F794A1" stroke-width="2"/>
<path d="M160.058 483.83L184.158 477.23C184.302 477.191 184.428 477.107 184.519 476.991C184.609 476.876 184.658 476.735 184.658 476.59L184.568 471.46C184.566 471.313 184.517 471.167 184.429 471.04C184.34 470.913 184.215 470.809 184.068 470.74C175.998 466.86 171.208 462.98 162.158 466.96C157.548 468.99 153.108 468.85 148.288 468.38C148.155 468.366 148.022 468.403 147.914 468.485C147.806 468.566 147.733 468.686 147.708 468.82C146.342 476.047 146.688 483.404 148.748 490.89" stroke="#FD99A6" stroke-width="2"/>
<path d="M160.058 483.83C156.558 486.47 152.788 488.823 148.748 490.89" stroke="#F5B9B9" stroke-width="2"/>
<path d="M190.068 655.94C192.595 655.02 194.721 653.463 196.448 651.27C196.888 650.717 196.771 650.55 196.098 650.77C194.558 651.27 186.098 652.32 189.228 655.74C189.331 655.853 189.466 655.932 189.616 655.967C189.766 656.003 189.923 655.993 190.068 655.94Z" stroke="#605C77" stroke-width="2"/>
<path d="M416.648 597.62C416.648 591.615 414.263 585.857 410.017 581.611C405.771 577.365 400.013 574.98 394.008 574.98C388.004 574.98 382.245 577.365 377.999 581.611C373.753 585.857 371.368 591.615 371.368 597.62C371.368 600.593 371.954 603.537 373.091 606.284C374.229 609.031 375.897 611.527 377.999 613.629C380.102 615.731 382.597 617.399 385.344 618.537C388.091 619.674 391.035 620.26 394.008 620.26C396.981 620.26 399.925 619.674 402.672 618.537C405.419 617.399 407.915 615.731 410.017 613.629C412.119 611.527 413.787 609.031 414.925 606.284C416.063 603.537 416.648 600.593 416.648 597.62Z" stroke="#E4E5EB" stroke-width="2"/>
<path d="M175.578 732.59C180.251 736.323 185.361 736.937 190.908 734.43C191.768 734.037 191.744 733.763 190.838 733.61L176.268 731.04C174.028 730.647 173.798 731.163 175.578 732.59Z" stroke="#9A716C" stroke-width="2"/>
<path d="M286.158 31C435.245 31.0467 584.328 31.06 733.408 31.04C738.822 31.04 744.905 32.22 751.658 34.58C762.598 40.8733 769.568 49.62 772.568 60.82C775.318 71.12 773.898 85.81 773.938 97.21L773.918 116.54L773.948 189.54V220.45V407.54L773.868 560.54H202.628L201.808 544.03L199.198 528.79C376.765 528.79 554.328 528.79 731.888 528.79C740.988 528.79 748.438 525.13 751.728 516.41C752.682 513.883 753.158 509.903 753.158 504.47C753.158 366.91 753.158 229.353 753.158 91.8C753.158 90.89 752.778 89.85 752.868 88.79C753.235 87.8433 753.345 87.01 753.198 86.29C750.785 74.6233 743.772 68.79 732.158 68.79C508.732 68.79 285.305 68.79 61.8784 68.79C54.865 68.79 49.9884 69.31 47.2484 70.35C40.1984 73.02 34.5383 80.3 34.9483 88.77V126.54C34.895 253.533 34.885 380.527 34.9184 507.52C34.9184 522.33 43.8484 528.92 57.8984 528.82C80.305 528.667 102.712 528.74 125.118 529.04C124.478 533.96 123.358 540 119.728 543.65C119.676 543.703 119.633 543.765 119.601 543.831C119.57 543.898 119.552 543.968 119.547 544.037C119.543 544.106 119.552 544.173 119.574 544.233C119.597 544.294 119.632 544.347 119.678 544.39L120.928 545.55C120.362 550.623 119.365 555.637 117.938 560.59L14.3383 560.65L14.0684 522.52L14.1284 307.45L14.0883 271.6L14.1184 183.79L14.1384 102.46C14.1584 93.5667 14.165 84.7633 14.1584 76.05C14.1517 68.8967 14.615 63.61 15.5484 60.19C19.1984 46.8 30.1584 35.98 43.6184 32.43C47.1117 31.5033 52.8917 31.0433 60.9583 31.05C136.025 31.0633 211.092 31.0467 286.158 31ZM403.208 50.13C403.208 47.6873 402.238 45.3447 400.511 43.6175C398.784 41.8903 396.441 40.92 393.998 40.92C391.556 40.92 389.213 41.8903 387.486 43.6175C385.759 45.3447 384.788 47.6873 384.788 50.13C384.788 51.3395 385.027 52.5371 385.489 53.6545C385.952 54.7719 386.631 55.7872 387.486 56.6424C388.341 57.4977 389.356 58.1761 390.474 58.6389C391.591 59.1018 392.789 59.34 393.998 59.34C395.208 59.34 396.405 59.1018 397.523 58.6389C398.64 58.1761 399.656 57.4977 400.511 56.6424C401.366 55.7872 402.044 54.7719 402.507 53.6545C402.97 52.5371 403.208 51.3395 403.208 50.13Z" fill="#103150"/>
<path d="M393.998 59.3399C399.085 59.3399 403.208 55.2165 403.208 50.1299C403.208 45.0434 399.085 40.9199 393.998 40.9199C388.912 40.9199 384.788 45.0434 384.788 50.1299C384.788 55.2165 388.912 59.3399 393.998 59.3399Z" fill="white"/>
<path d="M752.869 88.79L34.9487 88.77C34.5387 80.3 40.1987 73.02 47.2487 70.35C49.9887 69.31 54.8654 68.79 61.8787 68.79C285.305 68.79 508.732 68.79 732.159 68.79C743.772 68.79 750.785 74.6234 753.199 86.29C753.345 87.01 753.235 87.8434 752.869 88.79ZM59.3787 78.78C59.3787 77.4646 58.8561 76.203 57.9259 75.2728C56.9958 74.3426 55.7342 73.82 54.4187 73.82C53.1032 73.82 51.8416 74.3426 50.9114 75.2728C49.9813 76.203 49.4587 77.4646 49.4587 78.78C49.4587 80.0955 49.9813 81.3571 50.9114 82.2873C51.8416 83.2175 53.1032 83.74 54.4187 83.74C55.7342 83.74 56.9958 83.2175 57.9259 82.2873C58.8561 81.3571 59.3787 80.0955 59.3787 78.78ZM74.0187 78.79C74.0187 77.4799 73.4982 76.2234 72.5718 75.2969C71.6454 74.3705 70.3889 73.85 69.0787 73.85C67.7685 73.85 66.512 74.3705 65.5856 75.2969C64.6591 76.2234 64.1387 77.4799 64.1387 78.79C64.1387 80.1002 64.6591 81.3567 65.5856 82.2831C66.512 83.2096 67.7685 83.73 69.0787 83.73C70.3889 83.73 71.6454 83.2096 72.5718 82.2831C73.4982 81.3567 74.0187 80.1002 74.0187 78.79ZM88.6087 78.79C88.6087 77.4799 88.0882 76.2234 87.1618 75.2969C86.2354 74.3705 84.9789 73.85 83.6687 73.85C82.3585 73.85 81.102 74.3705 80.1756 75.2969C79.2492 76.2234 78.7287 77.4799 78.7287 78.79C78.7287 80.1002 79.2492 81.3567 80.1756 82.2831C81.102 83.2096 82.3585 83.73 83.6687 83.73C84.9789 83.73 86.2354 83.2096 87.1618 82.2831C88.0882 81.3567 88.6087 80.1002 88.6087 78.79Z" fill="white"/>
<path d="M54.418 83.7398C57.1573 83.7398 59.378 81.5192 59.378 78.7798C59.378 76.0405 57.1573 73.8198 54.418 73.8198C51.6787 73.8198 49.458 76.0405 49.458 78.7798C49.458 81.5192 51.6787 83.7398 54.418 83.7398Z" fill="#144162"/>
<path d="M69.0787 83.7301C71.807 83.7301 74.0186 81.5184 74.0186 78.7901C74.0186 76.0618 71.807 73.8501 69.0787 73.8501C66.3504 73.8501 64.1387 76.0618 64.1387 78.7901C64.1387 81.5184 66.3504 83.7301 69.0787 83.7301Z" fill="#4D5DB5"/>
<path d="M83.6685 83.7301C86.3968 83.7301 88.6085 81.5184 88.6085 78.7901C88.6085 76.0618 86.3968 73.8501 83.6685 73.8501C80.9402 73.8501 78.7285 76.0618 78.7285 78.7901C78.7285 81.5184 80.9402 83.7301 83.6685 83.7301Z" fill="#FF916C"/>
<path d="M34.9482 88.77L752.868 88.79C752.778 89.85 753.158 90.89 753.158 91.8C753.158 229.353 753.158 366.91 753.158 504.47C753.158 509.903 752.682 513.883 751.728 516.41C748.438 525.13 740.988 528.79 731.888 528.79C554.328 528.79 376.765 528.79 199.198 528.79C197.605 520.89 196.382 512.893 195.528 504.8C195.514 504.668 195.552 504.536 195.633 504.43C195.715 504.324 195.835 504.252 195.968 504.23C206.128 502.47 209.128 490.51 211.528 482.21C214.675 471.33 216.165 460.213 215.998 448.86C215.978 447.493 216.125 445.173 216.438 441.9C218.558 420.07 202.398 414.44 186.868 406.29L186.748 388.18L195.308 377.61C196.622 375.99 197.322 374.293 197.408 372.52C197.598 368.64 198.618 359.42 192.738 359.37C191.312 359.363 190.852 358.69 191.358 357.35C193.432 351.957 191.935 348.103 186.868 345.79L186.848 127.11C186.848 126.975 186.796 126.845 186.702 126.749C186.608 126.654 186.481 126.6 186.348 126.6L34.9482 126.54V88.77ZM161.668 104.14C161.668 103.981 161.605 103.828 161.493 103.716C161.38 103.603 161.227 103.54 161.068 103.54H60.5083C60.3491 103.54 60.1965 103.603 60.084 103.716C59.9715 103.828 59.9082 103.981 59.9082 104.14V112.7C59.9082 112.859 59.9715 113.012 60.084 113.124C60.1965 113.237 60.3491 113.3 60.5083 113.3H161.068C161.227 113.3 161.38 113.237 161.493 113.124C161.605 113.012 161.668 112.859 161.668 112.7V104.14ZM718.928 138.49C718.928 138.307 718.856 138.132 718.726 138.002C718.597 137.873 718.421 137.8 718.238 137.8H270.118C269.935 137.8 269.76 137.873 269.63 138.002C269.501 138.132 269.428 138.307 269.428 138.49V138.85C269.428 139.033 269.501 139.209 269.63 139.338C269.76 139.467 269.935 139.54 270.118 139.54H718.238C718.421 139.54 718.597 139.467 718.726 139.338C718.856 139.209 718.928 139.033 718.928 138.85V138.49ZM641.158 172.83C593.265 172.837 545.368 172.877 497.468 172.95C497.295 172.95 497.122 172.98 496.948 173.04C495.628 160.68 479.878 158.32 475.128 169.79C474.428 171.48 475.268 173.65 471.908 172.83C404.742 172.737 337.575 172.803 270.408 173.03C269.302 173.037 268.958 173.327 269.378 173.9C269.461 174.014 269.58 174.106 269.724 174.169C269.869 174.232 270.035 174.263 270.208 174.26C274.638 174.23 279.468 174.56 283.468 174.55C343.115 174.517 402.762 174.527 462.408 174.58C442.278 180.78 429.118 192.84 411.658 207.58L270.468 207.56C270.109 207.56 269.789 207.672 269.578 207.87C268.538 208.84 269.918 209.27 270.738 209.27C316.958 209.27 363.182 209.29 409.408 209.33C386.068 229.41 358.298 238.68 327.578 232.36C307.032 228.133 288.255 220.73 271.248 210.15C270.94 209.957 270.608 209.875 270.318 209.92C269.252 210.087 268.865 210.78 269.158 212C268.738 222.193 268.738 232.387 269.158 242.58L269.118 243.29C268.738 254.83 268.762 266.167 269.188 277.3C268.715 278.46 268.872 279.04 269.658 279.04C419.158 279.04 568.662 279.04 718.168 279.04C718.332 279.04 718.489 278.997 718.618 278.919C718.747 278.84 718.841 278.729 718.888 278.6C719.055 278.147 718.978 277.697 718.658 277.25L718.848 243.92L718.868 242.5V209.29L718.858 207.63L718.618 176.54C719.812 174.033 719.202 172.753 716.788 172.7C716.449 172.694 716.132 172.596 715.878 172.42C695.848 158.47 672.698 153.59 650.878 166.78C647.612 168.753 644.372 170.77 641.158 172.83ZM375.398 357.23C375.398 357.116 375.353 357.007 375.272 356.926C375.192 356.845 375.082 356.8 374.968 356.8H309.588C309.474 356.8 309.365 356.845 309.284 356.926C309.204 357.007 309.158 357.116 309.158 357.23V370.61C309.158 370.724 309.204 370.833 309.284 370.914C309.365 370.995 309.474 371.04 309.588 371.04H374.968C375.082 371.04 375.192 370.995 375.272 370.914C375.353 370.833 375.398 370.724 375.398 370.61V357.23ZM526.898 357.22C526.898 357.164 526.887 357.108 526.866 357.055C526.844 357.003 526.812 356.956 526.772 356.916C526.732 356.876 526.685 356.844 526.633 356.823C526.581 356.801 526.525 356.79 526.468 356.79H461.088C460.974 356.79 460.865 356.835 460.784 356.916C460.704 356.997 460.658 357.106 460.658 357.22V370.6C460.658 370.714 460.704 370.823 460.784 370.904C460.865 370.985 460.974 371.03 461.088 371.03H526.468C526.525 371.03 526.581 371.019 526.633 370.997C526.685 370.976 526.732 370.944 526.772 370.904C526.812 370.864 526.844 370.817 526.866 370.765C526.887 370.712 526.898 370.657 526.898 370.6V357.22ZM678.658 357.15C678.658 357.052 678.619 356.958 678.55 356.888C678.48 356.819 678.386 356.78 678.288 356.78H612.768C612.67 356.78 612.576 356.819 612.507 356.888C612.437 356.958 612.398 357.052 612.398 357.15V370.67C612.398 370.768 612.437 370.862 612.507 370.932C612.576 371.001 612.67 371.04 612.768 371.04H678.288C678.386 371.04 678.48 371.001 678.55 370.932C678.619 370.862 678.658 370.768 678.658 370.67V357.15ZM509.408 420.58C511.468 421.767 513.518 422.973 515.558 424.2C531.878 433.99 536.708 455.82 528.488 472.19C515.958 497.11 482.148 499.25 465.758 477.2C451.558 458.1 459.588 431.91 480.518 421.85C480.578 421.821 480.632 421.78 480.676 421.731C480.72 421.681 480.754 421.623 480.775 421.561C480.797 421.498 480.805 421.432 480.801 421.367C480.796 421.302 480.778 421.238 480.748 421.18L477.088 413.84C476.988 413.643 476.814 413.493 476.603 413.422C476.392 413.351 476.161 413.364 475.958 413.46C460.568 420.87 450.878 435 449.278 451.83C446.218 483.89 477.438 509.01 508.218 500.27C550.428 488.28 554.128 427.68 512.928 412.17C512.866 412.147 512.799 412.136 512.733 412.138C512.666 412.14 512.601 412.155 512.542 412.182C512.482 412.209 512.429 412.248 512.385 412.296C512.342 412.343 512.309 412.399 512.288 412.46C511.455 414.813 510.948 417.163 510.768 419.51C510.738 419.99 510.398 420.37 509.908 420.25L511.508 412.42C511.574 412.097 511.522 411.762 511.363 411.481C511.205 411.2 510.95 410.993 510.648 410.9C499.208 407.48 488.322 408.03 477.988 412.55C477.928 412.575 477.874 412.612 477.829 412.66C477.783 412.708 477.749 412.765 477.726 412.828C477.704 412.89 477.694 412.957 477.698 413.025C477.702 413.092 477.719 413.159 477.748 413.22L481.428 420.67C481.489 420.796 481.592 420.896 481.719 420.953C481.845 421.009 481.987 421.019 482.118 420.98C492.138 418.06 499.368 416.71 509.408 420.58ZM619.038 431.04C641.848 405.73 682.418 420.38 682.968 455C682.969 455.073 682.986 455.145 683.016 455.212C683.045 455.279 683.089 455.339 683.143 455.39C683.197 455.44 683.26 455.479 683.33 455.505C683.4 455.531 683.474 455.543 683.548 455.54L690.818 455.23C691.059 455.22 691.295 455.162 691.512 455.06C691.729 454.958 691.922 454.814 692.08 454.637C692.239 454.46 692.358 454.254 692.432 454.031C692.505 453.808 692.531 453.573 692.508 453.34C691.522 443.647 688.908 435.61 684.668 429.23C667.558 403.51 633.148 402.05 612.358 424.01C612.221 424.158 612.145 424.353 612.147 424.553C612.149 424.752 612.228 424.941 612.368 425.08L618.338 431.06C618.384 431.107 618.44 431.143 618.501 431.168C618.562 431.192 618.627 431.204 618.693 431.202C618.758 431.2 618.823 431.184 618.882 431.157C618.942 431.129 618.995 431.089 619.038 431.04ZM317.558 483.24C317.605 483.192 317.641 483.134 317.664 483.071C317.688 483.007 317.698 482.938 317.694 482.868C317.69 482.799 317.673 482.729 317.643 482.665C317.613 482.6 317.57 482.54 317.518 482.49C292.038 458.52 307.078 420.57 341.468 418.56C341.616 418.552 341.756 418.493 341.858 418.395C341.96 418.296 342.018 418.166 342.018 418.03L341.958 409.57C341.957 409.503 341.942 409.437 341.913 409.375C341.884 409.314 341.842 409.258 341.79 409.212C341.738 409.166 341.677 409.129 341.61 409.105C341.542 409.08 341.471 409.069 341.398 409.07C298.338 409.86 279.948 459.68 310.538 489.21C310.71 489.377 310.937 489.474 311.169 489.48C311.402 489.486 311.621 489.399 311.778 489.24L317.558 483.24ZM344.098 418.64C356.265 419.693 365.632 424.71 372.198 433.69C386.708 453.54 378.708 481.14 355.758 489.96C343.305 494.747 331.195 492.85 319.428 484.27C319.217 484.115 318.958 484.038 318.699 484.055C318.441 484.071 318.199 484.179 318.018 484.36L312.548 489.81C312.455 489.903 312.383 490.015 312.337 490.139C312.291 490.263 312.273 490.396 312.284 490.528C312.294 490.661 312.333 490.791 312.397 490.908C312.462 491.026 312.551 491.129 312.658 491.21C326.165 501.517 340.455 504.487 355.528 500.12C376.738 493.97 390.248 474.59 388.988 452.56C387.628 428.69 368.028 410.13 343.948 409.13C343.81 409.125 343.674 409.171 343.568 409.257C343.461 409.344 343.39 409.466 343.368 409.6C342.922 412.447 342.965 415.287 343.498 418.12C343.525 418.258 343.598 418.383 343.706 418.477C343.814 418.571 343.952 418.628 344.098 418.64ZM615.098 490.6C630.458 504.3 652.068 506.36 669.648 495.98C683.095 488.04 690.755 475.443 692.628 458.19C692.768 456.93 692.202 456.3 690.928 456.3L683.658 456.28C683.519 456.279 683.385 456.331 683.283 456.424C683.181 456.516 683.118 456.644 683.108 456.78C681.835 471.027 675.642 481.38 664.528 487.84C644.338 499.57 619.518 490.18 611.448 468.57C606.855 456.25 608.902 444.217 617.588 432.47C617.672 432.357 617.712 432.216 617.699 432.074C617.686 431.933 617.622 431.799 617.518 431.7L611.908 426.16C611.804 426.055 611.679 425.974 611.541 425.92C611.404 425.866 611.257 425.842 611.111 425.848C610.965 425.855 610.822 425.892 610.692 425.958C610.562 426.024 610.449 426.117 610.358 426.23C594.648 445.86 596.038 473.61 615.098 490.6Z" fill="#144162"/>
<path d="M161.068 103.54H60.5082C60.1768 103.54 59.9082 103.809 59.9082 104.14V112.7C59.9082 113.031 60.1768 113.3 60.5082 113.3H161.068C161.4 113.3 161.668 113.031 161.668 112.7V104.14C161.668 103.809 161.4 103.54 161.068 103.54Z" fill="#4D5DB5"/>
<path d="M34.9486 126.54L186.349 126.6C186.481 126.6 186.608 126.654 186.702 126.749C186.796 126.845 186.849 126.975 186.849 127.11L186.869 345.79C180.599 344.81 174.919 344.17 172.489 339.21C171.995 338.197 171.219 337.503 170.159 337.13C163.329 334.75 158.269 336.14 150.639 339.46C150.341 339.589 150.008 339.607 149.699 339.51C144.309 337.78 140.319 335.8 136.659 341.83L60.6987 341.99C60.5604 341.989 60.4263 342.039 60.3214 342.131C60.2166 342.223 60.148 342.351 60.1287 342.49C59.7353 345.49 59.7353 348.397 60.1287 351.21C60.148 351.349 60.2166 351.477 60.3214 351.569C60.4263 351.661 60.5604 351.711 60.6987 351.71L135.869 351.54C137.829 354.76 140.829 355.09 141.409 359.39C131.929 373.72 136.439 391.49 152.659 397.86C152.796 397.913 152.914 398.006 152.996 398.126C153.078 398.246 153.121 398.387 153.119 398.53C153.052 401.71 151.899 404.367 149.659 406.5C142.639 409.36 134.259 413.79 126.839 414.99C114.279 417.01 109.849 432.46 110.639 443.44C110.879 446.78 109.539 451.01 108.119 454.16C103.472 464.48 102.905 474.94 106.419 485.54C109.419 494.6 119.749 495.04 127.659 494.83C127.723 494.829 127.788 494.84 127.848 494.865C127.908 494.889 127.962 494.925 128.008 494.971C128.054 495.016 128.09 495.071 128.114 495.131C128.138 495.191 128.15 495.255 128.149 495.32C127.895 506.66 126.885 517.9 125.119 529.04C102.712 528.74 80.3053 528.667 57.8987 528.82C43.8487 528.92 34.9186 522.33 34.9186 507.52C34.8853 380.527 34.8953 253.533 34.9486 126.54ZM161.669 149.57C161.669 149.429 161.613 149.295 161.513 149.195C161.414 149.096 161.279 149.04 161.139 149.04H60.4387C60.2981 149.04 60.1633 149.096 60.0639 149.195C59.9645 149.295 59.9087 149.429 59.9087 149.57V158.27C59.9087 158.411 59.9645 158.545 60.0639 158.645C60.1633 158.744 60.2981 158.8 60.4387 158.8H161.139C161.279 158.8 161.414 158.744 161.513 158.645C161.613 158.545 161.669 158.411 161.669 158.27V149.57ZM161.659 181.79C161.659 181.657 161.606 181.53 161.512 181.436C161.418 181.343 161.291 181.29 161.159 181.29H60.4187C60.2861 181.29 60.1589 181.343 60.0651 181.436C59.9713 181.53 59.9187 181.657 59.9187 181.79V190.29C59.9187 190.423 59.9713 190.55 60.0651 190.644C60.1589 190.737 60.2861 190.79 60.4187 190.79H161.159C161.291 190.79 161.418 190.737 161.512 190.644C161.606 190.55 161.659 190.423 161.659 190.29V181.79ZM161.669 214.14C161.669 213.981 161.605 213.828 161.493 213.716C161.38 213.603 161.228 213.54 161.069 213.54H60.5087C60.3495 213.54 60.1969 213.603 60.0844 213.716C59.9719 213.828 59.9087 213.981 59.9087 214.14V222.44C59.9087 222.519 59.9242 222.597 59.9543 222.67C59.9845 222.742 60.0287 222.809 60.0844 222.864C60.1401 222.92 60.2062 222.964 60.279 222.994C60.3518 223.025 60.4299 223.04 60.5087 223.04H161.069C161.228 223.04 161.38 222.977 161.493 222.864C161.605 222.752 161.669 222.599 161.669 222.44V214.14ZM161.669 246.18C161.669 246.01 161.601 245.848 161.481 245.727C161.361 245.607 161.198 245.54 161.029 245.54H60.5487C60.3789 245.54 60.2161 245.607 60.0961 245.727C59.9761 245.848 59.9087 246.01 59.9087 246.18V254.64C59.9087 254.81 59.9761 254.973 60.0961 255.093C60.2161 255.213 60.3789 255.28 60.5487 255.28H161.029C161.198 255.28 161.361 255.213 161.481 255.093C161.601 254.973 161.669 254.81 161.669 254.64V246.18ZM161.669 278.35C161.669 278.202 161.61 278.059 161.505 277.954C161.4 277.849 161.257 277.79 161.109 277.79H60.4686C60.3201 277.79 60.1777 277.849 60.0727 277.954C59.9677 278.059 59.9087 278.202 59.9087 278.35V286.73C59.9087 286.879 59.9677 287.021 60.0727 287.126C60.1777 287.231 60.3201 287.29 60.4686 287.29H161.109C161.257 287.29 161.4 287.231 161.505 287.126C161.61 287.021 161.669 286.879 161.669 286.73V278.35ZM161.659 310.31C161.659 310.238 161.63 310.17 161.58 310.119C161.529 310.068 161.46 310.04 161.389 310.04H60.1887C60.117 310.04 60.0484 310.068 59.9977 310.119C59.9471 310.17 59.9187 310.238 59.9187 310.31V319.27C59.9187 319.342 59.9471 319.41 59.9977 319.461C60.0484 319.512 60.117 319.54 60.1887 319.54H161.389C161.46 319.54 161.529 319.512 161.58 319.461C161.63 319.41 161.659 319.342 161.659 319.27V310.31Z" fill="white"/>
<path d="M718.238 137.8H270.118C269.737 137.8 269.428 138.109 269.428 138.49V138.85C269.428 139.231 269.737 139.54 270.118 139.54H718.238C718.619 139.54 718.928 139.231 718.928 138.85V138.49C718.928 138.109 718.619 137.8 718.238 137.8Z" fill="#9496B3"/>
<path d="M161.138 149.04H60.4382C60.1455 149.04 59.9082 149.277 59.9082 149.57V158.27C59.9082 158.563 60.1455 158.8 60.4382 158.8H161.138C161.431 158.8 161.668 158.563 161.668 158.27V149.57C161.668 149.277 161.431 149.04 161.138 149.04Z" fill="#144162"/>
<path d="M718.618 176.54L714.158 174.5C713.578 173.693 712.828 173.11 711.908 172.75C691.238 158.64 666.858 156.92 646.408 172.75C645.402 172.896 644.652 173.396 644.158 174.25C643.198 174.59 642.612 174.85 642.398 175.03C628.858 186.06 616.398 197.53 601.638 207.61C600.478 207.69 599.485 208.18 598.658 209.08C587.492 213.88 575.988 215.297 564.148 213.33C559.328 212.53 553.658 210.64 548.408 209.25C547.295 208.383 546.045 207.8 544.658 207.5C533.568 202.19 524.798 196.22 514.748 188.57C509.335 184.45 503.518 181.166 497.298 178.72C497.039 178.616 496.754 178.601 496.485 178.675C496.216 178.749 495.978 178.908 495.808 179.13C489.338 187.65 477.748 186.77 474.528 175.75C474.48 175.587 474.376 175.446 474.234 175.351C474.092 175.256 473.92 175.213 473.748 175.23C450.608 177.6 433.558 191.2 416.158 207.5C415.132 207.74 414.365 208.303 413.858 209.19C399.948 221.03 382.178 231.71 364.148 235.09C330.198 241.44 298.168 227.76 269.158 212C268.865 210.78 269.252 210.086 270.318 209.92C270.609 209.875 270.94 209.957 271.248 210.15C288.255 220.73 307.032 228.133 327.578 232.36C358.298 238.68 386.068 229.41 409.408 209.33C410.362 209.017 411.112 208.433 411.658 207.58C429.118 192.84 442.278 180.78 462.408 174.58L471.908 172.83C475.268 173.65 474.428 171.48 475.128 169.79C479.878 158.32 495.628 160.68 496.948 173.04L497.198 174.54C496.285 175.326 496.285 175.906 497.198 176.28C511.298 182.07 522.368 191.18 534.988 199.03C541.058 202.81 545.708 206.01 552.908 207.58C554.588 208.873 556.505 209.54 558.658 209.58C569.432 212.76 580.192 212.733 590.938 209.5C592.405 209.16 593.688 208.59 594.788 207.79C611.388 200 625.018 186.32 638.908 174.58L641.158 172.83C644.372 170.77 647.612 168.753 650.878 166.78C672.698 153.59 695.848 158.47 715.878 172.42C716.133 172.596 716.449 172.693 716.788 172.7C719.202 172.753 719.812 174.033 718.618 176.54Z" fill="#DB866D"/>
<path d="M711.908 172.75H646.408C666.858 156.92 691.238 158.64 711.908 172.75Z" fill="#FF916C"/>
<path d="M471.908 172.83L462.408 174.58C402.762 174.527 343.115 174.517 283.468 174.55C279.468 174.56 274.638 174.23 270.208 174.26C270.035 174.263 269.869 174.232 269.725 174.169C269.58 174.106 269.461 174.014 269.378 173.9C268.958 173.327 269.302 173.037 270.408 173.03C337.575 172.803 404.742 172.737 471.908 172.83Z" fill="#9496B3"/>
<path d="M641.158 172.83L638.908 174.58L497.198 174.54L496.948 173.04C497.122 172.98 497.295 172.95 497.468 172.95C545.368 172.877 593.265 172.837 641.158 172.83Z" fill="#9496B3"/>
<path d="M646.408 172.75H711.908C712.828 173.11 713.578 173.693 714.158 174.5L644.678 174.48C644.542 174.48 644.415 174.438 644.318 174.36L644.158 174.25C644.652 173.397 645.402 172.897 646.408 172.75Z" fill="#827DDA"/>
<path d="M638.909 174.58C625.019 186.32 611.389 200 594.789 207.79L552.909 207.58C545.709 206.01 541.059 202.81 534.989 199.03C522.369 191.18 511.299 182.07 497.199 176.28C496.285 175.907 496.285 175.327 497.199 174.54L638.909 174.58Z" fill="#144162"/>
<path d="M644.159 174.25L644.319 174.36C644.416 174.438 644.543 174.48 644.679 174.48L714.159 174.5L718.619 176.54L718.859 207.63L601.639 207.61C616.399 197.53 628.859 186.06 642.399 175.03C642.612 174.85 643.199 174.59 644.159 174.25Z" fill="#FF916C"/>
<path d="M544.658 207.5C539.128 207.9 532.068 207.54 528.198 207.54C490.852 207.56 453.505 207.547 416.158 207.5C433.558 191.2 450.608 177.6 473.748 175.23C473.92 175.213 474.091 175.256 474.234 175.351C474.376 175.446 474.48 175.587 474.528 175.75C477.748 186.77 489.338 187.65 495.808 179.13C495.978 178.909 496.215 178.749 496.484 178.675C496.753 178.601 497.039 178.617 497.298 178.72C503.518 181.167 509.335 184.45 514.748 188.57C524.798 196.22 533.568 202.19 544.658 207.5Z" fill="#FF916C"/>
<path d="M161.158 181.29H60.418C60.1418 181.29 59.918 181.514 59.918 181.79V190.29C59.918 190.566 60.1418 190.79 60.418 190.79H161.158C161.434 190.79 161.658 190.566 161.658 190.29V181.79C161.658 181.514 161.434 181.29 161.158 181.29Z" fill="#144162"/>
<path d="M411.658 207.58C411.111 208.433 410.361 209.017 409.408 209.33C363.181 209.29 316.958 209.27 270.738 209.27C269.918 209.27 268.538 208.84 269.578 207.87C269.789 207.672 270.109 207.56 270.468 207.56L411.658 207.58Z" fill="#9496B3"/>
<path d="M416.158 207.5C453.505 207.547 490.852 207.56 528.198 207.54C532.068 207.54 539.128 207.9 544.658 207.5C546.045 207.8 547.295 208.383 548.408 209.25L413.858 209.19C414.365 208.303 415.132 207.74 416.158 207.5Z" fill="#827DDA"/>
<path d="M552.908 207.58L594.788 207.79C593.688 208.59 592.405 209.16 590.938 209.5C580.145 208.9 569.385 208.927 558.658 209.58C556.505 209.54 554.588 208.873 552.908 207.58Z" fill="#9496B3"/>
<path d="M601.638 207.61L718.858 207.63L718.868 209.29L598.658 209.08C599.485 208.18 600.478 207.69 601.638 207.61Z" fill="#827DDA"/>
<path d="M548.408 209.25C553.658 210.64 559.328 212.53 564.148 213.33C575.988 215.297 587.491 213.88 598.658 209.08L718.868 209.29V242.5C569.258 242.15 419.628 242.83 270.028 242.34C269.928 242.34 269.744 242.403 269.478 242.53C269.384 242.57 269.278 242.587 269.158 242.58C268.738 232.387 268.738 222.193 269.158 212C298.168 227.76 330.198 241.44 364.148 235.09C382.178 231.71 399.948 221.03 413.858 209.19L548.408 209.25Z" fill="#FF916C"/>
<path d="M590.938 209.5C580.192 212.734 569.432 212.76 558.658 209.58C569.385 208.927 580.145 208.9 590.938 209.5Z" fill="#4C4C78"/>
<path d="M161.068 213.54H60.5082C60.1768 213.54 59.9082 213.809 59.9082 214.14V222.44C59.9082 222.771 60.1768 223.04 60.5082 223.04H161.068C161.4 223.04 161.668 222.771 161.668 222.44V214.14C161.668 213.809 161.4 213.54 161.068 213.54Z" fill="#144162"/>
<path d="M718.868 242.5L718.848 243.92C569.258 244.14 419.668 243.97 270.088 244.01C269.735 244.01 269.411 243.77 269.118 243.29L269.158 242.58C269.278 242.587 269.385 242.57 269.478 242.53C269.745 242.403 269.928 242.34 270.028 242.34C419.628 242.83 569.258 242.15 718.868 242.5Z" fill="#827DDA"/>
<path d="M269.118 243.29C269.411 243.77 269.735 244.01 270.088 244.01C419.668 243.97 569.258 244.14 718.848 243.92L718.658 277.25L269.188 277.3C268.761 266.167 268.738 254.83 269.118 243.29Z" fill="#FF916C"/>
<path d="M161.028 245.54H60.5482C60.1948 245.54 59.9082 245.827 59.9082 246.18V254.64C59.9082 254.994 60.1948 255.28 60.5482 255.28H161.028C161.382 255.28 161.668 254.994 161.668 254.64V246.18C161.668 245.827 161.382 245.54 161.028 245.54Z" fill="#144162"/>
<path d="M718.659 277.25C718.979 277.697 719.055 278.147 718.889 278.6C718.842 278.729 718.747 278.84 718.619 278.919C718.49 278.997 718.333 279.04 718.169 279.04C568.662 279.04 419.159 279.04 269.659 279.04C268.872 279.04 268.715 278.46 269.189 277.3L718.659 277.25Z" fill="#7E7AD2"/>
<path d="M161.108 277.79H60.4682C60.1589 277.79 59.9082 278.041 59.9082 278.35V286.73C59.9082 287.039 60.1589 287.29 60.4682 287.29H161.108C161.417 287.29 161.668 287.039 161.668 286.73V278.35C161.668 278.041 161.417 277.79 161.108 277.79Z" fill="#144162"/>
<path d="M161.388 310.04H60.188C60.0388 310.04 59.918 310.161 59.918 310.31V319.27C59.918 319.419 60.0388 319.54 60.188 319.54H161.388C161.537 319.54 161.658 319.419 161.658 319.27V310.31C161.658 310.161 161.537 310.04 161.388 310.04Z" fill="#144162"/>
<path d="M186.868 345.79C191.935 348.104 193.431 351.957 191.358 357.35C190.851 358.69 191.311 359.364 192.738 359.37C198.618 359.42 197.598 368.64 197.408 372.52C197.321 374.294 196.621 375.99 195.308 377.61L186.748 388.18C183.188 391.687 181.215 396.044 180.828 401.25C177.195 401.837 175.745 400.01 176.478 395.77C177.065 392.35 177.558 388.904 177.958 385.43C178.498 380.66 175.818 374.21 170.438 380.95C170.224 381.216 169.946 381.399 169.648 381.47C159.308 384.09 167.218 364.99 160.748 361.03C157.081 358.784 153.655 358.707 150.468 360.8C146.838 363.19 143.198 364.8 141.408 359.39C140.828 355.09 137.828 354.76 135.868 351.54C134.668 348.167 134.931 344.93 136.658 341.83C140.318 335.8 144.308 337.78 149.698 339.51C150.007 339.607 150.341 339.589 150.638 339.46C158.268 336.14 163.328 334.75 170.158 337.13C171.218 337.504 171.995 338.197 172.488 339.21C174.918 344.17 180.598 344.81 186.868 345.79Z" fill="#28100C"/>
<path d="M136.658 341.83C134.931 344.93 134.668 348.167 135.868 351.54L60.698 351.71C60.5597 351.711 60.4257 351.661 60.3208 351.569C60.2159 351.477 60.1474 351.349 60.128 351.21C59.7347 348.397 59.7347 345.49 60.128 342.49C60.1474 342.351 60.2159 342.223 60.3208 342.131C60.4257 342.039 60.5597 341.989 60.698 341.99L136.658 341.83Z" fill="#144162"/>
<path d="M374.968 356.8H309.588C309.351 356.8 309.158 356.992 309.158 357.23V370.61C309.158 370.847 309.351 371.04 309.588 371.04H374.968C375.206 371.04 375.398 370.847 375.398 370.61V357.23C375.398 356.992 375.206 356.8 374.968 356.8Z" fill="#4D5DB5"/>
<path d="M526.468 356.79H461.088C460.851 356.79 460.658 356.983 460.658 357.22V370.6C460.658 370.838 460.851 371.03 461.088 371.03H526.468C526.706 371.03 526.898 370.838 526.898 370.6V357.22C526.898 356.983 526.706 356.79 526.468 356.79Z" fill="#4D5DB5"/>
<path d="M678.288 356.78H612.768C612.564 356.78 612.398 356.946 612.398 357.15V370.67C612.398 370.875 612.564 371.04 612.768 371.04H678.288C678.493 371.04 678.658 370.875 678.658 370.67V357.15C678.658 356.946 678.493 356.78 678.288 356.78Z" fill="#4D5DB5"/>
<path d="M141.409 359.39C143.199 364.8 146.839 363.19 150.469 360.8C153.655 358.707 157.082 358.783 160.749 361.03C167.219 364.99 159.309 384.09 169.649 381.47C169.947 381.399 170.225 381.216 170.439 380.95C175.819 374.21 178.499 380.66 177.959 385.43C177.559 388.904 177.065 392.35 176.479 395.77C175.745 400.01 177.195 401.837 180.829 401.25L184.659 405.5C179.729 413.42 170.489 427.81 161.519 431.06C160.005 431.614 158.759 431.247 157.779 429.96C153.299 424.07 147.929 414.38 149.659 406.5C151.899 404.367 153.052 401.71 153.119 398.53C153.121 398.387 153.078 398.246 152.996 398.126C152.914 398.006 152.796 397.913 152.659 397.86C136.439 391.49 131.929 373.72 141.409 359.39Z" fill="#FFAF80"/>
<path d="M186.748 388.18L186.868 406.29L184.658 405.5L180.828 401.25C181.215 396.044 183.188 391.687 186.748 388.18Z" fill="white"/>
<path d="M184.658 405.5L186.868 406.29C202.398 414.44 218.558 420.07 216.438 441.9C216.125 445.173 215.978 447.493 215.998 448.86C216.165 460.213 214.675 471.33 211.528 482.21C209.128 490.51 206.128 502.47 195.968 504.23C195.835 504.252 195.715 504.324 195.634 504.43C195.552 504.536 195.514 504.668 195.528 504.8C196.382 512.893 197.605 520.89 199.198 528.79L201.808 544.03C192.668 546.123 183.555 547.703 174.468 548.77C171.818 549.08 168.078 549.26 165.968 548.99C152.522 547.27 139.025 546.43 125.478 546.47C124.578 546.477 123.062 546.17 120.928 545.55L119.678 544.39C119.632 544.347 119.597 544.294 119.574 544.233C119.552 544.173 119.543 544.106 119.547 544.037C119.552 543.968 119.57 543.898 119.602 543.831C119.633 543.765 119.676 543.703 119.728 543.65C123.358 540 124.478 533.96 125.118 529.04C126.885 517.9 127.895 506.66 128.148 495.32C128.15 495.255 128.138 495.191 128.114 495.131C128.09 495.071 128.054 495.016 128.008 494.97C127.962 494.925 127.908 494.889 127.848 494.865C127.787 494.84 127.723 494.829 127.658 494.83C119.748 495.04 109.418 494.6 106.418 485.54C102.905 474.94 103.472 464.48 108.118 454.16C109.538 451.01 110.878 446.78 110.638 443.44C109.848 432.46 114.278 417.01 126.838 414.99C134.258 413.79 142.638 409.36 149.658 406.5C147.928 414.38 153.298 424.07 157.778 429.96C158.758 431.247 160.005 431.613 161.518 431.06C170.488 427.81 179.728 413.42 184.658 405.5ZM171.248 464.3C171.267 464.303 171.285 464.302 171.303 464.297C171.321 464.292 171.337 464.282 171.351 464.27C171.364 464.257 171.375 464.242 171.381 464.224C171.388 464.207 171.39 464.188 171.388 464.17C170.018 453.74 172.518 442.49 175.528 432.5C175.551 432.421 175.553 432.34 175.533 432.268C175.513 432.196 175.473 432.137 175.418 432.1C175.158 431.93 175.148 432.45 175.028 432.68C170.138 441.87 167.378 452.99 169.348 463.13C169.608 464.43 170.248 464.13 171.248 464.3ZM158.968 465.6C160.468 459.68 153.368 443.46 150.608 437.73C150.462 437.423 150.425 437.437 150.498 437.77C152.685 446.923 154.858 456.067 157.018 465.2C157.258 466.2 158.168 468.75 158.968 465.6ZM130.658 463.26C128.752 464.287 127.682 465.463 127.448 466.79C127.422 466.944 127.426 467.102 127.463 467.255C127.499 467.407 127.566 467.55 127.66 467.675C127.753 467.801 127.872 467.906 128.007 467.984C128.143 468.062 128.293 468.112 128.448 468.13C131.162 468.45 133.815 468.407 136.408 468C136.762 468.253 137.105 468.327 137.438 468.22C137.563 468.181 137.665 468.084 137.721 467.949C137.777 467.815 137.783 467.653 137.738 467.5C136.098 461.993 134.325 456.53 132.418 451.11C130.898 446.81 130.708 443 130.368 438.59C130.362 438.514 130.342 438.44 130.31 438.372C130.278 438.304 130.235 438.246 130.184 438.2C130.133 438.155 130.075 438.124 130.015 438.11C129.955 438.096 129.895 438.1 129.838 438.12C129.545 438.227 129.462 438.54 129.588 439.06C131.535 447.133 131.892 455.2 130.658 463.26ZM148.748 490.89C152.495 493.09 156.535 494.533 160.868 495.22C160.92 495.228 160.974 495.223 161.023 495.204C161.072 495.186 161.116 495.156 161.149 495.116C161.183 495.077 161.205 495.03 161.213 494.979C161.222 494.929 161.217 494.878 161.198 494.83C159.872 491.23 159.492 487.563 160.058 483.83L184.158 477.23C184.302 477.191 184.429 477.107 184.519 476.991C184.609 476.875 184.658 476.735 184.658 476.59L184.568 471.46C184.566 471.313 184.517 471.167 184.429 471.04C184.341 470.913 184.216 470.809 184.068 470.74C175.998 466.86 171.208 462.98 162.158 466.96C157.548 468.99 153.108 468.85 148.288 468.38C148.155 468.366 148.022 468.403 147.914 468.484C147.807 468.566 147.733 468.686 147.708 468.82C146.342 476.047 146.688 483.403 148.748 490.89Z" fill="#4D5DB5"/>
<path d="M509.908 420.25L509.408 420.58C499.368 416.71 492.138 418.06 482.118 420.98C481.987 421.019 481.845 421.009 481.719 420.953C481.592 420.896 481.49 420.796 481.428 420.67L477.748 413.22C477.719 413.159 477.702 413.092 477.698 413.025C477.694 412.957 477.704 412.89 477.726 412.828C477.749 412.765 477.784 412.708 477.829 412.66C477.874 412.612 477.928 412.575 477.988 412.55C488.322 408.03 499.208 407.48 510.648 410.9C510.95 410.993 511.205 411.2 511.364 411.481C511.523 411.762 511.574 412.097 511.508 412.42L509.908 420.25Z" fill="#FF916C"/>
<path d="M682.968 455C682.418 420.38 641.848 405.73 619.038 431.04C618.994 431.089 618.941 431.129 618.882 431.157C618.822 431.185 618.758 431.2 618.692 431.202C618.626 431.204 618.561 431.192 618.5 431.168C618.439 431.143 618.384 431.107 618.338 431.06L612.368 425.08C612.228 424.941 612.148 424.752 612.147 424.553C612.145 424.353 612.22 424.159 612.358 424.01C633.148 402.05 667.558 403.51 684.668 429.23C688.908 435.61 691.521 443.647 692.508 453.34C692.531 453.573 692.505 453.808 692.431 454.031C692.357 454.254 692.238 454.46 692.08 454.637C691.922 454.814 691.728 454.958 691.511 455.06C691.294 455.162 691.058 455.22 690.818 455.23L683.548 455.54C683.473 455.543 683.399 455.531 683.329 455.505C683.26 455.479 683.196 455.44 683.142 455.39C683.088 455.34 683.045 455.279 683.015 455.212C682.985 455.145 682.969 455.073 682.968 455Z" fill="#DB866D"/>
<path d="M317.558 483.24L311.778 489.24C311.621 489.399 311.402 489.486 311.17 489.48C310.937 489.474 310.71 489.377 310.538 489.21C279.948 459.68 298.338 409.86 341.398 409.07C341.471 409.069 341.542 409.08 341.61 409.105C341.677 409.129 341.738 409.165 341.791 409.212C341.843 409.258 341.884 409.314 341.913 409.375C341.942 409.437 341.957 409.503 341.958 409.57L342.018 418.03C342.018 418.165 341.96 418.296 341.858 418.394C341.756 418.493 341.616 418.552 341.468 418.56C307.078 420.57 292.038 458.52 317.518 482.49C317.57 482.54 317.613 482.599 317.643 482.664C317.673 482.729 317.691 482.799 317.694 482.868C317.698 482.938 317.688 483.007 317.665 483.07C317.641 483.134 317.605 483.192 317.558 483.24Z" fill="#FF916C"/>
<path d="M343.498 418.12C342.965 415.287 342.921 412.447 343.368 409.6C343.39 409.466 343.46 409.344 343.567 409.257C343.674 409.171 343.809 409.126 343.948 409.13C368.028 410.13 387.628 428.69 388.988 452.56C390.248 474.59 376.738 493.97 355.528 500.12C340.454 504.487 326.164 501.517 312.658 491.21C312.551 491.129 312.462 491.026 312.397 490.908C312.332 490.791 312.294 490.661 312.283 490.528C312.273 490.396 312.291 490.263 312.337 490.139C312.382 490.015 312.454 489.903 312.548 489.81L318.018 484.36C318.199 484.18 318.44 484.071 318.699 484.055C318.958 484.038 319.216 484.115 319.428 484.27C331.195 492.85 343.304 494.747 355.758 489.96C378.708 481.14 386.708 453.54 372.198 433.69C365.631 424.71 356.264 419.693 344.098 418.64C343.952 418.628 343.814 418.571 343.706 418.477C343.597 418.383 343.524 418.258 343.498 418.12Z" fill="#DB866D"/>
<path d="M509.408 420.58L509.908 420.25C510.398 420.37 510.738 419.99 510.768 419.51C510.948 417.164 511.455 414.814 512.288 412.46C512.309 412.399 512.342 412.344 512.385 412.296C512.429 412.248 512.482 412.21 512.542 412.183C512.601 412.156 512.666 412.141 512.733 412.138C512.799 412.136 512.866 412.147 512.928 412.17C554.128 427.68 550.428 488.28 508.218 500.27C477.438 509.01 446.218 483.89 449.278 451.83C450.878 435 460.568 420.87 475.958 413.46C476.161 413.365 476.392 413.351 476.603 413.422C476.814 413.493 476.988 413.643 477.088 413.84L480.748 421.18C480.778 421.238 480.796 421.302 480.801 421.367C480.806 421.433 480.797 421.498 480.776 421.561C480.754 421.623 480.72 421.681 480.676 421.731C480.632 421.78 480.578 421.821 480.518 421.85C459.588 431.91 451.558 458.1 465.758 477.2C482.148 499.25 515.958 497.11 528.488 472.19C536.708 455.82 531.878 433.99 515.558 424.2C513.518 422.974 511.468 421.767 509.408 420.58Z" fill="#DB866D"/>
<path d="M615.098 490.6C596.038 473.61 594.648 445.86 610.358 426.23C610.448 426.116 610.562 426.024 610.692 425.958C610.822 425.892 610.964 425.855 611.111 425.848C611.257 425.842 611.404 425.866 611.541 425.92C611.678 425.973 611.804 426.055 611.908 426.16L617.518 431.7C617.621 431.799 617.686 431.932 617.699 432.074C617.711 432.216 617.672 432.357 617.588 432.47C608.901 444.217 606.855 456.25 611.448 468.57C619.518 490.18 644.338 499.57 664.528 487.84C675.641 481.38 681.835 471.027 683.108 456.78C683.118 456.644 683.181 456.516 683.283 456.423C683.385 456.331 683.519 456.279 683.658 456.28L690.928 456.3C692.201 456.3 692.768 456.93 692.628 458.19C690.755 475.443 683.095 488.04 669.648 495.98C652.068 506.36 630.458 504.3 615.098 490.6Z" fill="#FF916C"/>
<path d="M171.248 464.3C170.248 464.13 169.608 464.43 169.348 463.13C167.378 452.99 170.138 441.87 175.028 432.68C175.148 432.45 175.158 431.93 175.418 432.1C175.473 432.137 175.513 432.196 175.533 432.268C175.553 432.34 175.551 432.421 175.528 432.5C172.518 442.49 170.018 453.74 171.388 464.17C171.39 464.188 171.388 464.207 171.381 464.224C171.374 464.242 171.364 464.257 171.35 464.27C171.337 464.282 171.321 464.292 171.303 464.297C171.285 464.302 171.266 464.303 171.248 464.3Z" fill="#4D5DB5"/>
<path d="M158.969 465.6C158.169 468.75 157.259 466.2 157.019 465.2C154.859 456.067 152.685 446.924 150.499 437.77C150.425 437.437 150.462 437.424 150.609 437.73C153.369 443.46 160.469 459.68 158.969 465.6Z" fill="#4D5DB5"/>
<path d="M136.409 468L130.659 463.26C131.892 455.2 131.535 447.134 129.589 439.06C129.462 438.54 129.545 438.227 129.839 438.12C129.895 438.1 129.955 438.097 130.015 438.111C130.075 438.124 130.133 438.155 130.184 438.201C130.235 438.246 130.278 438.305 130.31 438.372C130.342 438.44 130.362 438.514 130.369 438.59C130.709 443 130.899 446.81 132.419 451.11C134.325 456.53 136.099 461.994 137.739 467.5C137.783 467.654 137.777 467.815 137.721 467.949C137.665 468.084 137.564 468.181 137.439 468.22C137.105 468.327 136.762 468.254 136.409 468Z" fill="#4D5DB5"/>
<path d="M130.658 463.26L136.408 468C133.814 468.406 131.161 468.45 128.448 468.13C128.292 468.112 128.142 468.062 128.007 467.984C127.871 467.906 127.753 467.801 127.659 467.675C127.565 467.55 127.498 467.407 127.462 467.254C127.426 467.102 127.421 466.944 127.448 466.79C127.681 465.463 128.751 464.286 130.658 463.26Z" fill="#FFAF80"/>
<path d="M160.058 483.83C156.558 486.47 152.788 488.824 148.748 490.89C146.688 483.404 146.342 476.047 147.708 468.82C147.733 468.686 147.806 468.566 147.914 468.485C148.022 468.403 148.155 468.366 148.288 468.38C153.108 468.85 157.548 468.99 162.158 466.96C171.208 462.98 175.998 466.86 184.068 470.74C184.215 470.809 184.34 470.913 184.429 471.04C184.517 471.167 184.566 471.313 184.568 471.46L184.658 476.59C184.658 476.735 184.609 476.876 184.519 476.991C184.428 477.107 184.302 477.191 184.158 477.23L160.058 483.83Z" fill="#FFAF80"/>
<path d="M160.058 483.83C159.491 487.563 159.871 491.23 161.198 494.83C161.217 494.878 161.222 494.929 161.213 494.979C161.204 495.03 161.182 495.077 161.149 495.116C161.115 495.156 161.072 495.186 161.022 495.205C160.973 495.223 160.92 495.228 160.868 495.22C156.535 494.533 152.495 493.09 148.748 490.89C152.788 488.823 156.558 486.47 160.058 483.83Z" fill="#FFAF80"/>
<path d="M201.808 544.03L202.628 560.54C202.022 563.447 201.602 566.384 201.368 569.35C200.478 580.51 198.118 591.58 195.908 602.54C194.328 610.37 196.408 619.31 196.348 627.54C196.278 636.79 196.528 643.98 199.618 652.54C204.558 671.86 198.318 693.6 192.958 714.6C192.505 716.38 191.892 721.527 191.118 730.04C185.738 726.38 178.018 721.29 173.938 729.85C173.868 729.997 173.766 730.123 173.644 730.216C173.521 730.309 173.381 730.365 173.238 730.38C171.705 730.56 170.685 729.874 170.178 728.32C171.845 721.934 173.242 715.544 174.368 709.15C175.278 704.01 173.428 697.44 173.368 692.04C173.228 679.434 173.722 666.854 174.848 654.3C174.875 653.973 174.816 653.642 174.678 653.34C172.605 648.887 170.918 644.287 169.618 639.54C167.385 630.987 166.228 623.57 166.148 617.29C166.028 607.76 164.918 595.34 159.408 586.33C159.108 584.804 157.932 583.384 155.878 582.07C155.765 582.001 155.629 581.978 155.497 582.008C155.365 582.038 155.247 582.117 155.168 582.23C139.548 604.88 132.858 627.54 129.578 654.54C126.385 680.754 122.898 706.94 119.118 733.1C115.718 732.78 112.728 731.83 110.148 730.25C110.019 730.171 109.905 730.063 109.814 729.933C109.723 729.802 109.656 729.652 109.618 729.49C108.972 726.704 107.082 724.85 103.948 723.93C104.715 715.904 105.218 707.607 105.458 699.04C105.888 683.74 106.548 668.19 109.108 653.09C109.835 648.817 109.715 644.434 108.748 639.94C109.668 629.02 111.658 618.21 111.698 607.17C111.732 595.17 112.442 583.207 113.828 571.28C114.015 569.674 115.385 566.11 117.938 560.59C119.365 555.637 120.362 550.624 120.928 545.55C123.062 546.17 124.578 546.477 125.478 546.47C139.025 546.43 152.522 547.27 165.968 548.99C168.078 549.26 171.818 549.08 174.468 548.77C183.555 547.704 192.668 546.124 201.808 544.03ZM190.068 655.94C192.595 655.02 194.722 653.464 196.448 651.27C196.888 650.717 196.772 650.55 196.098 650.77C194.558 651.27 186.098 652.32 189.228 655.74C189.332 655.853 189.467 655.932 189.616 655.968C189.766 656.003 189.923 655.994 190.068 655.94Z" fill="#103150"/>
<path d="M117.938 560.59C115.385 566.11 114.015 569.673 113.828 571.28C112.441 583.207 111.731 595.17 111.698 607.17C111.658 618.21 109.668 629.02 108.748 639.94C92.728 639.76 76.628 639.717 60.448 639.81C53.1947 639.85 47.8713 639.416 44.478 638.51C26.948 633.85 15.608 617.44 14.288 599.6C13.888 594.253 13.9047 581.27 14.338 560.65L117.938 560.59Z" fill="#C8CAD7"/>
<path d="M202.628 560.54H773.868C773.902 569.373 773.918 578.207 773.918 587.04C773.918 596.607 773.502 603.24 772.668 606.94C769.438 621.31 758.608 634.36 744.078 638.43C740.832 639.337 736.135 639.79 729.988 639.79C642.462 639.77 554.935 639.783 467.408 639.83L325.828 639.85C325.795 639.85 325.762 639.86 325.734 639.877C325.706 639.895 325.683 639.92 325.668 639.95L325.618 640.04C325.412 639.86 325.175 639.77 324.908 639.77C282.742 639.783 240.592 639.79 198.458 639.79C198.31 639.789 198.164 639.824 198.033 639.893C197.902 639.962 197.789 640.063 197.706 640.185C197.623 640.308 197.572 640.449 197.556 640.597C197.541 640.744 197.562 640.893 197.618 641.03C199.098 644.73 199.765 648.567 199.618 652.54C196.528 643.98 196.278 636.79 196.348 627.54C196.408 619.31 194.328 610.37 195.908 602.54C198.118 591.58 200.478 580.51 201.368 569.35C201.602 566.383 202.022 563.447 202.628 560.54ZM416.648 597.62C416.648 591.616 414.263 585.857 410.017 581.611C405.771 577.365 400.013 574.98 394.008 574.98C388.004 574.98 382.245 577.365 377.999 581.611C373.754 585.857 371.368 591.616 371.368 597.62C371.368 600.593 371.954 603.537 373.092 606.284C374.229 609.031 375.897 611.527 377.999 613.629C380.102 615.731 382.597 617.399 385.344 618.537C388.091 619.674 391.035 620.26 394.008 620.26C396.981 620.26 399.925 619.674 402.672 618.537C405.419 617.399 407.915 615.731 410.017 613.629C412.119 611.527 413.787 609.031 414.925 606.284C416.063 603.537 416.648 600.593 416.648 597.62Z" fill="white"/>
<path d="M394.008 620.26C406.512 620.26 416.648 610.124 416.648 597.62C416.648 585.116 406.512 574.98 394.008 574.98C381.504 574.98 371.368 585.116 371.368 597.62C371.368 610.124 381.504 620.26 394.008 620.26Z" fill="#144162"/>
<path d="M159.408 586.33C153.102 595.13 148.425 604.704 145.378 615.05C142.778 623.9 140.458 631.28 138.408 639.5C136.478 645.86 134.208 652.8 134.488 659.56C135.008 672.06 134.188 684.46 132.028 696.76C130.988 702.68 128.378 709.56 127.168 714.54C125.902 719.747 125.402 725.644 125.668 732.23C125.674 732.403 125.643 732.569 125.578 732.712C125.513 732.854 125.416 732.968 125.298 733.04L124.448 733.54L123.978 731.83C123.965 731.78 123.939 731.734 123.902 731.696C123.865 731.659 123.82 731.632 123.769 731.617C123.718 731.602 123.664 731.6 123.611 731.611C123.559 731.622 123.509 731.646 123.468 731.68C122.062 732.847 120.611 733.32 119.118 733.1C122.898 706.94 126.385 680.754 129.578 654.54C132.858 627.54 139.548 604.88 155.168 582.23C155.247 582.117 155.365 582.038 155.497 582.008C155.629 581.978 155.765 582.001 155.878 582.07C157.932 583.384 159.108 584.804 159.408 586.33Z" fill="#144162"/>
<path d="M159.408 586.33C164.918 595.34 166.028 607.76 166.148 617.29C166.228 623.57 167.385 630.987 169.618 639.54C159.212 639.973 148.808 639.96 138.408 639.5C140.458 631.28 142.778 623.9 145.378 615.05C148.425 604.703 153.102 595.13 159.408 586.33Z" fill="#C8CAD7"/>
<path d="M467.408 639.83L466.618 642.54C430.188 641.26 391.568 642.39 327.408 642.41C327.061 642.41 326.728 642.467 326.408 642.58L325.618 640.04L325.668 639.95C325.683 639.92 325.706 639.895 325.734 639.877C325.762 639.86 325.795 639.85 325.828 639.85L467.408 639.83Z" fill="#B4B5C1"/>
<path d="M466.618 642.54C459.518 672.99 470.658 703.11 495.408 722C494.835 722.207 494.252 722.314 493.658 722.32C428.165 722.527 362.662 722.564 297.148 722.43C322.568 702.77 332.848 673.85 326.408 642.58C326.728 642.467 327.062 642.41 327.408 642.41C391.568 642.39 430.188 641.26 466.618 642.54Z" fill="white"/>
<path d="M189.228 655.74C186.098 652.32 194.558 651.27 196.098 650.77C196.771 650.55 196.888 650.717 196.448 651.27C194.721 653.463 192.595 655.02 190.068 655.94C189.923 655.994 189.766 656.003 189.616 655.968C189.466 655.932 189.331 655.853 189.228 655.74Z" fill="#144162"/>
<path d="M495.408 722L498.698 724.29C498.548 724.64 498.308 724.81 497.908 724.81C433.655 724.783 369.405 724.777 305.158 724.79C303.998 724.79 294.778 725.98 294.618 723.79L297.148 722.43C362.661 722.563 428.165 722.527 493.658 722.32C494.252 722.313 494.835 722.207 495.408 722Z" fill="#B4B5C1"/>
<path d="M294.618 723.79C294.778 725.98 303.998 724.79 305.158 724.79C369.405 724.777 433.655 724.783 497.908 724.81C498.308 724.81 498.548 724.64 498.698 724.29L499.108 724.51C499.468 724.703 499.741 724.8 499.928 724.8C525.648 724.773 551.368 724.78 577.088 724.82C588.448 724.84 588.688 739 583.848 746.08C581.048 747.553 579.318 748.29 578.658 748.29C457.038 748.297 335.418 748.293 213.798 748.28C208.378 748.28 204.878 746.7 202.868 741.79C200.638 730.9 204.208 724.82 215.528 724.81C241.301 724.783 267.075 724.777 292.848 724.79C293.185 724.79 293.503 724.684 293.748 724.49L294.618 723.79Z" fill="#144162"/>
<path d="M119.118 733.1C120.612 733.32 122.062 732.847 123.468 731.68C123.509 731.646 123.559 731.622 123.611 731.611C123.664 731.6 123.718 731.602 123.769 731.617C123.82 731.631 123.865 731.659 123.902 731.696C123.939 731.734 123.965 731.78 123.978 731.83L124.448 733.54C124.435 736.527 125.075 739.36 126.368 742.04C114.282 746.04 102.295 748.457 90.4082 749.29C84.9815 749.67 79.5649 748.74 74.1582 746.5C79.1982 744.51 84.2682 742.8 88.2782 738.93C93.4515 733.93 98.6749 728.93 103.948 723.93C107.082 724.85 108.972 726.704 109.618 729.49C109.656 729.652 109.723 729.802 109.814 729.933C109.905 730.063 110.019 730.171 110.148 730.25C112.728 731.83 115.718 732.78 119.118 733.1Z" fill="#103150"/>
<path d="M191.118 730.04L191.448 731.29C191.578 734.17 191.178 736.87 191.858 739.57C192.678 742.803 193.931 745.877 195.618 748.79C188.738 748.85 181.854 748.913 174.968 748.98C173.441 748.993 171.921 748.5 170.408 747.5L170.968 742.91L170.178 728.32C170.684 729.873 171.704 730.56 173.238 730.38C173.381 730.365 173.521 730.308 173.643 730.216C173.766 730.123 173.867 729.997 173.938 729.85C178.018 721.29 185.738 726.38 191.118 730.04ZM175.578 732.59C180.251 736.323 185.361 736.937 190.908 734.43C191.768 734.037 191.744 733.763 190.838 733.61L176.268 731.04C174.028 730.647 173.798 731.163 175.578 732.59Z" fill="#103150"/>
<path d="M175.578 732.59C173.798 731.163 174.028 730.647 176.268 731.04L190.838 733.61C191.744 733.763 191.768 734.037 190.908 734.43C185.361 736.937 180.251 736.323 175.578 732.59Z" fill="#030009"/>
<path d="M191.448 731.29C191.781 731.357 192.078 731.49 192.338 731.69C192.447 731.775 192.531 731.898 192.58 732.046C192.629 732.193 192.642 732.361 192.618 732.53C192.138 735.837 192.588 739.017 193.968 742.07C194.023 742.193 194.121 742.296 194.248 742.364C194.376 742.432 194.526 742.462 194.678 742.45L202.868 741.79C204.878 746.7 208.378 748.28 213.798 748.28C335.418 748.293 457.038 748.297 578.658 748.29C579.318 748.29 581.048 747.553 583.848 746.08C594.075 747.207 604.321 748.317 614.588 749.41C618.901 749.87 623.098 750.817 627.178 752.25C627.345 752.31 627.495 752.395 627.619 752.498C627.743 752.601 627.838 752.721 627.898 752.85C628.084 753.23 628.144 753.587 628.078 753.92C628.051 754.053 627.977 754.18 627.862 754.29C627.748 754.399 627.598 754.485 627.428 754.54C622.001 756.2 616.158 757.353 609.898 758C595.738 759.447 583.134 760.483 572.088 761.11C486.868 765.93 404.348 766.52 315.908 766.53C248.758 766.55 181.498 764.88 114.418 761.68C96.7579 760.833 79.1512 759.397 61.5979 757.37C57.3379 756.883 53.1745 756 49.1079 754.72C48.9495 754.67 48.8064 754.588 48.69 754.481C48.5736 754.373 48.4872 754.243 48.4379 754.1C47.7379 752.06 49.6379 751.93 51.1079 751.51C57.2345 749.783 63.4879 748.877 69.8679 748.79C68.4879 751.217 68.8745 752.76 71.0279 753.42C80.1179 756.08 88.5179 756.55 97.8579 754.13C104.738 752.343 112.925 750.743 122.418 749.33C125.165 748.917 126.731 747.153 127.118 744.04L127.148 744.25C127.155 744.307 127.187 744.359 127.239 744.396C127.291 744.433 127.358 744.452 127.428 744.45L170.968 742.91L170.408 747.5C169.795 749.573 169.738 751.81 170.238 754.21C170.312 754.574 170.49 754.91 170.75 755.177C171.011 755.445 171.343 755.633 171.708 755.72C176.468 756.83 199.958 760.47 195.618 748.79C193.931 745.877 192.678 742.803 191.858 739.57C191.178 736.87 191.578 734.17 191.448 731.29Z" fill="white"/>
<path d="M126.368 742.04L127.118 744.04C126.731 747.153 125.164 748.917 122.418 749.33C112.924 750.743 104.738 752.343 97.8578 754.13C88.5178 756.55 80.1178 756.08 71.0278 753.42C70.5411 750.627 71.4178 748.43 73.6578 746.83L74.1578 746.5C79.5644 748.74 84.9811 749.67 90.4078 749.29C102.294 748.457 114.281 746.04 126.368 742.04Z" fill="#150C28"/>
<path d="M73.658 746.83C71.418 748.43 70.5414 750.626 71.028 753.42C68.8747 752.76 68.488 751.216 69.868 748.79C70.748 747.403 72.0114 746.75 73.658 746.83Z" fill="#C8CAD7"/>
<path d="M170.408 747.5C171.922 748.5 173.442 748.993 174.968 748.98C181.855 748.913 188.738 748.85 195.618 748.79C199.958 760.47 176.468 756.83 171.708 755.72C171.343 755.633 171.011 755.445 170.751 755.177C170.49 754.91 170.313 754.574 170.238 754.21C169.738 751.81 169.795 749.573 170.408 747.5Z" fill="#150C28"/>
</g>
<defs>
<clipPath id="clip0_188_786">
<rect width="788" height="767" fill="white"/>
</clipPath>
</defs>
</svg>
