<svg width="588" height="274" viewBox="0 0 588 274" fill="none" xmlns="http://www.w3.org/2000/svg">
<path d="M128.537 53.5377C123.344 62.8595 116.806 71.3404 108.922 78.9806C107.65 80.2128 107.903 80.7782 109.683 80.6767C140.297 79.0023 155.051 60.9313 151.905 30.5304C151.877 30.223 151.741 29.9353 151.523 29.717C151.306 29.4987 151.019 29.3634 150.712 29.3343C122.7 26.6378 100.396 41.1424 101.545 71.4781C101.589 72.8989 102.095 73.0873 103.064 72.0435C110.254 64.2874 118.593 57.9667 128.082 53.081C128.746 52.7331 128.899 52.8853 128.537 53.5377Z" stroke="#88615E" stroke-width="2"/>
<path d="M71.7322 57.9737C78.9358 61.5836 85.1702 65.9472 90.4354 71.0648C92.0266 72.6161 92.8004 72.2754 92.7571 70.0428C92.1929 45.9699 74.1623 37.7499 52.8555 38.4023C52.5537 38.4074 52.2651 38.5268 52.0476 38.7366C51.8303 38.9464 51.7003 39.2311 51.6838 39.5331C50.3385 61.8228 60.493 80.9376 85.4016 80.1982C86.1104 80.1692 86.2117 79.901 85.7054 79.3936C79.6301 73.2177 74.7988 66.2445 71.2115 58.4739C70.8932 57.807 71.0668 57.6403 71.7322 57.9737Z" stroke="#8A6967" stroke-width="2"/>
<path d="M91.9573 22.0505L89.0716 26.6171C88.6666 27.255 88.3772 27.1826 88.2036 26.3997C87.4515 23.1668 85.6578 20.6515 82.8227 18.8538C82.2585 18.5059 82.273 18.1797 82.8661 17.8752C85.7446 16.3675 87.6033 14.1204 88.4423 11.134C88.6593 10.3946 88.9414 10.3438 89.2885 10.9817L91.6535 15.3745C91.8184 15.6842 92.0338 15.9554 92.2873 16.172C92.5407 16.3887 92.8269 16.5463 93.129 16.6357C96.7597 17.723 96.8609 19.0568 93.4327 20.6369C92.896 20.8915 92.3801 21.3856 91.9573 22.0505Z" fill="#4D5DB5"/>
<path d="M102.763 128.995L162.583 128.886C162.899 128.886 163.21 128.789 163.476 128.608C163.742 128.426 163.952 128.167 164.079 127.864L213.876 13.4368C214.089 12.9389 214.399 12.4836 214.782 12.1085C215.163 11.7334 215.605 11.4492 216.071 11.2793C216.537 11.1094 217.014 11.0586 217.462 11.1313C217.911 11.204 218.317 11.3979 218.649 11.6972C268.032 56.4505 238.523 133.867 173.171 137.672C173.036 137.678 172.903 137.714 172.784 137.778C172.663 137.84 172.558 137.928 172.476 138.036C172.393 138.143 172.334 138.268 172.305 138.4C172.276 138.533 172.275 138.67 172.303 138.803C175.268 153.561 174.603 166.768 170.307 178.424C165.295 191.972 154.121 205.78 149.304 218.981C143.619 234.58 140.914 250.867 141.189 267.843C141.195 268.215 141.127 268.583 140.99 268.928C140.852 269.271 140.649 269.584 140.39 269.848C140.131 270.111 139.823 270.32 139.483 270.461C139.143 270.602 138.78 270.674 138.412 270.671C116.129 270.454 93.433 269.996 70.7809 270.736C66.9767 270.867 63.1868 270.736 59.4115 270.344C59.1123 270.312 58.8357 270.17 58.6353 269.945C58.4349 269.72 58.3249 269.428 58.3267 269.127L58.1314 240.553C58.1331 240.257 58.0254 239.971 57.8291 239.75C57.6327 239.528 57.3616 239.388 57.0681 239.357C42.7262 237.942 31.118 241.553 31.0529 221.568C31.024 212.856 31.0023 204.135 30.9878 195.408C30.9901 195.106 30.8826 194.815 30.6862 194.589C30.4898 194.365 30.2185 194.223 29.9247 194.19C25.5418 193.799 5.34152 196.908 11.7423 185.731C17.2968 176.032 22.9092 166.362 28.5794 156.721C32.7019 149.698 32.4415 139.89 34.8934 131.822C35.127 131.041 35.6059 130.357 36.2588 129.872C36.9117 129.386 37.7037 129.124 38.5168 129.125L91.6972 129.039C91.8397 129.039 91.9807 129.012 92.1124 128.958C92.2441 128.904 92.3636 128.825 92.4644 128.727C92.5651 128.628 92.645 128.51 92.6996 128.381C92.7541 128.252 92.7821 128.113 92.7821 127.974L92.8038 90.0264C92.8039 89.8874 92.7753 89.7499 92.7195 89.6218C92.6636 89.4938 92.5819 89.3776 92.4787 89.2805C92.3757 89.1832 92.2535 89.1068 92.1193 89.0557C91.985 89.0045 91.8416 88.9797 91.6972 88.9825C68.9366 89.7219 49.2788 81.067 44.3317 56.8853C42.6972 48.8829 42.4948 41.4022 43.7242 34.4435C43.8946 33.4808 44.3688 32.599 45.0763 31.9292C45.7838 31.2593 46.6869 30.8369 47.6515 30.7249C65.0529 28.7025 85.9257 32.2254 95.1905 48.5132C95.8848 49.76 96.5069 49.7237 97.0565 48.4044C106.951 24.4838 133.334 18.1339 156.919 21.5264C157.655 21.6285 158.339 21.9647 158.87 22.4853C159.402 23.0059 159.752 23.6835 159.871 24.4186C166.337 63.8224 144.227 91.3529 103.761 88.7216C103.479 88.7037 103.197 88.7434 102.932 88.8381C102.666 88.9328 102.424 89.0806 102.218 89.2721C102.013 89.4638 101.849 89.6953 101.738 89.9521C101.626 90.209 101.569 90.486 101.57 90.7658L101.678 127.864C101.678 128.164 101.792 128.452 101.996 128.664C102.199 128.876 102.475 128.995 102.763 128.995ZM128.54 53.5365C123.347 62.8583 116.808 71.3393 108.925 78.9793C107.652 80.2116 107.905 80.7771 109.684 80.6756C140.3 79.0012 155.053 60.9302 151.908 30.5292C151.878 30.2218 151.744 29.9342 151.525 29.7158C151.308 29.4976 151.02 29.3621 150.714 29.3332C122.703 26.6367 100.398 41.1413 101.548 71.477C101.591 72.8977 102.097 73.0862 103.067 72.0424C110.255 64.2863 118.594 57.9654 128.084 53.0798C128.749 52.7319 128.901 52.8841 128.54 53.5365ZM71.7356 57.9727C78.9391 61.5825 85.1736 65.9462 90.4388 71.0638C92.0299 72.615 92.8038 72.2743 92.7604 70.0418C92.1963 45.9689 74.1657 37.7489 52.8589 38.4013C52.5571 38.4064 52.2685 38.5258 52.051 38.7356C51.8337 38.9454 51.7036 39.23 51.6872 39.5321C50.3419 61.8218 60.4964 80.9365 85.405 80.1972C86.1137 80.1682 86.215 79.9 85.7088 79.3925C79.6335 73.2167 74.8022 66.2435 71.2149 58.4729C70.8966 57.806 71.0702 57.6393 71.7356 57.9727Z" fill="#FF916C"/>
<path d="M128.082 53.081C118.593 57.9667 110.254 64.2874 103.064 72.0435C102.095 73.0873 101.589 72.8989 101.545 71.4781C100.396 41.1424 122.7 26.6378 150.712 29.3343C151.019 29.3634 151.306 29.4987 151.523 29.717C151.741 29.9353 151.877 30.223 151.905 30.5304C155.051 60.9313 140.297 79.0023 109.683 80.6767C107.903 80.7782 107.65 80.2128 108.922 78.9806C116.806 71.3404 123.344 62.8595 128.537 53.5377C128.899 52.8853 128.746 52.7331 128.082 53.081Z" fill="white"/>
<path d="M71.2115 58.4739C74.7988 66.2445 79.6301 73.2177 85.7054 79.3936C86.2117 79.901 86.1104 80.1692 85.4016 80.1982C60.493 80.9376 50.3385 61.8228 51.6838 39.5331C51.7003 39.2311 51.8303 38.9464 52.0476 38.7366C52.2651 38.5268 52.5537 38.4074 52.8555 38.4023C74.1623 37.7499 92.1929 45.9699 92.7571 70.0428C92.8004 72.2754 92.0266 72.6161 90.4354 71.0648C85.1702 65.9472 78.9358 61.5836 71.7322 57.9737C71.0668 57.6403 70.8932 57.807 71.2115 58.4739Z" fill="white"/>
<path d="M45.7022 88.9182C46.353 89.4111 46.2952 89.8098 45.5285 90.1142C42.6355 91.245 40.5743 93.6008 39.3447 97.1816C39.1278 97.7906 38.9252 97.7833 38.7372 97.1599C37.768 93.9705 35.8442 91.5857 32.9658 90.0055C32.8735 89.9552 32.7959 89.8819 32.7403 89.7925C32.6848 89.7032 32.6533 89.601 32.649 89.4958C32.6446 89.3908 32.6675 89.2863 32.7153 89.1927C32.7633 89.0991 32.8346 89.0194 32.9223 88.9617C35.714 87.1205 37.5584 84.6922 38.4552 81.6767C38.6432 81.0244 38.8964 80.9881 39.2146 81.568C40.6321 84.279 42.7946 86.7291 45.7022 88.9182Z" fill="#4D5DB5"/>
<path d="M153.488 101.139C154.169 101.502 154.161 101.857 153.466 102.205C150.603 103.611 148.607 106.104 147.478 109.685C147.275 110.324 147.044 110.331 146.784 109.707C145.424 106.532 143.356 104.061 140.578 102.292C140.49 102.234 140.419 102.154 140.372 102.061C140.323 101.967 140.3 101.863 140.305 101.758C140.31 101.653 140.341 101.55 140.397 101.461C140.451 101.372 140.529 101.298 140.621 101.248C143.486 99.6534 145.497 97.2613 146.654 94.0719C146.871 93.4775 147.095 93.492 147.327 94.1154C148.382 97.1453 150.436 99.4867 153.488 101.139Z" fill="#4D5DB5"/>
<path d="M270.786 183.642C267.856 183.446 262.888 211.129 255.553 208.454C255.26 208.353 254.982 208.171 254.735 207.925C254.489 207.677 254.28 207.369 254.121 207.019C253.146 204.779 244.119 182.902 243.077 183.816C242.924 183.944 242.798 184.143 242.711 184.397C242.625 184.651 242.579 184.951 242.579 185.272L242.882 206.997C242.883 207.327 242.78 207.649 242.59 207.917C242.399 208.186 242.13 208.39 241.819 208.498C240.359 208.99 238.905 208.998 237.458 208.519C237.168 208.426 236.915 208.233 236.735 207.967C236.557 207.701 236.46 207.377 236.46 207.041L236.373 171.682C236.374 171.302 236.444 170.939 236.58 170.623C236.715 170.306 236.912 170.042 237.154 169.855C238.687 168.681 240.452 168.492 242.448 169.29C243.075 169.541 243.597 170.063 243.903 170.746L256.4 199.146C256.863 200.191 257.318 200.191 257.767 199.146C261.846 189.825 265.947 180.517 270.07 171.225C271.241 168.601 273.446 167.956 276.687 169.29C276.976 169.406 277.224 169.612 277.402 169.883C277.579 170.154 277.678 170.476 277.685 170.812L277.881 206.454C277.88 206.831 277.802 207.191 277.654 207.5C277.505 207.809 277.292 208.056 277.034 208.215C275.472 209.172 273.772 209.179 271.935 208.237C271.677 208.107 271.462 207.887 271.316 207.601C271.169 207.316 271.099 206.977 271.111 206.628L271.588 184.685C271.592 184.419 271.511 184.163 271.362 183.969C271.213 183.775 271.006 183.658 270.786 183.642Z" fill="white"/>
<path d="M298.838 187.142C299.431 188.403 300.017 188.418 300.595 187.185L308.059 171.093C308.38 170.392 308.873 169.853 309.448 169.571C311.154 168.76 312.897 168.687 314.677 169.354C314.806 169.403 314.924 169.48 315.02 169.58C315.117 169.68 315.192 169.801 315.239 169.934C315.286 170.068 315.305 170.211 315.294 170.355C315.283 170.499 315.243 170.639 315.176 170.767C311.791 177.363 308.406 183.938 305.021 190.491C302.288 195.84 303.198 200.755 303.112 206.474C303.112 206.838 303.03 207.188 302.874 207.49C302.718 207.792 302.493 208.033 302.223 208.193C300.791 209.034 299.279 209.163 297.688 208.584C297.395 208.475 297.142 208.266 296.964 207.986C296.785 207.707 296.689 207.368 296.689 207.018C296.624 201.298 297.514 196.362 294.802 191.056C291.46 184.518 288.04 178.03 284.539 171.594C284.38 171.3 284.319 170.967 284.368 170.654C284.415 170.339 284.567 170.064 284.799 169.876C286.246 168.702 287.874 168.498 289.682 169.267C290.311 169.533 290.836 170.052 291.157 170.724L298.838 187.142Z" fill="white"/>
<path d="M357.124 199.602C357.992 199.623 364.263 173.767 364.979 171.006C365.073 170.653 365.233 170.329 365.446 170.058C365.66 169.787 365.923 169.577 366.216 169.44C367.966 168.642 369.622 168.664 371.184 169.505C371.453 169.65 371.66 169.894 371.77 170.195C371.881 170.497 371.889 170.836 371.791 171.157C368.292 182.77 364.884 194.361 361.572 205.929C360.661 209.104 358.267 210.032 354.391 208.713C354.069 208.606 353.78 208.42 353.545 208.175C353.311 207.928 353.139 207.628 353.044 207.299L345.819 180.791C345.749 180.524 345.629 180.283 345.485 180.117C345.34 179.951 345.18 179.874 345.038 179.899C344.062 180.073 337.9 203.254 337.119 205.973C336.237 209.09 333.836 210.011 329.915 208.734C329.601 208.628 329.318 208.445 329.091 208.202C328.863 207.96 328.699 207.665 328.614 207.343L318.242 170.767C318.152 170.462 318.176 170.136 318.309 169.857C318.443 169.578 318.675 169.366 318.958 169.266C320.651 168.671 322.285 168.78 323.862 169.591C324.148 169.736 324.405 169.952 324.615 170.226C324.824 170.5 324.981 170.824 325.077 171.18C326.494 176.355 328.744 185.655 331.825 199.079C332.107 200.275 333.343 200.428 333.713 198.948C336.113 189.642 338.631 180.37 341.263 171.135C341.365 170.787 341.528 170.466 341.741 170.197C341.954 169.928 342.213 169.714 342.5 169.57C344.496 168.599 346.427 168.628 348.293 169.657C348.575 169.815 348.824 170.041 349.025 170.323C349.227 170.603 349.377 170.932 349.465 171.288L356.299 198.666C356.362 198.925 356.477 199.158 356.626 199.327C356.775 199.495 356.95 199.592 357.124 199.602Z" fill="white"/>
<path d="M385.756 203.233L397.581 203.255C397.961 203.261 398.321 203.34 398.628 203.484C398.935 203.628 399.18 203.834 399.338 204.082C400.177 205.386 400.149 206.655 399.252 207.887C399.057 208.148 398.792 208.36 398.478 208.504C398.166 208.648 397.813 208.72 397.451 208.713L379.312 208.517C379.019 208.517 378.737 208.398 378.53 208.186C378.322 207.974 378.205 207.687 378.205 207.386V170.484C378.205 170.176 378.324 169.88 378.535 169.661C378.746 169.442 379.032 169.315 379.334 169.309L397.95 169.135C398.294 169.13 398.627 169.22 398.906 169.395C399.185 169.57 399.396 169.821 399.513 170.114C399.946 171.245 399.954 172.368 399.534 173.484C399.426 173.772 399.221 174.021 398.945 174.196C398.67 174.37 398.338 174.463 397.993 174.463L386.016 174.485C385.849 174.485 385.684 174.514 385.53 174.568C385.376 174.621 385.236 174.7 385.118 174.799C385.002 174.898 384.909 175.017 384.847 175.145C384.785 175.274 384.755 175.412 384.758 175.551L384.845 185.315C384.846 185.442 384.88 185.569 384.945 185.686C385.011 185.803 385.106 185.907 385.225 185.994C385.345 186.082 385.486 186.149 385.64 186.193C385.794 186.237 385.959 186.256 386.125 186.249L396.345 185.945C396.68 185.938 397.01 186.033 397.286 186.221C397.562 186.409 397.772 186.677 397.885 186.989C398.319 188.12 398.326 189.243 397.906 190.359C397.812 190.634 397.61 190.874 397.331 191.044C397.05 191.216 396.706 191.311 396.345 191.316L385.322 191.556C385.18 191.559 385.041 191.589 384.911 191.648C384.782 191.707 384.666 191.792 384.569 191.897C384.471 192.002 384.396 192.126 384.347 192.262C384.297 192.398 384.275 192.542 384.28 192.686L384.628 202.102C384.639 202.406 384.763 202.694 384.973 202.904C385.183 203.115 385.465 203.233 385.756 203.233Z" fill="white"/>
<path d="M415.57 203.626L424.64 203.278C425.014 203.265 425.38 203.324 425.713 203.451C426.046 203.579 426.339 203.771 426.571 204.017C427.641 205.148 427.743 206.402 426.875 207.779C426.689 208.065 426.428 208.299 426.118 208.459C425.806 208.618 425.454 208.699 425.096 208.693L408.584 208.519C408.289 208.518 408.004 208.395 407.794 208.175C407.583 207.956 407.461 207.657 407.456 207.344L407.347 170.855C407.347 170.509 407.441 170.175 407.62 169.895C407.797 169.615 408.05 169.404 408.345 169.289C410.168 168.564 411.794 168.774 413.227 169.92C413.449 170.096 413.632 170.35 413.76 170.663C413.888 170.976 413.958 171.339 413.965 171.724L414.398 202.647C414.401 202.781 414.433 202.913 414.493 203.034C414.554 203.156 414.641 203.266 414.75 203.357C414.859 203.448 414.988 203.519 415.129 203.565C415.27 203.611 415.42 203.632 415.57 203.626Z" fill="white"/>
<path d="M440.528 203.277L450.249 203.255C450.624 203.255 450.978 203.33 451.277 203.472C451.575 203.614 451.804 203.817 451.941 204.059C452.606 205.19 452.809 206.373 452.548 207.605C452.483 207.916 452.305 208.196 452.043 208.394C451.782 208.592 451.454 208.697 451.116 208.692L434.084 208.518C433.789 208.517 433.504 208.394 433.294 208.175C433.083 207.955 432.962 207.656 432.956 207.343L432.869 170.875C432.868 170.536 432.96 170.206 433.135 169.931C433.309 169.656 433.557 169.447 433.846 169.331C435.466 168.708 436.991 168.809 438.424 169.636C438.695 169.795 438.919 170.036 439.075 170.338C439.231 170.64 439.313 170.99 439.313 171.353L439.443 202.102C439.443 202.414 439.558 202.713 439.761 202.933C439.965 203.153 440.24 203.277 440.528 203.277Z" fill="white"/>
<path d="M483.659 196.82L483.725 171.203C483.725 170.841 483.804 170.493 483.957 170.195C484.109 169.897 484.328 169.66 484.592 169.507C486.198 168.565 487.804 168.593 489.409 169.593C489.688 169.766 489.915 170.016 490.072 170.317C490.228 170.618 490.306 170.961 490.299 171.312L489.995 206.736C489.995 207.077 489.906 207.409 489.738 207.695C489.57 207.983 489.328 208.216 489.041 208.368C486.234 209.846 484.093 209.469 482.618 207.237C476.774 198.378 470.973 189.506 465.216 180.619C464.305 179.198 463.856 179.387 463.871 181.185L464.197 206.975C464.197 207.312 464.097 207.639 463.91 207.912C463.724 208.184 463.46 208.39 463.155 208.497C461.695 208.99 460.248 208.998 458.815 208.519C458.52 208.426 458.262 208.23 458.078 207.96C457.895 207.69 457.796 207.36 457.796 207.019L457.904 170.572C457.905 170.243 458.008 169.924 458.196 169.667C458.385 169.411 458.648 169.232 458.946 169.159C461.839 168.463 464.197 169.464 466.019 172.16C471.589 180.452 477.049 188.788 482.401 197.168C483.239 198.487 483.659 198.371 483.659 196.82Z" fill="white"/>
<path d="M505.55 192.576L505.68 202.492C505.682 202.633 505.715 202.771 505.777 202.899C505.837 203.028 505.927 203.144 506.037 203.241C506.148 203.338 506.279 203.414 506.422 203.464C506.566 203.515 506.719 203.539 506.873 203.536L518.503 203.297C518.871 203.291 519.228 203.37 519.537 203.526C519.845 203.683 520.095 203.912 520.26 204.188C520.897 205.29 520.976 206.457 520.499 207.69C520.383 207.988 520.173 208.244 519.898 208.424C519.623 208.603 519.294 208.695 518.958 208.69L500.277 208.516C499.984 208.516 499.702 208.397 499.494 208.185C499.286 207.973 499.17 207.685 499.17 207.386V170.482C499.17 170.174 499.285 169.879 499.493 169.66C499.7 169.44 499.982 169.313 500.277 169.308L518.503 169.069C518.865 169.062 519.217 169.141 519.521 169.297C519.827 169.454 520.073 169.683 520.238 169.96C520.889 171.048 520.976 172.222 520.499 173.483C520.391 173.771 520.188 174.021 519.913 174.199C519.638 174.378 519.306 174.477 518.958 174.483H506.982C506.814 174.484 506.649 174.512 506.495 174.566C506.34 174.62 506.201 174.699 506.084 174.798C505.967 174.898 505.874 175.015 505.812 175.144C505.75 175.273 505.72 175.411 505.723 175.549L505.81 185.313C505.811 185.441 505.845 185.568 505.91 185.684C505.976 185.801 506.071 185.906 506.19 185.993C506.31 186.08 506.451 186.147 506.605 186.192C506.759 186.236 506.924 186.255 507.09 186.249L517.31 185.944C517.645 185.938 517.974 186.037 518.251 186.229C518.527 186.419 518.737 186.692 518.85 187.009C519.284 188.125 519.291 189.241 518.872 190.359C518.77 190.638 518.566 190.88 518.286 191.051C518.006 191.223 517.666 191.314 517.31 191.315L506.699 191.467C506.546 191.467 506.395 191.497 506.254 191.553C506.114 191.608 505.985 191.691 505.878 191.794C505.771 191.897 505.687 192.019 505.631 192.153C505.574 192.288 505.547 192.431 505.55 192.576Z" fill="white"/>
<path d="M537.532 202.579C541.003 204.057 547.404 204.144 548.489 199.426C550.073 192.727 540.049 190.944 535.536 189.901C531.384 188.944 528.933 186.363 528.18 182.159C525.272 165.937 552.611 164.653 554.326 177.788C554.362 178.106 554.291 178.428 554.126 178.7C553.96 178.972 553.711 179.179 553.414 179.289C546.015 182.007 545.039 168.611 535.557 176.635C535.291 176.861 535.076 177.138 534.926 177.449C534.777 177.761 534.696 178.098 534.69 178.44C534.407 189.096 552.025 183.354 554.912 194.989C558.6 209.885 535.752 214.212 527.876 200.512C527.726 200.251 527.68 199.941 527.749 199.65C527.818 199.358 527.995 199.106 528.245 198.947C532.006 196.598 534.646 197.301 536.165 201.056C536.309 201.414 536.504 201.734 536.738 201.995C536.974 202.256 537.243 202.455 537.532 202.579Z" fill="white"/>
<path d="M232.298 241.984H232.167C231.556 241.981 231.059 242.474 231.055 243.088L231.003 253.177C231 253.79 231.492 254.289 232.103 254.292L232.234 254.293C232.845 254.296 233.343 253.802 233.347 253.19L233.399 243.099C233.402 242.487 232.909 241.988 232.298 241.984Z" fill="#C9C9C9" fill-opacity="0.992"/>
<path d="M551.33 254.3C541.589 258.431 538.616 239.251 552.198 242.557C552.431 242.618 552.722 242.615 553.051 242.547C553.381 242.48 553.741 242.349 554.108 242.165C554.469 241.991 554.831 241.955 555.192 242.056C555.435 242.12 555.651 242.298 555.809 242.562C555.965 242.825 556.054 243.16 556.061 243.513C556.104 247.732 557.166 256.343 554.454 259.41C552.415 261.693 544.604 262.215 544.517 257.974C544.502 257.235 544.828 257.105 545.493 257.583C549.009 260.084 556.733 258.475 553.131 254.539C552.934 254.329 552.656 254.193 552.333 254.151C552.011 254.108 551.661 254.159 551.33 254.3ZM549.936 253.027C551.061 252.947 552.106 252.39 552.841 251.476C553.577 250.562 553.943 249.366 553.859 248.152C553.817 247.551 553.666 246.964 553.414 246.423C553.162 245.882 552.814 245.4 552.39 245.003C551.967 244.605 551.475 244.301 550.945 244.107C550.414 243.913 549.854 243.833 549.297 243.872C548.172 243.951 547.126 244.509 546.39 245.423C545.655 246.338 545.289 247.533 545.374 248.747C545.416 249.348 545.567 249.936 545.819 250.476C546.071 251.016 546.419 251.498 546.843 251.897C547.266 252.294 547.757 252.599 548.288 252.793C548.819 252.986 549.378 253.066 549.936 253.027Z" fill="#C9C9C9" fill-opacity="0.992"/>
<path d="M441.163 237.071H440.989C440.377 237.07 439.882 237.566 439.881 238.178L439.854 253.139C439.853 253.752 440.348 254.249 440.959 254.25L441.132 254.251C441.743 254.252 442.24 253.756 442.241 253.144L442.267 238.182C442.268 237.57 441.774 237.072 441.163 237.071Z" fill="#C9C9C9" fill-opacity="0.992"/>
<path d="M404.285 238.619L404.132 238.537C403.594 238.247 402.923 238.448 402.632 238.987L395.526 252.153C395.235 252.692 395.436 253.365 395.973 253.655L396.125 253.738C396.663 254.028 397.336 253.826 397.626 253.287L404.732 240.121C405.023 239.582 404.823 238.91 404.285 238.619Z" fill="#C9C9C9" fill-opacity="0.992"/>
<path d="M452.078 237.067H451.991C451.273 237.068 450.69 237.653 450.692 238.374L450.718 253.118C450.719 253.838 451.302 254.422 452.022 254.421L452.109 254.42C452.828 254.418 453.41 253.834 453.408 253.113L453.382 238.369C453.381 237.649 452.798 237.066 452.078 237.067Z" fill="#C9C9C9" fill-opacity="0.992"/>
<path d="M477.217 242.092C482.569 240.352 485.354 242.664 485.571 249.028C485.701 253.044 484.023 254.871 480.537 254.508L473.551 253.791C473.249 253.754 472.973 253.624 472.773 253.428C472.573 253.231 472.464 252.981 472.466 252.725C472.422 250.942 471.511 236.655 473.724 237.046C473.977 237.087 474.211 237.259 474.39 237.533C474.567 237.806 474.677 238.164 474.7 238.547C474.773 239.663 475.062 240.67 475.568 241.569C475.717 241.821 475.961 242.011 476.261 242.105C476.561 242.2 476.898 242.195 477.217 242.092ZM483.575 247.941C483.575 246.765 483.108 245.636 482.278 244.804C481.448 243.972 480.322 243.505 479.148 243.505C477.974 243.505 476.849 243.972 476.018 244.804C475.189 245.636 474.722 246.765 474.722 247.941C474.722 249.118 475.189 250.245 476.018 251.078C476.849 251.909 477.974 252.377 479.148 252.377C480.322 252.377 481.448 251.909 482.278 251.078C483.108 250.245 483.575 249.118 483.575 247.941Z" fill="#C9C9C9" fill-opacity="0.992"/>
<path d="M395.701 252.726C395.484 251.943 389.886 235.481 393.445 238.351C393.949 238.745 394.324 239.377 394.507 240.134L396.287 247.267C396.428 247.843 396.842 248.437 397.458 248.941C399.194 250.377 400.105 255.27 396.959 254.335C396.696 254.255 396.441 254.065 396.22 253.782C395.999 253.499 395.82 253.135 395.701 252.726Z" fill="#C9C9C9" fill-opacity="0.992"/>
<path d="M402.878 243.006L400.795 240.744C402.683 230.154 406.327 248.246 406.327 248.29C406.906 250.581 407.557 250.594 408.28 248.333C408.411 247.899 411.231 235.329 412.772 238.025C412.888 238.223 412.957 238.466 412.976 238.734C412.995 239.004 412.962 239.296 412.88 239.591C411.723 243.868 410.559 248.159 409.387 252.465C407.174 260.707 403.442 245.05 402.878 243.006Z" fill="#C9C9C9" fill-opacity="0.992"/>
<path d="M253.706 245.268C253.554 246.246 253.641 254.815 251.601 254.249C251.314 254.175 251.059 253.987 250.875 253.717C250.69 253.445 250.587 253.105 250.581 252.748L250.494 245.855C250.488 245.501 250.404 245.159 250.248 244.863C250.093 244.567 249.871 244.325 249.605 244.159C248.042 243.188 246.524 243.158 245.049 244.072C244.715 244.287 244.438 244.555 244.244 244.851C244.051 245.147 243.947 245.463 243.942 245.769L243.768 252.075C243.755 252.513 243.686 252.92 243.569 253.239C243.453 253.559 243.295 253.775 243.117 253.858C242.785 254.002 242.437 254.01 242.076 253.879C241.848 253.795 241.651 253.609 241.51 253.348C241.371 253.088 241.295 252.764 241.295 252.423L241.316 243.506C241.316 243.182 241.417 242.868 241.602 242.616C241.786 242.365 242.045 242.188 242.337 242.115C245.692 241.231 248.968 241.426 252.165 242.702C252.467 242.817 252.792 242.856 253.114 242.819C253.435 242.781 253.742 242.666 254.009 242.485C257.336 240.252 260.055 241.093 262.168 245.007C262.859 246.28 263.132 247.748 262.949 249.204C262.602 252.088 262.073 253.698 261.365 254.032C261.267 254.08 261.159 254.08 261.049 254.033C260.939 253.985 260.831 253.891 260.735 253.758C260.637 253.624 260.553 253.455 260.489 253.265C260.425 253.075 260.383 252.867 260.367 252.662L259.781 245.833C259.755 245.485 259.646 245.149 259.465 244.853C259.284 244.558 259.035 244.312 258.74 244.137C257.553 243.412 256.281 243.289 254.921 243.767C254.605 243.886 254.326 244.088 254.113 244.351C253.9 244.615 253.759 244.931 253.706 245.268Z" fill="#C9C9C9" fill-opacity="0.992"/>
<path d="M271.911 242.07C290.267 238.939 284.43 257.727 275.253 253.682C275.113 253.62 274.964 253.582 274.814 253.572C274.664 253.563 274.516 253.581 274.378 253.625C274.241 253.669 274.117 253.74 274.014 253.832C273.91 253.923 273.83 254.035 273.777 254.16C273.184 255.45 272.995 256.807 273.213 258.227C273.278 258.64 273.273 259.039 273.196 259.379C273.12 259.721 272.975 259.99 272.779 260.162C269.286 263.229 270.739 244.266 270.783 243.374C270.801 243.057 270.922 242.756 271.126 242.519C271.331 242.281 271.608 242.123 271.911 242.07ZM281.805 247.92C281.805 246.742 281.339 245.615 280.508 244.782C279.679 243.951 278.553 243.483 277.379 243.483C276.205 243.483 275.079 243.951 274.249 244.782C273.419 245.615 272.952 246.742 272.952 247.92C272.952 248.502 273.067 249.079 273.289 249.617C273.512 250.155 273.837 250.645 274.249 251.056C274.66 251.468 275.148 251.795 275.684 252.018C276.222 252.24 276.797 252.355 277.379 252.355C278.553 252.355 279.679 251.888 280.508 251.056C281.339 250.224 281.805 249.096 281.805 247.92Z" fill="#C9C9C9" fill-opacity="0.992"/>
<path d="M293.783 245.814C293.292 247.772 293.255 249.744 293.675 251.729C293.759 252.14 293.771 252.538 293.71 252.88C293.649 253.221 293.516 253.493 293.327 253.665C292.98 253.97 292.583 254.049 292.135 253.904C291.867 253.827 291.631 253.63 291.463 253.344C291.294 253.057 291.202 252.695 291.201 252.316L291.223 243.335C291.228 243.032 291.341 242.739 291.538 242.509C291.737 242.278 292.009 242.124 292.308 242.074C298.181 241.059 299.077 241.777 294.998 244.227C294.688 244.42 294.422 244.659 294.213 244.932C294.005 245.204 293.859 245.504 293.783 245.814Z" fill="#C9C9C9" fill-opacity="0.992"/>
<path d="M317.258 247.965C317.258 249.713 316.566 251.389 315.334 252.624C314.1 253.86 312.428 254.554 310.684 254.554C308.941 254.554 307.269 253.86 306.036 252.624C304.803 251.389 304.11 249.713 304.11 247.965C304.11 246.217 304.803 244.542 306.036 243.306C307.269 242.07 308.941 241.376 310.684 241.376C312.428 241.376 314.1 242.07 315.334 243.306C316.566 244.542 317.258 246.217 317.258 247.965ZM315.111 247.965C315.111 246.789 314.645 245.66 313.814 244.828C312.984 243.996 311.858 243.529 310.684 243.529C309.511 243.529 308.385 243.996 307.554 244.828C306.725 245.66 306.259 246.789 306.259 247.965C306.259 249.142 306.725 250.27 307.554 251.102C308.385 251.933 309.511 252.401 310.684 252.401C311.858 252.401 312.984 251.933 313.814 251.102C314.645 250.27 315.111 249.142 315.111 247.965Z" fill="#C9C9C9" fill-opacity="0.992"/>
<path d="M336.793 247.918C336.793 249.667 336.1 251.342 334.867 252.577C333.634 253.813 331.962 254.508 330.219 254.508C328.475 254.508 326.803 253.813 325.569 252.577C324.337 251.342 323.644 249.667 323.644 247.918C323.644 246.171 324.337 244.495 325.569 243.259C326.803 242.024 328.475 241.33 330.219 241.33C331.962 241.33 333.634 242.024 334.867 243.259C336.1 244.495 336.793 246.171 336.793 247.918ZM334.623 247.963C334.623 246.792 334.159 245.668 333.333 244.841C332.507 244.013 331.386 243.548 330.219 243.548C329.05 243.548 327.93 244.013 327.103 244.841C326.278 245.668 325.814 246.792 325.814 247.963C325.814 249.133 326.278 250.256 327.103 251.084C327.93 251.911 329.05 252.377 330.219 252.377C331.386 252.377 332.507 251.911 333.333 251.084C334.159 250.256 334.623 249.133 334.623 247.963Z" fill="#C9C9C9" fill-opacity="0.992"/>
<path d="M350.409 249.289C350.93 248.68 352.84 240.961 354.51 241.722C354.763 241.839 354.948 242.086 355.025 242.414C355.101 242.742 355.065 243.125 354.922 243.484L350.799 253.769C349.787 256.277 348.781 256.255 347.784 253.704L343.727 243.396C343.321 242.338 343.531 241.882 344.356 242.026C345.498 242.244 346.64 244.462 347.784 248.68C348.275 250.536 349.151 250.739 350.409 249.289Z" fill="#C9C9C9" fill-opacity="0.992"/>
<path d="M367.382 254.596C365.724 254.461 364.192 253.626 363.123 252.278C362.054 250.929 361.534 249.178 361.679 247.407C361.752 246.53 361.985 245.676 362.365 244.892C362.745 244.108 363.266 243.41 363.897 242.838C364.529 242.265 365.258 241.83 366.043 241.557C366.829 241.284 367.656 241.179 368.477 241.246C370.134 241.383 371.666 242.217 372.736 243.566C373.805 244.914 374.324 246.666 374.178 248.437C374.107 249.314 373.874 250.168 373.494 250.952C373.113 251.736 372.592 252.434 371.961 253.006C371.33 253.578 370.6 254.013 369.815 254.286C369.029 254.559 368.202 254.665 367.382 254.596ZM365.086 247.357V248.444C362.874 254.728 373.397 253.88 371.509 247.813L370.88 246.269C372.052 242.55 363.719 241.419 365.086 247.357Z" fill="#C9C9C9" fill-opacity="0.992"/>
<path d="M425.981 254.639C424.328 254.509 422.799 253.676 421.73 252.323C420.66 250.971 420.138 249.209 420.278 247.427C420.419 245.645 421.209 243.987 422.477 242.82C423.743 241.651 425.383 241.068 427.036 241.198C428.688 241.329 430.217 242.162 431.286 243.514C432.355 244.866 432.878 246.627 432.737 248.41C432.598 250.193 431.807 251.85 430.54 253.018C429.272 254.187 427.632 254.769 425.981 254.639ZM423.665 246.81L424.208 248.441C421.149 253.942 430.414 254.486 430.544 248.441L429.633 245.178C426.291 241.946 424.302 242.49 423.665 246.81Z" fill="#C9C9C9" fill-opacity="0.992"/>
<path d="M492.922 245.419C493.977 242.142 496.198 240.78 499.583 241.331C507.502 242.636 505.962 255.313 498.173 254.379C493.29 253.813 491.49 249.92 492.922 245.419ZM502.143 247.897V246.267C501.304 243.469 499.481 242.636 496.676 243.766C496.358 243.895 496.085 244.109 495.889 244.383C495.693 244.657 495.581 244.979 495.569 245.31L495.439 250.203C495.425 250.528 495.518 250.851 495.705 251.128C495.892 251.405 496.162 251.621 496.48 251.747C500.791 253.588 502.678 252.305 502.143 247.897Z" fill="#C9C9C9" fill-opacity="0.992"/>
<path d="M530.42 243.748C528.887 243.124 527.513 243.32 526.298 244.335C526.036 244.555 525.822 244.831 525.666 245.149C525.509 245.467 525.414 245.818 525.386 246.184L524.953 252.729C524.926 253.097 524.815 253.439 524.633 253.704C524.453 253.968 524.213 254.138 523.954 254.186C521.915 254.555 522.956 244.487 523.26 243.139C523.323 242.824 523.481 242.534 523.713 242.305C523.944 242.078 524.24 241.921 524.562 241.856C533.11 240.131 536.393 243.741 534.412 252.686C534.333 253.056 534.161 253.388 533.925 253.629C533.689 253.869 533.401 254.005 533.11 254.013C531.873 254.034 532.503 247.032 531.808 245.204C531.678 244.868 531.488 244.566 531.248 244.315C531.01 244.064 530.728 243.871 530.42 243.748Z" fill="#C9C9C9" fill-opacity="0.992"/>
<path d="M514.213 242.049L513.171 242.052C512.812 242.055 512.521 242.348 512.522 242.708L512.559 253.19C512.56 253.549 512.853 253.841 513.212 253.839L514.254 253.836C514.614 253.834 514.904 253.542 514.903 253.181L514.866 242.7C514.865 242.339 514.572 242.048 514.213 242.049Z" fill="#C9C9C9" fill-opacity="0.992"/>
</svg>
